<?xml version="1.0" encoding="utf-8"?>
<!-- Generator: Adobe Illustrator 28.1.0, SVG Export Plug-In . SVG Version: 6.00 Build 0)  -->
<svg version="1.1" id="LOGO1" xmlns="http://www.w3.org/2000/svg" xmlns:xlink="http://www.w3.org/1999/xlink" x="0px" y="0px"
	 viewBox="0 0 538.58 538.58" style="enable-background:new 0 0 538.58 538.58;" xml:space="preserve">
<style type="text/css">
	.st0{display:none;fill-rule:evenodd;clip-rule:evenodd;fill:#6D6E71;}
	.st1{fill-rule:evenodd;clip-rule:evenodd;fill:#2F1A0D;stroke:#FFFFFF;stroke-width:4;}
	.st2{fill-rule:evenodd;clip-rule:evenodd;stroke:#FFFFFF;stroke-width:4;}
	.st3{fill-rule:evenodd;clip-rule:evenodd;fill:#F26522;}
	.st4{display:none;fill-rule:evenodd;clip-rule:evenodd;fill:none;stroke:#000000;stroke-width:0.5;}
	.st5{fill:none;stroke:#F26522;stroke-width:2;}
	.st6{fill:none;stroke:#F26522;}
	.st7{fill-rule:evenodd;clip-rule:evenodd;fill:none;stroke:#F26522;stroke-width:2;}
	.st8{fill:#FFFFFF;stroke:#FFFFFF;}
	.st9{display:none;}
	.st10{display:inline;stroke:#000000;stroke-width:3;}
	.st11{display:inline;}
	.st12{fill:#FFFFFF;}
	.st13{fill-rule:evenodd;clip-rule:evenodd;fill:#F26522;stroke:#F26522;stroke-width:1.0475;stroke-linecap:round;}
	.st14{fill-rule:evenodd;clip-rule:evenodd;fill:#F26522;stroke:#F26522;stroke-width:1.0276;stroke-linecap:round;}
	.st15{fill-rule:evenodd;clip-rule:evenodd;fill:#F26522;stroke:#F26522;stroke-width:1.0238;stroke-linecap:round;}
</style>
<rect y="1" class="st0" width="538.58" height="538.58"/>
<rect class="st1" width="538.58" height="538.58"/>
<rect class="st2" width="538.58" height="538.58"/>
<g id="POT">
	<path class="st3" d="M40.94,293.22c-0.76,0-2.04,1.15-0.74,1.15C40.96,294.37,42.24,293.22,40.94,293.22z"/>
	<path class="st3" d="M36.29,297.98c-0.64,0-2.08,0.97-0.79,0.97C36.15,298.95,37.59,297.98,36.29,297.98z"/>
	<path class="st3" d="M37.6,305.24v0.67c0,0.85,1.94,0.46,1.94-0.22v-0.67C39.54,304.17,37.6,304.56,37.6,305.24z"/>
	<path class="st3" d="M45.58,307.82c-0.85,0-2,1.3-0.7,1.3C45.74,309.11,46.89,307.82,45.58,307.82z"/>
	<path class="st3" d="M40.91,313.8c-0.46-0.02-1.03,0.13-1.26,0.58c-0.21,0.41,0.18,0.73,0.57,0.75c0.11,0,0.05-0.02,0.1,0.01
		c0.14,0.07,0.21,0.17,0.3,0.29c0.23,0.31,0.29,0.76,0.3,1.13c0.02,0.97,1.97,0.63,1.95-0.17C42.85,315.15,42.31,313.86,40.91,313.8
		z"/>
	<path class="st3" d="M47.86,326.06c-0.41,0-2.2,0.8-1.25,0.8C47.02,326.87,48.81,326.06,47.86,326.06z"/>
	<path class="st3" d="M44.13,324.74c-0.5-0.5-2.33,0.23-1.79,0.77c0.52,0.52,1.21,1.09,1.26,1.87c0.04,0.67,1.98,0.26,1.93-0.52
		C45.48,326,44.7,325.32,44.13,324.74z"/>
	<path class="st3" d="M48.93,336.53c-0.79,0-2.03,1.19-0.73,1.19C48.99,337.73,50.24,336.53,48.93,336.53z"/>
	<path class="st3" d="M56.87,337.54c-0.8-2.28-2.42-3.77-4.89-3.83c-1.14-0.03-1.45,1.47-0.15,1.51c1.63,0.04,2.62,1.43,3.11,2.84
		C55.26,338.99,57.19,338.46,56.87,337.54z"/>
	<path class="st3" d="M50.93,343.2c-0.79,0-2.03,1.2-0.72,1.2C51,344.4,52.24,343.2,50.93,343.2z"/>
	<path class="st3" d="M54.94,352.56c0.12,0.01,0.01-0.01-0.03-0.12c-0.03-0.07-0.04-0.16-0.04-0.23c-0.02-0.66-1.95-0.26-1.93,0.52
		c0.02,0.68,0.69,0.94,1.26,0.98c0.43,0.03,1.03-0.16,1.27-0.54C55.73,352.77,55.25,352.58,54.94,352.56z"/>
	<path class="st3" d="M57.99,346.44c-1.09,0-1.49,1.39-0.18,1.39C58.9,347.82,59.3,346.44,57.99,346.44z"/>
	<path class="st3" d="M59.31,359.06c-1.13,0-1.46,1.48-0.15,1.48C60.28,360.54,60.62,359.06,59.31,359.06z"/>
	<path class="st3" d="M65.86,368.06c-0.42,0-2.21,0.82-1.25,0.82C65.03,368.87,66.82,368.06,65.86,368.06z"/>
	<path class="st3" d="M62.66,371.13c-1.08,0-1.5,1.34-0.19,1.34C63.55,372.47,63.98,371.13,62.66,371.13z"/>
	<path class="st3" d="M67.46,362.07c-1.12-1.73-1.88-3.62-1.92-5.7c-0.02-0.91-1.96-0.53-1.94,0.2c0.05,2.32,0.83,4.36,2.08,6.3
		C66.08,363.48,67.94,362.82,67.46,362.07z"/>
	<path class="st3" d="M71.53,384.2c-0.36-0.72-0.73-1.44-1.24-2.06c-0.65-0.78-1.54-1.27-2.48-1.6c-0.71-0.25-2.27,0.77-1.15,1.17
		c1.48,0.52,2.27,1.66,2.94,3.01C69.98,385.47,71.87,384.88,71.53,384.2z"/>
	<path class="st3" d="M68.27,373.9c-0.75,0-2.05,1.13-0.74,1.13C68.28,375.03,69.58,373.9,68.27,373.9z"/>
	<path class="st3" d="M74.26,376.54c-0.78,0-2.04,1.18-0.73,1.18C74.32,377.72,75.57,376.54,74.26,376.54z"/>
	<path class="st3" d="M80.52,384.06c-0.42,0-2.21,0.81-1.25,0.81C79.7,384.87,81.48,384.06,80.52,384.06z"/>
	<path class="st3" d="M77.6,386.72v0.67c0,0.43,1.93,0.12,1.93-0.52v-0.67C79.53,385.77,77.6,386.09,77.6,386.72z"/>
	<path class="st3" d="M85.61,394.57c-0.74,0-2.05,1.12-0.74,1.12C85.6,395.69,86.91,394.57,85.61,394.57z"/>
	<path class="st3" d="M91.58,396.47c-0.46,0-1.03,0.12-1.26,0.57c-0.21,0.4,0.18,0.75,0.57,0.75c0.36,0,0.69-0.14,0.71,0.26
		c0.03,0.47,0.85,0.43,1.13,0.36c0.42-0.11,0.83-0.4,0.8-0.87C93.47,396.57,92.33,396.47,91.58,396.47z"/>
	<path class="st3" d="M88.95,388.62c-0.67,0-2.07,1.02-0.77,1.02C88.85,389.64,90.26,388.62,88.95,388.62z"/>
	<path class="st3" d="M95.87,401.43c-0.37,0-2.19,0.72-1.27,0.72C94.97,402.16,96.79,401.43,95.87,401.43z"/>
	<path class="st3" d="M103.2,409.41c-0.4,0-2.2,0.77-1.26,0.77C102.33,410.18,104.14,409.41,103.2,409.41z"/>
	<path class="st3" d="M104.28,401.93c-0.7,0-2.07,1.06-0.76,1.06C104.22,402.99,105.59,401.93,104.28,401.93z"/>
	<path class="st3" d="M110.52,413.38c-0.43,0-2.21,0.83-1.24,0.83C109.71,414.21,111.49,413.38,110.52,413.38z"/>
	<path class="st3" d="M117.64,422.03c-0.58,0-2.1,0.88-0.81,0.88C117.41,422.9,118.93,422.03,117.64,422.03z"/>
	<path class="st3" d="M112.26,410.56v0.67c0,0.91,1.94,0.54,1.94-0.2v-0.67C114.21,409.45,112.26,409.82,112.26,410.56z"/>
	<path class="st3" d="M122.26,415.87c-0.78,0-2.04,1.19-0.73,1.19C122.32,417.06,123.57,415.87,122.26,415.87z"/>
	<path class="st3" d="M126.12,422.06c-0.42-0.66-2.28,0.02-1.78,0.82c1.19,1.88,1.87,4.12,1.92,6.35c0.02,0.95,1.96,0.59,1.95-0.18
		C128.16,426.55,127.46,424.16,126.12,422.06z"/>
	<path class="st3" d="M131.61,417.26c-0.42-0.03-1.02,0.16-1.28,0.52c-0.27,0.39,0.23,0.54,0.52,0.56c-0.12-0.01,0,0.06,0.04,0.15
		c0.03,0.07,0.04,0.16,0.04,0.23c0.01,0.6,1.95,0.22,1.93-0.52C132.85,417.53,132.18,417.29,131.61,417.26z"/>
	<path class="st3" d="M126.96,411.96c-0.66,0-2.08,1-0.78,1C126.84,412.97,128.26,411.96,126.96,411.96z"/>
	<path class="st3" d="M134.66,427.78c-1.09,0-1.5,1.37-0.18,1.37C135.56,429.15,135.97,427.78,134.66,427.78z"/>
	<path class="st3" d="M141.59,426.53c-0.79,0-2.03,1.21-0.72,1.21C141.67,427.73,142.9,426.53,141.59,426.53z"/>
	<path class="st3" d="M135.99,417.79c-1.08,0-1.5,1.35-0.19,1.35C136.89,419.14,137.31,417.79,135.99,417.79z"/>
	<path class="st3" d="M145.19,433.38c-0.43,0-2.21,0.83-1.24,0.83C144.37,434.21,146.16,433.38,145.19,433.38z"/>
	<path class="st3" d="M136.27,433.22c-0.76,0-2.04,1.15-0.74,1.15C136.29,434.37,137.58,433.22,136.27,433.22z"/>
	<path class="st3" d="M148.93,425.87c-0.78,0-2.04,1.18-0.73,1.18C148.98,427.05,150.24,425.87,148.93,425.87z"/>
	<path class="st3" d="M150,433.12c-1.08,0-1.5,1.35-0.19,1.35C150.89,434.47,151.31,433.12,150,433.12z"/>
	<path class="st3" d="M152.79,438.73c-0.6-0.56-1.41-0.78-2-1.33c-0.34-0.32-0.9-0.24-1.29-0.07c-0.24,0.11-0.84,0.54-0.49,0.86
		c0.6,0.56,1.41,0.78,2,1.33c0.34,0.32,0.9,0.24,1.29,0.07C152.54,439.49,153.14,439.06,152.79,438.73z"/>
	<path class="st3" d="M160.94,435.92c-0.72,0-2.06,1.09-0.75,1.09C160.91,437.01,162.25,435.92,160.94,435.92z"/>
	<path class="st3" d="M156.8,429.44c-0.54-0.58-0.73-1.37-1.63-1.44c-0.46-0.03-0.99,0.08-1.37,0.37c-0.3,0.22-0.25,0.52,0.15,0.55
		c0.2,0.01,0.31,0.22,0.41,0.38c0.19,0.3,0.38,0.59,0.63,0.85C155.39,430.57,157.21,429.88,156.8,429.44z"/>
	<path class="st3" d="M152.65,432.43c-1.1,0-1.48,1.41-0.17,1.41C153.58,433.83,153.96,432.43,152.65,432.43z"/>
	<path class="st3" d="M161.45,441.38c-0.88-0.8-2.07-0.91-3.21-0.91c-0.46,0-1.02,0.12-1.26,0.57c-0.21,0.4,0.18,0.74,0.57,0.74
		c0.66,0,1.6-0.06,2.12,0.42c0.36,0.33,0.88,0.31,1.3,0.11C161.24,442.2,161.82,441.71,161.45,441.38z"/>
	<path class="st3" d="M169.19,446.07c-0.4,0-2.2,0.79-1.25,0.79C168.34,446.86,170.14,446.07,169.19,446.07z"/>
	<path class="st3" d="M175.61,445.25c-0.72,0-2.06,1.1-0.75,1.1C175.58,446.34,176.92,445.25,175.61,445.25z"/>
	<path class="st3" d="M170.25,437.82c-0.84,0-2.01,1.28-0.7,1.28C170.39,439.11,171.56,437.82,170.25,437.82z"/>
	<path class="st3" d="M166.14,435.44c-0.53-0.53-1.22-1.11-1.27-1.9c-0.03-0.52-1.97-0.14-1.93,0.52c0.06,0.86,0.83,1.53,1.4,2.1
		C164.76,436.58,166.57,435.88,166.14,435.44z"/>
	<path class="st3" d="M181.64,450.02h-0.67c-0.42,0-1,0.17-1.29,0.48c-0.31,0.34,0.27,0.4,0.48,0.4h0.67c0.42,0,1-0.17,1.29-0.48
		C182.43,450.08,181.85,450.02,181.64,450.02z"/>
	<path class="st3" d="M181.48,444.81c-0.44-0.43-1-0.68-1.61-0.72c-0.45-0.03-0.99,0.14-1.37,0.37c-0.32,0.2-0.25,0.37,0.11,0.4
		c0.38,0.02,0.79,0.35,1.05,0.61C180,445.8,181.75,445.07,181.48,444.81z"/>
	<path class="st3" d="M173.62,433.28c-0.67,0-2.07,1.03-0.77,1.03C173.52,434.31,174.92,433.28,173.62,433.28z"/>
	<path class="st3" d="M181.87,442.76c-0.37,0-2.19,0.73-1.27,0.73C180.97,443.5,182.79,442.76,181.87,442.76z"/>
	<path class="st3" d="M192.25,453.16c-0.84,0-2.01,1.27-0.7,1.27C192.39,454.43,193.56,453.16,192.25,453.16z"/>
	<path class="st3" d="M187.62,445.29h-0.67c-0.43,0-1.01,0.15-1.28,0.51c-0.28,0.36,0.24,0.5,0.51,0.5h0.67
		c0.43,0,1.01-0.15,1.28-0.51C188.41,445.43,187.89,445.29,187.62,445.29z"/>
	<path class="st3" d="M190.92,441.15c-0.85,0-2,1.3-0.7,1.3C191.07,442.45,192.22,441.15,190.92,441.15z"/>
	<path class="st3" d="M195.32,449.76c-1.1,0-1.49,1.4-0.18,1.4C196.24,451.16,196.63,449.76,195.32,449.76z"/>
	<path class="st3" d="M200.6,451.78c-0.34-0.51-1.14-0.59-1.68-0.61c-0.45-0.01-1.02,0.13-1.27,0.56c-0.23,0.4,0.19,0.68,0.56,0.69
		c0.61,0.01,0.72,0.21,0.72,0.81c0,0.91,1.94,0.55,1.94-0.2C200.87,452.57,200.86,452.17,200.6,451.78z"/>
	<path class="st3" d="M201.59,456.5c-0.83,0-2.01,1.27-0.71,1.27C201.71,457.76,202.89,456.5,201.59,456.5z"/>
	<path class="st3" d="M199.58,447.14c-0.86,0-2,1.31-0.7,1.31C199.75,448.45,200.89,447.14,199.58,447.14z"/>
	<path class="st3" d="M204.65,451.09c-1.1,0-1.49,1.4-0.17,1.4C205.58,452.5,205.97,451.09,204.65,451.09z"/>
	<path class="st3" d="M208.66,459.13c-1.07,0-1.51,1.33-0.2,1.33C209.54,460.46,209.98,459.13,208.66,459.13z"/>
	<path class="st3" d="M207.2,454.76c-0.37,0-2.19,0.74-1.27,0.74C206.31,455.5,208.12,454.76,207.2,454.76z"/>
	<path class="st3" d="M212.79,450.05l-0.67-0.67c-0.34-0.34-0.9-0.29-1.3-0.1c-0.27,0.12-0.82,0.58-0.48,0.92l0.67,0.67
		c0.34,0.34,0.9,0.29,1.3,0.11C212.59,450.85,213.13,450.39,212.79,450.05z"/>
	<path class="st3" d="M216,457.99c-1.16-0.59-2.18-1.41-3.33-2c-0.41-0.21-1-0.05-1.37,0.17c-0.27,0.17-0.57,0.57-0.16,0.78
		c1.16,0.59,2.18,1.41,3.33,2c0.41,0.21,1,0.05,1.37-0.17C216.11,458.6,216.41,458.2,216,457.99z"/>
	<path class="st3" d="M218.53,464.1c-0.37,0-2.19,0.73-1.27,0.73C217.64,464.83,219.45,464.1,218.53,464.1z"/>
	<path class="st3" d="M220,459.79c-1.08,0-1.51,1.34-0.19,1.34C220.88,461.13,221.31,459.79,220,459.79z"/>
	<path class="st3" d="M214.26,451.84c-0.82,0-2.02,1.25-0.71,1.25C214.37,453.09,215.56,451.84,214.26,451.84z"/>
	<path class="st3" d="M223.87,454.1c-0.37,0-2.19,0.74-1.27,0.74C222.97,454.83,224.79,454.1,223.87,454.1z"/>
	<path class="st3" d="M219.19,452.06c-0.42,0-2.21,0.81-1.25,0.81C218.36,452.87,220.15,452.06,219.19,452.06z"/>
	<path class="st3" d="M224.94,457.23c-0.75,0-2.05,1.13-0.74,1.13C224.94,458.36,226.24,457.23,224.94,457.23z"/>
	<path class="st3" d="M227.61,461.9c-0.74,0-2.05,1.12-0.74,1.12C227.6,463.02,228.91,461.9,227.61,461.9z"/>
	<path class="st3" d="M235.31,463.72c-1.13,0-1.46,1.49-0.15,1.49C236.29,465.21,236.62,463.72,235.31,463.72z"/>
	<path class="st3" d="M239.6,465.23c-0.74,0-2.05,1.13-0.74,1.13C239.6,466.36,240.91,465.23,239.6,465.23z"/>
	<path class="st3" d="M249.87,468.76c-0.38,0-2.19,0.74-1.27,0.74C248.98,469.5,250.79,468.76,249.87,468.76z"/>
	<path class="st3" d="M246.97,455.35c-0.59,0-2.1,0.89-0.81,0.89C246.75,456.24,248.26,455.35,246.97,455.35z"/>
	<path class="st3" d="M234.13,454.77c-0.92-0.92-1.85-1.44-3.18-1.47c-0.42-0.01-1.01,0.16-1.28,0.51c-0.28,0.37,0.24,0.49,0.5,0.5
		c0.92,0.02,1.54,0.58,2.15,1.19C232.78,455.94,234.6,455.23,234.13,454.77z"/>
	<path class="st3" d="M242.93,459.21c-0.44-0.01-1.02,0.14-1.27,0.54c-0.23,0.36,0.14,0.58,0.46,0.62c0.12,0.07,0.14,0.2,0.15,0.35
		c0.05,0.69,1.99,0.27,1.93-0.52C244.15,459.55,243.53,459.22,242.93,459.21z"/>
	<path class="st3" d="M244.94,465.22c-0.76,0-2.04,1.15-0.74,1.15C244.96,466.37,246.24,465.22,244.94,465.22z"/>
	<path class="st3" d="M248.94,463.39v1.33c0,0.29,1.93,0.02,1.93-0.52v-1.33C250.87,462.58,248.94,462.85,248.94,463.39z"/>
	<path class="st3" d="M253.57,455.78c-0.47-0.01-1.03,0.12-1.26,0.58c-0.2,0.39,0.16,0.74,0.54,0.77c0.02,0.01,0.06,0.03,0.04,0.01
		c0.04,0.04,0.03,0.2,0.04,0.24c0.03,0.47,0.84,0.46,1.14,0.38c0.44-0.12,0.83-0.42,0.8-0.89
		C254.82,456.22,254.2,455.8,253.57,455.78z"/>
	<path class="st3" d="M273.85,459.38c-0.43,0-2.21,0.82-1.24,0.82C273.04,460.21,274.82,459.38,273.85,459.38z"/>
	<path class="st3" d="M255.98,461.05h-0.67c-0.44,0-1.01,0.33-1.06,0.81c-0.05,0.51,0.5,0.68,0.91,0.68h0.67
		c0.44,0,1.01-0.33,1.06-0.81C256.93,461.22,256.38,461.05,255.98,461.05z"/>
	<path class="st3" d="M258.93,465.2c-0.79,0-2.03,1.2-0.72,1.2C258.99,466.39,260.24,465.2,258.93,465.2z"/>
	<path class="st3" d="M259.19,470.73c-0.41,0-2.2,0.8-1.25,0.8C258.35,471.53,260.15,470.73,259.19,470.73z"/>
	<path class="st3" d="M42.92,118.48c-0.85,0-2.01,1.29-0.7,1.29C43.07,119.78,44.22,118.48,42.92,118.48z"/>
	<path class="st3" d="M51.47,118.12c-0.37-0.4-2.19,0.28-1.81,0.69c0.61,0.67,0.61,1.73,0.61,2.58c0,0.42,1.93,0.11,1.93-0.52
		C52.2,119.91,52.15,118.87,51.47,118.12z"/>
	<path class="st3" d="M42.96,128.65c-0.63,0-2.09,0.96-0.79,0.96C42.8,129.61,44.26,128.65,42.96,128.65z"/>
	<path class="st3" d="M49.63,135.34c-0.6,0-2.1,0.9-0.8,0.9C49.43,136.25,50.93,135.34,49.63,135.34z"/>
	<path class="st3" d="M39.64,138.03c-0.58,0-2.1,0.88-0.81,0.88C39.41,138.9,40.93,138.03,39.64,138.03z"/>
	<path class="st3" d="M44.99,145.42c-0.42,0.04-0.98,0.16-1.29,0.46c-0.59,0.55-1.4,0.77-2,1.33c-0.32,0.3,0.28,0.31,0.45,0.3
		c0.42-0.04,0.98-0.16,1.29-0.46c0.59-0.55,1.4-0.77,2-1.33C45.76,145.42,45.16,145.4,44.99,145.42z"/>
	<path class="st3" d="M42.12,156.72c-0.56-0.61-2.4,0.15-1.78,0.83c1.12,1.2,1.24,2.77,1.25,4.34c0,0.97,1.95,0.64,1.95-0.17
		C43.54,159.92,43.4,158.1,42.12,156.72z"/>
	<path class="st3" d="M38.27,152.06c0,0.69-0.11,1.24-0.59,1.76c-0.32,0.34,0.27,0.47,0.5,0.47c0.45-0.01,0.97-0.16,1.28-0.5
		c0.61-0.66,0.74-1.37,0.74-2.24C40.2,151.05,38.27,151.38,38.27,152.06z"/>
	<path class="st3" d="M35.31,170.38c-1.13,0-1.46,1.49-0.15,1.49C36.29,171.88,36.62,170.38,35.31,170.38z"/>
	<path class="st3" d="M44.78,167.36c-0.3-0.3-0.58-0.62-0.96-0.81c-0.36-0.18-0.78-0.17-1.17-0.17c-0.44,0-1.01,0.34-1.06,0.81
		c-0.05,0.51,0.5,0.68,0.91,0.68c0.03,0,0.09,0.01,0.14,0.02c0.04,0.03,0.11,0.07,0.12,0.08c0.1,0.08,0.19,0.17,0.27,0.26
		c0.36,0.36,0.87,0.39,1.32,0.17C44.65,168.25,45.14,167.72,44.78,167.36z"/>
	<path class="st3" d="M36.79,181.4c-0.22-0.22-0.44-0.44-0.67-0.67c-0.54-0.54-2.38,0.21-1.78,0.8c0.22,0.22,0.44,0.44,0.67,0.67
		C35.55,182.74,37.39,181.99,36.79,181.4z"/>
	<path class="st3" d="M39.59,183.2v2c0,1.01,1.96,0.72,1.96-0.15v-2C41.54,182.04,39.59,182.34,39.59,183.2z"/>
	<path class="st3" d="M40.66,175.1c-1.09,0-1.49,1.39-0.18,1.39C41.57,176.49,41.97,175.1,40.66,175.1z"/>
	<path class="st3" d="M34.81,192.14c-0.31-0.34-2.08,0.37-1.83,0.64c0.52,0.56,0.61,1.21,0.61,1.94c0,0.26,1.93-0.01,1.93-0.52
		C35.53,193.38,35.39,192.76,34.81,192.14z"/>
	<path class="st3" d="M37.19,204.07c-0.4,0-2.2,0.78-1.25,0.78C36.34,204.85,38.14,204.07,37.19,204.07z"/>
	<path class="st3" d="M40.95,193.94h-0.67c-0.43,0-1.01,0.15-1.28,0.52c-0.27,0.37,0.23,0.53,0.51,0.53h0.67
		c0.43,0,1.01-0.15,1.28-0.52C41.73,194.1,41.23,193.94,40.95,193.94z"/>
	<path class="st3" d="M31.53,203.54c-0.28-0.61-2.16,0.02-1.93,0.52c0.6,1.28,0.66,2.61,0.67,4c0,0.51,1.93,0.17,1.93-0.52
		C32.2,206.15,32.13,204.82,31.53,203.54z"/>
	<path class="st3" d="M32.97,214.67c-0.6,0-2.1,0.91-0.8,0.91C32.77,215.59,34.26,214.67,32.97,214.67z"/>
	<path class="st3" d="M37.8,211.17c-0.47-0.15-1.02,0.02-1.37,0.37c-0.22,0.22-0.44,0.45-0.67,0.67c-0.32,0.32-0.17,0.75,0.24,0.88
		c0.47,0.15,1.02-0.02,1.37-0.37c0.22-0.22,0.44-0.45,0.67-0.67C38.35,211.74,38.2,211.3,37.8,211.17z"/>
	<path class="st3" d="M31.6,224.06v4.67c0,0.46,1.93,0.13,1.93-0.52v-4.67C33.53,223.08,31.6,223.4,31.6,224.06z"/>
	<path class="st3" d="M38.52,222.07c-0.41,0-2.2,0.8-1.25,0.8C37.68,222.86,39.48,222.07,38.52,222.07z"/>
	<path class="st3" d="M28.94,236.57c-0.74,0-2.05,1.12-0.74,1.12C28.93,237.69,30.25,236.57,28.94,236.57z"/>
	<path class="st3" d="M33.58,243.16c-0.84,0-2.01,1.28-0.7,1.28C33.73,244.44,34.89,243.16,33.58,243.16z"/>
	<path class="st3" d="M36.27,232.55c-0.76,0-2.04,1.16-0.73,1.16C36.3,233.71,37.57,232.55,36.27,232.55z"/>
	<path class="st3" d="M34.93,253.24v2c0,0.85,1.94,0.46,1.94-0.22v-2C36.87,252.16,34.93,252.56,34.93,253.24z"/>
	<path class="st3" d="M30.52,254.72c-0.42,0-2.21,0.82-1.25,0.82C29.7,255.54,31.48,254.72,30.52,254.72z"/>
	<path class="st3" d="M32.8,248.77c-0.67-0.7-0.6-1.66-0.6-2.57c0-0.49-1.93-0.16-1.93,0.52c0,1.02-0.02,1.98,0.73,2.77
		C31.41,249.92,33.23,249.22,32.8,248.77z"/>
	<path class="st3" d="M33.12,267.03c-0.82-0.86-1.18-2.23-2.55-2.29c-0.47-0.02-1.04,0.12-1.26,0.6c-0.19,0.42,0.17,0.82,0.6,0.84
		c0.27,0.01,0.36,0.2,0.51,0.44c0.29,0.45,0.56,0.88,0.93,1.27c0.35,0.36,0.88,0.37,1.32,0.16
		C32.98,267.9,33.46,267.39,33.12,267.03z"/>
	<path class="st3" d="M36.86,265.06c-0.41,0-2.2,0.8-1.25,0.8C36.02,265.86,37.81,265.06,36.86,265.06z"/>
	<path class="st3" d="M31.6,275.89c-0.76,0-2.04,1.15-0.74,1.15C31.62,277.04,32.91,275.89,31.6,275.89z"/>
	<path class="st3" d="M37.31,275.73c-1.12,0-1.47,1.46-0.16,1.46C38.28,277.2,38.62,275.73,37.31,275.73z"/>
	<path class="st3" d="M33.27,286.72v3c0,0.42,1.93,0.11,1.93-0.52v-3C35.2,285.79,33.27,286.1,33.27,286.72z"/>
</g>
<g id="GRAFICHE">
	<path class="st4" d="M511.43,125.74l4.62,31.79l1.73,26.01l1.73,14.45l2.31,12.72v18.5l-0.58,34.68l-1.73,27.17
		c0,0-16.19,72.26-41.04,95.38c-24.86,23.12-33.53,30.64-33.53,30.64l-17.92,12.14l-26.59,15.03c0,0-41.04,16.18-75.72,24.28
		c-34.68,8.09-32.37,6.94-32.37,6.94l-21.39-1.16l0.58-21.39l18.5-2.31c0,0,38.81-4.39,52.6-8.09c17.2-4.62,37-13.87,37-13.87
		c24.13-10.84,24-12.52,39.88-19.08c15.75-6.5,19.65-9.25,19.65-9.25s9.25-5.2,16.76-13.29c7.51-8.09,13.29-14.45,13.29-14.45
		l9.25-14.45l9.83-18.5l10.4-27.17l4.62-24.28l3.47-26.59l1.16-19.65l-1.73-34.68l-2.31-23.7l-4.62-21.39l-1.73-18.5l-2.89-11.56
		l-2.89-11.56l-0.58-5.78c0,0,9.25-9.83,13.87-4.05C509.7,116.49,511.43,125.74,511.43,125.74z"/>
	<path class="st5" d="M46.61,108.46c18.49,0,38,1,55.37,1c19.83-1.75,41.61,0.67,61.73,0.67c19.03,0,38.06,0,57.09,0
		c36.29,0,72.58-1,108.88-1c54.14,0,111.41,1,165.55,1"/>
	<path class="st6" d="M90.23,149.13c11.91,0,24.48,1,35.67,1c12.77-1.75,26.81,0.67,39.77,0.67c12.26,0,24.52,0,36.77,0
		c23.38,0,46.76-1,70.14-1c34.88,0,71.77,1,106.65,1"/>
	<g id="rigehtte">
	</g>
	<path class="st7" d="M36.37,125.74l-4.62,31.79l-1.73,26.01L28.28,198l-2.31,12.72v18.5l0.58,34.68l1.73,27.17
		c0,0,16.18,72.26,41.04,95.38c24.86,23.12,33.53,30.64,33.53,30.64l17.92,12.14l26.59,15.03c0,0,41.04,16.18,75.72,24.28
		s32.37,6.94,32.37,6.94l21.39-1.16l-0.58-21.39l-18.5-2.31c0,0-38.81-4.39-52.6-8.09c-17.2-4.62-37-13.87-37-13.87
		c-24.13-10.84-24-12.52-39.88-19.08c-15.75-6.5-19.65-9.25-19.65-9.25s-9.25-5.2-16.76-13.29c-7.51-8.09-13.29-14.45-13.29-14.45
		l-9.25-14.45l-9.83-18.5l-10.4-27.17l-4.62-24.28l-3.47-26.59l-1.16-19.65l1.73-34.68l2.31-23.7l4.62-21.39l1.73-18.5l2.89-11.56
		l2.89-11.56l0.58-5.78c0,0-9.25-9.83-13.87-4.05C38.1,116.49,36.37,125.74,36.37,125.74z"/>
</g>
<g id="SCRITTA">
	<g id="Scritta4">
	</g>
	<g>
		<path class="st8" d="M74.11,77.84l-8.92,9.45H53.72l29.18-30.05h13.38l29.31,30.05h-11.85l-9.18-9.45H74.11z M102.28,74.81
			l-8.41-8.65c-1.91-1.96-3.19-3.75-4.46-5.48h-0.25c-1.27,1.78-2.68,3.61-4.33,5.44l-8.41,8.69H102.28z"/>
		<path class="st8" d="M165.24,57.24h11.09v14.49h0.38c2.29-1.16,4.59-2.23,6.75-3.21l26.25-11.28h13.76l-31.1,12.75l33.52,17.3
			h-13.13l-28.29-14.76l-8.16,3.3v11.46h-11.09V57.24z"/>
		<path class="st8" d="M275.22,77.84l-8.92,9.45h-11.47l29.18-30.05h13.38l29.31,30.05h-11.85l-9.18-9.45H275.22z M303.38,74.81
			l-8.41-8.65c-1.91-1.96-3.19-3.75-4.46-5.48h-0.26c-1.27,1.78-2.68,3.61-4.33,5.44l-8.41,8.69H303.38z"/>
		<path class="st8" d="M366.34,57.6c5.35-0.31,12.36-0.58,21.28-0.58c10.96,0,18.99,0.89,24.09,2.5c4.72,1.43,7.52,3.61,7.52,6.29
			c0,2.72-2.29,4.86-6.63,6.42c-5.86,2.18-15.42,3.3-26.25,3.3c-3.31,0-6.37-0.04-8.92-0.27v12.04h-11.09V57.6z M377.43,72.09
			c2.42,0.22,5.48,0.31,9.18,0.31c13.38,0,21.54-2.27,21.54-6.42c0-3.97-8.03-5.88-20.26-5.88c-4.84,0-8.54,0.13-10.45,0.31V72.09z"
			/>
	</g>
	<g id="Scritta2" class="st9">
		<path class="st10" d="M117.42,380.94c-2.38,0.46-4.59,0.8-6.62,1.04c-2.03,0.23-3.89,0.35-5.58,0.35c-2.68,0-4.54-0.26-5.58-0.79
			c-1.04-0.53-1.56-1.53-1.56-3.02c0-0.91,0.26-3.27,0.78-7.08c0.52-3.81,0.78-7.17,0.78-10.1c0-4.85-0.36-8.6-1.08-11.26
			c-0.72-2.66-1.85-4.45-3.38-5.36h3.2c3.07,0,7.8-0.09,14.17-0.26c6.37-0.17,11.19-0.26,14.47-0.26c11.31,0,20.16,0.96,26.55,2.88
			c6.4,1.92,9.59,4.57,9.59,7.94c0,3.9-3.79,7.08-11.38,9.53c-7.59,2.45-17.45,3.68-29.6,3.68c-1.88,0-3.6-0.01-5.13-0.04
			c-1.54-0.03-3.03-0.08-4.46-0.15c0.05,3.33,0.47,6.03,1.27,8.11C114.64,378.25,115.83,379.84,117.42,380.94z M112.73,364.16
			c1.39,0.07,2.84,0.12,4.35,0.16c1.51,0.03,3.16,0.05,4.95,0.05c8.18,0,14.59-0.77,19.23-2.3c4.64-1.53,6.95-3.65,6.95-6.37
			c0-2.45-2.03-4.31-6.1-5.59c-4.07-1.28-10.02-1.92-17.85-1.92c-1.54,0-3.14,0.03-4.8,0.09c-1.66,0.06-3.51,0.17-5.54,0.33
			c-0.4,2.42-0.69,4.75-0.89,7c-0.2,2.25-0.3,4.43-0.3,6.55V364.16z"/>
		<path class="st10" d="M139.06,152.07H98.83c-3.97,3.05-6.73,5.43-8.29,7.17c-1.56,1.74-2.34,3.22-2.34,4.46l-0.08,0.42
			c-1.14,0.05-1.97,0.08-2.49,0.09c-0.52,0.01-1,0.01-1.45,0.01c-3.22,0-5.68-0.23-7.36-0.7c-1.69-0.46-2.53-1.14-2.53-2.04
			c0-0.89,4.81-4.75,14.43-11.58c9.62-6.83,18.02-13.17,25.21-19.04c-0.79-0.4-1.65-0.79-2.57-1.17c-0.92-0.38-1.89-0.76-2.94-1.14
			c1.84-0.81,3.51-1.39,5.02-1.76c1.51-0.37,3.04-0.55,4.57-0.55c2.13,0,4.2,0.49,6.21,1.46c2.01,0.97,4.35,2.62,7.03,4.95
			c2.33,2.01,5.53,4.82,9.59,8.43c13.78,12.24,23.38,19.27,28.78,21.09c-1.88,0.74-3.62,1.26-5.21,1.58
			c-1.59,0.32-3.25,0.47-4.98,0.47c-5.01,0-10.69-3.01-17.03-9.03C140.97,153.86,139.86,152.82,139.06,152.07z M119.87,135.13
			l-3.57,2.94c-5.7,4.73-9.89,8.19-12.57,10.4h31.31c-2.53-2.4-5.06-4.7-7.59-6.92C124.93,139.34,122.4,137.2,119.87,135.13z"/>
		<path class="st10" d="M101.59,220.09c12.79-4.45,22.47-8.04,29.04-10.79c6.57-2.75,10.8-4.96,12.68-6.62
			c3.77,0.35,6.57,0.76,8.41,1.22c1.83,0.46,2.75,1.01,2.75,1.64c0,1.03-7.61,4.09-22.83,9.16c-6.54,2.17-11.73,3.91-15.54,5.23
			c1.98,0.75,4.86,1.82,8.63,3.2c25.24,9.31,40.36,14.02,45.37,14.13c-0.84,1.3-2.07,2.29-3.68,2.98c-1.61,0.69-3.41,1.04-5.39,1.04
			c-1.88,0-3.9-0.25-6.06-0.75c-2.16-0.5-5.07-1.43-8.74-2.8c-0.6-0.23-5.85-2.3-15.77-6.21c-9.92-3.91-19.54-7.42-28.86-10.52v3.83
			c0,4.1,0.3,7.24,0.89,9.44c0.59,2.2,1.56,3.85,2.9,4.97c-2.33,0.53-4.43,0.92-6.29,1.17c-1.86,0.25-3.61,0.38-5.24,0.38
			c-2.48,0-4.28-0.34-5.39-1.01c-1.12-0.67-1.67-1.75-1.67-3.24c0-0.86,0.23-3.27,0.71-7.22c0.47-3.96,0.71-7.48,0.71-10.58
			c0-4.29-0.36-7.5-1.08-9.62c-0.72-2.13-1.9-3.74-3.53-4.84c2.38-0.44,4.58-0.77,6.58-1c2.01-0.23,3.88-0.34,5.62-0.34
			c2.63,0,4.45,0.25,5.47,0.75c1.02,0.5,1.52,1.41,1.52,2.74c0,0.26-0.08,0.93-0.22,2C101.96,212.53,101.64,216.41,101.59,220.09z"
			/>
		<path class="st10" d="M146.59,297.34h-40.24c-3.97,3.05-6.73,5.44-8.29,7.17c-1.56,1.73-2.34,3.22-2.34,4.46l-0.08,0.42
			c-1.14,0.05-1.97,0.08-2.49,0.09c-0.52,0.01-1,0.01-1.45,0.01c-3.22,0-5.68-0.23-7.36-0.7c-1.69-0.46-2.53-1.14-2.53-2.04
			c0-0.89,4.81-4.75,14.43-11.58s18.02-13.17,25.21-19.04c-0.79-0.4-1.65-0.79-2.57-1.17c-0.92-0.38-1.9-0.76-2.94-1.14
			c1.83-0.81,3.51-1.39,5.02-1.76c1.51-0.37,3.04-0.55,4.57-0.55c2.13,0,4.2,0.49,6.21,1.46c2.01,0.97,4.35,2.62,7.03,4.95
			c2.33,2.01,5.53,4.82,9.6,8.43c13.78,12.24,23.38,19.27,28.78,21.08c-1.88,0.74-3.62,1.26-5.21,1.58
			c-1.59,0.32-3.25,0.47-4.98,0.47c-5.01,0-10.69-3.01-17.03-9.03C148.5,299.13,147.39,298.09,146.59,297.34z M127.41,280.4
			l-3.57,2.94c-5.7,4.73-9.89,8.19-12.57,10.4h31.31c-2.53-2.4-5.06-4.7-7.59-6.92C132.46,284.61,129.93,282.46,127.41,280.4z"/>
	</g>
	<g id="Scritta1" class="st9">
		<g class="st11">
			<g>
				<path d="M274.82,119.22c-3.63,8.92-8.52,16.07-17.93,19.75c-0.01,0.01-5.81,0.29-4.62,0.59c-0.85-0.21-1.87-0.69-2.77-0.54
					c-0.42,0.07-0.85,0.19-1.27,0.28c-1.78,0.4-0.87,0.39-1.63-0.44c-0.24-0.26-1,0-1.25,0.09c-1.1,0.4-4.93,0.34-6.23-1.45
					c-0.82-1.12-0.92-1.46-2.16-1.9c-2.17-0.76-2.69-1.1-3.91-3.05c-0.18-0.3-0.79-0.15-1.05-0.07c-0.49,0.14-0.98,0.29-1.47,0.43
					c0.35,0.02,0.7,0.05,1.05,0.07c-0.9-1.33-1.73-2.71-2.78-3.91c-0.35-0.39-1.59-0.78-2.03-0.96c-1.29-0.53-1.6-1.32-2.34-2.48
					c-0.81-1.26-0.7-1.54-2.13-1.54c-3.18,0-3.26,0.3-4.47-2.61c-0.05-0.12-0.23-0.16-0.35-0.16c-1.78,0-1.42-1.51-3-2.26
					c-1.71-0.81-1.24-2.88-1.37-4.61c-0.04-0.52-1.66,0.13-1.84,0.32c-0.64,0.67-1.29,1.35-1.93,2.02c0.62-0.11,1.23-0.21,1.84-0.32
					c-1.89-3.09-4.5-5.74-6.7-8.66c-2.98-3.95-7.01-6.99-9.73-11.19c-1.39-2.14-3.21-0.5-3.68-3.05c-0.06-0.32-0.89-0.12-1.05-0.07
					c-0.75,0.21-1.5,0.42-2.24,0.64c0.35,0.02,0.7,0.05,1.05,0.07c-0.1-0.67-0.21-1.35-0.31-2.02c-0.06-0.38-1.14-0.06-1.31,0.01
					c-0.67,0.26-1.18-0.04-2.35-0.35c-0.51-0.14-1.45,0.09-1.74,0.55c-0.95,1.49-1.77,2.23-1.59,3.94c0.22,2.13,0.43,4.25,0.65,6.38
					c0.29-0.2,0.58-0.39,0.88-0.59c-0.57,0.18-1.13,0.35-1.7,0.53c-0.19,0.06-0.95,0.26-0.88,0.59c0.42,1.81,0.83,3.63,1.25,5.44
					c0.73,3.2-0.88,7.28-1.78,10.33c-0.03,0.07-0.01,0.13,0.05,0.18c3.08,2.43,0.64,6.04,0.64,9.29c0,2.26,0.14,4.3-0.57,6.45
					c-0.62,1.88-0.73,3.62-0.99,5.6c-0.5,3.85-2.46,7.68-4,11.18c0.62-0.17,1.24-0.33,1.86-0.5c-1.9-2-1.01-2.57-0.84-5.08
					c0.08-1.19,1.28-4.08,1.06-4.85c-0.49-1.67-0.69-1.94,0.69-3.1c0.15-0.13,0.09-0.29-0.09-0.33c-3.03-0.75-0.73-3.84,0.09-4.67
					c0.07-0.05,0.09-0.12,0.09-0.2c-0.95-1.74-0.63-2.17,0.3-3.84c-0.62,0.17-1.24,0.33-1.86,0.5c0.21,0.14,0.41,0.28,0.62,0.43
					c0.34,0.24,1.94-0.05,1.87-0.6c-0.23-1.88-1.55-5.21-1-6.97c0.33-1.05,0.66-2.11,0.99-3.16c0.17-0.54-1.37-0.06-1.52,0.01
					c-0.31,0.14-0.62,0.29-0.93,0.43c0.51-0.03,1.02-0.07,1.53-0.1c-1.05-3.25,0.47-5.82,0.14-9.03c-0.24-2.38,0.45-5.96-0.68-8.12
					c-0.74-1.42,0.67-2.29,0.36-3.74c-0.46-2.16-0.88-3.16,0.15-5.13c0.67-1.28,0.28-1.58-0.27-2.95c-0.48-1.19,0-3.49,0-4.79
					c0-1.4-0.3-2.85-0.46-4.24c-0.2-1.79,0.72-2.7,1.69-4.19c0.03-0.07,0.01-0.13-0.05-0.18c-1.74-1.98-0.84-7.26-0.42-9.62
					c0.03-0.07,0.01-0.13-0.05-0.18c-1.41-1.16-0.36-1.83-0.03-2.96c0.34-1.18-0.07-2.04-0.07-3.25c0-3.33,0-6.66,0-9.99
					c0-1.97,0.58-3.96,0.62-5.97c0.02-1.12-0.97-3.08-1.16-4.29c-0.38-2.42,0.18-4.98,0.7-7.33c1.27-5.65,4.09-0.18,4.49,0.57
					c0.48,0.89,0.96,1.77,1.44,2.66c0.59,1.1-0.24,3.92-0.35,5.17c-0.13,1.46,1.08,1.9,0.55,3.73c-0.3,1.02,0.85,2.28,0.43,3.19
					c-1.86,4.08-1.92,5.03-1.2,9.47c0.44,2.73-0.91,4.89-0.8,7.53c0.17,3.93,0.45,6.66-1.08,10.28c-0.03,0.07-0.01,0.13,0.05,0.18
					c1.47,1.78,2.13,3.75,3,5.88c0.93,2.27,5.2,2.61,7.13,3.5c0.52,0.24,1.38-0.02,1.79-0.39c0.31-0.29,0.62-0.57,0.93-0.86
					c-0.6,0.13-1.19,0.26-1.79,0.39c0.54,0.29,1.08,0.57,1.62,0.86c0.49,0.26,1.41-0.02,1.79-0.39c0.98-0.98,1.44-0.58,0.12-0.86
					c1.17,0.24,1.98,0.33,2.81,1.25c0.33,0.37,1.52-0.11,1.79-0.39c1.73-1.84,3.62-4.52,6.92-3.07c0.37,0.16,1.75-0.12,1.75-0.65
					c0-0.5,0-0.99,0-1.49c-0.53,0.23-1.06,0.45-1.59,0.68c0.68,0,1.43,0.09,2.1-0.09c1.84-0.49,1.66-3.22,4.09-3.22
					c1.66,0,1.96-0.71,2.81-2.07c0.18-0.29-1.64-0.17,0.29-0.17c0.28,0,0.56,0.02,0.83-0.03c0.59-0.1,1.06-0.42,1.57-0.71
					c1.45-0.83,2.9-1.67,4.35-2.5c0.64-0.37,1.64-4.5,2.7-3.97c0.35,0.17,1.8,0.03,1.86-0.5c0.1-0.89,0.21-1.77,0.31-2.66
					c-0.53,0.19-1.05,0.39-1.58,0.58c0.36,0,0.72,0,1.08,0c0.35,0,1.48-0.11,1.58-0.58c0.26-1.26-0.49-1.02,0.49-1.32
					c0.49-0.15,1.06-0.27,1.52-0.5c1.04-0.51,1.39-2.83,1.79-3.83c-0.53,0.19-1.05,0.39-1.58,0.58c2.21,0,3.45,0.07,4.07-2.32
					c0.59-2.29,0.99-2.88,2.54-4.44c1.43-1.45,2.25-2.84,2.25-4.78c-0.38,0.22-0.76,0.43-1.14,0.65c0.75-0.14,1.5-0.28,2.24-0.43
					c0.25-0.05,1.07-0.21,1.13-0.55c0.74-4.2,2.97-7.21,4.28-11.23c0.59-1.81,3.62-4.45,3.62-6.12c0-0.46,0-0.92,0-1.38
					c0-4.9,2.72,0.16,3.17,1.05c0.29-0.2,0.58-0.39,0.88-0.59c-0.31,0.07-0.62,0.14-0.93,0.21c-0.25,0.06-0.88,0.25-0.88,0.59
					c0,3.67-2.59,5.91-2.98,9.5c-0.05,0.45-1.38,0.3-1.49,0.84c-0.26,1.27-0.53,2.54-0.79,3.81c-0.58,2.81-1.85,4.55-2.98,7.15
					c-0.81,1.87-2.15,2.75-3.6,4.07c-1.54,1.41-0.88,2.56-0.22,4.45c0.46-0.22,0.92-0.45,1.38-0.67c-1.49,0.13-2.67,0.4-3.97,1.14
					c-1.61,0.92-1.52,2.55-3.28,3.18c-0.21,0.08-0.62,0.23-0.62,0.51c0,1.45-4.04,6.79-5.35,7.76c-3.34,2.46-5.86,5.52-9,6.45
					c-1.23,0.36-2.17,1.64-3.08,2.46c0.03-0.03-3.25,0.58-4.38,1.34c-3.02,2.03-5.23,4.89-8.58,6.53c-2.62,1.28-3.65,1.76-6.29,2.29
					c-0.17,0.03-1.43,0.36-1.08,0.73c1.83,1.9,3.9,3.64,5.12,5.99c0.06,0.12,0.22,0.16,0.35,0.16c2.13,0,2.05,1.25,2.87,3.1
					c0.6,1.37,2.03,2.59,2.98,3.73c1.1,1.33,2.34,2.28,3.69,3.36c0.57,0.46,1.78,1.08,1.97,1.86c0.08,0.3,0.27,2,0.58,2.14
					c5.91,2.67,11.52,7.47,15.55,12.57c0.69,0.87,2.59,0.74,3.46,1.63c1.27,1.3,2.54,2.61,3.81,3.91c1.99,2.04,6.94,2.78,9.65,3.29
					c2.76,0.51,5.82-0.56,8.54-1.01c1.18-0.2,2.4,0.1,3.58-0.09c2.43-0.41,2.11-1.84,4.22-2.9c-0.49,0.06-0.98,0.12-1.47,0.18
					c0.7,0.37,1.41,0.82,2.22,0.82c0.38,0,1.44-0.1,1.58-0.58c0.13-0.46,0.31-2.08,0.98-2.08c0.32,0,1.52-0.11,1.58-0.58
					c0.1-0.82,0.21-1.63,0.31-2.45c0.32-2.49,2.95-2.9,3.79-4.8c0.4-0.9-0.34-1.33,0.87-1.91c0.87-0.41,1.45-1.13,2.07-1.82
					c-0.6,0.13-1.19,0.26-1.79,0.39c0.77,0.64,0.85,1.32,1.03,2.26c0.08,0.45,2.03,0,1.93-0.52c-0.23-1.26-0.19-1.63-1.14-2.42
					c-0.39-0.32-1.5,0.07-1.79,0.39c2.8-3.15-2.76,1.83-2.94,2.24c-0.53,1.2,0.27,1.27-1.04,2.5c-1.98,1.86-2.88,3.86-3.21,6.45
					c0.53-0.19,1.05-0.39,1.58-0.58c-2.38,0-3.47,0.89-4.13,3.24c0.53-0.19,1.05-0.39,1.58-0.58c-1.56,0-1.53-1.08-2.9-0.58
					c-1.51,0.56-2,2.5-3.58,2.5c-3.2,0-6.27,0.68-9.42,1.21c-2.31,0.39-6.48-1.62-9.11-2.76c-2.68-1.17-3.85-4.27-6.59-5.33
					c-2.05-0.8-2.77-1.89-4.13-3.61c-1.09-1.38-2.71-2.29-4.12-3.32c-2.65-1.94-4.42-4.22-7.46-5.59c-2.03-0.92-0.99-2.15-2.29-3.2
					c-1.49-1.2-2.99-2.4-4.48-3.6c-2.56-2.06-4.15-5.22-5.44-8.14c-0.05-0.12-0.23-0.16-0.35-0.16c-2.25,0-5.06-4.31-6.67-5.99
					c-0.36,0.24-0.72,0.48-1.08,0.73c4.85-0.98,9.28-3.03,13.08-6.27c1.57-1.34,2.69-2.87,4.66-3.45c1-0.3,2.16-0.48,3.1-0.95
					c0.81-0.4,1.49-1.28,2.15-1.87c0.46-0.41,1.31-0.63,2.71-1.04c1.65-0.49,2.49-2.5,3.82-3.48c1.6-1.18,3.68-2.21,4.79-3.9
					c0.89-1.34,1.77-2.68,2.66-4.02c0.4-0.6,1.67-0.65,1.97-1.34c0.66-1.5-0.79-1.23,1.17-1.93c2.14-0.77-0.31-2.98,3.96-3.35
					c0.21-0.02,1.53-0.25,1.38-0.67c-1.1-3.17,0.49-4.25,2.66-6.14c1.25-1.09,1.72-3.54,2.63-5c1.51-2.43,0.83-7.37,3.36-8.47
					c0.18-0.08,0.38-0.21,0.4-0.41c0.4-3.7,3.01-6.01,3.01-9.8c-0.29,0.2-0.58,0.39-0.88,0.59c0.31-0.07,0.62-0.14,0.93-0.21
					c0.13-0.03,1.02-0.31,0.88-0.59c-1.98-3.88-6.61-5.86-7.03-0.02c-0.15,2.06-1.6,3.66-2.65,5.41c-1.01,1.68-1.3,5.55-2.92,6.6
					c-0.75,0.49-1.1,1.64-1.39,2.39c-0.09,0.24-1.21,3.85-0.15,3.65c-0.63,0.12-1.26,0.24-1.89,0.36c-0.3,0.06-1.14,0.22-1.14,0.65
					c0,1.68-1.51,3.61-2.85,4.51c-1.18,0.8-1.41,1.81-1.71,3.17c-0.08,0.79-0.23,1.56-0.46,2.32c-0.03,0.12,0.66,0.19-0.67,0.19
					c-0.42,0-1.38,0.1-1.58,0.58c-1.04,2.62-0.49,3.01-2.62,3.66c-0.21,0.06-0.81,0.21-0.87,0.49c-0.1,0.5-0.21,1-0.31,1.49
					c0.53-0.19,1.05-0.39,1.58-0.58c-0.36,0-0.72,0-1.08,0c-0.32,0-1.52,0.11-1.58,0.58c-0.1,0.89-0.21,1.77-0.31,2.66
					c0.62-0.17,1.24-0.33,1.86-0.5c-1.42-0.71-1.97-0.51-3.48,0.24c-0.64,0.32-0.97,1.01-1.32,1.58c-1.21,2-1.18,2.71-3.19,3.87
					c-0.56,0.32-1.12,0.64-1.68,0.96c-0.96,0.55-1.66,0.41-0.36,0.41c-0.59,0-1.22-0.07-1.8,0.09c-1.52,0.41-1.82,1.53-2.57,2.73
					c0.53-0.19,1.05-0.39,1.58-0.58c-0.92,0-1.87,0.02-2.72,0.39c-1.77,0.77-2.75,2.91-3.77,2.91c-0.37,0-1.59,0.13-1.59,0.68
					c0,0.5,0,0.99,0,1.49c0.58-0.22,1.17-0.43,1.75-0.65c-4.56-2.01-7.12,0.64-10.25,3.96c0.6-0.13,1.19-0.26,1.79-0.39
					c-2.19-2.43-4.58-1.52-6.5,0.39c0.6-0.13,1.19-0.26,1.79-0.39c-0.54-0.29-1.08-0.57-1.62-0.86c-0.5-0.26-1.4,0.04-1.79,0.39
					c-0.31,0.29-0.62,0.57-0.93,0.86c0.6-0.13,1.19-0.26,1.79-0.39c-1.48-0.68-6.25-1.48-6.82-2.87c-0.58-1.43-1.17-2.86-1.75-4.29
					c-0.22-0.55-1.54-1.96-1.41-2.29c0.4-0.94,1.34-2.29,1.29-3.32c-0.12-2.73-0.61-5.64-0.01-8.33c0.72-3.22,0.74-4.75,0.21-8.01
					c-0.52-3.24,0.21-4.56,1.58-7.57c0.36-0.78-0.79-2.09-0.52-3c0.52-1.8,0.58-1.82-0.38-3.42c-1.09-1.83,0.75-4.65-0.42-6.82
					c-1.2-2.22-2.31-4.44-5.34-4.03c-3.66,0.49-4.03,2.13-4.42,5.91c-0.32,3.09-0.11,5.79,1.04,8.68c0.71,1.78-0.62,4.11-0.62,5.97
					c0,3.05,0,6.11,0,9.17c0,0.97,0.13,1.87,0.26,2.83c0.01,0.08-0.88,2.85-0.88,3.33c0,1.08,0.66,1.53,0.39,3.01
					c-0.21,1.19,0.06,2.49-0.04,3.73c-0.05,0.56,0.89,3.93,0.76,4.13c-0.46,0.72-1.81,2.06-1.71,2.95c0.3,2.61,0.6,5.13,0.6,7.75
					c0,1.29-0.09,2.28,0.39,3.46c0.64,1.59-1.28,2.35-1.01,3.62c0.29,1.38,0.58,2.75,0.88,4.12c0.32,1.49-1.32,1.53-0.32,3.45
					c0.99,1.89,0.34,5.7,0.51,7.79c0.28,3.53-1.25,5.59-0.14,9.03c0.14,0.44,1.3,0,1.53-0.1c0.31-0.14,0.62-0.29,0.93-0.43
					c-0.51,0-1.01,0-1.52,0.01c-0.39,1.24-0.78,2.48-1.17,3.72c-0.44,1.42,0.97,5.03,1.16,6.6c0.62-0.2,1.25-0.4,1.87-0.6
					c-0.21-0.14-0.41-0.28-0.62-0.43c-0.44-0.3-1.62,0.05-1.86,0.5c-1.32,2.38-0.44,3.62-1.82,5.79c-0.33,0.52-0.13,2.1,0.18,2.48
					c0.87,1.07,1.24,0.71,0.01,1.74c-0.07,0.05-0.09,0.12-0.09,0.2c0.63,2.15,0,5.26-0.52,7.57c-0.62,2.77-0.87,2.64,1.05,4.65
					c0.34,0.35,1.69-0.1,1.86-0.5c3.15-7.13,5.58-15.05,5.58-22.86c0-2.61,1.5-5.14,1-7.6c-0.1-0.5-0.61-1.5-1.03-1.83
					c-1.09-0.86,0.67-5.53,0.9-6.68c0.68-3.44-0.26-6.34-1.03-9.69c-0.29,0.2-0.58,0.39-0.88,0.59c0.57-0.18,1.13-0.35,1.7-0.53
					c0.22-0.07,0.91-0.24,0.88-0.59c-0.19-1.87-0.38-3.73-0.57-5.6c-0.21-2.08,0.35-2.74,1.49-4.53c-0.58,0.18-1.16,0.37-1.74,0.55
					c2.01,0.54,2.73,0.82,4.61,0.07c-0.44,0-0.87,0.01-1.31,0.01c0.1,0.67,0.21,1.35,0.31,2.02c0.05,0.32,0.9,0.12,1.05,0.07
					c0.75-0.21,1.5-0.42,2.24-0.64c-0.35-0.02-0.7-0.05-1.05-0.07c0.1,0.57,0.21,1.14,0.31,1.7c0.02,0.13,0.26,0.16,0.35,0.16
					c2.8,0,4.65,3.71,6.59,5.59c2.34,2.28,5.28,5.25,7.05,7.99c1.75,2.71,4.15,4.72,5.82,7.46c0.29,0.48,1.56-0.02,1.84-0.32
					c0.64-0.67,1.29-1.35,1.93-2.02c-0.62,0.11-1.23,0.21-1.84,0.32c0.1,1.38,0.21,2.77,0.31,4.16c0.02,0.03,0.04,0.05,0.06,0.08
					c1.62,0.77,2.21,1.06,2.8,2.79c0.04,0.13,0.24,0.16,0.35,0.16c1.79,0,1.71,1.04,2.36,2.61c0.05,0.12,0.23,0.16,0.35,0.16
					c1.44,0,2.87,0,4.31,0c0.38,0,1.76,2.75,2.03,3.16c0.43,0.67,1.56,0.85,2.26,1.13c1.73,0.72,2.66,2.79,3.67,4.28
					c0.2,0.29,0.78,0.15,1.05,0.07c0.49-0.14,0.98-0.29,1.47-0.43c-0.35-0.02-0.7-0.05-1.05-0.07c1.23,1.97,1.28,2.27,3.39,3.01
					c2.17,0.77,2.09,2.22,3.79,3.46c0.78,0.57,3.41,0.24,4.52,0.59c0.42,0.13,0.76,0.16,1.19,0.04c0.24-0.07,0.48-0.16,0.71-0.25
					c1.58-0.57,0.12-0.32,0.84,0.47c0.19,0.21,0.78,0.04,1-0.01c2.58-0.58,4.16,0.49,6.79-0.51c1.54-0.58-0.43-0.47,0.9,0.13
					c0.31,0.14,0.51,0.27,0.86,0.24c2.27-0.14,4.96-1.75,6.99-2.73c7.54-3.65,11.63-11.21,14.64-18.62
					C276.89,118.51,275.03,118.71,274.82,119.22z"/>
			</g>
		</g>
		<g class="st11">
			<path class="st12" d="M359.41,102c0,1.05-0.3,1.79-0.9,2.21l-2.11-1.16l-2.37,3.05l-2.75-0.63c-1.11,1.26-2.33,1.89-3.65,1.89
				c-1.03,0-1.69,0.38-1.98,1.16c-1.07-0.77-2.07-1.16-3.01-1.16c-0.9,0-1.47,0.52-1.73,1.57c0.17,0.7,0.49,1.33,0.96,1.89
				l-0.38,2.21l0.38,7.25l1.67,4.1l0.32,3.89l2.88,6.93l-0.45,3.15l1.98,3.04l3.01,8.4c1.58,3.01,2.5,5.15,2.75,6.41l2.37,2
				l0.9,3.36l0.96,1.15l-1.73,2.1l-2.11-2.73h-1.28l-1.73-2.21h-1.28l-1.22-3.68l-1.28-1.05c-1.03-3.36-2.16-6.02-3.39-7.98v-2.1
				l-1.22-1.78l-0.13-3.36l-1.99-3.47l-2.75-10.82l-0.9-1.89l-0.45-5.36c-0.04-0.56-0.6-2.21-1.67-4.93v-4.52h-1.54l-1.73,1.89
				l-2.63-0.84l-1.79,1.89l-0.7-1.05l-1.41,1.47l-0.38-1.47c-0.21,0-0.65,0.21-1.31,0.63c-0.66,0.42-1.38,0.63-2.15,0.63l-1.67-0.21
				h-2.24l-2.24,2.41l-2.37-0.84l-3.27,0.42v1.05l-1.15-1.05l-1.6,1.47l-1.15-1.47h-2.11l-2.11,1.47l-1.73-3.04l-0.9,1.16
				l-1.86-1.16c-1.45,1.05-3.46,4.73-6.02,11.03l-2.11,0.84c-3.5,8.82-5.38,13.27-5.64,13.34l-1.15,1.05l-3.65,7.77h-0.7l-3.14,8.4
				l-3.39,3.46l-2.63-1.16l0.51-1.89v-3.05l0.96-1.89l-0.45-1.47l2.37-0.53l1.6-1.47c1.41-0.98,2.28-2.76,2.63-5.35
				c1.79-0.77,2.84-2.42,3.14-4.94c2.09-1.96,3.5-5.18,4.23-9.66l1.79-1.16l4.23-10.71v-3.04c-0.6-0.77-1.05-1.82-1.34-3.15
				l2.5-3.68v-1.57l3.01,0.52l1.73-1.79l0.38,0.84l1.73-3.78c-0.38-0.14-0.57-0.46-0.57-0.95c0-0.35,0.62-1.19,1.86-2.52l0.51,1.26
				c0.08-1.75,0.53-3.82,1.34-6.2l-0.38-0.42l1.54-0.21l0.51-2.84c1.07-0.21,1.6-0.94,1.6-2.21v-2.52c2.09-2.94,3.14-5.67,3.14-8.19
				v-0.42l1.73-0.42l0.38-3.04l0.9-0.42l1.35-4.51l0.9,1.05l-0.64-2.31c1.28-0.21,1.99-1.57,2.11-4.1l0.9,0.84v-4.3h0.9v-3.04
				c0.17-0.28,0.66-1,1.47-2.15c0.81-1.15,1.32-2.71,1.54-4.67l1.47-2.42l-0.9-3.36c1.19-2.59,2.33-3.89,3.39-3.89h0.26l0.77-1.99
				l0.9,2.2c0.21,0.42,0.6,0.87,1.15,1.36l2.18,1.78l0.26,5.46c0.6,0.84,1.15,2.28,1.67,4.3l1.09,0.63l0.26,4.73l1.03,6.41
				l1.73,4.93l1.15,6.93l0.26,4.52l1.86,4.09l-0.51,1.68l1.41,2.63v3.25l0.32,2.94c0,0.56-0.19,1.29-0.58,2.2
				c1.32,5.11,2.86,7.66,4.61,7.66l2.5-0.84h3.01c0.94,0.42,1.73,0.63,2.37,0.63c1.11,0,1.97-0.42,2.59-1.26
				c0.62-0.84,1.01-1.26,1.19-1.26c0.26,0,1.04,0.63,2.37,1.89L359.41,102z M334.49,96.65c-0.55-2.38-1.26-3.95-2.11-4.73l0.71-3.04
				l-1.73-1.47l-0.51-8.19l-1.6-4.1l-0.26-3.46l-0.9-2.94v-1.16h-0.39l-0.26-4.62c0-0.49-0.23-1.26-0.7-2.31l-0.9-2.31
				c-0.17-0.42-0.52-0.94-1.06-1.57c-0.54-0.63-1.36-1.37-2.47-2.2l-1.47,1.26l-0.9,2.52l-3.14,7.35l-0.77,2.41
				c-0.21,0.7-1.24,2.56-3.07,5.56l-0.51,3.46l-2.75,2.31c-0.64,5.46-1.94,8.61-3.91,9.45l-1.22,6.51l-2.63,1.68v2.21l-0.38,2.73
				c1.54,0.77,2.63,1.51,3.27,2.21l1.6-0.21l2.63,1.05c0.51,0.28,0.9,0.42,1.15,0.42c0.38,0,1-0.14,1.86-0.42
				c0.09-0.14,0.26-0.21,0.51-0.21c0.13,0,0.46,0.14,0.99,0.42c0.54,0.28,1.04,0.42,1.51,0.42l1.73-0.63l5.12-0.63l4.16-0.94
				c2.69,0.63,4.4,0.94,5.12,0.94c2.01,0,3.01-0.73,3.01-2.2c0-0.91-0.38-2.13-1.15-3.68L334.49,96.65z"/>
			<g>
				<path d="M358.44,102.12c-0.28,0.69-0.55,1.37-0.83,2.06c0.56-0.15,1.11-0.3,1.67-0.45c-0.7-0.39-1.41-0.77-2.11-1.16
					c-0.5-0.28-1.34,0.02-1.67,0.45c-0.39,0.51-0.79,1.02-1.18,1.52c-1.2,1.54-1.13,0.69,0.02,0.95c-0.89-0.2-2-0.69-2.93-0.58
					c-1.44,0.17-2.52,1.62-3.91,1.94c-1.64,0.38-1.72,0.38-2.75,1.62c0.56-0.15,1.11-0.3,1.67-0.45c-1.44-0.8-5.08-2.36-6.11,0.14
					c-0.68,1.63,0.58,2.84,0.27,4.63c-0.2,1.16,0.04,2.45,0.11,3.62c0.17,3.26,0.65,5.17,1.88,8.21c0.49,1.2-0.12,2.82,0.38,4.02
					c0.69,1.66,1.38,3.33,2.08,5c1.03,2.48-0.13,4.3,1.36,6.59c1.82,2.8,2.65,6.2,3.77,9.33c1.2,3.34,2.44,6.53,5.11,8.78
					c0.93,0.78,0.4,2.67,1.14,3.57c1.12,1.35,0.28,1.56-0.77,2.85c0.6-0.12,1.2-0.24,1.8-0.35c-0.71-0.91-1.41-1.82-2.11-2.73
					c-0.45-0.58-1.29-0.01-1.89-0.78c-0.38-0.49-0.89-1.61-1.64-1.61c-1.42,0-1.4-1.86-1.82-3.1c-0.48-1.45-1.84-2.79-2.43-4.45
					c-0.63-1.76-2.33-3.88-2.33-5.76c0-1.16-0.02-1.24-0.68-2.21c-0.8-1.17-0.61-2.5-0.66-3.88c-0.07-1.72-2.09-4.08-2.57-5.97
					c-0.73-2.85-1.45-5.71-2.18-8.56c-1.33-5.23-3.01-11.12-3.01-16.55c0-0.33-0.29-0.44-0.59-0.44c-0.72,0-2.1-0.25-2.69,0.39
					c-1.01,1.1-1.79,1.07-0.64,1.44c-0.78-0.25-1.57-0.5-2.35-0.75c-0.4-0.13-1.08,0.06-1.37,0.37c-0.6,0.63-1.2,1.26-1.79,1.89
					c0.56-0.07,1.12-0.14,1.67-0.21c-0.23-0.35-0.47-0.7-0.7-1.05c-0.3-0.45-1.39-0.08-1.67,0.21c-0.47,0.49-0.94,0.98-1.41,1.47
					c0.58-0.03,1.16-0.06,1.74-0.09c-0.13-0.49-0.26-0.98-0.38-1.47c-0.1-0.4-0.82-0.33-1.1-0.24c-1.76,0.57-3.14,0.99-4.97,0.99
					c-0.77,0-2.39-0.31-3.04,0.39c-0.67,0.72-1.34,1.44-2.01,2.16c1.21-0.07,1.25-0.23,0.13-0.47c-0.39-0.14-0.79-0.28-1.18-0.42
					c-1.11-0.39-2.78,0.2-3.9,0.34c-0.29,0.04-1.1,0.25-1.1,0.67c0,0.35,0,0.7,0,1.05c0.62-0.17,1.24-0.33,1.86-0.5
					c-0.38-0.35-0.77-0.7-1.15-1.05c-0.43-0.39-1.3-0.13-1.67,0.21c-0.53,0.49-1.07,0.98-1.6,1.47c0.56-0.07,1.12-0.14,1.67-0.21
					c-2.16-2.75-4.33-1.69-6.88,0.08c0.52,0.01,1.05,0.03,1.57,0.04c-0.58-1.01-1.15-2.03-1.73-3.04c-0.36-0.63-1.52-0.22-1.87,0.23
					c-0.3,0.38-0.6,0.77-0.9,1.16c0.56-0.15,1.11-0.3,1.67-0.45c-0.62-0.39-1.24-0.77-1.86-1.16c-0.44-0.27-1.2,0.01-1.54,0.31
					c-2.77,2.37-4.12,6.41-5.53,9.66c-0.78,1.8-1.39,1.11-2.61,2.21c-1.53,1.39-2.34,5.68-3.15,7.65c-0.72,1.77-1.44,3.54-2.26,5.26
					c-0.35,0.73-1.23,1.04-1.56,1.75c-0.66,1.4-1.32,2.8-1.97,4.2c-0.37,0.8-0.75,1.59-1.12,2.39c-0.71,1.52,0.42,0.52,0.08,0.52
					c-0.48,0-1.15,0.17-1.34,0.68c-1.74,4.65-2.76,7.92-6.2,11.43c1.33-0.09,1.49-0.27,0.47-0.56c-0.37-0.16-1.51-0.38-1.37-0.88
					c0.33-1.22,0.38-2.11,0.38-3.37c0-2.04,1.13-2.54,0.51-4.57c-0.28,0.25-0.56,0.5-0.83,0.75c1.65-0.37,2.6-0.47,3.81-1.59
					c0.86-0.79,1.66-1.49,2.36-2.44c0.97-1.31,0.81-3.02,2.05-4.22c2.03-1.95,2.89-4.86,4.34-7.25c1-1.64,1.47-3.61,1.92-5.45
					c0.46-1.86,0.68-1.38,1.91-2.49c0.85-0.77,1.21-2.87,1.61-3.88c0.92-2.34,1.84-4.68,2.77-7.01c0.56-1.42-1.49-5.98-1.23-6.35
					c1.26-1.85,2.42-2.97,2.42-5.19c-0.52,0.22-1.04,0.43-1.56,0.65c3.36,0.59,3.74,0.82,6.11-1.63c-0.58,0.03-1.16,0.06-1.74,0.09
					c0.13,0.28,0.26,0.56,0.38,0.84c0.27,0.59,1.64,0.27,1.87-0.23c0.7-1.52,1.91-6,2.89-7.1c-0.58,0.03-1.16,0.06-1.74,0.09
					c0.17,0.42,0.34,0.84,0.51,1.26c0.25,0.62,1.87,0.25,1.93-0.38c0.17-1.76,2.07-5.6,0.89-6.88c-0.34,0.31-0.68,0.62-1.03,0.93
					c0.51-0.07,1.03-0.14,1.54-0.21c0.35-0.05,1.02-0.24,1.1-0.66c0.2-1.11,0.09-2.22,1.04-2.8c0.91-0.57,1.08-1.66,1.08-2.63
					c0-2.43,1.39-4.2,2.35-6.38c0.55-1.25,0.69-2.59,0.78-3.94c0.06-0.34-0.07-0.32-0.39,0.08c0.43-0.1,0.85-0.21,1.28-0.31
					c0.27-0.07,0.79-0.28,0.83-0.61c0.35-2.78,1.71-4.89,2.63-7.98c-0.62,0.17-1.24,0.33-1.86,0.5c0.3,0.35,0.6,0.7,0.9,1.05
					c0.38,0.44,2.05,0.04,1.86-0.64c-0.72-2.6,1.15-3.26,1.47-6.26c-0.62,0.17-1.24,0.33-1.86,0.5c0.3,0.28,0.6,0.56,0.9,0.84
					c0.37,0.35,1.86,0.15,1.86-0.5c0-1.43,0-2.87,0-4.3c-0.45,0.23-0.89,0.45-1.34,0.68c0.3,0,0.6,0,0.9,0
					c0.33,0,1.34-0.18,1.34-0.68c0-1.54-0.19-2.74,0.7-4.04c1.43-2.09,1.52-4.5,2.76-6.53c0.36-0.59,1.15-1.36,0.95-2.1
					c-0.37-1.4-1.35-6.18,1.48-6.18c0.49,0,1.15-0.18,1.34-0.68c0.26-0.66,0.51-1.33,0.77-1.99c-0.64,0.13-1.29,0.25-1.93,0.38
					c0.75,1.85,1.31,3.03,2.89,4.32c1.92,1.57,1.45,3.39,1.56,5.8c0.07,1.54,1.09,4.74,2.44,5.52c1.01,0.59,0.45,3.88,0.63,5.01
					c0.33,2.08,0.67,4.15,1,6.23c0.28,1.75,1.46,3.34,1.76,5.1c0.37,2.2,0.73,4.41,1.1,6.61c0.25,1.51-0.25,3.51,0.39,4.9
					c0.46,1.02,0.92,2.04,1.39,3.06c0.38,0.84-0.44,1.93-0.14,2.49c1.15,2.14,1.41,3.3,1.41,5.74c0,4.15-0.59,10.75,3.98,13.07
					c1.35,0.68,2.5-0.66,3.78-0.66c2.19,0,4.17,0.77,6.34,0.48c2.37-0.32,2.07-2.75,4.35-0.66c0.69,0.63,2.86,0.01,3.65-0.04
					c0.96-0.07,1.59-1.19,0.26-1.09c-0.86,0.06-1.72,0.12-2.58,0.19c-0.09,0.01-1.54-1.56-2.03-1.79c-0.39-0.19-1.03-0.08-1.37,0.18
					c-3.21,2.38-6.52,0.97-9.94,2.11c-4.65,1.56-4.5-10.01-4.5-13.16c0-1.85-0.05-2.34-0.91-3.95c-0.72-1.33,0-2.64-0.71-4.22
					c-1.36-2.99-1.2-5.88-1.73-9.08c-1.1-6.61-3.37-12.64-3.74-19.42c-0.12-2.15-0.95-1.35-1.56-3.54
					c-0.64-2.29-1.31-3.64-1.42-6.08c-0.16-3.46-3.01-4.37-4.33-7.63c-0.29-0.71-1.72-0.16-1.93,0.38
					c-0.26,0.66-0.51,1.33-0.77,1.99c0.45-0.23,0.89-0.45,1.34-0.68c-3.9,0-5.15,4.08-4.32,7.19c0.3,1.12-1.45,4.51-1.79,5.78
					c-0.29,1.1-2.47,3.07-2.47,4.19c0,1.01,0,2.03,0,3.04c0.45-0.23,0.89-0.45,1.34-0.68c-0.3,0-0.6,0-0.9,0
					c-0.33,0-1.34,0.18-1.34,0.68c0,1.43,0,2.87,0,4.3c0.62-0.17,1.24-0.33,1.86-0.5c-0.3-0.28-0.6-0.56-0.9-0.84
					c-0.4-0.38-1.79-0.14-1.86,0.5c0.06,1.39-0.45,2.58-1.53,3.57c-0.23,0.09-0.67,0.35-0.58,0.67c0.21,0.77,0.43,1.54,0.64,2.31
					c0.62-0.21,1.24-0.43,1.86-0.64c-0.3-0.35-0.6-0.7-0.9-1.05c-0.42-0.48-1.7-0.06-1.86,0.5c-0.51,1.7-0.74,3.81-1.88,4.52
					c-0.51,0.32-0.43,0.95-0.5,1.49c-0.24,1.88,0.49,1.38-1.14,1.78c-0.23,0.06-0.83,0.29-0.83,0.61c0,4.25-3.14,7-3.14,11.13
					c0,1.73-1.44,1.32-1.66,2.5c-0.13,0.75-0.27,1.5-0.41,2.25c0.1-0.57,0.94-0.36-0.5-0.16c-0.28,0.04-1.47,0.44-1.03,0.93
					c0.55,0.6-0.92,5.24-1.03,6.35c0.64-0.13,1.29-0.25,1.93-0.38c-0.17-0.42-0.34-0.84-0.51-1.26c-0.24-0.59-1.43-0.26-1.74,0.09
					c-2.32,2.63-1.7,4.26-3.13,7.38c0.62-0.08,1.25-0.16,1.87-0.23c-0.13-0.28-0.26-0.56-0.38-0.84c-0.27-0.58-1.4-0.26-1.74,0.09
					c-0.86,0.89-1.97,1.14-0.68,1.37c-0.9-0.16-1.8-0.31-2.7-0.47c-0.37-0.06-1.56,0.08-1.56,0.65c0,2.05-1.16,3.23-2.29,4.9
					c-0.83,1.22,1.14,3.23,1.14,4.57c0,3.92-2.27,7.72-3.69,11.33c-0.6,1.51-0.89,1.09-2.14,2.22c-0.6,0.54-0.67,2.64-0.86,3.41
					c-0.58,2.36-1.7,4.49-3.37,6.25c-2.15,2.27,2.39,1.73-2.96,4.81c-0.62,0.36-0.53,1.32-0.63,1.87c-0.56,3.05-2.86,4.7-5.49,5.28
					c-0.27,0.06-0.95,0.36-0.83,0.75c0.5,1.62-0.51,1.83-0.51,3.22c0,1.8-0.04,3.21-0.51,4.93c-0.04,0.15,0.06,0.3,0.2,0.36
					c0.88,0.39,1.75,0.77,2.63,1.16c0.46,0.2,1.19,0.05,1.54-0.31c1.23-1.25,3.13-2.54,3.76-4.21c0.99-2.65,1.98-5.29,2.97-7.94
					c-0.45,0.23-0.89,0.45-1.34,0.68c0.23,0,0.47,0,0.7,0c0.38,0,1.09-0.13,1.27-0.53c2.1-4.46,4.78-8.34,6.66-12.81
					c1.09-2.58,2.12-5.19,3.16-7.79c0.75-1.87,1.85-1.09,2.73-2.4c1.57-2.35,2.32-5.45,3.7-7.97c0.5-0.92,1.09-1.79,1.79-2.57
					c-1.05-0.02-1.12,0.16-0.21,0.53c0.31,0.19,0.62,0.39,0.93,0.58c0.48,0.3,1.35-0.04,1.67-0.45c0.3-0.38,0.6-0.77,0.9-1.16
					c-0.62,0.08-1.25,0.16-1.87,0.23c0.58,1.01,1.15,2.03,1.73,3.04c0.29,0.5,1.17,0.31,1.57,0.04c1.81-1.26,2.23-2.02,3.88,0.08
					c0.35,0.45,1.35,0.08,1.67-0.21c0.53-0.49,1.07-0.98,1.6-1.47c-0.56,0.07-1.12,0.14-1.67,0.21c0.38,0.35,0.77,0.7,1.15,1.05
					c0.38,0.34,1.86,0.15,1.86-0.5c0.17-0.63-0.08-0.77-0.76-0.43c0.59-0.08,1.18-0.15,1.78-0.23c1.1-0.14,1.83,0.25,2.88,0.62
					c0.47,0.17,1.18,0.08,1.54-0.31c2.1-2.26,1.23-2.29,4.35-1.89c1.89,0.24,2.93-0.7,4.61-1.25c-0.37-0.08-0.73-0.16-1.1-0.24
					c0.13,0.49,0.26,0.98,0.38,1.47c0.16,0.63,1.46,0.2,1.74-0.09c0.47-0.49,0.94-0.98,1.41-1.47c-0.56,0.07-1.12,0.14-1.67,0.21
					c0.23,0.35,0.47,0.7,0.7,1.05c0.3,0.45,1.39,0.08,1.67-0.21c1.02-1.07,1.85-1.07,0.7-1.44c0.79,0.25,1.57,0.5,2.35,0.75
					c0.4,0.13,1.08-0.06,1.37-0.37c1.18-1.29,0.92-1.5,1.72-1.5c-0.39,0-0.2,2.38-0.2,3.18c0,2.51,1.57,4.79,1.78,7.36
					c0.39,4.64,2.03,9.02,3.2,13.58c0.49,1.92,0.87,3.24,1.85,4.95c1.15,2.01,0.48,4.15,1.73,5.99c0.64,0.93,0.54,1.62,0.54,2.73
					c0,1.08,1.85,3.78,2.33,4.99c1.15,2.86,2.59,4.91,3.56,7.85c0.08,0.23,0.38,0.3,0.59,0.3c1.63,0,1.48,1.9,2.8,2.18
					c1.64,0.35,1.99,1.16,3.09,2.58c0.4,0.51,1.49,0.02,1.8-0.35c0.58-0.7,1.15-1.4,1.73-2.1c0.1-0.12,0.09-0.29,0-0.41
					c-1.1-1.32-0.93-3.73-2.1-4.72c-2.49-2.1-3.87-5.45-4.97-8.54c-0.93-2.6-1.87-5.21-2.8-7.81c-0.22-0.63-0.75-1.22-1.11-1.77
					c-1.02-1.57-0.79-2.21-0.52-4.08c0.26-1.82-1.7-4.66-2.39-6.32c-0.78-1.87-0.34-3.92-1.1-5.78c-1.11-2.73-1.4-4.44-1.55-7.4
					c-0.03-0.58-0.5-8.45,2.27-6.91c0.51,0.29,1.33-0.04,1.67-0.45c-0.09,0.11,3.75-1.5,4.19-1.72c0.88-0.45-0.59-0.94,0.92-0.59
					c0.6,0.14,1.19,0.27,1.79,0.41c0.51,0.12,1.17-0.09,1.49-0.51c0.79-1.02,1.58-2.03,2.37-3.05c-0.56,0.15-1.11,0.3-1.67,0.45
					c0.7,0.39,1.41,0.77,2.11,1.16c0.5,0.28,1.34-0.02,1.67-0.45c0.93-1.21,0.69-0.71,0.96-2.35
					C360.5,101.12,358.55,101.45,358.44,102.12z"/>
				<path d="M335.46,96.39c-0.88-3.22-2.16-4.4-1.41-7.63c0.02-0.1,0-0.19-0.07-0.26c-3.16-2.68-0.89-6.25-2.26-9.76
					c-1.31-3.34-2.66-7.68-2.66-11.29c0-0.33-0.29-0.44-0.59-0.44c0.64,0-0.29-5.43-0.75-6.63c-1.05-2.73-2.14-4.35-4.49-6.21
					c-0.47-0.37-1.26-0.14-1.67,0.21c-2.92,2.5-3.97,7.38-5.46,10.87c-1.03,2.42-1.8,4.67-3.16,6.97c-1.21,2.06-0.78,4.35-2.62,5.89
					c-2.75,2.31-1.93,5.99-3.67,9.14c-0.32,0.58-1.69,1.09-1.84,1.93c-0.25,1.35-0.5,2.69-0.75,4.04c-0.52,2.8-1.57,1.7-2.99,3.83
					c-0.5,0.74-0.31,4.1-0.45,5.08c-0.02,0.17,0.05,0.28,0.2,0.36c2.23,1.22,2.71,2.44,5.09,2.12c1.34-0.18,2.75,1.62,4.19,1.42
					c0.81-0.11,1.6-0.24,2.37-0.56c0.2-0.08,2,0.77,2.25,0.78c1.36,0.04,3.12-0.79,4.54-0.96c1.52-0.19,2.97-0.4,4.46-0.74
					c2.58-0.58,4.54,0.26,7.14,0.43c1.7,0.12,3.06-0.51,4.1-1.77c0.45-0.55,0.2-1.67,0.12-2.27c-0.29-2.26-1.1-2.35,0.32-4.26
					c0.53-0.71-1.42-0.57-1.8-0.05c-0.47,0.63-0.94,1.26-1.41,1.89c-0.06,0.09-0.08,0.18-0.06,0.29c0.52,1.16,2.91,5.59-1.65,4.94
					c-1.31-0.19-2.69-0.78-4-0.82c-1.43-0.04-3.06,0.64-4.44,0.95c-1.64,0.37-3.42,0.43-5.09,0.63c-0.6,0.07-1.24,0.4-1.8,0.61
					c-0.2,0.07-1.7-0.9-2.43-0.82c-2.9,0.35-6.69-0.45-8.99-2c-1.63-1.1-0.8-3.03-0.8-4.99c0-0.85,2.44-1.03,2.63-2.03
					c0.32-1.7,0.64-3.4,0.95-5.1c0.29-1.57,1.61-2.27,2.42-3.75c1.42-2.59,0.68-6.09,2.93-7.98c1.46-1.22,1.55-1.3,1.82-3.17
					c0.49-3.33,3.18-7.56,4.59-10.86c1.27-2.99,2.33-7.56,4.83-9.7c-0.56,0.07-1.12,0.14-1.67,0.21c4.37,3.47,5.02,7.64,5.31,12.9
					c0.01,0.24,0.43,0.3,0.59,0.3c-0.84,0,2.5,10.61,2.58,11.88c0.08,1.33-0.42,6.97,0.55,7.79c1.47,1.25,1.64,1.27,1.2,3.18
					c-0.5,2.14,1.28,3.79,1.87,5.94C333.71,97.6,335.64,97.08,335.46,96.39z"/>
			</g>
		</g>
		<g class="st11">
			<path class="st12" d="M156.83,96.21c0,1.05-0.33,1.79-0.97,2.21l-2.29-1.16l-2.57,3.05l-2.98-0.63c-1.2,1.26-2.52,1.89-3.95,1.89
				c-1.11,0-1.83,0.38-2.15,1.16c-1.16-0.77-2.24-1.16-3.26-1.16c-0.97,0-1.6,0.52-1.87,1.57c0.18,0.7,0.53,1.33,1.04,1.89
				l-0.42,2.21l0.42,7.25l1.8,4.1l0.35,3.89l3.12,6.93l-0.48,3.15l2.15,3.04l3.26,8.4c1.71,3.01,2.7,5.15,2.98,6.41l2.57,2
				l0.97,3.36l1.04,1.15l-1.87,2.1l-2.29-2.73h-1.39l-1.87-2.21h-1.39l-1.32-3.68l-1.39-1.05c-1.11-3.36-2.33-6.02-3.67-7.98v-2.1
				l-1.32-1.78l-0.14-3.36l-2.15-3.47l-2.98-10.82l-0.97-1.89l-0.49-5.36c-0.05-0.56-0.65-2.21-1.8-4.93v-4.52h-1.66l-1.87,1.89
				l-2.84-0.84l-1.94,1.89l-0.76-1.05l-1.53,1.47l-0.42-1.47c-0.23,0-0.71,0.21-1.42,0.63c-0.72,0.42-1.49,0.63-2.32,0.63l-1.8-0.21
				h-2.43l-2.43,2.41l-2.57-0.84l-3.54,0.42v1.05l-1.25-1.05l-1.73,1.47l-1.25-1.47H96.5l-2.29,1.47l-1.87-3.04l-0.97,1.16
				l-2.01-1.16c-1.57,1.05-3.75,4.73-6.52,11.03l-2.29,0.84c-3.79,8.82-5.82,13.27-6.1,13.34l-1.25,1.05l-3.95,7.77h-0.76l-3.4,8.4
				l-3.67,3.46l-2.84-1.16l0.56-1.89v-3.04l1.04-1.89l-0.49-1.47l2.57-0.53l1.73-1.47c1.53-0.98,2.47-2.76,2.84-5.35
				c1.94-0.77,3.07-2.42,3.4-4.94c2.26-1.96,3.79-5.18,4.58-9.66l1.94-1.16l4.58-10.71v-3.05c-0.65-0.77-1.13-1.82-1.46-3.15
				l2.7-3.68v-1.57l3.26,0.52l1.87-1.79l0.42,0.84l1.87-3.78c-0.42-0.14-0.62-0.46-0.62-0.95c0-0.35,0.67-1.19,2.01-2.52l0.56,1.26
				c0.09-1.75,0.58-3.82,1.46-6.2l-0.42-0.42l1.66-0.21l0.56-2.84c1.15-0.21,1.73-0.94,1.73-2.21v-2.52c2.26-2.94,3.4-5.67,3.4-8.19
				v-0.42l1.87-0.42l0.42-3.04l0.97-0.42l1.46-4.51l0.97,1.05l-0.69-2.31c1.39-0.21,2.15-1.57,2.29-4.1l0.97,0.84v-4.3h0.97v-3.04
				c0.19-0.28,0.72-1,1.6-2.15c0.88-1.15,1.43-2.71,1.66-4.67l1.6-2.42l-0.97-3.36c1.29-2.59,2.52-3.89,3.67-3.89h0.28l0.83-1.99
				l0.97,2.21c0.23,0.42,0.65,0.87,1.25,1.36l2.36,1.78l0.28,5.46c0.65,0.84,1.25,2.28,1.8,4.3l1.18,0.63l0.28,4.73l1.11,6.41
				l1.87,4.93l1.25,6.93l0.28,4.52l2.01,4.09l-0.56,1.68l1.53,2.63v3.25l0.35,2.94c0,0.56-0.21,1.29-0.62,2.2
				c1.43,5.11,3.1,7.66,4.99,7.66l2.71-0.84h3.26c1.02,0.42,1.87,0.63,2.57,0.63c1.2,0,2.14-0.42,2.81-1.26
				c0.67-0.84,1.1-1.26,1.28-1.26c0.28,0,1.13,0.63,2.56,1.89L156.83,96.21z M129.85,90.86c-0.6-2.38-1.36-3.95-2.29-4.73l0.76-3.04
				l-1.87-1.47l-0.55-8.19l-1.73-4.1l-0.28-3.46l-0.97-2.94v-1.16h-0.42l-0.28-4.62c0-0.49-0.25-1.26-0.76-2.31l-0.97-2.31
				c-0.18-0.42-0.57-0.94-1.14-1.57c-0.58-0.63-1.47-1.37-2.67-2.2l-1.59,1.26l-0.97,2.52l-3.4,7.35l-0.83,2.41
				c-0.23,0.7-1.34,2.56-3.33,5.56L106,71.32l-2.98,2.31c-0.69,5.46-2.1,8.61-4.23,9.45l-1.32,6.51l-2.85,1.68v2.21l-0.42,2.73
				c1.66,0.77,2.84,1.51,3.54,2.21l1.73-0.21l2.84,1.05c0.56,0.28,0.97,0.42,1.25,0.42c0.42,0,1.09-0.14,2.01-0.42
				c0.09-0.14,0.28-0.21,0.56-0.21c0.14,0,0.49,0.14,1.07,0.42c0.58,0.28,1.12,0.42,1.63,0.42l1.87-0.63l5.55-0.63l4.51-0.94
				c2.91,0.63,4.76,0.94,5.55,0.94c2.17,0,3.26-0.73,3.26-2.2c0-0.91-0.42-2.13-1.25-3.68L129.85,90.86z"/>
			<g>
				<path d="M155.86,96.33c-0.3,0.69-0.6,1.37-0.91,2.06c0.56-0.15,1.11-0.3,1.67-0.45c-0.76-0.39-1.53-0.77-2.29-1.16
					c-0.53-0.27-1.31,0.02-1.67,0.45c-0.43,0.51-0.86,1.02-1.28,1.52c-1.23,1.46-1.25,0.71-0.1,0.95c-0.95-0.2-2.14-0.7-3.13-0.58
					c-1.75,0.21-3.1,1.78-4.93,2.02c-1,0.13-1.65,0.77-2.2,1.55c0.56-0.15,1.11-0.3,1.67-0.45c-1.7-0.97-4.94-2.21-6.41-0.01
					c-1.08,1.61,0.68,2.4,0.37,4.01c-0.23,1.2-0.15,2.19-0.08,3.42c0.21,3.61,0.54,5.64,1.99,8.94c0.51,1.15,0.33,2.86,0.45,4.11
					c0.12,1.32,1.41,3.12,1.95,4.32c0.57,1.27,1.22,2.18,1,3.57c-0.23,1.52-0.52,1.92,0.31,3.09c2.07,2.93,3.1,6.2,4.4,9.54
					c1.38,3.54,2.77,7.01,5.73,9.31c0.98,0.76,0.45,2.7,1.24,3.57c1.23,1.36,0.56,1.27-0.71,2.71c0.56-0.07,1.12-0.14,1.67-0.21
					c-0.76-0.91-1.52-1.82-2.29-2.73c-0.37-0.44-1.28,0.12-1.58-0.23c-1.6-1.88-3.02-1.93-3.65-3.69c-0.51-1.44-0.58-1.85-1.76-2.74
					c-1.56-1.18-2.25-5.45-3.37-7.21c-0.63-0.99-0.11-2.39-0.66-3.14c-1.14-1.54-1.27-2.24-1.35-4.15
					c-0.08-1.98-1.91-3.33-2.43-5.23c-0.9-3.27-1.8-6.54-2.71-9.82c-0.65-2.36-1.19-4.09-1.42-6.68c-0.13-1.45-0.7-2.75-1.24-4.1
					c-0.78-1.98-0.62-3.77-0.62-5.88c0-0.33-0.29-0.44-0.59-0.44c-0.78,0-2.17-0.26-2.81,0.39c-0.99,1-1.96,1.1-0.8,1.44
					c-0.85-0.25-1.7-0.5-2.55-0.75c-0.42-0.12-1.06,0.07-1.37,0.37c-0.65,0.63-1.29,1.26-1.94,1.89c0.56-0.07,1.12-0.14,1.67-0.21
					c-0.25-0.35-0.51-0.7-0.76-1.05c-0.33-0.45-1.37-0.08-1.67,0.21c-0.51,0.49-1.02,0.98-1.53,1.47c0.58-0.03,1.16-0.06,1.74-0.09
					c-0.14-0.49-0.28-0.98-0.42-1.47c-0.11-0.4-0.82-0.32-1.1-0.24c-2.19,0.66-4.01,0.99-6.26,0.99c-0.94,0-1.83-0.14-2.54,0.57
					c-0.69,0.69-1.38,1.37-2.07,2.06c1.13-0.15,1.23-0.31,0.28-0.48c-0.46-0.15-0.93-0.3-1.39-0.46c-1.26-0.41-2.99,0.17-4.26,0.32
					c-0.29,0.03-1.1,0.25-1.1,0.67c0,0.35,0,0.7,0,1.05c0.62-0.17,1.24-0.33,1.86-0.5c-0.42-0.35-0.83-0.7-1.25-1.05
					c-0.46-0.38-1.27-0.13-1.67,0.21c-0.58,0.49-1.16,0.98-1.73,1.47c0.56-0.07,1.12-0.14,1.67-0.21c-2.35-2.77-4.61-1.66-7.32,0.08
					c0.5-0.03,1-0.06,1.5-0.08c-0.62-1.01-1.25-2.03-1.87-3.04c-0.34-0.55-1.52,0.02-1.8,0.35c-0.32,0.39-0.65,0.77-0.97,1.16
					c0.56-0.15,1.11-0.3,1.67-0.45c-0.67-0.39-1.34-0.77-2.01-1.16c-0.46-0.27-1.17,0.01-1.54,0.31c-1.11,0.88-1.88,2.02-2.64,3.2
					c-0.82,1.28-2.68,7.29-3.84,7.71c-4.07,1.49-4.53,5.93-6.22,9.72c-0.66,1.49-1.32,3.02-2.13,4.44c-0.4,0.71-1.29,0.98-1.67,1.74
					c-0.73,1.43-1.45,2.86-2.18,4.28c-0.36,0.71-0.73,1.43-1.09,2.14c-0.73,1.43,0.6,0.39,0.05,0.39c-0.49,0-1.14,0.18-1.34,0.68
					c-0.91,2.24-1.82,4.49-2.73,6.73c-0.83,2.05-2.37,3.15-4,4.7c1.32-0.11,1.45-0.29,0.38-0.56c-0.34-0.14-1.65-0.38-1.5-0.88
					c0.36-1.23,0.41-2.09,0.41-3.37c0-2.1,1.25-2.47,0.55-4.57c-0.28,0.25-0.56,0.5-0.83,0.75c1.74-0.36,2.75-0.47,4.08-1.59
					c0.93-0.79,1.78-1.49,2.54-2.44c1.05-1.3,0.89-3.03,2.23-4.22c2.14-1.91,3.12-4.86,4.69-7.25c1.06-1.62,1.59-3.6,2.08-5.45
					c0.51-1.91,0.82-1.35,2.08-2.49c0.87-0.79,1.28-2.85,1.73-3.88c1-2.34,2-4.68,3-7.01c0.6-1.4-1.51-6.11-1.33-6.35
					c1.35-1.84,2.62-2.92,2.62-5.19c-0.52,0.22-1.04,0.43-1.56,0.65c3.54,0.57,3.93,0.82,6.5-1.63c-0.58,0.03-1.16,0.06-1.74,0.09
					c0.14,0.28,0.28,0.56,0.42,0.84c0.29,0.59,1.62,0.28,1.87-0.23c0.74-1.49,2.13-6.06,3.13-7.1c-0.58,0.03-1.16,0.06-1.74,0.09
					c0.18,0.42,0.37,0.84,0.56,1.26c0.27,0.61,1.87,0.26,1.93-0.38c0.23-2.17,0.76-4.13,1.46-6.2c0.02-0.1,0-0.19-0.07-0.26
					c-0.14-0.14-0.28-0.28-0.42-0.42c-0.34,0.31-0.68,0.62-1.02,0.93c0.55-0.07,1.11-0.14,1.66-0.21c0.35-0.04,1.01-0.24,1.1-0.67
					c0.24-1.21,0.15-2.18,1.15-2.8c0.94-0.58,1.14-1.62,1.14-2.63c0-2.59,1.72-4,2.55-6.38c0.47-1.35,0.74-2.51,0.85-3.94
					c0.05-0.34-0.06-0.31-0.35,0.08c0.46-0.1,0.92-0.21,1.39-0.31c0.27-0.06,0.79-0.28,0.83-0.61c0.38-2.77,1.87-4.96,2.84-7.98
					c-0.62,0.17-1.24,0.33-1.86,0.5c0.32,0.35,0.65,0.7,0.97,1.05c0.38,0.41,2.07,0.05,1.86-0.64c-0.31-1.03-0.82-1.53-0.12-2.15
					c1.3-1.16,1.52-2.39,1.72-4.12c-0.62,0.17-1.24,0.33-1.86,0.5c0.32,0.28,0.65,0.56,0.97,0.84c0.38,0.33,1.86,0.16,1.86-0.5
					c0-1.43,0-2.87,0-4.3c-0.45,0.23-0.89,0.45-1.34,0.68c0.32,0,0.65,0,0.97,0c0.33,0,1.34-0.18,1.34-0.68
					c0-1.57-0.2-2.74,0.77-4.04c1.38-1.87,1.43-4.17,2.59-5.93c0.3-0.45,1.66-1.87,1.49-2.45c-0.46-1.58-1.9-6.43,1.64-6.43
					c0.5,0,1.13-0.18,1.34-0.68c0.28-0.66,0.56-1.33,0.83-1.99c-0.64,0.13-1.29,0.25-1.93,0.38c0.83,1.88,1.44,3.05,3.12,4.32
					c2.05,1.55,1.57,3.3,1.7,5.8c0.06,1.28,1.25,4.79,2.34,5.37c1.37,0.73,0.87,3.55,0.95,4.98c0.23,3.99,1.59,7.66,2.98,11.34
					c0.72,1.9,0.78,4.33,1.14,6.33c0.3,1.64-0.22,3.88,0.5,5.35c0.5,1.02,1,2.04,1.5,3.06c0.51,1.03-0.4,1.6-0.16,2.49
					c0.6,2.22,1.52,2.88,1.52,5.4c0,4.35-0.61,11.11,4.29,13.41c1.22,0.57,2.82-0.28,3.95-0.63c1.99-0.62,3.9,0.84,5.84,0.59
					c0.78-0.1,4.45-1.99,4.65-1.84c2.04,1.5,2.46,1.18,5.13,1c0.96-0.06,1.59-1.18,0.26-1.09c-0.93,0.06-1.86,0.12-2.8,0.19
					c-0.22,0.01-1.69-1.54-2.25-1.79c-0.73-0.32-1.67,0.23-2.13,0.76c-1.31,1.5-6.12,1.04-8.18,1.04c-0.5,0-0.99,0.21-1.46,0.36
					c-2.32,0.72-3.06-0.54-4.14-2.62c-1.4-2.71-0.77-5.48-1.11-8.37c-0.17-1.43,0.37-3.45-0.35-4.68c-0.37-0.64-1.4-1.76-1.15-2.53
					c0.17-0.5,0.55-1.1,0.3-1.61c-0.97-1.98-1.88-3.46-2.01-5.64c-0.21-3.41-0.49-7.23-1.71-10.44c-1.32-3.49-2.48-7-2.7-10.77
					c-0.06-0.95,0.31-3.96-0.34-4.65c-1.16-1.23-2.85-3.54-2.95-5.5c-0.06-1.13,0.4-4.35-0.56-5.08c-2.02-1.53-3.22-2.68-4.26-5.04
					c-0.31-0.71-1.71-0.16-1.93,0.38c-0.28,0.66-0.56,1.33-0.83,1.99c0.45-0.23,0.89-0.45,1.34-0.68c-1.55,0-2.54,0.69-3.58,1.79
					c-2.03,2.15-1.69,2.96-0.99,5.4c0.3,1.04-1.59,4.56-1.93,5.78c-0.31,1.07-2.67,3.09-2.67,4.19c0,1.01,0,2.03,0,3.04
					c0.45-0.23,0.89-0.45,1.34-0.68c-0.32,0-0.65,0-0.97,0c-0.33,0-1.34,0.18-1.34,0.68c0,1.43,0,2.87,0,4.3
					c0.62-0.17,1.24-0.33,1.86-0.5c-0.32-0.28-0.65-0.56-0.97-0.84c-0.41-0.36-1.79-0.16-1.86,0.5c0.06,1.43-0.51,2.62-1.71,3.57
					c-0.23,0.08-0.67,0.36-0.58,0.67c0.23,0.77,0.46,1.54,0.69,2.31c0.62-0.21,1.24-0.43,1.86-0.64c-0.32-0.35-0.65-0.7-0.97-1.05
					c-0.44-0.47-1.68-0.07-1.86,0.5c-0.57,1.76-0.82,3.75-2.06,4.52c-0.51,0.32-0.44,0.95-0.51,1.49c-0.26,1.9,0.43,1.39-1.31,1.78
					c-0.23,0.05-0.83,0.29-0.83,0.61c0,4.35-3.4,6.96-3.4,11.13c0,1.63-1.56,1.33-1.79,2.5c-0.15,0.75-0.29,1.5-0.44,2.25
					c0.12-0.62,0.76-0.33-0.63-0.16c-0.26,0.03-1.49,0.46-1.02,0.93c0.54,0.54-1,5.26-1.11,6.35c0.64-0.13,1.29-0.25,1.93-0.38
					c-0.19-0.42-0.37-0.84-0.56-1.26c-0.26-0.59-1.41-0.25-1.74,0.09c-0.33,0.35-2.64,2.29-2.13,3.07c0.86,1.31-0.58,2.96-1.25,4.31
					c0.62-0.08,1.25-0.15,1.87-0.23c-0.14-0.28-0.28-0.56-0.42-0.84c-0.29-0.59-1.38-0.25-1.74,0.09c-0.84,0.8-2.13,1.16-0.85,1.37
					c-0.97-0.16-1.95-0.31-2.92-0.47c-0.37-0.06-1.56,0.08-1.56,0.65c0,2.09-1.27,3.25-2.49,4.9c-0.88,1.19,1.24,3.25,1.24,4.57
					c0,3.94-2.47,7.74-4,11.33c-0.65,1.53-1.06,1.07-2.33,2.22c-0.6,0.54-0.71,2.63-0.92,3.41c-0.64,2.42-1.88,4.52-3.66,6.25
					c-2.4,2.34,2.9,1.56-3.22,4.81c-0.61,0.32-0.57,1.42-0.66,1.87c-0.64,3.18-3.25,4.71-6.02,5.28c-0.27,0.05-0.96,0.37-0.83,0.75
					c0.56,1.69-0.55,1.78-0.55,3.22c0,1.82-0.04,3.19-0.56,4.93c-0.04,0.15,0.07,0.3,0.2,0.36c0.95,0.38,1.9,0.77,2.84,1.16
					c0.48,0.2,1.17,0.05,1.54-0.31c1.32-1.24,3.36-2.5,4.05-4.21c1.07-2.65,2.14-5.29,3.21-7.94c-0.45,0.23-0.89,0.45-1.34,0.68
					c0.25,0,0.51,0,0.76,0c0.39,0,1.07-0.13,1.27-0.53c1.3-2.55,2.6-5.11,3.9-7.66c0.29-0.58,1.13-0.86,1.51-1.42
					c0.75-1.12,1.25-2.5,1.8-3.73c1.17-2.58,2.3-5.18,3.42-7.79c0.81-1.87,2.07-1.08,2.96-2.4c1.59-2.38,2.52-5.46,4-7.97
					c0.55-0.93,1.19-1.79,1.95-2.57c-0.72,0.73-0.43,0.34,0.91,1.11c0.51,0.29,1.33-0.04,1.67-0.45c0.32-0.39,0.65-0.77,0.97-1.16
					c-0.6,0.12-1.2,0.24-1.8,0.35c0.62,1.01,1.25,2.03,1.87,3.04c0.26,0.42,1.21,0.1,1.5-0.08c1.99-1.28,2.48-2.1,4.33,0.08
					c0.38,0.44,1.33,0.08,1.67-0.21c0.58-0.49,1.16-0.98,1.73-1.47c-0.56,0.07-1.12,0.14-1.67,0.21c0.42,0.35,0.83,0.7,1.25,1.05
					c0.38,0.32,1.86,0.17,1.86-0.5c0.17-0.65-0.1-0.79-0.83-0.42c0.79-0.09,1.57-0.19,2.36-0.28c1.05-0.12,2.01,0.39,3.02,0.72
					c0.41,0.13,1.07-0.07,1.37-0.37c0.6-0.6,1.2-1.19,1.8-1.79c0.65-0.52,0.6-0.59-0.14-0.23c0.68,0,1.37,0,2.05,0
					c2.51,0,3.68-0.4,6.05-1.12c-0.37-0.08-0.73-0.16-1.1-0.24c0.14,0.49,0.28,0.98,0.42,1.47c0.18,0.64,1.45,0.19,1.74-0.09
					c0.51-0.49,1.02-0.98,1.53-1.47c-0.56,0.07-1.12,0.14-1.67,0.21c0.25,0.35,0.51,0.7,0.76,1.05c0.33,0.45,1.37,0.08,1.67-0.21
					c0.58-0.57,1.16-1.13,1.74-1.7c-1.1,0.16-1.16,0.31-0.16,0.46c0.61,0.18,1.23,0.36,1.84,0.54c0.42,0.12,1.06-0.06,1.37-0.37
					c1.24-1.25,1.04-1.5,1.96-1.5c-0.33,0-0.16,2.4-0.16,3.18c0,2.52,1.7,4.77,1.93,7.36c0.42,4.66,2.2,9.02,3.46,13.58
					c0.48,1.75,0.82,3.06,1.77,4.58c0.61,0.98,1.22,1.69,1.27,2.85c0.04,0.92-0.19,2.12,0.38,2.89c0.86,1.17,1.04,1.56,1.04,3.01
					c0,1.66,1.84,3.74,2.53,5.32c1.25,2.89,2.79,4.88,3.85,7.85c0.08,0.23,0.37,0.3,0.59,0.3c1.75,0,1.61,1.87,3.04,2.18
					c1.77,0.38,2.08,1.05,3.37,2.58c0.35,0.41,1.37,0.12,1.67-0.21c0.62-0.7,1.25-1.4,1.87-2.1c0.14-0.15,0.3-0.35,0.12-0.55
					c-1.47-1.64-1.2-3.88-2.91-5.22c-2.4-1.86-3.86-5.73-4.96-8.57c-0.96-2.47-1.92-4.94-2.88-7.41c-0.32-0.83-1.15-1.65-1.66-2.38
					c-0.77-1.09-0.2-2.41,0-3.68c0.24-1.58-2.22-5.08-2.89-6.56c-0.84-1.88-0.42-4.05-1.29-6.01c-1.02-2.32-2.62-15.71,1.27-13.51
					c0.48,0.27,1.36-0.02,1.67-0.45c0.62-0.88,3.51-1.08,4.56-1.73c0.86-0.53-0.35-0.9,1.1-0.59c0.64,0.14,1.29,0.27,1.93,0.41
					c0.53,0.11,1.15-0.1,1.49-0.51c0.85-1.02,1.71-2.03,2.56-3.05c-0.56,0.15-1.11,0.3-1.67,0.45c0.76,0.39,1.53,0.77,2.29,1.16
					c0.53,0.27,1.31-0.02,1.67-0.45c1-1.2,0.74-0.69,1.04-2.35C157.93,95.33,155.98,95.66,155.86,96.33z"/>
				<path d="M130.82,90.6c-0.44-1.51-0.91-2.78-1.69-4.12c-0.71-1.22-0.17-2.16,0.17-3.51c0.02-0.1,0-0.19-0.07-0.26
					c-1.83-1.44-1.83-1.75-1.99-4.05c-0.11-1.68,0.19-4.15-0.47-5.71c-0.82-1.93-1.61-3.52-1.78-5.6c-0.16-1.96-1.11-3.75-1.11-5.69
					c0-0.33-0.29-0.44-0.59-0.44c0.6,0-0.37-5.44-0.86-6.63c-1.15-2.76-2.37-4.39-4.85-6.21c-0.5-0.36-1.23-0.13-1.67,0.21
					c-2.97,2.35-4.05,6.87-5.63,10.28c-0.82,1.77-1.31,3.63-2.3,5.32c-0.7,1.21-2.21,2.68-2.43,4.05c-0.2,1.25-0.05,2.71-1.1,3.52
					c-3.05,2.36-2.48,4.19-3.75,7.91c-0.52,1.51-2.63,2.32-2.88,3.54c-0.22,1.08-0.44,2.17-0.66,3.26
					c-0.69,3.43-0.92,2.48-3.31,4.65c-0.54,0.49-0.48,4.38-0.61,5.22c-0.03,0.17,0.05,0.28,0.2,0.36c2.37,1.2,2.98,2.42,5.46,2.12
					c1.48-0.18,2.99,1.62,4.54,1.42c0.87-0.11,1.7-0.25,2.52-0.56c0.31-0.12,2.27,0.77,2.5,0.78c1.58,0.05,3.71-0.82,5.35-1.01
					c1.48-0.17,2.89-0.38,4.35-0.69c2.78-0.58,4.98,0.26,7.77,0.43c1.58,0.1,3.41-0.4,4.33-1.77c0.45-0.67,0.23-1.56,0.13-2.27
					c-0.32-2.34-1.21-2.33,0.35-4.26c0.55-0.68-1.4-0.55-1.8-0.05c-0.51,0.63-1.02,1.26-1.52,1.89c-0.06,0.09-0.08,0.18-0.06,0.29
					c1.25,2.59,1,5.43-3.02,4.75c-1.08-0.18-2.35-0.75-3.44-0.62c-1.58,0.19-3.11,0.78-4.7,0.96c-1.79,0.2-3.57,0.41-5.36,0.61
					c-1.92,0.22-1.4,0.85-3.94-0.14c-0.29-0.11-0.6-0.1-0.9-0.02c-0.71,0.19-11.07-0.89-10.79-2.74c0.03-0.22,0.38-4.46,0.3-4.41
					c0.77-0.46,2.74-1.08,2.95-2.1c0.41-2.05,0.83-4.1,1.24-6.15c0.01-0.07,1.22-0.86,1.28-0.94c0.73-0.89,1.17-1.74,1.63-2.78
					c0.49-1.1,0.63-5.21,1.38-5.8c0.85-0.66,1.69-1.31,2.54-1.97c0.91-0.71,0.76-2.62,0.92-3.67c0.33-2.09,2.77-4.08,3.5-6.2
					c0.61-1.78,1.35-3.44,2.14-5.14c1.2-2.6,2.09-5.96,4.33-7.74c-0.56,0.07-1.12,0.14-1.67,0.21c4.62,3.39,5.43,7.5,5.75,12.9
					c0.01,0.24,0.43,0.3,0.59,0.3c-0.39,0,0.84,4.39,0.93,5.53c0.18,2.29,1.76,4.15,1.91,6.35c0.09,1.28-0.36,7.05,0.59,7.79
					c1.57,1.23,1.8,1.21,1.31,3.18c-0.54,2.16,1.37,3.75,2.02,5.94C129.09,91.81,131.02,91.28,130.82,90.6z"/>
			</g>
		</g>
		<g class="st11">
			<path class="st12" d="M477.84,69.96l-0.94,2.16c-0.31,0.81-0.78,1.56-1.4,2.25l-2.42,2.68v1.21c-1.2,0.29-2.12,0.92-2.77,1.9
				c-0.65,0.98-1.24,1.47-1.76,1.47c-0.94,1.9-3.23,3.31-6.87,4.23c-1.3,2.02-3.2,3.02-5.7,3.02h-0.86v1.04h-3.2l-1.87,1.64
				l-1.8,0.17c0,0.92-0.37,1.38-1.09,1.38l-1.48,1.29h-3.67l-2.19,2.25l-6.56,1.47l-0.86,0.69l-3.67-0.35
				c-0.1,0.41-0.57,1.41-1.41,3.02c-0.47-0.4-2-0.72-4.61-0.95l-1.48,0.95l-2.26,0.86c-1.09,0.81-2.26,1.38-3.51,1.73l-0.94,3.37
				l1.64,3.37l-0.86,4.23l1.17,4.84l-1.02,0.69l1.33,2.07v3.54l0.62,1.81v3.19l3.67-0.34c0.52,0.52,0.78,1.15,0.78,1.9
				c0,1.79-1.12,2.68-3.36,2.68h-0.94l-2.58,1.03l-2.19-4.4l-2.89-6.91v-7.25l-1.64-3.54l1.17-1.38l-0.7-3.54l0.31-2.5l-1.09-1.55
				l-6.56-1.29l-1.72-2.76l7.97-0.78l-0.78-0.52c0.21-0.23,0.52-0.35,0.94-0.35c0.57,0,0.94,0.12,1.09,0.35v-4.06l1.02-2.07
				l0.47-10.62l0.94-1.3l-0.31-8.12l0.62-4.4l0.31-9.76l1.01-2.76l1.25-0.95l-0.31-2.59c0-1.21,0.63-1.81,1.87-1.81
				c3.64,0,5.46,1.35,5.46,4.06c0,0.75-0.43,2.06-1.29,3.93c-0.86,1.87-1.29,3.27-1.29,4.19c0,1.04,0.6,2.65,1.79,4.83l-1.48,1.55
				l-0.16,4.75l-2.03,2.16l0.62,3.71l-1.25,4.06l0.62,3.88l-0.62,3.02l0.31,2.33l-1.17,1.9c0.16,1.96,0.91,3.08,2.26,3.37l3.98-2.68
				h3.36c1.51-1.61,3.33-2.42,5.47-2.42l1.09-1.12c0.52,0.23,1.28,0.34,2.26,0.34c2.13,0,4.27-0.98,6.4-2.93l2.57-0.17l2.03-1.99
				h2.11l0.47-0.86l8.43-2.68c1.51-0.17,2.26-0.58,2.26-1.21c0.42-0.46,0.68-1.01,0.78-1.64c0.52,0.12,1.12,0.17,1.8,0.17
				c1.46,0,2.37-1.04,2.73-3.11c1.67-0.23,2.58-0.6,2.73-1.12c0.15-0.52,0.57-0.92,1.25-1.21l0.94,0.87l0.78-2.68l1.17-1.04
				l0.62-3.88c-0.89-2.65-2.06-5.01-3.51-7.08l-1.64-0.35l-2.81-2.85l-5.93-2.76c-3.8-3.17-7.86-4.95-12.18-5.36v1.21l-2.73-2.07
				l-3.67,0.17l-2.19-1.64h-2.58l-2.27-1.38h-2.26c-1.09,0-1.98-0.46-2.65-1.38l-6.25-0.95c-1.15,0.4-2.76,1.07-4.84,1.99L411.64,45
				l-2.19,1.47l-1.79-1.29l-3.36,1.12v0.52h-1.41l-3.2,1.9l-2.19,0.34c-0.68,0.12-1.72,0.66-3.12,1.64
				c-1.41-1.96-2.26-4.09-2.58-6.39l1.64-2.5V40.6c0.26-0.52,1.21-0.85,2.85-0.99c1.64-0.14,3.08-0.59,4.33-1.34
				c1.2,0.29,1.95,0.43,2.26,0.43c0.52,0,0.99-0.26,1.41-0.78l1.4,0.78c0.89-0.29,1.43-0.43,1.64-0.43c0.62,0,1.09,0.38,1.41,1.12
				h7.73l4.61,0.17l5.31,1.04c0.26,0.4,0.71,0.74,1.37,0.99c0.65,0.26,0.98,0.54,0.98,0.82l1.17-1.29h0.63
				c1.14,0,1.72,0.23,1.72,0.69c0,0.29-0.05,0.49-0.16,0.6h2.26c2.86,0.92,5.26,1.44,7.18,1.55l0.47,1.03h4.37l2.89,2.16
				c0.31,0.23,1.43,0.46,3.36,0.69l0.78,1.38h0.78c2.76,0,4.68,1.18,5.78,3.54l2.03-1.21v2.16c0.99,0.29,2.34,1.15,4.06,2.59h1.87
				l1.48,2.5l5.08,3.71v1.99L477.84,69.96z"/>
			<g>
				<path d="M476.88,70.09c-1.06,2.44-3.43,6.89-5.5,8.31c-1.19,0.82-3.01,2.06-3.73,3.22c-0.75,1.21-10.37,6.74-12.15,6.74
					c-0.44,0-1.35,0.21-1.35,0.78c0,0.35,0,0.69,0,1.04c0.45-0.26,0.9-0.52,1.35-0.78c-1.21,0-2.8-0.32-3.96,0.16
					c-1.6,0.66-1.5,1.52-3.16,1.68c-0.34,0.03-1,0.23-1.1,0.63c-0.66,2.51-2.49,2.03-4.63,2.03c-1.57,0-2.36,1.35-3.38,2.4
					c-0.39,0.4-4.5,1.02-5.98,1.35c-0.51,0.12-0.82,0.36-1.23,0.69c0.66-0.53,0.36-0.08-0.9-0.19c-0.61-0.06-1.22-0.12-1.83-0.17
					c-0.5-0.05-1.36,0.08-1.56,0.63c-0.39,1.05-0.9,2.02-1.41,3.02c0.58-0.19,1.16-0.39,1.74-0.58c-3.22-1.67-4.82-0.83-7.59,0.22
					c-2.81,1.07-5.64,1.6-6.48,4.63c-0.35,1.27-0.6,1.55-0.05,2.68c1.01,2.08,1.15,2.67,0.7,4.93c-0.38,1.85,1.29,6.05,0.19,6.8
					c-0.22,0.15-0.49,0.34-0.31,0.62c1.79,2.79,1.89,7.18,1.89,10.51c0,0.31,0.67,0.25,0.82,0.24c0.61-0.06,1.22-0.11,1.83-0.17
					c3.25-0.31,0.93,3.39-1.15,3.39c-1.11,0-2.34,0.79-3.33,1.19c0.45,0.03,0.89,0.07,1.34,0.1c-1.77-3.56-3.33-7.13-4.86-10.8
					c-0.67-1.59-0.21-3.89-0.21-5.59c0-2.25-0.55-3.38-1.52-5.46c-0.23-0.5,0.92-1.06,1.05-1.52c0.2-0.69-0.38-2.07-0.52-2.75
					c-0.4-2.03,0.48-2.94-0.75-4.68c-0.78-1.11-3.09-1.03-4.31-1.27c-2.72-0.54-2.77-0.81-4.25-3.19c-0.35,0.29-0.69,0.58-1.04,0.87
					c2.66-0.26,5.31-0.52,7.97-0.78c0.16-0.02,1.56-0.53,1.04-0.87c-0.41-0.43-0.55-0.33-0.42,0.3c0.49,0.16,1.74-0.01,1.74-0.71
					c0-1.28,0-2.56,0-3.84c0-0.91,0.99-1.67,1.03-2.62c0.15-3.35,0.29-6.7,0.44-10.04c0.03-0.64,0.96-0.99,0.94-1.68
					c-0.06-1.46-0.11-2.93-0.17-4.39c-0.11-2.77,0.4-5.25,0.49-7.99c0.1-3.05,0.2-6.11,0.29-9.16c0.06-1.91,2.4-3.32,2.23-4.72
					c-0.19-1.6-1.19-6.06,4.21-2.05c1.25,0.93,0.96,2.81,0.62,4.04c-0.62,2.27-2.01,4.18-2.25,6.57c-0.18,1.78,2.32,4.22,1.12,5.48
					c-1.04,1.09-0.84,1.73-0.89,3.28c-0.06,1.85-0.05,2.29-1.32,3.64c-0.83,0.88-0.82,0.81-0.62,1.98c0.48,2.88-1.06,5.13-0.62,7.81
					c0.44,2.76-0.26,5.15,0.1,7.87c0.11,0.85-1.26,1.49-1.12,2.26c0.28,1.63,0.75,3.29,2.63,3.61c1.64,0.28,3.8-2,5-2.81
					c-0.89,0.6,0.13,0.15,0.88,0.15c0.56,0,1.12,0,1.68,0c2.03,0,4.33-2.05,5.97-2.49c0.79-0.21,1.28-0.82,1.33-0.81
					c1.47,0.4,3.18-0.05,4.59-0.44c1.02-0.28,3.1-2.38,3.74-2.42c0.94-0.06,2.28,0.1,3.15-0.41c0.56-0.33,1.04-0.96,1.49-1.41
					c0.71-0.54,0.68-0.65-0.11-0.32c0.59,0,1.18,0,1.78,0c0.38,0,1.07-0.14,1.28-0.51c0.36-0.66,0.45-0.66,2.15-1.2
					c1.66-0.53,3.32-1.05,4.98-1.58c2.61-0.83,3.98-0.83,4.88-3.74c-0.52,0.21-1.04,0.42-1.56,0.63c4.92,0.76,6.11-3.24,9.7-5.51
					c-0.5,0.04-0.99,0.08-1.49,0.11c0.31,0.29,0.62,0.58,0.94,0.87c0.42,0.39,1.7,0.06,1.86-0.5c0.76-2.62,1.97-3.82,2.41-6.59
					c0.39-2.45-1.33-4.88-2.51-6.94c-1.45-2.53-1.19-0.36-2.7-1.89c-2.25-2.28-3.7-3.2-6.63-4.56c-5.04-2.35-8.66-5.62-14.44-6.38
					c-0.47-0.06-1.56,0.12-1.56,0.76c0,0.4,0,0.81,0,1.21c0.62-0.21,1.24-0.42,1.87-0.63c-0.88-0.67-1.84-1.71-2.86-2.15
					c-1.01-0.43-3.01,0.65-3.77,0.08c-0.64-0.48-1.59-1.62-2.47-1.62c-2.08,0-2.81-1.05-4.63-1.36c-3.5-0.6-6.83-1.67-10.51-2.23
					c-1.4-0.21-2.34,0.3-3.69,0.84c-1.79,0.71-1.38,1.26-2.94,0.19c-0.74-0.51-1.48-1.01-2.23-1.52c-0.41-0.28-1.1-0.15-1.49,0.11
					c-0.73,0.49-1.46,0.98-2.19,1.47c0.5-0.04,0.99-0.08,1.49-0.11c-2.59-1.87-3.06-1.29-6.17-0.25c-0.33,0.11-0.85,0.28-0.85,0.71
					c0,0.17,0,0.35,0,0.52c0.45-0.26,0.9-0.52,1.35-0.78c-2.08,0-2.91,0.58-4.75,1.67c-1.49,0.88-4.13,1.18-6.14,2.48
					c0.5-0.04,0.99-0.08,1.49-0.11c-2.09-3.21-3.01-5.37-0.94-8.52c1.27-1.93,3.12-1.62,5.35-2.53c1.41-0.58,2.86,0.19,4.32-0.41
					c0.86-0.35-0.9-0.73,0.56,0.08c0.43,0.24,0.77,0.35,1.26,0.2c-0.21,0.06,4.17,0.76,4.55,0.76c1.99,0,3.99-0.07,5.98,0.01
					c2.94,0.11,9.67-0.26,11.42,2.75c0.35,0.6,1.51,0.13,1.86-0.26c0.29-0.32,0.58-0.64,0.87-0.96c-1.14,0.12-0.93,0.49,0.63,1.09
					c-0.08,0.32,0.37,0.39,0.58,0.39c1.96,0,8.54,0.58,9.33,2.33c0.1,0.22,0.36,0.26,0.58,0.26c2.22,0,3.61-0.33,5.3,0.93
					c1.63,1.22,4.67,1.54,5.52,3.04c0.12,0.21,0.34,0.26,0.58,0.26c2.71,0,4.67,0.99,5.97,3.28c0.28,0.49,1.18,0.22,1.56,0
					c0.68-0.4,1.35-0.81,2.03-1.21c-0.52,0-1.04,0-1.56,0c0,0.72,0,1.44,0,2.16c0.03,0.09,0.1,0.16,0.19,0.19
					c1.52,0.61,2.63,1.97,4.06,2.59c0.37,0.16,1.72-0.12,1.83,0.07c1.04,1.76,1.56,2.47,3.18,3.66c0.92,0.67,1.84,1.35,2.76,2.02
					c0.88,0.64,0.05,1.6,0.53,2.37c1.12,1.81,2.24,3.63,3.36,5.44c0.31,0.51,2.19-0.1,1.8-0.74c-0.95-1.54-3.29-4.02-3.29-5.85
					c0-2.45-2.13-3.09-4.05-4.49c-0.96-0.71-1.95-3.28-2.88-3.44c-2.62-0.45-5.57-1.59-5.57-4.51c0-0.55-1.37-0.11-1.56,0
					c-0.68,0.4-1.35,0.81-2.03,1.21c0.52,0,1.04,0,1.56,0c-1.19-2.09-2.52-3.1-4.83-3.68c-0.46-0.12-1.73,0.14-1.93-0.22
					c-0.19-0.33-0.45-1.19-0.95-1.26c-1.81-0.25-3.06-0.56-4.5-1.64c-0.45-0.34-1.14-1.11-1.75-1.21c-1.74-0.3-3.78,0.73-4.47-0.79
					c-0.07-0.15-0.21-0.22-0.37-0.24c-2.6-0.25-5.22-1.57-7.75-1.57c-2.52,0-0.14-0.34-1.79-1.05c-2.17-0.93-3.42,0.09-4.75,1.57
					c0.62-0.09,1.24-0.17,1.86-0.26c-2.07-3.55-9.06-3.14-12.58-3.27c-2.46-0.09-4.95-0.01-7.41-0.01c-0.65,0-0.84-1.12-1.98-1.12
					c-1.21,0-1.48,0.37-2.66-0.28c-0.42-0.23-1.21,0.02-1.54,0.32c0.74-0.65-9.03,1.62-7.09,1.32c-1.33,0.21-3,0.3-3.88,1.49
					c-0.3,0.4,0.11,1.04-0.17,1.47c-0.49,0.75-0.98,1.5-1.47,2.24c-0.98,1.5,1.72,5.45,2.57,6.76c0.25,0.38,1.22,0.06,1.49-0.11
					c1.74-1.13,3.69-1.02,5.31-1.99c0.79-0.47,1.58-0.94,2.37-1.41c0.89-0.53-0.1-0.23,1.26-0.23c0.44,0,1.35-0.21,1.35-0.78
					c0-0.17,0-0.35,0-0.52c-0.28,0.24-0.56,0.47-0.85,0.71c2.85-0.95,2.2-1.3,4.13,0.1c0.4,0.29,1.11,0.14,1.49-0.11
					c0.73-0.49,1.46-0.98,2.19-1.47c-0.5,0.04-0.99,0.08-1.49,0.11c3.7,2.53,3.55,3.06,7.71,1.31c2.02-0.85,3.77-0.26,6,0.08
					c1.62,0.25,2.41,1.6,4.22,1.6c1.86,0,2.54,0.34,4.14,1.31c1.21,0.74,2.49-0.05,3.87,0.98c1.15,0.87,1.62,0.71,3.12,0.64
					c1.94-0.09,2.44,0.62,4.05,1.84c0.46,0.35,1.87,0.07,1.87-0.63c0-0.4,0-0.81,0-1.21c-0.52,0.25-1.04,0.5-1.56,0.76
					c5.4,0.7,8.62,3.73,13.29,5.9c3.01,1.4,4.87,2.43,7.18,4.78c0.42,0.43,1.11,0.43,1.67,0.54c2.24,0.47,3.55,6.92,3.26,8.75
					c-0.33,2.04-1.65,3.54-2.26,5.66c0.62-0.17,1.24-0.33,1.86-0.5c-0.31-0.29-0.62-0.58-0.94-0.87c-0.36-0.33-1.14-0.11-1.49,0.11
					c-1.24,0.79-1.66,1.78-3.25,2.09c-0.35,0.07-0.99,0.21-1.1,0.63c-0.99,0.77-1.98,1.54-2.97,2.31c-0.46-0.07-1.4,0.09-1.56,0.63
					c-1.44,4.66-9.63,2.12-11.64,5.82c0.96-0.08,0.95-0.11-0.01-0.08c-0.41,0-0.88-0.04-1.3,0.02c-0.73,0.1-1.12,0.57-1.62,1.07
					c-1.45,1.42-0.31,0.91-2.74,1.08c-3.52,0.24-0.12,4.87-8.45,2.61c-0.39-0.11-1.08,0.07-1.37,0.37
					c-1.31,1.34-3.74,1.42-5.44,2.55c-1.09,0.72-2.6,0.16-4.08,0.76c-0.79,0.32-1.51,0.98-2.21,1.45c-0.46,0.31-0.91,0.61-1.37,0.92
					c-1.25,0.84-1.53-2.48-1.22-2.99c1.28-2.08,0.49-2.82,0.96-5.13c0.44-2.11,0.18-3.51-0.17-5.68c-0.28-1.76,1.36-3.43,1.04-5.31
					c-0.22-1.28-0.75-2.26,0.18-3.25c0.4-0.43,1.37-1.08,1.39-1.74c0.08-2.56-0.23-4.09,1.56-5.97c0.06-0.08,0.09-0.16,0.07-0.26
					c-1.74-3.4-2.02-5.38-0.51-8.89c0.92-2.16,1.68-3.77,0.84-6.04c-0.88-2.39-5.7-2.98-7.62-1.87c-0.98,0.57-1.29,1.44-1.16,2.53
					c0.26,2.19-0.42,1.46-0.98,3.01c-1.23,3.36-1.13,6.4-1.25,9.99c-0.08,2.37-0.79,4.87-0.7,7.2c0.11,2.82,1.13,6.68-0.56,9.02
					c-1.25,1.74-0.4,7.6-0.49,9.77c-0.05,1.19-0.52,1.96-1.06,3.05c-0.46,0.94,0,3.12,0,4.19c0.58-0.24,1.16-0.47,1.74-0.71
					c-1.48-0.47-1.73-0.45-3.18,0.09c-0.15,0.05-0.89,0.49-0.53,0.73c0.26,0.17,0.52,0.34,0.78,0.52c0.35-0.29,0.69-0.58,1.04-0.87
					c-2.66,0.26-5.31,0.52-7.97,0.78c-0.34,0.03-1.36,0.36-1.04,0.87c0.51,0.82,1.14,2.72,2.17,2.93c1.94,0.38,3.89,0.77,5.83,1.15
					c1.91,0.38,0.75,2.76,0.99,3.93c0.4,2.03,0.99,3.03-0.4,4.66c-0.06,0.08-0.09,0.16-0.07,0.26c0.78,1.67,1.64,3.02,1.64,4.86
					c0,1.66-0.59,4.53,0.06,6.07c1.58,3.79,3.19,7.5,5.02,11.17c0.22,0.44,0.99,0.24,1.34,0.1c2.79-1.12,10.01-1.34,6.62-6.34
					c-0.14-0.2-0.57-0.15-0.76-0.13c-0.61,0.06-1.22,0.11-1.83,0.17c-0.29,0.03-0.59,0.06-0.88,0.08c-0.86,0.09-0.91,0.09-0.13,0
					c0-1.56,0.04-2.75-0.46-4.21c-0.39-1.14-0.16-2.55-0.16-3.75c0-1.09-1.88-1.7-0.69-2.51c0.16-0.11,0.43-0.28,0.38-0.51
					c-0.41-1.71-1.36-3.79-1-5.55c0.59-2.9,0.75-3.4-0.52-6.01c-1.15-2.37,0.71-3.83,2.53-4.72c2.81-1.38,4.96-3.03,8.11-1.4
					c0.52,0.27,1.48-0.08,1.74-0.58c0.5-1,1.02-1.98,1.41-3.02c-0.52,0.21-1.04,0.42-1.56,0.63c3.07,0.29,4-0.12,6.44-0.66
					c1.79-0.4,3.57-0.8,5.36-1.2c0.99-0.22,3.17-2.17,1.96-2.17c2.6,0,5.2,0.23,6.98-2.15c0.33-0.45-0.41-0.57,1.03-0.71
					c0.31-0.03,0.67-0.16,0.91-0.37c1.91-1.67,0.99-1.26,3.92-1.26c0.44,0,1.35-0.21,1.35-0.78c0-0.35,0-0.69,0-1.04
					c-0.45,0.26-0.9,0.52-1.35,0.78c1.47,0,2.94-0.07,4.33-0.64c1.71-0.7,2.76-2.33,4.47-2.96c1.64-0.6,3.57-1.31,4.78-2.66
					c1.26-1.4,3.5-3.92,5.14-4.52c0.28-0.1,0.59-0.3,0.59-0.62c0-1.59,1.33-2.5,2.35-3.63c1.16-1.29,1.73-2.97,2.41-4.54
					C479.05,69.27,477.14,69.49,476.88,70.09z"/>
			</g>
		</g>
	</g>
	<g>
		<path class="st8" d="M81.65,139.56l1.09-3.5l1.17,0.36l-2.64,8.51l-1.17-0.36l1.09-3.51l-9.49-2.95l0.47-1.5L81.65,139.56z"/>
		<path class="st8" d="M81.63,145.86l-0.43,1.51l-4.82-1.36l-0.01,0.03c0.33,0.35,0.57,0.83,0.68,1.36
			c0.11,0.51,0.12,1.09-0.04,1.66c-0.32,1.12-1.46,2.72-4.12,1.97l-4.59-1.3l0.43-1.51l4.43,1.25c1.24,0.35,2.44,0.15,2.84-1.27
			c0.28-0.98-0.14-1.93-0.83-2.42c-0.17-0.14-0.37-0.22-0.64-0.29l-4.66-1.32l0.43-1.51L81.63,145.86z"/>
		<path class="st8" d="M71.07,153.93c-1.92-0.46-3.04,0.66-3.43,2.18c-0.28,1.09-0.27,1.79-0.19,2.42h-1.08
			c-0.09-0.59-0.11-1.58,0.23-2.91c0.66-2.58,2.63-3.71,4.97-3.11s3.81,2.56,3.18,5c-0.7,2.73-3.12,2.88-4.55,2.52
			c-0.29-0.07-0.5-0.17-0.65-0.22L71.07,153.93z M70.93,158.65c0.89,0.25,2.4,0.19,2.84-1.52c0.4-1.54-0.75-2.55-1.7-2.92
			L70.93,158.65z"/>
		<path class="st8" d="M67.61,167.11l-3.17-1.97l0.34-1.57l10.04,6.38l-0.4,1.83l-11.79,1.62l0.35-1.62l3.71-0.5L67.61,167.11z
			 M67.87,171.21l3.39-0.46c0.77-0.11,1.46-0.14,2.12-0.17l0.01-0.03c-0.61-0.32-1.23-0.65-1.85-1.03l-2.91-1.84L67.87,171.21z"/>
		<path class="st8" d="M63.86,174.99c-0.36,0.4-0.81,1.15-0.96,1.92c-0.22,1.12,0.2,1.75,0.85,1.88c0.68,0.13,1.14-0.23,1.75-1.3
			c0.8-1.43,1.72-1.99,2.66-1.81c1.27,0.25,2.1,1.55,1.74,3.38c-0.17,0.86-0.54,1.57-0.89,1.99l-0.97-0.59
			c0.26-0.29,0.64-0.86,0.79-1.65c0.18-0.91-0.21-1.51-0.8-1.63c-0.65-0.13-1.04,0.33-1.65,1.35c-0.81,1.37-1.64,1.99-2.81,1.77
			c-1.38-0.27-2.13-1.62-1.74-3.63c0.18-0.93,0.56-1.75,1-2.28L63.86,174.99z"/>
		<path class="st8" d="M68.82,183.73l-4.21,0.46c-0.92,0.1-1.78,0.19-2.62,0.22l-0.01,0.05c0.77,0.33,1.57,0.75,2.37,1.17l3.81,2.06
			l-0.22,1.3l-4.17,0.66c-1,0.16-1.88,0.27-2.71,0.33l-0.01,0.05c0.78,0.27,1.57,0.64,2.46,1.08l3.77,1.88l-0.25,1.53l-7.45-4.06
			l0.23-1.41l3.99-0.68c0.93-0.15,1.76-0.27,2.72-0.33l0.01-0.04c-0.91-0.37-1.69-0.77-2.49-1.21l-3.53-2l0.23-1.41l8.34-1.26
			L68.82,183.73z"/>
		<path class="st8" d="M58.32,199.35l1.02,0.01l0.01-0.05c-0.56-0.56-0.99-1.56-0.83-2.78c0.23-1.73,1.49-2.47,2.63-2.31
			c1.92,0.26,2.72,2.24,2.26,5.55l0.16,0.02c0.66,0.09,1.87,0.05,2.1-1.7c0.11-0.8-0.01-1.66-0.29-2.31l1-0.23
			c0.33,0.77,0.47,1.83,0.33,2.91c-0.35,2.62-2.1,3.03-3.69,2.82l-2.97-0.4c-0.69-0.09-1.37-0.15-1.92-0.11L58.32,199.35z
			 M62.4,199.67c0.26-1.7,0.24-3.66-1.3-3.87c-0.94-0.13-1.47,0.49-1.58,1.28c-0.15,1.12,0.41,1.91,1.05,2.25
			c0.14,0.07,0.3,0.13,0.45,0.15L62.4,199.67z"/>
		<path class="st8" d="M63.66,203.71c0.82,0.09,1.5,0.14,2.17,0.16l-0.15,1.38l-1.33-0.05l0,0.04c0.71,0.51,1.35,1.58,1.2,3
			c-0.13,1.19-0.98,2.97-3.72,2.68l-4.76-0.51l0.17-1.56l4.6,0.49c1.29,0.14,2.41-0.26,2.57-1.74c0.11-1.03-0.48-1.9-1.26-2.25
			c-0.17-0.09-0.42-0.15-0.66-0.18l-4.8-0.51l0.17-1.56L63.66,203.71z"/>
		<path class="st8" d="M61.56,216.91l-1.07-0.09l0.36-4.39l1.07,0.09L61.56,216.91z"/>
		<path class="st8" d="M67.56,218.97l-0.09,1.55l-5.38-0.31l0,0.05c0.41,0.35,0.79,0.69,1.14,1.01l3.97,3.92l-0.11,1.92l-4.48-4.62
			l-6.69,4.31l0.11-1.84l5.71-3.64l-1.16-1.21l-4.25-0.25l0.09-1.55L67.56,218.97z"/>
		<path class="st8" d="M59.78,235.78c-2.97-0.07-4.2-2.32-4.15-4.41c0.06-2.34,1.69-4.1,4.23-4.04c2.68,0.07,4.21,2,4.15,4.39
			C63.95,234.21,62.23,235.85,59.78,235.78z M59.87,228.93c-1.76-0.04-3.11,1.01-3.15,2.55c-0.04,1.5,1.24,2.66,3.05,2.7
			c1.36,0.03,3.1-0.66,3.15-2.51C62.96,229.81,61.39,228.96,59.87,228.93z"/>
		<path class="st8" d="M61.5,237.78c0.83-0.02,1.51-0.05,2.17-0.12l0.03,1.38l-1.29,0.1l0,0.05c0.77,0.47,1.5,1.25,1.53,2.68
			c0.02,1.18-0.62,2.08-1.56,2.48l0,0.04c0.45,0.26,0.81,0.59,1.06,0.94c0.38,0.51,0.59,1.08,0.6,1.9c0.02,1.14-0.64,2.85-3.42,2.91
			l-4.72,0.1l-0.03-1.54l4.54-0.1c1.54-0.03,2.46-0.66,2.43-1.93c-0.02-0.89-0.65-1.58-1.36-1.83c-0.2-0.07-0.47-0.12-0.73-0.11
			l-4.96,0.11l-0.03-1.54l4.81-0.1c1.28-0.03,2.19-0.65,2.17-1.85c-0.02-0.98-0.76-1.68-1.5-1.92c-0.22-0.08-0.47-0.12-0.72-0.11
			l-4.84,0.1l-0.03-1.54L61.5,237.78z"/>
		<path class="st8" d="M62.96,266.82c-3.83,0.35-6.09-1.96-6.37-5.02c-0.29-3.16,1.78-5.6,5.14-5.91c3.53-0.33,6.06,1.82,6.35,5.02
			C68.38,264.18,66.25,266.51,62.96,266.82z M61.91,257.54c-2.38,0.22-4.38,1.8-4.15,4.24c0.23,2.45,2.45,3.65,4.97,3.41
			c2.21-0.2,4.4-1.66,4.17-4.24C66.67,258.39,64.35,257.31,61.91,257.54z"/>
		<path class="st8" d="M63.33,268.85c0.82-0.13,1.49-0.25,2.13-0.4l0.21,1.36l-1.27,0.27l0.01,0.05c0.83,0.36,1.66,1.04,1.88,2.45
			c0.18,1.17-0.34,2.15-1.21,2.66l0.01,0.04c0.48,0.2,0.88,0.48,1.18,0.79c0.44,0.46,0.72,0.99,0.85,1.8c0.18,1.13-0.25,2.91-3,3.34
			l-4.67,0.73l-0.24-1.52l4.49-0.7c1.52-0.24,2.35-0.98,2.15-2.23c-0.14-0.88-0.85-1.48-1.6-1.63c-0.21-0.04-0.48-0.05-0.74-0.01
			l-4.9,0.76l-0.24-1.52l4.75-0.74c1.26-0.2,2.08-0.94,1.9-2.12c-0.15-0.97-0.98-1.56-1.74-1.7c-0.23-0.05-0.48-0.05-0.72-0.01
			l-4.78,0.74l-0.24-1.52L63.33,268.85z"/>
		<path class="st8" d="M60.04,284.79c0.54-0.08,1.34-0.22,2.04-0.37l9.47-2.08l0.33,1.52l-4.92,1.08l0.01,0.04
			c0.99,0.35,1.77,1.2,2.07,2.56c0.46,2.09-0.83,3.93-3.22,4.44c-2.8,0.62-4.61-0.98-5.02-2.86c-0.27-1.22-0.05-2.29,0.85-3.15
			l-0.01-0.05l-1.31,0.21L60.04,284.79z M63.53,285.69c-0.18,0.04-0.35,0.11-0.5,0.18c-0.92,0.51-1.41,1.55-1.16,2.67
			c0.35,1.6,1.78,2.3,3.57,1.9c1.57-0.34,2.72-1.51,2.36-3.15c-0.23-1.05-1.11-1.88-2.26-1.95c-0.17,0-0.38-0.01-0.6,0.04
			L63.53,285.69z"/>
		<path class="st8" d="M68.41,301.59c-2.86,0.79-4.69-1-5.25-3.02c-0.62-2.25,0.43-4.42,2.88-5.09c2.59-0.71,4.61,0.7,5.25,3
			C71.94,298.88,70.77,300.94,68.41,301.59z M66.5,295.01c-1.69,0.47-2.68,1.87-2.27,3.35c0.4,1.45,1.96,2.18,3.7,1.7
			c1.31-0.36,2.78-1.52,2.28-3.31C69.72,294.96,67.97,294.6,66.5,295.01z"/>
		<path class="st8" d="M70.38,309.39l-3.73,0.03l-0.55-1.51l11.89,0.03l0.64,1.76l-9.09,7.68l-0.57-1.56l2.86-2.41L70.38,309.39z
			 M72.79,312.71l2.62-2.21c0.59-0.5,1.15-0.9,1.7-1.28l-0.01-0.03c-0.68,0.06-1.39,0.11-2.11,0.12l-3.44,0L72.79,312.71z"/>
		<path class="st8" d="M75.45,317.07c0.87-0.37,1.61-0.7,2.28-1.04l0.53,1.27l-1.43,0.66l0.03,0.07c1.15-0.06,2.14,0.55,2.55,1.52
			c0.07,0.17,0.1,0.29,0.13,0.43l-1.27,0.53c-0.03-0.16-0.08-0.32-0.16-0.51c-0.43-1.02-1.45-1.44-2.55-1.21
			c-0.2,0.04-0.42,0.1-0.65,0.2l-3.94,1.66l-0.6-1.43L75.45,317.07z"/>
		<path class="st8" d="M75.61,330.13c-0.35-0.29-0.98-1-1.48-2.05c-1.11-2.36-0.35-4.59,1.87-5.64c2.23-1.05,4.63-0.17,5.83,2.38
			c0.4,0.84,0.55,1.67,0.55,2.15l-1.17,0.16c0.02-0.42-0.07-1.04-0.43-1.81c-0.84-1.79-2.53-2.18-4.04-1.47
			c-1.68,0.79-2.16,2.44-1.43,3.99c0.38,0.81,0.83,1.25,1.18,1.57L75.61,330.13z"/>
		<path class="st8" d="M86.69,326.66l0.75,1.38l-4.4,2.39l0.02,0.03c0.48,0.02,0.99,0.19,1.44,0.5c0.44,0.29,0.85,0.7,1.13,1.21
			c0.55,1.02,0.86,2.97-1.57,4.29l-4.19,2.28l-0.75-1.38l4.05-2.2c1.14-0.62,1.85-1.59,1.14-2.9c-0.49-0.89-1.45-1.28-2.29-1.15
			c-0.22,0.02-0.42,0.1-0.66,0.24l-4.25,2.31l-0.75-1.38L86.69,326.66z"/>
		<path class="st8" d="M83.93,345.37l0.79-0.64l-0.03-0.05c-0.79-0.08-1.76-0.56-2.41-1.61c-0.93-1.48-0.43-2.85,0.55-3.46
			c1.64-1.03,3.53-0.01,5.28,2.83l0.14-0.09c0.56-0.35,1.47-1.15,0.53-2.65c-0.43-0.68-1.07-1.27-1.7-1.59l0.63-0.81
			c0.74,0.38,1.53,1.11,2.11,2.03c1.4,2.24,0.32,3.67-1.04,4.52l-2.54,1.59c-0.59,0.37-1.15,0.76-1.55,1.14L83.93,345.37z
			 M87.27,343.01c-0.88-1.47-2.15-2.97-3.47-2.15c-0.8,0.5-0.82,1.31-0.4,1.99c0.6,0.95,1.54,1.21,2.25,1.06
			c0.15-0.03,0.31-0.09,0.44-0.17L87.27,343.01z"/>
		<path class="st8" d="M89.8,347.46c-1.59,1.17-1.47,2.75-0.56,4.03c0.65,0.92,1.19,1.37,1.72,1.71l-0.7,0.82
			c-0.51-0.32-1.27-0.94-2.07-2.06c-1.54-2.17-1.13-4.41,0.84-5.81c1.97-1.4,4.42-1.25,5.87,0.81c1.63,2.3,0.19,4.25-1.02,5.1
			c-0.24,0.17-0.45,0.28-0.58,0.35L89.8,347.46z M93.31,350.61c0.77-0.52,1.7-1.71,0.67-3.15c-0.92-1.3-2.43-1.08-3.33-0.6
			L93.31,350.61z"/>
		<path class="st8" d="M99.81,360.05c-2.31,1.86-4.7,0.95-6.02-0.68c-1.47-1.82-1.36-4.22,0.61-5.82c2.09-1.69,4.5-1.2,6.01,0.66
			C101.97,356.15,101.72,358.51,99.81,360.05z M95.44,354.77c-1.37,1.1-1.71,2.78-0.75,3.98c0.94,1.17,2.67,1.22,4.07,0.09
			c1.06-0.85,1.94-2.5,0.77-3.95C98.37,353.44,96.63,353.81,95.44,354.77z"/>
		<path class="st8" d="M107,356.52l1.04,1.18l-8.81,7.8l-1.04-1.18L107,356.52z"/>
		<path class="st8" d="M109.58,370.47c-2.13,2.07-4.6,1.38-6.06-0.12c-1.63-1.68-1.75-4.08,0.07-5.85c1.93-1.87,4.37-1.61,6.04,0.1
			C111.37,366.4,111.33,368.77,109.58,370.47z M104.73,365.62c-1.26,1.22-1.45,2.93-0.38,4.03c1.05,1.08,2.77,0.97,4.06-0.29
			c0.97-0.95,1.7-2.67,0.41-4S105.83,364.55,104.73,365.62z"/>
		<path class="st8" d="M119.31,374.05c-0.42,0.41-0.88,0.86-1.53,1.59l-3.13,3.45c-1.23,1.36-2.28,1.94-3.37,1.89
			c-1.11-0.02-2.17-0.67-2.97-1.4c-0.77-0.7-1.46-1.64-1.69-2.42l1.04-0.56c0.2,0.63,0.66,1.45,1.46,2.17
			c1.19,1.08,2.59,1.29,3.94-0.21l0.6-0.66l-0.03-0.02c-0.86,0.23-1.95,0.05-2.94-0.85c-1.59-1.44-1.59-3.72-0.1-5.37
			c1.82-2.01,4.27-1.87,5.74-0.54c1.11,1.01,1.23,2.1,1.06,2.84l0.03,0.02l0.87-0.85L119.31,374.05z M115.98,375.31
			c0.17-0.18,0.3-0.36,0.38-0.55c0.36-0.82,0.25-1.85-0.59-2.62c-1.11-1.01-2.69-0.86-3.94,0.52c-1.06,1.17-1.3,2.71-0.04,3.85
			c0.71,0.65,1.74,0.82,2.62,0.36c0.23-0.12,0.45-0.31,0.62-0.49L115.98,375.31z"/>
		<path class="st8" d="M116.06,381.76l5.13-6.17l1.21,1l-5.13,6.17L116.06,381.76z M123.97,374.97c-0.3,0.39-0.86,0.45-1.34,0.05
			c-0.43-0.35-0.47-0.91-0.16-1.29c0.33-0.4,0.9-0.44,1.34-0.08C124.26,374.02,124.3,374.57,123.97,374.97z"/>
		<path class="st8" d="M124.54,388.1c-0.45-0.09-1.33-0.44-2.25-1.15c-2.06-1.59-2.41-3.93-0.91-5.87c1.5-1.96,4.04-2.27,6.27-0.54
			c0.74,0.57,1.25,1.24,1.47,1.66l-0.97,0.68c-0.18-0.39-0.53-0.89-1.21-1.41c-1.57-1.21-3.25-0.79-4.27,0.54
			c-1.13,1.47-0.81,3.16,0.55,4.21c0.71,0.54,1.31,0.73,1.77,0.86L124.54,388.1z"/>
		<path class="st8" d="M130.07,392.35l0.47-0.9l-0.04-0.03c-0.76,0.24-1.84,0.17-2.85-0.53c-1.44-1-1.52-2.45-0.86-3.4
			c1.11-1.59,3.24-1.4,5.97,0.52l0.09-0.14c0.38-0.54,0.9-1.64-0.55-2.65c-0.66-0.46-1.48-0.75-2.19-0.79l0.26-0.99
			c0.83,0.05,1.84,0.41,2.74,1.04c2.17,1.51,1.74,3.25,0.82,4.57l-1.71,2.46c-0.4,0.57-0.76,1.15-0.98,1.66L130.07,392.35z
			 M132.21,388.85c-1.39-1.01-3.15-1.89-4.04-0.61c-0.54,0.78-0.24,1.53,0.42,1.99c0.92,0.64,1.89,0.51,2.48,0.09
			c0.13-0.09,0.25-0.21,0.34-0.33L132.21,388.85z"/>
		<path class="st8" d="M139.82,384.7l1.32,0.85l-6.36,9.89l-1.32-0.85L139.82,384.7z"/>
		<path class="st8" d="M146.08,389.47c0.71,0.27,1.61,0.67,2.7,1.28c1.34,0.76,2.15,1.6,2.48,2.47c0.31,0.79,0.26,1.69-0.23,2.55
			c-0.5,0.88-1.17,1.41-1.98,1.62c-1.11,0.3-2.48,0-3.81-0.74c-0.4-0.23-0.77-0.45-1.04-0.7l-2.2,3.89l-1.35-0.76L146.08,389.47z
			 M144.79,394.92c0.25,0.24,0.61,0.48,1.06,0.73c1.63,0.92,3.04,0.75,3.8-0.59c0.73-1.28,0.1-2.46-1.4-3.3
			c-0.59-0.33-1.07-0.55-1.33-0.62L144.79,394.92z"/>
		<path class="st8" d="M151.41,398.72c0.43-0.84,0.79-1.57,1.09-2.25l1.22,0.63l-0.68,1.42l0.06,0.03c0.84-0.78,2-0.94,2.93-0.46
			c0.16,0.08,0.26,0.15,0.37,0.25l-0.63,1.22c-0.13-0.1-0.26-0.19-0.45-0.29c-0.98-0.51-2.04-0.18-2.73,0.69
			c-0.12,0.16-0.26,0.35-0.38,0.57l-1.96,3.79l-1.38-0.71L151.41,398.72z"/>
		<path class="st8" d="M162.96,405.98c-1.26,2.68-3.82,2.91-5.71,2.02c-2.11-1-3.07-3.21-1.99-5.5c1.14-2.43,3.53-3.04,5.69-2.02
			C163.2,401.54,164.01,403.77,162.96,405.98z M156.73,403.13c-0.75,1.59-0.33,3.25,1.06,3.91c1.36,0.64,2.93-0.06,3.7-1.7
			c0.58-1.23,0.65-3.1-1.03-3.89C158.78,400.66,157.38,401.76,156.73,403.13z"/>
		<path class="st8" d="M160.42,411.83c0.67,0.24,1.32,0.32,1.82,0.12c0.58-0.26,0.97-0.77,1.74-2.53l2.66-6.16l1.44,0.62l-2.89,6.68
			c-0.62,1.43-1.26,2.25-2.26,2.62c-0.9,0.32-2.05,0.11-2.82-0.23L160.42,411.83z M169.14,401.88c-0.17,0.45-0.68,0.68-1.26,0.43
			c-0.54-0.23-0.72-0.76-0.53-1.21c0.2-0.47,0.74-0.67,1.28-0.44C169.15,400.89,169.34,401.41,169.14,401.88z"/>
		<path class="st8" d="M169.64,409.17c-0.7,1.85,0.26,3.1,1.72,3.69c1.04,0.42,1.74,0.5,2.38,0.5l-0.14,1.07
			c-0.6,0.01-1.58-0.09-2.85-0.6c-2.47-0.99-3.34-3.08-2.45-5.33c0.9-2.25,3.03-3.45,5.37-2.52c2.62,1.05,2.46,3.46,1.92,4.83
			c-0.11,0.28-0.23,0.48-0.3,0.61L169.64,409.17z M174.3,409.91c0.36-0.86,0.5-2.35-1.14-3.01c-1.48-0.59-2.63,0.42-3.12,1.31
			L174.3,409.91z"/>
		<path class="st8" d="M181.9,417.49c-0.45,0.05-1.4-0.01-2.49-0.4c-2.45-0.88-3.49-3-2.67-5.31c0.83-2.32,3.15-3.39,5.81-2.44
			c0.87,0.31,1.57,0.79,1.91,1.13l-0.72,0.94c-0.29-0.31-0.78-0.69-1.58-0.98c-1.87-0.67-3.33,0.25-3.9,1.82
			c-0.63,1.75,0.2,3.26,1.81,3.84c0.84,0.3,1.47,0.3,1.95,0.28L181.9,417.49z"/>
		<path class="st8" d="M188.97,409.26l-0.72,2.19l2.14,0.7l-0.35,1.05l-2.14-0.7l-1.35,4.11c-0.31,0.95-0.2,1.58,0.63,1.85
			c0.39,0.13,0.69,0.17,0.9,0.19l-0.27,1.06c-0.32,0.02-0.81-0.06-1.39-0.25c-0.7-0.23-1.19-0.62-1.42-1.11
			c-0.29-0.55-0.22-1.28,0.07-2.17l1.37-4.16l-1.27-0.42l0.35-1.06l1.27,0.42l0.6-1.83L188.97,409.26z"/>
	</g>
</g>
<g id="ARTE">
	<path class="st13" d="M180.58,284.09c12.18,7.95,10.37-17.03,15.61-23.96c-0.18-10.8,3.72-20.5,6.58-31.9
		c3.09-12.34,4.18-23.6,14-27.5c-13.95,32.72-16.08,69.9-14.1,104.95c0.47,0.52,0.82,1.09,1.11,1.72c3.38,1.11,8.19,0.48,10.18-2.79
		c-3.97-17.41-4.14-41.56,0.52-61.82c2.17-9.43,5.42-21.97,7.32-32.29c1.31-7.1,5.34-11,11.48-15.76c24.5-6.54,49.22-0.42,75.17,3.4
		c15.72,2.31,31.77,6.16,47.23,7.6c20.87,1.94,39.27-6.88,58.08,2.49c0.27,1.68,0.38,3.35,0.63,5.03
		c-13.06,32.43-9.26,68.73-3.83,102.38c1.66,1.5,3.69,2.78,5.8,3.52c8.52-0.51,5.83-7.48,4.12-14.17
		c-1.45-5.66-3.27-15.13-4.09-21.24c-1.39-10.36-1.12-17.57-1.21-27.17c1.47-8.74,4.32-17.57,7.48-26.58
		c1.32-3.75,3.39-7.22,3.91-11.22c1.15-8.97,0.56-16.74,5.37-24.04c3.03-4.59,6.89-8.19,11.99-12.54
		c9.05,0.92,17.52,5.36,26.23,7.62c3.1-1.59,5.38-5.25,5.24-8.82c-8.64-6.46-18.87-12.34-27.88-18.14
		c3.68-1.88,8.07-1.77,12.48-5.51c14.36-12.18,31.4-33.51,39.71-47.12c5.42-8.87,8.85-20.69,13.05-31.64
		c7.02-18.3,10.62-30.64,3.85-45.12c-2.61,3-1.13,7.35-1.4,11.25c-0.49,7.2-1.77,16.04-3.97,22.83c-1.7,5.23-5.62,10.94-8.64,17.04
		c-6.11,12.4-12.95,24.27-21.68,36.14c-10.33,14.06-26.08,36.05-40.94,36.6c-10.09,0.38-23.9-6.13-32.28-16.65
		c-14.74-18.48-21.78-42.05-22.84-65.25c-0.38-8.4-3.29-17.24-4.71-26.38c-1.08-6.94-1.86-14.63-6.51-19.69
		c1.24,14.12,2.95,28.83,4.53,43.71c2.86,26.88,6.41,51.51,23.23,73.55c5.97,7.83,13.22,14.12,17.29,24.07
		c-8.24,10.29-23.15,22.46-35.8,24.03c-16.57,2.05-39.51-0.57-56.31-2.77c-27.61-3.62-53.7-12.1-78.76-12.15
		c-10.79-0.02-24.94,3.07-33.88,9.7c-1.81,1.34-3.5,3.05-4.9,4.72c-10.56,12.53-14.33,34.72-20.08,53.32
		c-2.41,7.81-2.99,15.52-4.9,22.39C182.68,274.86,179.69,278.89,180.58,284.09"/>
	<path class="st14" d="M219.06,292.36c0.78,3.13-0.86,6.61,0.92,9.29c2.61,0.88,6.11,0.87,8.79,0.08c2.19-4.23-2.1-9.5,0.49-14.05
		c0.91-7.6,0.2-17.44,2-26.02c0.55-2.62,1.9-5.12,2.28-7.8c1.1-7.67,0.84-20.94,11.14-25.04c5.79-2.31,21.23,1.96,27.53,3.32
		c11.17,2.41,20.27,5.47,29.94,6.27c19.61,1.62,40.39-2.81,60.24-1.96c5.54,0.24,14.2-1.25,16.84,5.51c1.4,3.58-0.07,8.14,0.09,12.6
		c0.28,7.71-0.29,17.84-0.79,28.35c-0.63,13.41-2.03,33.58,12.6,30.99c1.1-0.99,1.86-2.34,1.97-3.82
		c-17.55-24.82,5.15-59.86-13.44-84.39c-7.06-0.5-14.07,1.76-21.21,1.69c-6.72-0.07-13.72-1.43-20.48-1.58
		c-6.82-0.14-13.81,1.3-20.48,0.99c-6.29-0.29-11.62-0.88-17.33-0.6c-14.78,0.72-26.41,0.34-40.2-6.32
		c-6.48-3.13-15.21-5.93-23.46-6.18c-5.17,9.12-7.59,18.48-11.71,28.34c-1.51,3.63-1.22,9-2,12.55
		C220.12,266.9,221.4,279.94,219.06,292.36"/>
	<path class="st15" d="M222.42,357.25c-0.6-5.22,3.9-12.69,6.74-16.28c9.61-12.14,27.89-13.08,41.95-13.18
		c3.51-11.12-8.89-20.42-4.33-31.79c-6.11-12.01-19.13-4.01-26.05,2.26c-0.76-0.52-1.49-1.38-1.45-2.36
		c6.87-9.83,26.46-16.76,31.76-1.27c15.6-1.65,23.23,13.86,10.82,24.52c-1.18,2.93-0.49,6.61,1.09,9.24
		c5.82,0.47,10.05-1.67,15.21-0.9c9.51,1.42,15.31,11.49,24.41,14.32c8.27-6.21,8.96-19.18,13.29-28.37
		c-0.06-9.21-4.35-19.3-0.12-28c0.18-1.45-1.42-2.73-0.85-4.27c8.54-2.69,14.23,9.3,12.88,15.61c-2.12-0.87-3.87-3.23-6.44-2.82
		c-2.08,4.83-0.96,10.01-0.06,14.81c3.02,16.18,8.33,31.28,9.67,47.75c0.71,8.69-0.17,17.22,2.78,24.97
		c-2.63-0.3-5.25-1.14-7.83,0.07c-1.48-1.48-0.24-3.4,0.38-4.94c0.53-16.26-3.43-33.05-8.02-48.46
		c-6.28,7.44-6.32,21.63-16.49,25.02c-7.47-4.42-14.76-10.04-22.85-13.07c-7.37,24.09-10.6,50.08-7.88,75.18
		c4.15,0.42,7.59-3.6,11.76-3.01c0.87,1.09,1.64,2.67,1.35,4.11c-2.51,4.13-8.41,3.95-12.18,6.49c-2.4,6.12,0.99,12.87,2.72,19.45
		c4.99,18.91,7.2,41.49,11.44,59.82c3.96,1.2,9,3.21,10.96,6.74c-6.2,1.46-13.27-0.71-19.69-0.8
		c-0.32-24.79-10.67-48.82-14.69-72.22c-0.58-3.36-0.01-6.83-3.21-9.2c-3.76,24.13,0.3,49.28,1.4,73.69
		c3.14,2.87,7.71,3.23,11.43,4.8c0.63,1.18,0.64,2.89-0.29,3.92c-5.69,0.93-12.64,0.22-18.31-1.77
		c-2.87-10.55-1.31-21.48-1.99-31.95c-0.4-6.09-1.56-12.66-2.15-19.03c-0.6-6.53-0.51-13.47-2.13-19.37
		c-1.46-5.32-6.06-10.18-7.01-15.82c-1.01-5.96,1.27-10.93,2.87-15.97c3.72-11.76,3.51-23.76-0.46-35.66
		C251.27,364.82,228.67,365.14,222.42,357.25 M233.11,354.02c8.47,3.72,17.9,6.14,27.05,6.19c0.38-7.63-2.22-15.45-3.61-22.88
		C246.56,336.94,234.84,343.82,233.11,354.02"/>
</g>
</svg>
