<?xml version="1.0" encoding="UTF-8" standalone="no"?>
<!-- Generator: Adobe Illustrator 28.2.0, SVG Export Plug-In . SVG Version: 6.00 Build 0)  -->

<svg
   version="1.1"
   id="Livello_1"
   x="0px"
   y="0px"
   viewBox="0 0 600.61157 453.53429"
   xml:space="preserve"
   sodipodi:docname="borderscape.svg"
   inkscape:version="1.3.2 (091e20e, 2023-11-25)"
   width="600.61157"
   height="453.53427"
   xmlns:inkscape="http://www.inkscape.org/namespaces/inkscape"
   xmlns:sodipodi="http://sodipodi.sourceforge.net/DTD/sodipodi-0.dtd"
   xmlns="http://www.w3.org/2000/svg"
   xmlns:svg="http://www.w3.org/2000/svg"><defs
   id="defs15" /><sodipodi:namedview
   id="namedview15"
   pagecolor="#ffffff"
   bordercolor="#000000"
   borderopacity="0.25"
   inkscape:showpageshadow="2"
   inkscape:pageopacity="0.0"
   inkscape:pagecheckerboard="0"
   inkscape:deskcolor="#d1d1d1"
   inkscape:zoom="0.77550844"
   inkscape:cx="133.46083"
   inkscape:cy="182.46094"
   inkscape:window-width="1464"
   inkscape:window-height="916"
   inkscape:window-x="54"
   inkscape:window-y="38"
   inkscape:window-maximized="1"
   inkscape:current-layer="Livello_1" />
<style
   type="text/css"
   id="style1">
	.st0{fill:#E53453;}
	.st1{fill:#808281;}
	.st2{fill:#FEFEFE;}
	.st3{fill:none;stroke:#575756;stroke-width:0.5;stroke-miterlimit:10;}
	.st4{font-family:'TimesNewRomanPSMT';}
	.st5{font-size:5.7057px;}
	.st6{letter-spacing:15;}
</style>
<g
   id="g10"
   transform="matrix(10.499379,0,0,10.499379,-1.6283364,2.8537723)">
	<path
   class="st0"
   d="M 10.43,1.74 C 10.35,1.66 10.27,1.58 10.19,1.5 c 0,-0.08 0,-0.16 0,-0.24 0,-0.2 0,-0.4 0,-0.72 0.85,0 1.7,0 2.52,0 0.49,1.05 0.49,2.13 0.3,3.14 -0.2,1.05 -0.14,2.09 -0.2,3.11 C 12.49,7.36 12.2,7.92 11.85,8.44 11.64,8.76 11.39,9.11 11.07,9.3 10.13,9.89 9.43,10.67 8.8,11.57 8.5,11.99 8.38,12.42 8.24,12.9 8,13.74 7.83,14.61 7.41,15.42 7.19,15.85 7,16.38 7.06,16.95 c 0.07,0.62 0.02,1.26 0.02,1.83 -0.36,0.59 -0.89,0.31 -1.33,0.4 -0.11,0.11 -0.23,0.22 -0.34,0.34 0,0.79 0.16,1.63 -0.04,2.37 -0.24,0.9 -0.14,1.77 -0.21,2.71 0.36,0 0.71,0 1.07,0 0.14,0.18 0.26,0.33 0.38,0.49 0.3,0 0.57,0 0.86,0 0.15,0.24 0.3,0.46 0.45,0.7 0.23,0.08 0.51,0.16 0.81,0.26 0,0.42 0,0.77 0,0.98 0.34,0.38 0.6,0.68 0.86,0.97 0.16,-0.16 0.3,-0.3 0.49,-0.49 0.16,0.21 0.31,0.43 0.61,0.84 -0.04,0.42 -0.07,1.12 -0.16,1.8 -0.05,0.32 -0.27,0.61 -0.33,0.93 -0.11,0.64 -0.17,1.28 -0.25,1.93 -0.08,0.24 -0.16,0.48 -0.24,0.72 -0.43,0.31 -0.95,0.54 -0.96,1.19 -0.37,-0.06 -0.59,0.13 -0.71,0.45 -0.16,0.42 -0.45,0.69 -0.93,0.81 -0.01,0.17 0.04,0.43 -0.06,0.54 -0.32,0.35 -0.23,0.68 -0.11,1.07 0.16,0.53 0.28,1.08 0.36,1.63 0.02,0.15 -0.14,0.33 -0.22,0.5 0.24,0.41 0.57,0.8 0.69,1.25 0.12,0.48 0.03,1.02 0.03,1.59 -0.38,0 -0.75,0 -1.16,0 C 6.65,41.64 6.05,40.72 5.56,39.78 5.3,39.28 5.15,38.82 5.17,38.27 5.19,37.74 5.24,37.19 4.93,36.71 4.64,36.25 4.7,35.76 4.7,35.26 4.69,34.43 4.78,33.59 4.68,32.77 4.57,31.92 4.55,31.05 4.18,30.25 4.16,30.2 4.05,30.19 3.98,30.16 3.99,29.74 3.95,29.34 3.76,28.94 3.58,28.57 3.94,28.08 3.57,27.71 3.52,27.66 3.5,27.57 3.51,27.5 3.68,26.4 3.24,25.35 3.26,24.26 3.3,21.92 3.27,19.57 3.27,17.23 c 0,-1.12 -0.12,-2.26 0.41,-3.57 1.13,-1.54 2.54,-3.19 4,-4.5 C 7.84,8.68 7.94,8.4 8.05,8.11 7.98,8.03 7.91,7.94 7.83,7.85 8.08,7.27 8.62,7.55 9.11,7.44 9.32,7.19 9.57,6.9 9.9,6.52 10.27,5.67 10.7,4.7 11.1,3.81 11.03,3.34 10.98,2.93 10.9,2.53 10.88,2.42 10.75,2.32 10.67,2.22 10.63,2.03 10.79,1.76 10.43,1.74 Z M 5.17,30.09 c 0,0.38 -0.03,0.82 0.01,1.25 0.04,0.41 0.16,0.81 0.23,1.21 0.06,0.4 0.09,0.81 0.16,1.39 C 5.5,34.09 5.46,34.46 5.55,35 6.46,34.26 7.52,33.76 8.05,32.57 8.05,32.35 8.09,32.02 8.04,31.72 7.99,31.39 7.86,31.08 7.69,30.53 7.61,30.46 7.34,30.23 7.12,30.05 7.1,29.71 7.08,29.45 7.06,29.09 c -0.67,0.35 -1.22,0.65 -1.89,1 z M 4.45,25.87 c 0,0.77 0,1.44 0,2.11 0,0.51 0.24,0.88 0.63,1.23 0.08,-0.22 0.12,-0.36 0.18,-0.52 0.44,0 0.86,0 1.31,0 0,-0.46 0,-0.88 0,-1.38 C 5.65,27.28 5.71,26.16 5.03,25.86 4.84,25.87 4.69,25.87 4.45,25.87 Z m 0.28,-10.2 c 0,0.78 0,1.51 0,2.39 0.44,-0.14 0.81,-0.27 1.07,-0.35 0.13,-0.42 0.23,-0.73 0.33,-1.03 -0.08,-0.1 -0.17,-0.18 -0.24,-0.27 -0.02,-0.03 0,-0.08 0,-0.21 0.3,-0.32 0.72,-0.67 0.72,-1.38 -0.66,0.3 -1.34,0.3 -1.88,0.85 z m 2.79,12.75 c 0.22,0.49 0.5,0.96 0.56,1.55 0.05,0.48 0.48,0.92 0.75,1.38 C 8.94,30.54 8.44,29.78 9.11,28.99 8.35,29.03 8.35,28.42 8.04,28.12 8,28.09 7.94,28.07 7.88,28.04 7.77,28.15 7.66,28.27 7.52,28.42 Z M 5.3,13.2 c -0.93,0.94 -0.93,0.94 -0.48,1.44 0.2,-0.67 0.68,-0.95 1.33,-0.96 0.41,0 0.71,-0.22 1,-0.45 0.11,-0.09 0.12,-0.29 0.26,-0.65 -0.53,0.26 -0.86,0.42 -1.28,0.62 -0.2,0 -0.52,0 -0.83,0 z m 2.26,-2.27 c -0.17,0.17 -0.34,0.33 -0.5,0.5 -0.15,0.16 -0.28,0.34 -0.53,0.65 1.03,-0.29 1.55,-0.8 1.79,-1.68 -0.29,0 -0.52,0 -0.76,0 0,0.22 0,0.38 0,0.53 z M 10.87,7.38 C 10.33,7.95 9.83,8.39 9.41,8.88 9.51,9.03 9.55,9.09 9.63,9.19 10.2,8.93 10.52,8.4 10.93,8.06 10.9,7.8 10.89,7.66 10.87,7.38 Z M 4.41,21.06 c 0,-0.63 0,-1.24 0,-1.87 -0.15,0 -0.25,0 -0.4,0 0,0.63 0,1.24 0,1.87 0.15,0 0.26,0 0.4,0 z m 3.01,5.78 c 0.05,-0.05 0.1,-0.11 0.16,-0.16 -0.02,-0.11 -0.04,-0.21 -0.07,-0.37 -0.17,0.03 -0.3,0.06 -0.6,0.11 0.25,0.21 0.38,0.32 0.51,0.42 z"
   id="path1" />
	
	
	
	<path
   class="st2"
   d="M 7.52,28.42 C 7.66,28.27 7.77,28.16 7.88,28.04 7.94,28.07 8,28.09 8.04,28.13 8.35,28.43 8.35,29.03 9.11,29 8.43,29.79 8.94,30.55 8.83,31.36 8.57,30.9 8.14,30.46 8.08,29.98 8.02,29.38 7.74,28.91 7.52,28.42 Z"
   id="path5" />
	
	
	<path
   class="st2"
   d="m 10.87,7.38 c 0.02,0.28 0.04,0.43 0.06,0.67 C 10.52,8.4 10.2,8.92 9.63,9.18 9.56,9.08 9.52,9.02 9.41,8.87 9.83,8.39 10.33,7.95 10.87,7.38 Z"
   id="path8" />
	<path
   class="st2"
   d="m 4.41,21.06 c -0.15,0 -0.25,0 -0.4,0 0,-0.63 0,-1.24 0,-1.87 0.15,0 0.25,0 0.4,0 0,0.63 0,1.24 0,1.87 z"
   id="path9" />
	<path
   class="st2"
   d="M 7.42,26.84 C 7.29,26.73 7.16,26.63 6.91,26.42 c 0.3,-0.06 0.43,-0.08 0.6,-0.11 0.03,0.16 0.05,0.26 0.07,0.37 -0.06,0.06 -0.11,0.11 -0.16,0.16 z"
   id="path10" />
</g>
<path
   class="st3"
   d="m 94.96595,8.7334243 c 3.674782,3.7797767 9.76442,11.2343357 11.7593,21.6287207 0.52497,2.834831 1.25993,6.824595 0,11.759305 -1.36492,5.459675 -4.51473,9.029464 -5.87965,10.499378 -5.144696,5.984645 -8.084522,4.514731 -11.129344,9.44944 -2.51985,4.199753 -1.784894,7.454559 -4.724717,8.819479 -1.364921,0.629963 -1.784894,0 -5.879652,0 -4.619727,-0.10501 -7.034586,-0.10501 -8.084521,1.15493 -1.574908,1.784896 0.839949,4.199753 1.154931,10.604374 0.105011,2.414856 0.314973,7.034585 -2.309863,10.49938 -1.154932,1.574905 -2.099877,1.784894 -5.879654,4.094758 -5.669665,3.359801 -4.304744,3.464791 -4.094758,3.884771 0.209973,0.41997 -2.204867,2.83483 -2.414856,1.99488 -0.209972,-1.25992 -11.234334,-1.99488 -14.069169,2.93982 -0.944943,1.57491 -0.734956,3.56979 -0.62996,5.87966 0.314973,3.56979 1.364918,4.09476 1.784894,7.66454 0.31497,2.51985 0.62996,5.77466 -1.154934,7.66455 -2.204868,2.20487 -5.144693,0.31497 -7.034583,2.30986 -2.309864,2.51985 1.049938,7.03459 -1.154932,9.34445 -0.839949,0.83995 -1.679898,0.41997 -7.034583,1.04994 -4.199751,0.52497 -6.299627,0.83995 -7.034583,1.78489 -0.839951,1.15494 -0.629963,2.51985 1.784894,10.49938 0.83995,2.93983 1.259925,4.40974 1.784894,5.87966 2.20487,6.92958 -0.209986,12.07428 -1.154931,21.10375 -1.049938,9.9744 1.364919,8.29451 0.629962,21.62872 -0.629962,11.23433 -2.309863,12.80924 -0.629962,18.16392 2.099875,6.19463 6.089639,8.92447 4.72472,12.91424 -1.049938,3.14981 -3.989764,2.93982 -5.249689,7.03458 0,0 -0.314983,1.04994 -0.629963,7.66454 1.154932,5.98465 1.259925,10.81437 1.154932,14.06919 -0.104996,4.72471 -0.734957,7.03457 0.629962,10.49935 1.469913,3.98977 3.674783,4.51474 3.464795,7.0346 -0.104995,2.72984 -2.834832,4.72472 -7.664546,8.1895 -5.144696,3.6748 -7.76954,4.40975 -7.664547,5.87966 0.314983,2.30986 7.979528,3.35982 8.819479,3.4648 4.829714,0.62997 5.669664,-0.52498 7.664546,0.62997 2.729838,1.4699 3.359801,5.56467 4.724722,13.43919 1.154929,7.13958 0.314982,7.66456 1.784894,11.12934 1.259925,3.14983 2.624843,4.51474 2.309863,7.03458 -0.419976,3.04484 -2.624846,3.25481 -2.939828,5.87966 -0.314983,3.25481 3.044821,3.67478 4.724722,9.34446 0.734956,2.62485 1.154932,6.40461 1.154932,6.40461 l -0.629963,8.81949 c 1.889888,2.62484 2.309864,4.82972 2.309864,6.40461 0,0 0,1.4699 -1.784894,7.66456 -1.049939,5.56465 -0.314985,9.6594 0.629962,12.28424 1.154932,3.56982 2.414857,4.0948 2.309861,6.50963 0,5.1447 -5.354683,6.19463 -5.249689,11.12934 0.104986,3.46481 2.939828,7.66454 2.939828,7.66454 1.259925,1.25993 3.044819,3.3598 4.094755,6.40464 1.469914,4.51472 -0.209972,6.71959 1.784897,9.97443 1.99488,3.25478 4.514733,2.20483 5.879651,5.24964 1.679901,3.77979 -0.629962,9.34446 -0.629962,9.34446 0,0 1.574907,1.25996 10.499378,8.81949"
   id="path11"
   style="stroke-width:8;stroke-dasharray:none" />
<path
   class="st3"
   d="m 145.46796,7.1585176 c 0.62996,3.9897634 2.09988,6.7196024 3.25481,8.3995024 2.20487,3.254808 4.40973,4.514734 4.40973,7.244572 0,1.364919 -0.52496,1.259925 -1.5749,4.829714 -0.83995,2.729839 -1.25992,4.094759 -1.15493,5.56467 0.10501,3.884771 2.93982,4.514734 2.83483,7.244573 -0.10501,2.834832 -3.14981,3.359799 -6.82459,7.664545 -1.36492,1.574908 -4.72473,5.56467 -5.2497,10.394383 -0.31497,2.729841 0.52497,3.989766 4.40974,13.22922 4.09476,9.659429 3.14982,7.979528 4.82972,11.654309 4.30474,9.239454 5.87965,10.184399 7.24457,15.644074 0.94494,3.56979 1.78489,7.13958 0.41997,11.23434 -1.25992,3.77977 -3.67478,5.98464 -6.40462,8.3995 -2.41485,2.20487 -3.56979,2.62484 -13.22922,8.3995 -5.98464,3.67479 -6.92958,4.30475 -7.97952,5.24969 -0.62996,0.62996 -3.98977,3.4648 -7.24457,8.3995 -1.6799,2.62485 -2.83484,5.1447 -5.24969,10.39439 -2.62485,5.87965 -2.30986,5.98465 -3.56979,7.97953 -2.93983,4.82971 -4.61973,4.40974 -7.24457,8.3995 -3.88477,6.08964 -3.67478,12.70425 -3.56979,13.64919 0.20999,5.45968 2.41486,5.87965 1.99488,10.39439 -0.31497,3.2548 -1.78489,5.77466 -4.82972,10.81436 -3.884765,6.61461 -5.564663,7.03458 -5.564663,9.97441 0,1.99488 1.154931,4.19975 3.569786,8.81948 1.679907,3.2548 2.624847,4.9347 3.989767,5.56467 3.25481,1.6799 8.3995,0 8.3995,0 v 0 c 0.10501,2.41486 0.52497,6.40462 2.83483,10.39438 0.31498,0.52497 1.36492,2.51985 3.56979,4.82972 5.56467,5.87965 9.86942,5.14469 14.06917,10.81435 0.52497,0.62996 1.57491,2.20488 2.41486,4.40975 2.30986,5.98465 -0.10501,8.29451 1.99488,12.80925 1.46991,3.1498 2.83483,2.41485 5.56467,7.24455 1.15493,2.09989 2.20487,3.77979 2.41486,5.98466 0.31497,3.88476 -2.09988,6.92959 -3.98977,9.65943 -4.30474,6.08962 -6.61461,11.6543 -9.65942,18.79388 -3.67479,9.02946 -3.4648,12.70424 -7.66455,15.64407 -0.94495,0.62996 -2.62485,1.6799 -5.98465,3.98976 -3.3598,2.30986 -5.0397,3.56979 -5.56467,4.40975 -2.30986,3.5698 0.31497,6.19464 -1.99488,10.39438 -1.57491,2.83484 -2.93983,2.20487 -3.98977,4.82972 -1.36491,3.46478 0.94495,5.14468 0,9.65942 -0.20997,1.15492 -1.04993,4.51472 -3.56978,5.98464 -2.519855,1.46991 -4.199756,-0.41996 -6.824599,0.83997 -2.729842,1.36491 -3.569791,4.72471 -4.40974,7.97952 -1.469914,5.56465 0.209997,6.50962 -1.154932,9.65945 -2.099874,4.51471 -5.879654,3.35979 -8.399504,7.97949 -0.734953,1.36494 -1.049935,4.61973 -1.574907,11.23436 -0.31497,3.1498 -0.419973,5.66964 -0.419973,8.39949 0,7.76956 1.154931,8.81946 1.574905,9.23943 1.04994,0.83996 2.939825,0.62999 6.824596,0.42 5.564672,-0.42 7.139577,-1.15492 8.399504,0 1.154932,1.04993 1.364921,3.25481 0.839949,4.82972 -1.049936,3.04481 -4.51473,2.72986 -5.984645,5.56467 -0.524966,1.04994 -0.734958,2.41483 0.839952,7.66454 0.839949,2.83485 2.099874,6.7196 3.989762,11.23434"
   id="path12"
   style="stroke-width:8;stroke-dasharray:none" />
<g
   id="text15"
   transform="matrix(10.499379,0,0,10.499379,114.54519,138.95827)"
   aria-label="    TheBORDERSCAPE	     Project"><path
     style="font-size:5.7057px;font-family:TimesNewRomanPSMT"
     d="m 7.2379924,-4.1594775 h 3.5187006 v 0.4736176 H 9.2801203 V 0 H 8.7145651 V -3.6858599 H 7.2379924 Z m 6.6334326,2.2761508 V 0 h -0.512621 v -1.8666108 q 0,-0.4429718 -0.172731,-0.6630648 -0.172731,-0.2200929 -0.518194,-0.2200929 -0.415112,0 -0.654706,0.2646687 -0.239595,0.2646687 -0.239595,0.7215705 V 0 H 11.25817 v -4.3349947 h 0.515408 v 1.6994517 q 0.183875,-0.2813846 0.431828,-0.420684 0.250738,-0.1392993 0.576699,-0.1392993 0.537695,0 0.813508,0.3343184 0.275812,0.3315323 0.275812,0.9778812 z m 3.691433,0.195019 v 0.2507388 h -2.356944 q 0.03343,0.52933737 0.317602,0.807936 0.286957,0.27581264 0.796792,0.27581264 0.295315,0 0.571127,-0.0724356 0.278599,-0.0724356 0.551626,-0.21730693 v 0.48476161 q -0.275813,0.11701143 -0.565556,0.17830312 -0.289742,0.0612917 -0.587843,0.0612917 -0.746644,0 -1.184044,-0.43461386 -0.434614,-0.43461386 -0.434614,-1.17568628 0,-0.7661462 0.412326,-1.21469 0.415112,-0.4513298 1.117181,-0.4513298 0.629633,0 0.994597,0.406754 0.36775,0.403968 0.36775,1.1004646 z M 17.050237,-1.838751 q -0.0056,-0.4206839 -0.236809,-0.6714226 -0.228451,-0.2507388 -0.607345,-0.2507388 -0.429042,0 -0.688139,0.2423808 -0.256311,0.2423808 -0.295314,0.6825666 z"
     id="path22" /><path
     style="font-size:5.7057px;font-family:TimesNewRomanPSMT"
     d="M 1.1227525,4.8635917 V 6.3875262 H 2.025412 q 0.4541158,0 0.6714227,-0.1866611 0.2200929,-0.1894471 0.2200929,-0.5766992 0,-0.390038 -0.2200929,-0.5739131 Q 2.4795278,4.8635917 2.025412,4.8635917 Z m 0,-1.7105956 v 1.2536938 h 0.8330099 q 0.4123259,0 0.612917,-0.1532292 0.203377,-0.1560152 0.203377,-0.4736177 0,-0.3148164 -0.203377,-0.4708317 Q 2.3680883,3.1529961 1.9557624,3.1529961 Z M 0.55998324,2.6905224 H 1.9975522 q 0.6435628,0 0.9918111,0.2674547 0.3482483,0.2674546 0.3482483,0.7605742 0,0.3816801 -0.1783031,0.607345 -0.1783032,0.2256649 -0.5237655,0.2813846 0.415112,0.089152 0.6435629,0.3733222 0.2312368,0.2813846 0.2312368,0.7048545 0,0.5571973 -0.3788941,0.8608698 Q 2.7525545,6.8499999 2.0532719,6.8499999 H 0.55998324 Z M 6.0623061,3.0722025 q -0.612917,0 -0.9750952,0.4569017 -0.3593922,0.4569018 -0.3593922,1.2453359 0,0.7856482 0.3593922,1.2425499 0.3621782,0.4569018 0.9750952,0.4569018 0.612917,0 0.9695232,-0.4569018 0.3593922,-0.4569017 0.3593922,-1.2425499 0,-0.7884341 -0.3593922,-1.2453359 Q 6.6752231,3.0722025 6.0623061,3.0722025 Z m 0,-0.4569018 q 0.8747997,0 1.3985651,0.5878432 0.5237654,0.5850571 0.5237654,1.5712962 0,0.9834532 -0.5237654,1.5712963 -0.5237654,0.5850571 -1.3985651,0.5850571 -0.8775857,0 -1.4041371,-0.5850571 -0.5237654,-0.5850571 -0.5237654,-1.5712963 0,-0.9862391 0.5237654,-1.5712962 0.5265514,-0.5878432 1.4041371,-0.5878432 z m 4.7751809,2.2845088 q 0.181089,0.061292 0.351034,0.2618827 0.172731,0.200591 0.345462,0.5516253 L 12.10511,6.8499999 H 11.500551 L 10.968428,5.7829672 Q 10.762265,5.3650692 10.567246,5.2285559 10.375013,5.0920426 10.040695,5.0920426 H 9.4277776 V 6.8499999 H 8.8650083 V 2.6905224 h 1.2704097 q 0.713213,0 1.064247,0.2981005 0.351034,0.2981005 0.351034,0.8998736 0,0.392824 -0.183875,0.6519208 -0.181089,0.2590967 -0.529337,0.3593922 z M 9.4277776,3.1529961 v 1.4765727 h 0.7076404 q 0.406754,0 0.612917,-0.186661 0.208949,-0.1894471 0.208949,-0.5544113 0,-0.3649642 -0.208949,-0.5488393 -0.206163,-0.1866611 -0.612917,-0.1866611 z m 3.9644584,0 v 3.2345301 h 0.679781 q 0.860869,0 1.259265,-0.3900381 0.401183,-0.3900381 0.401183,-1.2314059 0,-0.8357959 -0.401183,-1.223048 Q 14.932886,3.1529961 14.072017,3.1529961 Z M 12.829467,2.6905224 h 1.156184 q 1.209118,0 1.774673,0.5042635 0.565556,0.5014775 0.565556,1.5712963 0,1.0753907 -0.568342,1.5796542 -0.568341,0.5042635 -1.771887,0.5042635 h -1.156184 z m 4.393499,0 h 2.629971 V 3.16414 h -2.067202 v 1.231406 h 1.980837 v 0.4736177 h -1.980837 v 1.5072185 h 2.11735 v 0.4736177 h -2.680119 z m 5.577545,2.2092871 q 0.181089,0.061292 0.351034,0.2618827 0.172731,0.200591 0.345462,0.5516253 l 0.571128,1.1366824 H 23.463576 L 22.931452,5.7829672 Q 22.725289,5.3650692 22.53027,5.2285559 22.338037,5.0920426 22.003719,5.0920426 h -0.612917 v 1.7579573 h -0.56277 V 2.6905224 h 1.27041 q 0.713213,0 1.064247,0.2981005 0.351034,0.2981005 0.351034,0.8998736 0,0.392824 -0.183875,0.6519208 -0.181089,0.2590967 -0.529337,0.3593922 z M 21.390802,3.1529961 v 1.4765727 h 0.70764 q 0.406754,0 0.612917,-0.186661 0.208949,-0.1894471 0.208949,-0.5544113 0,-0.3649642 -0.208949,-0.5488393 Q 22.505196,3.1529961 22.098442,3.1529961 Z M 27.285949,2.8270357 V 3.375875 Q 26.96556,3.2226458 26.68139,3.1474241 q -0.284171,-0.075222 -0.54884,-0.075222 -0.459687,0 -0.710426,0.1783031 -0.247953,0.1783031 -0.247953,0.5070495 0,0.2758127 0.164373,0.417898 0.167159,0.1392993 0.629633,0.2256649 l 0.33989,0.06965 q 0.629633,0.1197974 0.927734,0.4234699 0.300886,0.3008865 0.300886,0.8079361 0,0.604559 -0.406754,0.9165894 -0.403968,0.3120305 -1.18683,0.3120305 -0.295314,0 -0.629633,-0.066864 -0.331532,-0.066864 -0.688138,-0.197805 V 6.0866397 q 0.342676,0.192233 0.671422,0.2897425 0.328747,0.09751 0.646349,0.09751 0.481976,0 0.743859,-0.1894471 0.261882,-0.1894471 0.261882,-0.5404814 0,-0.3064584 -0.189447,-0.4791896 Q 26.572736,5.0920426 26.143694,5.005677 L 25.801018,4.9388133 Q 25.171385,4.8134439 24.89,4.5459892 24.608616,4.2785346 24.608616,3.8021309 q 0,-0.5516253 0.387252,-0.8692277 0.390038,-0.3176025 1.072605,-0.3176025 0.292528,0 0.596201,0.052934 0.303672,0.052934 0.621275,0.158801 z m 4.243057,0.1838751 V 3.6043259 Q 31.244835,3.3396572 30.921661,3.2087158 30.601272,3.0777745 30.239094,3.0777745 q -0.713212,0 -1.092106,0.4373998 -0.378894,0.4346139 -0.378894,1.2592658 0,0.821866 0.378894,1.2592658 0.378894,0.4346139 1.092106,0.4346139 0.362178,0 0.682567,-0.1309414 0.323174,-0.1309413 0.607345,-0.39561 v 0.5878431 q -0.295315,0.200591 -0.626847,0.3008865 -0.328746,0.1002955 -0.696497,0.1002955 -0.944449,0 -1.487716,-0.5766992 -0.543268,-0.5794851 -0.543268,-1.5796542 0,-1.002955 0.543268,-1.5796542 0.543267,-0.5794852 1.487716,-0.5794852 0.373323,0 0.702069,0.1002956 0.331532,0.09751 0.621275,0.2953145 z m 2.259436,0.2340228 -0.763361,2.0699879 h 1.529507 z M 33.470839,2.6905224 h 0.637991 l 1.585226,4.1594775 H 35.108999 L 34.730105,5.7829672 h -1.874969 l -0.378894,1.0670327 h -0.593415 z m 3.39333,0.4624737 v 1.5629383 h 0.707641 q 0.392824,0 0.607345,-0.203377 0.214521,-0.203377 0.214521,-0.5794851 0,-0.3733222 -0.214521,-0.5766992 -0.214521,-0.203377 -0.607345,-0.203377 z M 36.3014,2.6905224 h 1.27041 q 0.699282,0 1.055889,0.3176024 0.359392,0.3148165 0.359392,0.9249475 0,0.6157029 -0.359392,0.9305194 -0.356607,0.3148164 -1.055889,0.3148164 H 36.864169 V 6.8499999 H 36.3014 Z m 3.440693,0 h 2.629971 V 3.16414 h -2.067202 v 1.231406 h 1.980837 v 0.4736177 h -1.980837 v 1.5072185 h 2.11735 v 0.4736177 h -2.680119 z"
     id="path23" /><path
     style="font-size:5.7057px;font-family:TimesNewRomanPSMT"
     d="m 27.311138,9.9929958 v 1.5629382 h 0.707641 q 0.392824,0 0.607345,-0.203377 0.214521,-0.203377 0.214521,-0.579485 0,-0.373322 -0.214521,-0.576699 Q 28.411603,9.9929958 28.018779,9.9929958 Z M 26.748369,9.5305221 h 1.27041 q 0.699283,0 1.055889,0.3176024 0.359392,0.3148165 0.359392,0.9249475 0,0.615703 -0.359392,0.930519 -0.356606,0.314817 -1.055889,0.314817 H 27.311138 V 13.69 h -0.562769 z m 5.126215,1.5183629 q -0.08636,-0.05015 -0.189447,-0.07244 -0.100295,-0.02507 -0.222879,-0.02507 -0.434614,0 -0.668636,0.284171 -0.231237,0.281384 -0.231237,0.810722 V 13.69 h -0.515408 v -3.120305 h 0.515408 v 0.484762 q 0.161587,-0.284171 0.420684,-0.420684 0.259096,-0.1393 0.629633,-0.1393 0.05293,0 0.117011,0.0084 0.06408,0.0056 0.142085,0.0195 z m 1.621445,-0.119798 q -0.412326,0 -0.651921,0.323175 -0.239595,0.320388 -0.239595,0.880371 0,0.559983 0.236809,0.883158 0.239595,0.320388 0.654707,0.320388 0.40954,0 0.649134,-0.323174 0.239595,-0.323174 0.239595,-0.880372 0,-0.554411 -0.239595,-0.877585 -0.239594,-0.325961 -0.649134,-0.325961 z m 0,-0.434614 q 0.668636,0 1.050316,0.434614 0.38168,0.434614 0.38168,1.203546 0,0.766146 -0.38168,1.203546 -0.38168,0.434614 -1.050316,0.434614 -0.671423,0 -1.053103,-0.434614 -0.378894,-0.4374 -0.378894,-1.203546 0,-0.768932 0.378894,-1.203546 0.38168,-0.434614 1.053103,-0.434614 z m 2.281721,0.07522 h 0.512622 v 3.176024 q 0,0.596201 -0.228451,0.863656 -0.225665,0.267455 -0.729928,0.267455 h -0.195019 v -0.434614 h 0.136513 q 0.292528,0 0.398396,-0.136513 0.105867,-0.133728 0.105867,-0.559984 z m 0,-1.2146901 h 0.512622 V 10.00414 H 35.77775 Z m 4.254201,2.6466871 v 0.250739 h -2.356944 q 0.03343,0.529337 0.317602,0.807936 0.286957,0.275812 0.796792,0.275812 0.295315,0 0.571128,-0.07243 0.278598,-0.07244 0.551625,-0.217307 v 0.484761 q -0.275813,0.117012 -0.565555,0.178303 -0.289743,0.06129 -0.587843,0.06129 -0.746645,0 -1.184045,-0.434614 -0.434613,-0.434614 -0.434613,-1.175686 0,-0.766146 0.412326,-1.21469 0.415112,-0.45133 1.11718,-0.45133 0.629633,0 0.994597,0.406754 0.36775,0.403968 0.36775,1.100465 z M 39.51933,11.851249 q -0.0056,-0.420684 -0.236809,-0.671423 -0.228451,-0.250739 -0.607345,-0.250739 -0.429042,0 -0.688139,0.242381 -0.25631,0.242381 -0.295314,0.682567 z m 3.599495,-1.161757 v 0.47919 q -0.217307,-0.119797 -0.4374,-0.178303 -0.217307,-0.06129 -0.440186,-0.06129 -0.498691,0 -0.774504,0.317603 -0.275813,0.314816 -0.275813,0.885943 0,0.571127 0.275813,0.88873 0.275813,0.314816 0.774504,0.314816 0.222879,0 0.440186,-0.05851 0.220093,-0.06129 0.4374,-0.181089 v 0.473617 q -0.214521,0.100296 -0.445758,0.150443 -0.228451,0.05015 -0.487547,0.05015 -0.704855,0 -1.119967,-0.442972 -0.415112,-0.442971 -0.415112,-1.195188 0,-0.76336 0.417898,-1.20076 0.420684,-0.4374 1.150612,-0.4374 0.236809,0 0.462474,0.05015 0.225665,0.04736 0.4374,0.144871 z M 44.51739,9.6837513 v 0.8859437 h 1.055888 v 0.398396 H 44.51739 v 1.69388 q 0,0.38168 0.103081,0.490333 0.105868,0.108654 0.426256,0.108654 h 0.526551 V 13.69 h -0.526551 q -0.593415,0 -0.81908,-0.220093 -0.225665,-0.222879 -0.225665,-0.807936 v -1.69388 h -0.376108 v -0.398396 h 0.376108 V 9.6837513 Z"
     id="path24" /></g>
</svg>
