<?xml version="1.0" encoding="utf-8"?>
<!-- Generator: Adobe Illustrator 28.2.0, SVG Export Plug-In . SVG Version: 6.00 Build 0)  -->
<svg version="1.1" id="Livello_1" xmlns="http://www.w3.org/2000/svg" xmlns:xlink="http://www.w3.org/1999/xlink" x="0px" y="0px"
	 viewBox="0 0 876.86 290.88" style="enable-background:new 0 0 876.86 290.88;" xml:space="preserve">
<style type="text/css">
	.st0{fill:#FFFFFF;}
	.st1{font-family:'MyriadPro-Regular';}
	.st2{font-size:53.0451px;}
	.st3{font-family:'Arial-BoldMT';}
</style>
<g>
	<path class="st0" d="M172.31,14.68c-20.89,20.87-41.22,41.18-61.5,61.45c-17.75,0-35.38,0-52.99,0
		C41.44,92.5,25.08,108.84,8.73,125.18c-0.11,0.11-0.29,0.26-0.27,0.35c0.03,0.14,0.21,0.24,0.5,0.52c19.92,0,40.01,0,60.44,0
		c0,20.69,0,41.21,0,62.18c21.06-21.05,41.73-41.69,62.33-62.27c17.48,0,34.77,0,52.02,0c16.4-16.38,32.75-32.73,49.11-49.07
		c0.1-0.1,0.24-0.26,0.21-0.34c-0.05-0.14-0.22-0.24-0.5-0.53c-19.92,0-40.01,0-60.27,0C172.31,55.78,172.31,35.71,172.31,14.68z"/>
	<path d="M172.31,14.68c0,21.03,0,41.1,0,61.34c20.25,0,40.34,0,60.27,0c0.28,0.28,0.45,0.38,0.5,0.53
		c0.03,0.08-0.12,0.25-0.21,0.34c-16.35,16.34-32.71,32.68-49.11,49.07c-17.25,0-34.55,0-52.02,0
		c-20.6,20.58-41.27,41.23-62.33,62.27c0-20.97,0-41.49,0-62.18c-20.43,0-40.52,0-60.44,0c-0.28-0.28-0.46-0.39-0.5-0.52
		c-0.02-0.09,0.16-0.24,0.27-0.35c16.35-16.34,32.71-32.68,49.09-49.05c17.6,0,35.23,0,52.99,0
		C131.09,55.86,151.42,35.55,172.31,14.68z M38.68,112.85c11.28,0,22.71,0,33.69,0c7.97-7.96,15.8-15.78,23.63-23.61
		c-11.28,0-22.71,0-33.69,0C54.34,97.2,46.51,105.02,38.68,112.85z M149.98,89.25c-11.31,0-22.74,0-33.79,0
		c-7.93,7.92-15.76,15.75-23.62,23.6c11.31,0,22.74,0,33.79,0C134.29,104.92,142.12,97.1,149.98,89.25z M201.9,89.24
		c-10.96,0-22.06,0-32.73,0c-7.95,7.95-15.78,15.77-23.63,23.61c10.96,0,22.06,0,32.73,0C186.23,104.91,194.05,97.08,201.9,89.24z
		 M82.4,156.58c10.19-10.18,20.35-20.33,30.43-30.41c-9.95,0-20.16,0-30.43,0C82.4,136.43,82.4,146.51,82.4,156.58z M159.07,76.02
		c0-10.19,0-19.94,0-28.85c-9.48,9.48-19.31,19.29-28.87,28.85C139.37,76.02,149.13,76.02,159.07,76.02z"/>
	<path class="st0" d="M38.68,112.85c7.84-7.83,15.66-15.65,23.63-23.61c10.98,0,22.41,0,33.69,0c-7.84,7.83-15.66,15.65-23.63,23.61
		C61.39,112.85,49.96,112.85,38.68,112.85z"/>
	<path class="st0" d="M149.98,89.25c-7.86,7.85-15.69,15.67-23.62,23.6c-11.05,0-22.48,0-33.79,0c7.86-7.85,15.69-15.67,23.62-23.6
		C127.24,89.25,138.67,89.25,149.98,89.25z"/>
	<path class="st0" d="M201.9,89.24c-7.85,7.84-15.67,15.66-23.63,23.61c-10.68,0-21.77,0-32.73,0c7.85-7.84,15.67-15.66,23.63-23.61
		C179.84,89.24,190.94,89.24,201.9,89.24z"/>
	<path class="st0" d="M82.4,156.58c0-10.07,0-20.15,0-30.41c10.28,0,20.49,0,30.43,0C102.75,136.25,92.59,146.4,82.4,156.58z"/>
	<path class="st0" d="M159.07,76.02c-9.94,0-19.7,0-28.87,0c9.57-9.56,19.39-19.37,28.87-28.85
		C159.07,56.08,159.07,65.83,159.07,76.02z"/>
</g>
<text transform="matrix(0.9755 0 0 1 131.8318 135.5556)"><tspan x="0" y="0" class="st1 st2">             </tspan><tspan x="146.19" y="0" class="st3 st2">Deutsches Zentrum</tspan><tspan x="0" y="63.65" class="st3 st2">DLR   für Luft- und Raumfahrt</tspan><tspan x="0" y="127.31" class="st1 st2">             German  Aerospace Center</tspan></text>
</svg>
