<?xml version="1.0" encoding="utf-8"?>
<!-- Generator: Adobe Illustrator 28.2.0, SVG Export Plug-In . SVG Version: 6.00 Build 0)  -->
<svg version="1.1" id="Livello_1" xmlns="http://www.w3.org/2000/svg" xmlns:xlink="http://www.w3.org/1999/xlink" x="0px" y="0px"
	 viewBox="0 0 876.9 290.9" style="enable-background:new 0 0 876.9 290.9;" xml:space="preserve">
<style type="text/css">
	.st0{font-family:'ArialMT';}
	.st1{font-size:53.0451px;}
	.st2{font-family:'Arial-BoldMT';}
</style>
<g>
	<path d="M172.3,14.7c0,21,0,41.1,0,61.3c20.2,0,40.3,0,60.3,0c0.3,0.3,0.4,0.4,0.5,0.5c0,0.1-0.1,0.2-0.2,0.3
		c-16.4,16.3-32.7,32.7-49.1,49.1c-17.2,0-34.6,0-52,0c-20.6,20.6-41.3,41.2-62.3,62.3c0-21,0-41.5,0-62.2c-20.4,0-40.5,0-60.4,0
		c-0.3-0.3-0.5-0.4-0.5-0.5c0-0.1,0.2-0.2,0.3-0.3c16.4-16.3,32.7-32.7,49.1-49c17.6,0,35.2,0,53,0
		C131.1,55.9,151.4,35.5,172.3,14.7z M38.7,112.8c11.3,0,22.7,0,33.7,0c8-8,15.8-15.8,23.6-23.6c-11.3,0-22.7,0-33.7,0
		C54.3,97.2,46.5,105,38.7,112.8z M150,89.2c-11.3,0-22.7,0-33.8,0c-7.9,7.9-15.8,15.8-23.6,23.6c11.3,0,22.7,0,33.8,0
		C134.3,104.9,142.1,97.1,150,89.2z M201.9,89.2c-11,0-22.1,0-32.7,0c-7.9,7.9-15.8,15.8-23.6,23.6c11,0,22.1,0,32.7,0
		C186.2,104.9,194.1,97.1,201.9,89.2z M82.4,156.6c10.2-10.2,20.3-20.3,30.4-30.4c-9.9,0-20.2,0-30.4,0
		C82.4,136.4,82.4,146.5,82.4,156.6z M159.1,76c0-10.2,0-19.9,0-28.8c-9.5,9.5-19.3,19.3-28.9,28.8C139.4,76,149.1,76,159.1,76z"/>
</g>
<text transform="matrix(0.9755 0 0 1 131.8315 135.5558)" class="st0 st1">             </text>
<text transform="matrix(0.9755 0 0 1 274.4399 135.5558)" class="st2 st1">Deutsches Zentrum</text>
<text transform="matrix(0.9755 0 0 1 131.8315 199.2057)" class="st2 st1">DLR   für Luft- und Raumfahrt</text>
<text transform="matrix(0.8814 0 0 1 278.2178 264.3713)" class="st0 st1">German  Aerospace Center</text>
</svg>
