<?xml version="1.0" encoding="utf-8"?>
<!-- Generator: Adobe Illustrator 28.2.0, SVG Export Plug-In . SVG Version: 6.00 Build 0)  -->
<svg version="1.1" id="Livello_1" xmlns="http://www.w3.org/2000/svg" xmlns:xlink="http://www.w3.org/1999/xlink" x="0px" y="0px"
	 viewBox="0 0 466.97 214.46" style="enable-background:new 0 0 466.97 214.46;" xml:space="preserve">
<style type="text/css">
	.st0{fill:#FFFFFF;}
</style>
<g>
	<path class="st0" d="M172.22,54.4c-1.42,1.97-1.33,4.28-0.39,6.31c0.76,1.65,0.96,3.48,0.3,4.66c-1.59,2.86-1.51,6.28-3.66,9
		c-1.57,1.98-1.98,4.84-3.35,7.03c-1.02,1.64-1.01,2.89-0.18,4.45c1.83,3.46,2.01,7.44,3.77,11.14c-1.08,0.93-2.03,1.75-3.32,2.85
		c-2.01-4.09-3.24-8.55-6.96-11.7c-3.47-2.93-7.61-4.86-11.9-8.59c2.23,0.37,3.37,0.56,4.68,0.78c4.75-3.67,8.2-8.9,11.05-15.26
		c1.38,2.33,2.41,4.06,3.71,6.25c1.34-2.5,2.37-4.41,3.35-6.24c0.15-6.71,0.78-13.5-5.49-18.07c-4.29-0.67-8.29,1.54-12.6,1.01
		c-1.2-0.15-2.55,0.92-3.81,1.42c0,1,0,1.99,0,2.88c0.79,0.88,1.52,1.71,2.25,2.51c-3.99,3.98-7.73,7.71-11.19,11.16
		c0,2.14,0,3.78,0,5.36c2.22,2.8,3.09,6.63,6.94,7.93c-0.71,0.7-1.24,1.37-1.9,1.86c-0.69,0.51-1.5,0.85-2.88,1.61
		c1.65,1.7,1.78,3.56,1.85,5.5c0.07,2.03-0.51,4.02,0.77,6.16c0.87,1.46,0.17,3.87,0.17,6.11c3.82,3.38,7.57,7.05,11.71,10.22
		c2.27,1.74,5.12,2.84,7.86,3.82c2,0.71,4.13-0.11,6.04-0.95c4.07-1.79,8.09-3.8,9.98-8.15c2.31-5.3,3.78-10.85,4.35-16.63
		c0.15-1.55-0.77-3.35,0.98-4.57c-0.34-2.88,0.56-5.79-0.62-8.7c-0.8-1.97-1.43-4.34-1.04-6.31c0.23-1.17,0.62-2.42,0.64-3.66
		c0.06-3.65,0.28-7.33-0.06-10.95c-0.28-2.91-1.19-5.82-2.05-8.6c-1.35-4.38-2.76-8.94-6.47-12.15c-2.15,0.35-4.21-0.31-6.25,0.98
		c-1.38,0.88-2.98-0.8-4.52-0.86c-3.32-0.14-6.68-0.29-9.97,0.03c-3.32,0.33-6.31-1.25-9.58-1.1c-3.49,0.16-7.01,0.29-10.47-0.03
		c-3.64-0.34-7.02,0.95-10.57,1.16c-2.42,0.14-5.14,0.71-7.07,2.03c-2.14,1.48-3.54,0.22-5.56-0.35c-3.03,2.84-6.1,5.73-9.19,8.6
		c-1.97,1.82-2.67,4.3-1.91,6.57c0.52,1.54,0.56,3.08,1,4.56c0.52,1.76,1.15,3.54,2.11,5.09c4.3,6.97,11.02,12.13,19.03,13.96
		c4.94,1.13,9.74,0.16,13.95-3.45c-3.14-4.29-5.66-8.75-9.67-12.12c-3.9-3.28-7.68-6.7-11.64-10.17c0.71-1.91,2.75-2.11,4.61-3.15
		c0.44,0.57,0.73,1.35,1.26,1.57c3.28,1.36,6.52,2.75,9.61,4.54c0.81,0.47,2.27,0.19,3.28-0.16c3.19-1.11,6.33-2.37,9.45-3.68
		c2.12-0.89,4.08-2.35,6.28-2.87c3.13-0.75,6.41-2.43,9.51-0.01c2.45-1.85,5.1-0.76,7.11-1.06c1.43,1.01,2.46,1.74,3.93,2.78
		C170.25,48.92,171.24,51.67,172.22,54.4z M71.02,181.91c-0.1-0.18-0.21-0.36-0.31-0.54c-1.99,0-3.99-0.02-5.98,0.01
		c-0.97,0.02-2.04-0.1-2.88,0.26c-4.09,1.78-8.11,3.69-12.42,5.68c-1.84,0.64-3.97-0.22-6.36,0.75c-3.23,1.31-7,0.1-10.43-0.79
		c-1.46-0.38-2.75-1.42-4.07-2.14c0.27-3.04-0.32-5.87,0.66-8.61c0.35,0.79,0.14,1.7,0.46,2.34c1.98,3.95,5.24,6.17,9.67,6.44
		c2.63,0.16,5.27,0.03,7.24,0.03c2.08-1.06,3.56-1.82,5.33-2.72c-1.29-1.6-2.45-3.05-3.63-4.51c1.78-1.01,3.25-1.85,4.73-2.67
		c4.95-2.78,8.5-6.36,7.53-12c-1.7-3.53-2.82-6.79-7.5-7.95c-1.23,0-3.55,0-5.9,0c-7.31,6.03-5.09,4.04-10.29,13.06
		c-1.49-0.76-2.99-1.53-4.74-2.43c-1.07,2.52-2.06,4.86-3.05,7.2c-1.57-2.13,0.57-3.89,0.62-5.88c0.04-1.83,3.24-9,4.12-10.72
		c1.16-2.28,2.49-4.45,0.91-7.34c-1.54-2.81-2.08-6.11-2.88-9.24c-0.37-1.45-0.06-3.08-0.06-5.31c1.25,0.92,2.18,1.25,2.43,1.85
		c0.99,2.39,2.86,4.16,4.18,6.26c4.13,6.6,10.41,9.19,17.57,10.51c0.44,0.08,0.93-0.08,1.32-0.12c0.48-1.11,0.91-2.09,1.19-2.72
		c-0.68-2.37-1.38-4.41-1.85-6.51c-1.59-7.16-4.28-13.69-9.79-18.86c-3.87-3.63-8.28-5.63-13.63-5.66
		c-2.91-0.02-5.74,0.09-8.41,1.39c-4.42,5.54-6.55,12.18-8.79,17.83c0.24,2.28,1.05,4.2,0.41,5.22c-0.92,1.48-0.67,2.82-0.7,4.21
		c-0.09,4.48,0.24,8.98-0.11,13.43c-0.36,4.61,1.25,9,1,13.52c-0.12,2.19,1.16,4.08,0.96,6.05c-0.23,2.24,0.59,4.15,1.21,6.03
		c1.04,3.18,1.85,6.59,4.39,9.03c1.6,0,3.38-0.52,4.53,0.11c2.37,1.31,4.76,0.63,7.13,0.9c2.36,0.27,4.71,0.91,7.07,0.94
		c10.14,0.11,20.28,0.05,30.42,0.04c0.97,0,2.32,0.28,2.85-0.23c1.2-1.15,2.49-0.52,3.71-0.77c1.21-0.25,2.37-0.8,3.58-0.95
		c4.83-0.61,8.77-3.07,12.5-5.94c1.43-1.1,2.12-2.71,2.56-4.4c0.4-1.5,1.3-3.26,0.86-4.51c-0.59-1.65-0.59-3.38-1.22-4.96
		c-0.68-1.71-1.03-3.73-2.18-5.03c-2.87-3.24-6.1-6.03-9.96-8.28c-4.43-2.59-9.46-2.82-14.06-4.61c-2.02-0.78-4.59-0.13-6.86-0.13
		c-0.52,0.52-0.99,0.99-1.67,1.67c0.36,1.2,0.77,2.52,1.17,3.84c1.43,4.77,5.24,9.25,9.41,12.51c2.4,1.88,5.15,2.91,7.64,4.5
		c0.48,0.31,0.76,0.94,1.37,1.72c-0.84,0.59-1.5,1.06-2.73,1.92C76.87,183.84,73.94,182.87,71.02,181.91z M15.28,38.82
		c0.53,1.01,1.25,1.79,1.32,2.63c0.43,5.33,0.71,10.67,1.05,16.01c-1.71,3.55-0.83,7.34-0.97,11.03c-0.12,3.31-0.02,6.63-0.03,9.95
		c0,0.98,0.31,2.24-0.17,2.89c-1.68,2.3-1.16,4.99-0.61,7.09c0.56,2.13,0.82,3.77-0.15,5.73c-0.3,0.6-0.06,1.64,0.25,2.33
		c0.96,2.1,2.03,4.15,3.15,6.16c1.4,2.52,3.2,4.63,5.9,5.96c3.32,1.63,6.52,3.49,9.44,5.08c1.95-0.78,3.51-1.45,5.09-2.02
		c6.72-2.41,11.54-7.07,13.87-13.59c1.79-5.02,2.9-10.45,1.99-15.86c-2.58-2.11-5.56-1.24-8.25-1.45
		c-7.13,4.51-11.65,11.1-15.84,18.08c-0.63-0.59-1.08-1.02-1.61-1.51c-0.42-4.68,0.32-9.03,3.58-12.8c1.99-2.31,1.69-4.96,0.12-7.4
		c-4.31-6.74-5.3-14.5-6.7-22.09c-0.53-2.86-0.09-5.89-0.09-8.61c0.94-0.94,1.53-1.88,2.38-2.29c1.23-0.6,2.68-1.22,3.98-1.12
		c4.18,0.31,8.31-0.45,12.6,0.75c6.85,1.92,13.68,3.86,20.34,6.18c4.65-2.85,6.05-3.15,12.84-2.9c0.76,0.55,1.28,0.93,1.74,1.26
		c-2.16,1.51-4.33,2.81-6.24,4.42c-2.02,1.71-3.56,4.08-5.74,5.49c-2.22,1.43-2.94,3.97-4.47,4.81c-0.77,3.23-1.38,5.79-2.07,8.7
		c1.1,1.07,2.62,2.56,4.16,4.06c2.28,0,4.6,0,6.9,0c0.25-0.25,0.45-0.55,0.73-0.71c0.66-0.39,1.33-0.86,2.05-1.04
		c6.47-1.6,11.5-5.28,15.52-10.5c1.61-2.1,3.95-8.34,3.01-10.6c-0.8-1.92-0.7-3.72-0.89-5.61c-0.42-4.24-4.57-8.97-8.86-10.37
		c-2.67-0.87-5.41-1.47-8.1-2.17c-4.72-1.23-9.69-0.98-14.29-2.75c-0.87-0.33-2.27-0.45-2.92,0.02c-2.51,1.85-4.82,0.84-7.04-0.14
		c-0.63,0.48-1.12,0.86-1.1,0.84c-10.95-2.19-21.06,0.44-31.23,1.42C18.53,35.58,17.12,36.99,15.28,38.82z M144.73,201
		c4.97-0.62,8.92-1.88,13.11-1.71c1.4,1.79,3.36,0.84,5.07,0.96c1.98,0.14,4,0.15,5.98,0.01c4.85-0.33,9.12-2,12.35-5.36
		c0.43-3.86-0.28-7.36,0.93-10.94c0.83-2.45-0.03-5.36,1.05-8.04c0.38-0.94-0.45-2.36-0.75-3.66c0.26-0.89,1.13-2.26,0.76-2.88
		c-1.51-2.48-0.65-5.08-0.88-7.61c-0.12-1.3,0.12-2.67-0.17-3.92c-0.91-4-0.91-3.97-0.01-7.75c0.25-1.05,0.26-2.33-0.12-3.31
		c-1.34-3.48-2.01-7.02-1.7-10.43c-0.42-0.79-0.75-1.32-1-1.89c-0.37-0.84-0.67-1.71-1.01-2.57c-1.86-4.72-4.41-9.01-8.91-11.6
		c-1.82-1.05-4.01-2.26-6.25-1.63c-3.63,1.01-7.38,1.9-9.77,5.34c-0.84,1.21-2.16,2.07-3.12,3.2c-3.15,3.7-6.36,7.46-7.36,12.37
		c-0.83,4.05-1.19,8.19-1.64,11.46c1.21,1.6,1.99,2.64,2.58,3.42c1.27,0,2.29,0.32,2.9-0.05c4.68-2.86,9.7-5.13,12.73-10.28
		c2.13-3.61,4.52-7.35,8.73-9.42c0.45,5.26,0.05,10.12-3.74,14.32c-1.02,1.13-0.96,3.22-1.35,4.7c0.73,0.73,1.38,1.11,1.64,1.68
		c2.81,5.97,6.22,11.61,7.75,18.23c0.92,3.96,1.18,7.32-0.77,10.93c-0.51,0.95,0.02,2.45,0.08,3.95c-1.08,0.55-2.28,1.58-3.57,1.73
		c-5.13,0.59-10.3,0.9-15.08,1.28c-5.87-3.6-11.3-6.93-16.68-10.24c-5.12,3.31-10.16,6.53-15.1,6.14c-1.62-1.62-2.47-2.46-3.21-3.2
		c9.96-7.08,14.72-11.96,16.99-23.43c-1.54-0.77-3.05-1.53-4.7-2.35c-3.15,0.14-6.7-0.8-9.49,1.95c-3.53-0.12-5.14,3.47-8.22,4.22
		c-3.59,3.81-8.3,6.9-8.28,13c-2.23,2.88-0.69,5.79,0.04,8.62c0.8,3.11,3.1,5.38,5.64,6.98c4.49,2.81,9.7,4.21,14.86,4.89
		c3.47,0.46,6.95,1.23,10.52,1.4c2.62,0.12,5.36,0.66,8.07,0.81C144.16,200.36,144.67,200.96,144.73,201z M457.79,74.37
		c0-0.83-0.11-1.68,0.02-2.48c0.98-5.93-1.37-11.32-3.32-16.55c-1.38-3.7-4.51-6.75-6.86-10.09c-2.57-0.55-3.51-3.25-5.69-4.31
		c-5.8-2.82-11.58-5.7-18.37-5c-1.48,0.15-2.99,0.04-4.48,0.02c-4.81-0.07-9.58-0.02-13.71,2.99c-3.54-0.14-5.75,2.45-8.15,4.3
		c-2.71,2.1-5.26,4.62-7.25,7.41c-4.84,6.81-7.37,14.46-7.06,22.92c0.15,4.02-0.11,8.01,0.84,12.06c0.65,2.75,1.39,5.4,2.52,7.93
		c2.38,5.31,5.72,9.79,10.36,13.51c3.76,3.02,13.2,6.89,17.74,6.61c3.48-0.21,6.98-0.1,10.46-0.02c2.91,0.07,5.51-1.1,8.26-1.71
		c4.14-0.91,7.24-3.46,10.64-5.65c3.57-2.3,6.16-5.31,8.08-9.03c0.79-1.52,2.26-2.72,2.9-4.28c1.22-2.98,2.4-6.05,2.96-9.2
		c0.49-2.73,0.1-5.62,0.1-8.44C457.79,75.03,457.79,74.7,457.79,74.37z M446.53,144.74c1.89,4.45,1.2,8.87,1.26,13.23
		c0.07,5.14,0.18,10.3-0.03,15.43c-0.19,4.63-0.79,9.25-1.21,13.92c-9.04-3.9-64.4-42.07-62.79-44.38c0.16-0.33,0.76-1.58,1.36-2.81
		c-1.02-0.52-1.85-0.95-3.09-1.58c-1.01,0-2.5-0.11-3.98,0.03c-2.05,0.19-3.92-0.46-5.22-1.78c-1.41-1.43-2.85-1.3-4.36-1.14
		c-1.65,1.3-3.21,2.53-5.02,3.96c3.5,2.66,6.62,5.03,9.83,7.47c-1.18,9.45-4.74,17.98-7.46,26.67c-3,9.59-6.5,19.06-10.78,28.32
		c1.42,0,2.65,0,4,0c4.11-8.07,7.85-16.13,11.26-24.39c3.46-8.37,6.85-16.75,9.93-25.19c5.3,3.72,10.43,7.39,15.63,10.95
		c4.52,3.1,9.13,6.06,13.67,9.14c3.77,2.56,7.31,5.51,11.27,7.74c6.13,3.45,11.58,7.93,17.78,11.24c3.39,1.81,6.53,4.54,11.1,3.59
		c2.86-8.91,3.93-18.35,4.89-27.63c1.02-9.82,0.23-19.82,0.23-29.46c-0.63-0.63-0.98-0.98-1.46-1.45
		c-6.17-0.49-11.9,2.51-18.02,3.02c-0.51,0.04-0.95,0.88-1.46,1.4c0.44,0.46,0.87,0.92,1.27,1.34c2.74-1.57,5.64-0.44,8.14-0.86
		C444.64,142.84,445.69,143.9,446.53,144.74z M321.68,174.4c5.97,11.19,13.09,21.44,17.04,24.24c4.71-3.16,10.21-5.35,15.64-8.08
		c-1.03-1.63-2.12-1.43-3.11-0.93c-2.02,1.02-3.65,0.77-5.84-0.15c-4.11-1.73-6.96-4.68-9.31-8.08c-4.14-5.99-7.64-12.4-11.44-18.61
		c-2.28-3.72-4.22-7.58-6.09-11.45c-1.93-3.99-4.61-7.62-5.6-12.13c-0.46-2.11-2.2-3.94-3.46-6.06c-3.45,1.26-6.48,2.36-9.68,3.53
		c0.64,0.7,0.96,1.05,1.36,1.5c-2,5.93-5.62,11.01-9.32,15.98c-2.67,3.58-5.69,6.99-8.25,10.59c-4.54,6.39-9.74,12.22-14.74,18.19
		c-4.67,5.57-9.77,10.82-14.31,16.53c-0.12,0.15-0.06,0.45-0.09,0.74c1.19,0,2.3,0,3.44,0c5.55-5.91,11.05-11.77,16.55-17.63
		c3.8-4.06,8.85-5.96,14.01-7.03c4.71-0.98,9.66-0.96,14.52-1.09C309.12,174.27,315.27,174.4,321.68,174.4z M207.28,145.02
		c0,14.43-0.05,28.86,0.03,43.29c0.02,4.09-0.45,7.87-4.41,10.73c4.99,0.96,8.89-1.36,13.02-2.03c4.36-0.7,8.74-1.31,13.17-1.94
		c0.38-0.5,0.82-0.98,1.12-1.54c0.11-0.21-0.1-0.59-0.25-1.26c-1.79,0.35-3.56,0.85-5.37,1.02c-1.96,0.18-3.96,0.04-5.86,0.04
		c-1.33-1.82-2.35-5.06-2.48-7.08c-0.7-11.17,1.14-22.26,1.02-33.42c-0.03-2.64,0-5.28,0-7.05c1.31-4.6,4.54-5.05,7.68-5.19
		c3.86-0.17,7.75-0.31,11.56,0.91c5.4,1.74,10.98,6.1,10.72,12.62c-0.09,2.3-0.02,4.62-0.02,6.77c-2.26,3.69-5.23,6.78-8.16,8.16
		c-2.83,1.34-5.78,2.39-8.99,2.36c-2.93-0.02-5.87,0-8.64,0c0,1.26,0,2.04,0,2.8c6.03,0.7,11.83-0.14,17.62-0.84
		c0.57-0.07,1.04-0.75,1.62-0.87c4.34-0.95,8.02-3.09,11.68-5.57c3.64-2.47,7.1-8.87,6.81-12.57c-0.17-2.18-0.68-4.34-1.03-6.42
		c-1.14-1.13-2.27-2.12-3.24-3.25c-4.21-4.92-10.14-6.68-16-6.93c-7.8-0.34-15.69-1.08-23.53,0.7c-4.72,1.07-9.49,1.92-14.19,3.09
		c-1.5,0.37-2.95,0.93-4.18,1.32c-0.97,0.74-1.86,1.41-3.2,2.43c4.67,0.94,8.05-2.83,12.12-1.66
		C206.23,143.96,206.58,144.32,207.28,145.02z M115.8,76.8c-6.57,7.01-10.33,16.04-16.25,23.51c-0.15,4-0.49,8.03,1.91,11.9
		c3.81,1.57,7.71,3.87,12.25,1.44c4.11,0.17,7.6-1.65,10.88-3.71c4.78-3,9.36-6.31,13.82-9.34c0-6.41,0-12.36,0-18.32
		c-2.38-4.02-3.7-5.38-10.07-5.47C124.21,76.75,120.07,76.8,115.8,76.8z M343.8,78.13c-0.54-0.88-1.25-1.76-1.66-2.75
		c-1.99-4.82-6.56-6.09-10.79-7.45c-3.4-1.1-7.15-0.91-10.62-2.06c-1.76-0.58-3.64-0.82-5.17-1.16c-1.64-1.6-3.07-2.98-4.13-4.02
		c-0.45-1.95-0.8-3.47-1.24-5.37c0.95-2.45,1.74-5.5,3.25-8.12c1.74-3,5.64-3.23,8.16-5.2c3.05,0,6.24-0.66,8.96,0.19
		c2.72,0.85,5.77,0.8,8.35,2.88c0.5-2.79,0.94-5.23,1.22-6.75c-1.9-2.78-4.08-2.32-6.15-2.34c-2.33-0.02-4.66,0.09-6.98-0.03
		c-2.63-0.14-4.93,0.7-7.24,1.82c-3.97,1.92-7.37,4.2-10.22,7.91c-3.14,4.1-4.68,8.18-4.44,13.16c0.08,1.65-0.11,3.33,0.04,4.97
		c0.37,3.96,2.08,7.31,5.26,9.73c1.2,0.91,2.76,1.34,4.37,2.09c2.39,0.36,5.05,1.01,7.73,1.1c2.46,0.08,4.6,0.86,6.77,1.77
		c1.27,0.54,2.53,1.12,3.72,1.65c2.16,5.21,2.16,5.21,2,12.69c-2.43,5.54-5.55,9.84-10.45,13.07c-5,3.29-10.27,3.99-15.17,3.76
		c-6.1-2.7-6.79-7.9-7.48-12.77c-1.05,0-1.83,0-3.08,0c0.42,4.66,0.81,9.11,1.16,13.02c2.25,2.77,4.84,3.51,7.55,3.7
		c2.65,0.18,5.32-0.05,7.98,0.06c6.07,0.26,11.49-1.42,16.39-4.99c3.57-2.59,6.82-5.5,9.12-9.28c1.19-1.96,2.28-4.05,2.96-6.23
		c0.69-2.23-0.79-4.85,0.98-6.99C343.05,83.83,344.55,81.09,343.8,78.13z M116.77,116.63c-2.16,0-4.49-0.17-6.8,0.05
		c-2.16,0.21-4.28,0.83-6.29,1.24c-3.78,3.86-3.28,8.57-3.16,12.88c2.31,4.71,5.29,8.58,8.77,12.12c0.95,0.96,1.56,2.31,2.15,3.56
		c1.42,3,2.75,6.05,5.27,7.69c6.63,2.33,13.02,0.83,19.27,1.36c2.31-2.97,3.71-5.99,3.47-9.73c-0.21-3.28-0.04-6.58-0.04-10.36
		C132.01,129.29,124.44,123,116.77,116.63z M61.92,77.58c-2.29,5.68-3.62,10.82-3.37,15.22c0.14,2.47,0.03,4.96,0.03,7.41
		c2.23,2.15,5.7,3.92,9.2,5.53c5.79,2.65,10.47,6.97,15.83,11.16c1.48-0.36,3.3-0.84,5.13-1.25c1.68-0.37,3.51-0.38,5.03-1.08
		c1.69-0.78,3.1-2.15,4.74-3.34c-0.33-2.79-0.87-5.61-0.94-8.44c-0.06-2.4-0.84-4.25-2.43-5.99c-3.21-3.52-6.12-7.25-8.66-11.3
		c-1.52-2.42-3.55-4.53-5.3-6.71c-3.29,0-6.45,0.15-9.59-0.04C68.39,78.54,65.23,77.99,61.92,77.58z M63.88,156.25
		c0.91-0.3,1.62-0.71,2.35-0.74c2.16-0.09,4.63-0.69,6.4,0.14c2.03,0.95,4.25-1.65,5.91,0.77c0.13,0.2,1.4-0.41,2.14-0.59
		c2.22-0.56,3.87-2.21,4.72-3.95c1.88-3.84,4.45-7.14,6.82-10.63c3.49-5.15,6.53-10.55,5.13-17.65c-1.27-1.51-2.81-3.33-4.19-4.97
		c-2.37,0-4.37,0-6.36,0c-1.98,0-3.95,0-5.39,0c-2.2,1.67-4.26,2.77-5.7,4.43c-3.02,3.47-6.76,6.13-10.62,8.22
		c-4.03,2.19-4.73,5.7-5.41,9.24c-0.67,3.46,1.52,6.91,0.92,10.51C62.02,152.65,61.67,155.44,63.88,156.25z M136.43,165.21
		c0.23,6.24,4.84,12.26,12.94,16.61c-0.65,0.7-1.3,1.38-1.91,2.04c0.78,1.21,1.55,2.39,2.25,3.48c5.52,0,10.84,0,16.05,0
		c1.24-1.2,2.43-2.35,3.58-3.46c0-4.37,0-8.68,0-12.79c-1.14-2.02-2.2-3.89-3.15-5.57c-1.83,1.15-3.41,2.14-4.75,2.99
		c-1.82-2-3.56-3.65-4.98-5.54c-2.88-3.82-3.94-4.58-8.59-5.57c-0.53-0.11-0.96-0.74-1.15-0.9c-1.73,0.57-3.03,0.99-3.68,1.2
		C140.72,160.34,138.8,162.51,136.43,165.21z M296.39,113.04c-7.64-5.6-14.24-12.05-19.88-19.46c-5.59-7.35-10.7-15.03-15.44-23.03
		c3.65-4.24,7.88-7.83,11.34-12.22c3.48-4.41,7.3-8.58,10.86-12.95c2.34-2.87,4.16-5.92,5.67-9.27c-2.06,0-3.85,0-5.47,0
		c-1.68,1.67-3.38,3.06-4.7,4.75c-4.2,5.36-8.13,10.94-12.41,16.24c-4.25,5.27-8.79,10.31-13.31,15.56c0.21,0.69,0.24,1.59,0.7,2.15
		c4.48,5.51,7.82,11.79,12.15,17.44c4.21,5.49,8.13,11.12,13.16,15.93c1.77,1.69,3.84,2.7,5.87,3.9c1.62,0.96,3.49-0.18,4.68,0.71
		C291.84,114.47,293.93,113.23,296.39,113.04z M204.22,115.76c0.94-0.19,1.42-0.2,1.82-0.39c3.88-1.85,7.72-3.78,11.63-5.57
		c1.39-0.64,3-0.8,4.35-1.5c0.65-0.33,0.93-1.39,1.31-2.01c-3.04-2.3-6.49,3.06-9.05-1.28c0-18.07,0-36.28,0-54.49
		c0-1.16-0.4-2.52,0.07-3.44c1.81-3.6,0.46-7.29,1.01-10.8c-4.23-1.35-6.57,2.53-10.02,2.73c-0.68,0.04-1.32,0.8-2.18,1.35
		c2.1,1.81,3.18,3.87,3.17,6.63c-0.07,19.87-0.04,39.74-0.05,59.61c0,1.26-0.06,2.37-0.86,3.64
		C204.52,111.66,204.61,113.7,204.22,115.76z M252.71,108.59c-4.16-2.02-4.24-2-5.09-5.04c-0.34-1.21-0.39-2.54-0.4-3.81
		c-0.04-6.63,0.11-13.27-0.05-19.9c-0.16-6.53,1.38-12.92,1.14-19.49c-0.25-6.77-0.93-13.66,1.33-20.44
		c0.97-0.62,2.03-1.28,3.06-1.99c0.17-0.12,0.21-0.44,0.3-0.65c-0.39-0.39-0.74-0.74-1.09-1.09c-6.03-1.24-11.56,1.81-17.28,1.9
		c-1.37,1.17-2.06,2.33-0.93,3.85c2.24,0.44,4.15-2.16,6.65-0.43c-0.69,21.59,0.89,43.36-1.11,65.07c-0.25,2.73-1.26,4.8-4.06,5.54
		c0.06,0.96,0.12,1.73,0.17,2.6c6.7-2.19,13.15-3.89,19.64-4.29c0-1.1,0-1.87,0-2.63c-0.51-0.06-0.89-0.22-1.13-0.11
		C253.44,107.9,253.1,108.28,252.71,108.59z M53.93,76.77c4.46-3.5,7.1-7.84,7.7-13.89c-4.76-3.44-9.72-7.04-14.8-10.71
		c0.85-0.86,1.94-1.96,3.26-3.29c-1.35-0.96-2.4-1.72-4.34-3.1c-4.11,0.38-9.55,0.88-15.07,1.39c-0.66,1.11-1.29,2.18-1.92,3.25
		c-0.82,5.2,0.36,10.01,3.29,14.56c1.48,0,2.93,0,4.28,0C40.09,73.13,44.98,77.57,53.93,76.77z M63.77,108.67
		c-2.04,0-4.37-0.1-6.7,0.03c-2.56,0.14-4.94,0.79-6.84,2.77c-2.16,2.27-4.47,4.4-6.94,6.82c2.67,1.81,5.35,3.26,7.58,5.23
		c2.58,2.28,6.12,1.27,8.69,3.05c2.71-1.19,5.91-1.17,8.24-3.02c2.54-2.01,4.72-4.45,7.1-6.74
		C71.92,112.74,67.85,110.89,63.77,108.67z M100.95,139.45c-0.61,0.17-1.05,0.16-1.18,0.35c-2.19,3.21-4.36,6.42-6.38,9.74
		c-1.33,2.2-0.41,4.52-1.52,6.7c-0.72,1.42,2.19,9.04,3.77,10.66c1.74,1.79,2.2,4.76,5.2,5.57c1.37-1.66,2.95-3.24,4.13-5.08
		c3.69-5.72,4.99-11.63,1.83-18.2C105.1,145.68,102.56,142.83,100.95,139.45z M124.44,119.58c2.25,1.43,4.5,2.86,6.75,4.29
		c2.53,1.62,5.48,2.35,8.22,1.63c5.89-1.55,11.68-3.58,15.97-8.32c-7.3-6.57-11.31-9.86-19.91-7.43c-4.16,1.18-8.48,2.58-11.02,6.65
		C124.44,117.22,124.44,118.05,124.44,119.58z M368.96,111.32c0-11.6-0.03-23.02,0.03-34.43c0.01-1.54-0.27-3.02,0.79-4.66
		c0.82-1.25,0.62-3.57-1.85-4.47c-3.77,2.52-8.33,3.51-12.59,5.23c-0.2,0.08-0.24,0.54-0.49,1.15c0.59,0.3,1.33,0.68,2.13,1.08
		c0.48-0.08,1.61-0.28,2.75-0.48c0.88,1.51,1.58,2.71,2.34,4.03c0,11.47,0,23.02,0,34.64C364.76,114.25,366.74,113.01,368.96,111.32
		z M96.18,62.25c-2.07,3.75-4.78,6.57-5.81,10.69c-0.64,2.55-0.8,4.62-0.13,7.23c1.25,4.91,4.81,7.95,7.68,11.61
		c4.94-4.58,9.2-9.28,8.59-15.82C104.16,70.5,101.02,66.34,96.18,62.25z M367.58,51.87c1.57-2.01,3.2-3.98,2.01-6.83
		c-1.15-2.75-3.12-4.2-5.79-4.11c-1.45,1.32-2.68,2.43-3.77,3.42c0,1.85,0,3.49,0,4.89c0.91,1.01,1.69,1.86,2.38,2.62
		C364.22,51.87,365.87,51.87,367.58,51.87z M325.34,8.02c-0.99,5.83-1.26,11.88-4.84,17.03c4.79-3.1,10.2-5.58,10.74-12.5
		C329.28,11.04,327.39,9.59,325.34,8.02z"/>
	<path d="M172.22,54.4c-0.99-2.74-1.97-5.48-2.76-7.67c-1.47-1.04-2.5-1.77-3.93-2.78c-2.01,0.3-4.66-0.79-7.11,1.06
		c-3.1-2.42-6.38-0.74-9.51,0.01c-2.2,0.53-4.15,1.98-6.28,2.87c-3.11,1.31-6.26,2.57-9.45,3.68c-1.01,0.35-2.48,0.63-3.28,0.16
		c-3.09-1.79-6.33-3.18-9.61-4.54c-0.53-0.22-0.82-1-1.26-1.57c-1.86,1.04-3.9,1.24-4.61,3.15c3.96,3.47,7.74,6.9,11.64,10.17
		c4.01,3.36,6.53,7.83,9.67,12.12c-4.22,3.61-9.02,4.58-13.95,3.45c-8.01-1.83-14.72-6.99-19.03-13.96
		c-0.95-1.55-1.59-3.34-2.11-5.09c-0.44-1.48-0.48-3.02-1-4.56c-0.76-2.27-0.06-4.74,1.91-6.57c3.1-2.87,6.16-5.76,9.19-8.6
		c2.02,0.58,3.42,1.83,5.56,0.35c1.93-1.33,4.65-1.89,7.07-2.03c3.55-0.21,6.92-1.5,10.57-1.16c3.46,0.32,6.99,0.19,10.47,0.03
		c3.26-0.15,6.25,1.43,9.58,1.1c3.3-0.32,6.65-0.17,9.97-0.03c1.54,0.06,3.14,1.75,4.52,0.86c2.03-1.3,4.1-0.63,6.25-0.98
		c3.71,3.21,5.12,7.77,6.47,12.15c0.86,2.78,1.77,5.69,2.05,8.6c0.34,3.62,0.12,7.3,0.06,10.95c-0.02,1.24-0.41,2.49-0.64,3.66
		c-0.39,1.97,0.24,4.35,1.04,6.31c1.18,2.91,0.28,5.82,0.62,8.7c-1.74,1.22-0.82,3.02-0.98,4.57c-0.57,5.78-2.04,11.33-4.35,16.63
		c-1.89,4.35-5.91,6.36-9.98,8.15c-1.91,0.84-4.04,1.66-6.04,0.95c-2.74-0.98-5.59-2.08-7.86-3.82c-4.14-3.17-7.89-6.84-11.71-10.22
		c0-2.25,0.71-4.65-0.17-6.11c-1.28-2.14-0.69-4.14-0.77-6.16c-0.07-1.94-0.2-3.8-1.85-5.5c1.38-0.76,2.19-1.1,2.88-1.61
		c0.66-0.49,1.19-1.15,1.9-1.86c-3.85-1.3-4.72-5.13-6.94-7.93c0-1.58,0-3.22,0-5.36c3.46-3.45,7.2-7.18,11.19-11.16
		c-0.72-0.81-1.46-1.63-2.25-2.51c0-0.89,0-1.89,0-2.88c1.27-0.5,2.62-1.57,3.81-1.42c4.31,0.53,8.31-1.67,12.6-1.01
		c6.27,4.57,5.64,11.36,5.49,18.07c-0.98,1.83-2.01,3.74-3.35,6.24c-1.3-2.19-2.32-3.92-3.71-6.25c-2.84,6.36-6.3,11.6-11.05,15.26
		c-1.32-0.22-2.45-0.41-4.68-0.78c4.29,3.73,8.44,5.66,11.9,8.59c3.72,3.15,4.95,7.62,6.96,11.7c1.28-1.1,2.24-1.92,3.32-2.85
		c-1.76-3.7-1.94-7.68-3.77-11.14c-0.83-1.56-0.84-2.82,0.18-4.45c1.37-2.19,1.78-5.05,3.35-7.03c2.15-2.72,2.07-6.13,3.66-9
		c0.66-1.19,0.46-3.01-0.3-4.66C170.9,58.68,170.81,56.38,172.22,54.4z"/>
	<path d="M71.02,181.91c2.92,0.97,5.85,1.93,8.22,2.72c1.23-0.86,1.89-1.33,2.73-1.92c-0.6-0.78-0.88-1.41-1.37-1.72
		c-2.49-1.59-5.23-2.62-7.64-4.5c-4.16-3.26-7.97-7.75-9.41-12.51c-0.4-1.33-0.81-2.65-1.17-3.84c0.68-0.68,1.15-1.15,1.67-1.67
		c2.27,0,4.84-0.65,6.86,0.13c4.6,1.79,9.63,2.02,14.06,4.61c3.86,2.25,7.09,5.04,9.96,8.28c1.15,1.3,1.5,3.32,2.18,5.03
		c0.63,1.58,0.63,3.31,1.22,4.96c0.44,1.25-0.46,3-0.86,4.51c-0.44,1.69-1.13,3.31-2.56,4.4c-3.73,2.87-7.66,5.33-12.5,5.94
		c-1.21,0.15-2.37,0.7-3.58,0.95c-1.22,0.25-2.52-0.38-3.71,0.77c-0.53,0.51-1.88,0.23-2.85,0.23c-10.14,0.01-20.28,0.07-30.42-0.04
		c-2.36-0.02-4.71-0.67-7.07-0.94c-2.37-0.27-4.76,0.41-7.13-0.9c-1.15-0.63-2.93-0.11-4.53-0.11c-2.54-2.43-3.34-5.85-4.39-9.03
		c-0.62-1.88-1.44-3.8-1.21-6.03c0.2-1.97-1.08-3.86-0.96-6.05c0.25-4.52-1.35-8.91-1-13.52c0.34-4.45,0.02-8.95,0.11-13.43
		c0.03-1.39-0.22-2.73,0.7-4.21c0.64-1.03-0.17-2.94-0.41-5.22c2.24-5.64,4.38-12.29,8.79-17.83c2.66-1.3,5.5-1.41,8.41-1.39
		c5.35,0.04,9.76,2.03,13.63,5.66c5.51,5.17,8.21,11.7,9.79,18.86c0.46,2.1,1.17,4.14,1.85,6.51c-0.28,0.63-0.71,1.62-1.19,2.72
		c-0.39,0.04-0.87,0.2-1.32,0.12c-7.16-1.32-13.44-3.9-17.57-10.51c-1.31-2.1-3.19-3.87-4.18-6.26c-0.25-0.6-1.18-0.93-2.43-1.85
		c0,2.23-0.31,3.86,0.06,5.31c0.8,3.13,1.34,6.42,2.88,9.24c1.58,2.89,0.25,5.06-0.91,7.34c-0.87,1.72-4.08,8.89-4.12,10.72
		c-0.05,1.99-2.19,3.75-0.62,5.88c0.99-2.33,1.98-4.67,3.05-7.2c1.75,0.9,3.25,1.66,4.74,2.43c5.2-9.03,2.98-7.03,10.29-13.06
		c2.35,0,4.67,0,5.9,0c4.69,1.15,5.8,4.42,7.5,7.95c0.98,5.65-2.58,9.23-7.53,12c-1.48,0.83-2.95,1.67-4.73,2.67
		c1.18,1.46,2.35,2.91,3.63,4.51c-1.76,0.9-3.25,1.66-5.33,2.72c-1.97,0-4.62,0.13-7.24-0.03c-4.42-0.27-7.69-2.49-9.67-6.44
		c-0.32-0.64-0.11-1.55-0.46-2.34c-0.98,2.73-0.39,5.57-0.66,8.61c1.32,0.72,2.61,1.76,4.07,2.14c3.43,0.88,7.2,2.1,10.43,0.79
		c2.39-0.97,4.52-0.11,6.36-0.75c4.3-1.98,8.33-3.9,12.42-5.68c0.84-0.36,1.91-0.25,2.88-0.26c1.99-0.03,3.99-0.01,5.98-0.01
		C70.81,181.55,70.92,181.73,71.02,181.91z"/>
	<path d="M15.28,38.82c1.84-1.83,3.25-3.24,4.66-4.65c10.17-0.98,20.28-3.61,31.23-1.42c-0.02,0.02,0.47-0.36,1.1-0.84
		c2.22,0.98,4.53,1.99,7.04,0.14c0.65-0.48,2.05-0.36,2.92-0.02c4.59,1.77,9.56,1.51,14.29,2.75c2.69,0.7,5.43,1.3,8.1,2.17
		c4.29,1.4,8.43,6.13,8.86,10.37c0.19,1.89,0.09,3.69,0.89,5.61c0.94,2.25-1.39,8.5-3.01,10.6c-4.02,5.22-9.05,8.9-15.52,10.5
		c-0.73,0.18-1.39,0.66-2.05,1.04c-0.28,0.16-0.48,0.46-0.73,0.71c-2.3,0-4.63,0-6.9,0c-1.54-1.5-3.06-2.98-4.16-4.06
		c0.69-2.91,1.3-5.47,2.07-8.7c1.53-0.84,2.25-3.38,4.47-4.81c2.18-1.41,3.72-3.78,5.74-5.49c1.91-1.61,4.08-2.91,6.24-4.42
		c-0.45-0.33-0.98-0.71-1.74-1.26C72,46.8,70.6,47.1,65.94,49.95c-6.67-2.33-13.5-4.26-20.34-6.18c-4.3-1.2-8.42-0.45-12.6-0.75
		c-1.3-0.1-2.75,0.52-3.98,1.12c-0.85,0.41-1.44,1.35-2.38,2.29c0,2.71-0.44,5.75,0.09,8.61c1.4,7.59,2.4,15.35,6.7,22.09
		c1.56,2.45,1.87,5.1-0.12,7.4c-3.26,3.77-4,8.12-3.58,12.8c0.53,0.49,0.98,0.92,1.61,1.51c4.2-6.98,8.71-13.57,15.84-18.08
		c2.68,0.21,5.67-0.66,8.25,1.45c0.91,5.41-0.19,10.84-1.99,15.86c-2.33,6.52-7.15,11.18-13.87,13.59
		c-1.59,0.57-3.14,1.24-5.09,2.02c-2.93-1.59-6.13-3.45-9.44-5.08c-2.7-1.33-4.5-3.44-5.9-5.96c-1.12-2.01-2.19-4.07-3.15-6.16
		c-0.32-0.69-0.55-1.73-0.25-2.33c0.97-1.96,0.71-3.6,0.15-5.73c-0.55-2.1-1.07-4.79,0.61-7.09c0.48-0.66,0.16-1.91,0.17-2.89
		c0.01-3.32-0.09-6.64,0.03-9.95c0.14-3.69-0.74-7.48,0.97-11.03c-0.33-5.34-0.62-10.68-1.05-16.01
		C16.54,40.61,15.81,39.83,15.28,38.82z"/>
	<path d="M144.73,201c-0.06-0.04-0.58-0.64-1.12-0.67c-2.72-0.15-5.45-0.68-8.07-0.81c-3.58-0.17-7.05-0.93-10.52-1.4
		c-5.16-0.69-10.37-2.08-14.86-4.89c-2.54-1.59-4.84-3.86-5.64-6.98c-0.73-2.83-2.27-5.74-0.04-8.62c-0.02-6.1,4.69-9.19,8.28-13
		c3.08-0.75,4.7-4.34,8.22-4.22c2.79-2.75,6.34-1.81,9.49-1.95c1.65,0.82,3.16,1.58,4.7,2.35c-2.27,11.47-7.03,16.34-16.99,23.43
		c0.74,0.74,1.59,1.58,3.21,3.2c4.95,0.39,9.99-2.83,15.1-6.14c5.39,3.31,10.81,6.63,16.68,10.24c4.78-0.38,9.95-0.7,15.08-1.28
		c1.3-0.15,2.49-1.18,3.57-1.73c-0.06-1.5-0.59-3-0.08-3.95c1.95-3.61,1.68-6.96,0.77-10.93c-1.53-6.61-4.94-12.26-7.75-18.23
		c-0.27-0.56-0.91-0.95-1.64-1.68c0.39-1.48,0.33-3.57,1.35-4.7c3.79-4.2,4.19-9.06,3.74-14.32c-4.21,2.07-6.61,5.81-8.73,9.42
		c-3.03,5.15-8.05,7.43-12.73,10.28c-0.61,0.37-1.63,0.05-2.9,0.05c-0.59-0.78-1.37-1.82-2.58-3.42c0.45-3.27,0.81-7.42,1.64-11.46
		c1-4.91,4.21-8.66,7.36-12.37c0.97-1.13,2.29-2,3.12-3.2c2.39-3.44,6.14-4.33,9.77-5.34c2.24-0.63,4.43,0.58,6.25,1.63
		c4.5,2.6,7.05,6.88,8.91,11.6c0.34,0.86,0.64,1.73,1.01,2.57c0.25,0.57,0.58,1.1,1,1.89c-0.3,3.41,0.37,6.95,1.7,10.43
		c0.38,0.98,0.36,2.26,0.12,3.31c-0.9,3.78-0.9,3.75,0.01,7.75c0.29,1.25,0.05,2.62,0.17,3.92c0.23,2.53-0.63,5.13,0.88,7.61
		c0.38,0.62-0.5,1.99-0.76,2.88c0.3,1.3,1.13,2.72,0.75,3.66c-1.07,2.67-0.22,5.59-1.05,8.04c-1.21,3.57-0.5,7.08-0.93,10.94
		c-3.23,3.36-7.5,5.03-12.35,5.36c-1.99,0.14-4,0.13-5.98-0.01c-1.71-0.12-3.67,0.83-5.07-0.96
		C153.65,199.12,149.71,200.39,144.73,201z"/>
	<path d="M457.79,74.37c0,0.33,0,0.66,0,0.99c0,2.82,0.39,5.7-0.1,8.44c-0.56,3.15-1.74,6.22-2.96,9.2
		c-0.64,1.56-2.11,2.76-2.9,4.28c-1.92,3.73-4.51,6.73-8.08,9.03c-3.4,2.19-6.5,4.74-10.64,5.65c-2.75,0.6-5.35,1.77-8.26,1.71
		c-3.49-0.08-6.99-0.19-10.46,0.02c-4.54,0.28-13.98-3.59-17.74-6.61c-4.63-3.72-7.98-8.2-10.36-13.51
		c-1.14-2.54-1.88-5.19-2.52-7.93c-0.95-4.05-0.7-8.03-0.84-12.06c-0.31-8.46,2.22-16.11,7.06-22.92c1.98-2.79,4.54-5.31,7.25-7.41
		c2.4-1.86,4.61-4.45,8.15-4.3c4.13-3.01,8.9-3.06,13.71-2.99c1.49,0.02,3,0.13,4.48-0.02c6.78-0.7,12.56,2.18,18.37,5
		c2.18,1.06,3.12,3.76,5.69,4.31c2.35,3.34,5.48,6.39,6.86,10.09c1.95,5.23,4.29,10.62,3.32,16.55
		C457.68,72.7,457.79,73.54,457.79,74.37z M448.81,75.69c0-2.55,0.62-4.98-0.17-6.79c-0.83-1.89-0.09-4.21-1.83-5.72
		c-0.36-5.76-3.57-10.31-6.92-14.52c-3.38-4.26-7.93-6.97-13.63-7.94c-5.21-0.89-11.17-1.1-15.46,0.8
		c-6.1,2.71-10.72,6.86-14.05,12.83c-2.91,5.21-3.68,10.85-4.79,16.44c-0.96,4.85,0.34,9.76,1.17,14.46
		c0.79,4.44,3.07,8.7,5.79,12.48c1.33,1.84,2.95,3.5,4.6,5.07c5.89,5.61,16.41,8.57,24.66,5.87c5.41-1.78,10.84-5.3,14.15-10.18
		c1.42-2.08,3.19-4.05,3.64-6.98c0.39-2.52,1.23-5.14,2.01-7.6C448.94,80.96,448.46,78.15,448.81,75.69z"/>
	<path d="M446.53,144.74c-0.84-0.84-1.9-1.89-3.25-3.25c-2.5,0.42-5.4-0.72-8.14,0.86c-0.4-0.42-0.84-0.88-1.27-1.34
		c0.51-0.51,0.95-1.35,1.46-1.4c6.12-0.51,11.85-3.52,18.02-3.02c0.47,0.47,0.83,0.83,1.46,1.45c0,9.64,0.79,19.64-0.23,29.46
		c-0.96,9.28-2.03,18.72-4.89,27.63c-4.57,0.95-7.71-1.78-11.1-3.59c-6.2-3.31-11.65-7.79-17.78-11.24
		c-3.96-2.22-7.5-5.18-11.27-7.74c-4.53-3.08-9.15-6.04-13.67-9.14c-5.2-3.57-10.33-7.23-15.63-10.95
		c-3.08,8.44-6.47,16.83-9.93,25.19c-3.41,8.26-7.15,16.32-11.26,24.39c-1.35,0-2.58,0-4,0c4.28-9.26,7.78-18.73,10.78-28.32
		c2.72-8.69,6.27-17.23,7.46-26.67c-3.2-2.43-6.32-4.8-9.83-7.47c1.81-1.43,3.37-2.66,5.02-3.96c1.51-0.16,2.95-0.29,4.36,1.14
		c1.3,1.32,3.17,1.97,5.22,1.78c1.47-0.14,2.97-0.03,3.98-0.03c1.24,0.63,2.06,1.06,3.09,1.58c-0.6,1.24-1.2,2.48-1.36,2.81
		c-1.61,2.32,53.75,40.48,62.79,44.38c0.42-4.67,1.02-9.29,1.21-13.92c0.21-5.14,0.1-10.29,0.03-15.43
		C447.73,153.61,448.42,149.19,446.53,144.74z"/>
	<path d="M321.68,174.4c-6.4,0-12.56-0.13-18.7,0.04c-4.85,0.13-9.8,0.11-14.52,1.09c-5.15,1.07-10.2,2.97-14.01,7.03
		c-5.5,5.87-11.01,11.73-16.55,17.63c-1.13,0-2.25,0-3.44,0c0.03-0.29-0.03-0.59,0.09-0.74c4.55-5.71,9.64-10.96,14.31-16.53
		c5-5.96,10.2-11.79,14.74-18.19c2.56-3.6,5.58-7,8.25-10.59c3.7-4.97,7.32-10.05,9.32-15.98c-0.4-0.44-0.73-0.8-1.36-1.5
		c3.2-1.17,6.23-2.27,9.68-3.53c1.26,2.12,2.99,3.96,3.46,6.06c0.99,4.51,3.67,8.14,5.6,12.13c1.87,3.87,3.82,7.73,6.09,11.45
		c3.8,6.21,7.3,12.62,11.44,18.61c2.35,3.4,5.2,6.36,9.31,8.08c2.18,0.92,3.82,1.17,5.84,0.15c0.99-0.5,2.09-0.7,3.11,0.93
		c-5.43,2.73-10.93,4.92-15.64,8.08C334.77,195.84,327.65,185.59,321.68,174.4z M318.23,170.18c-4.32-8.37-8.51-16.47-12.76-24.7
		c-5.77,8.8-12.43,16.75-19.28,24.7C296.99,170.18,307.51,170.18,318.23,170.18z"/>
	<path d="M207.28,145.02c-0.7-0.7-1.05-1.05-1.37-1.37c-4.07-1.18-7.45,2.6-12.12,1.66c1.34-1.02,2.23-1.69,3.2-2.43
		c1.23-0.39,2.68-0.95,4.18-1.32c4.7-1.17,9.48-2.02,14.19-3.09c7.84-1.78,15.73-1.04,23.53-0.7c5.86,0.25,11.79,2.02,16,6.93
		c0.97,1.13,2.1,2.12,3.24,3.25c0.34,2.08,0.85,4.24,1.03,6.42c0.29,3.7-3.17,10.09-6.81,12.57c-3.66,2.48-7.34,4.62-11.68,5.57
		c-0.58,0.13-1.05,0.81-1.62,0.87c-5.8,0.7-11.59,1.54-17.62,0.84c0-0.76,0-1.54,0-2.8c2.77,0,5.7-0.02,8.64,0
		c3.22,0.03,6.16-1.02,8.99-2.36c2.92-1.38,5.9-4.48,8.16-8.16c0-2.15-0.08-4.46,0.02-6.77c0.27-6.52-5.32-10.88-10.72-12.62
		c-3.81-1.22-7.69-1.08-11.56-0.91c-3.15,0.14-6.37,0.59-7.68,5.19c0,1.77-0.03,4.41,0,7.05c0.12,11.15-1.72,22.25-1.02,33.42
		c0.13,2.01,1.15,5.26,2.48,7.08c1.9,0,3.89,0.14,5.86-0.04c1.81-0.16,3.59-0.67,5.37-1.02c0.14,0.67,0.36,1.05,0.25,1.26
		c-0.3,0.56-0.74,1.04-1.12,1.54c-4.43,0.63-8.81,1.24-13.17,1.94c-4.14,0.67-8.03,2.99-13.02,2.03c3.96-2.85,4.43-6.64,4.41-10.73
		C207.23,173.88,207.28,159.45,207.28,145.02z"/>
	<path d="M115.8,76.8c4.26,0,8.4-0.05,12.54,0.01c6.37,0.09,7.69,1.46,10.07,5.47c0,5.96,0,11.91,0,18.32
		c-4.46,3.03-9.04,6.34-13.82,9.34c-3.29,2.06-6.78,3.88-10.88,3.71c-4.54,2.43-8.44,0.13-12.25-1.44c-2.4-3.87-2.05-7.9-1.91-11.9
		C105.47,92.84,109.23,83.81,115.8,76.8z"/>
	<path d="M343.8,78.13c0.76,2.95-0.74,5.7,1.13,8.04c-1.77,2.15-0.29,4.76-0.98,6.99c-0.67,2.18-1.77,4.27-2.96,6.23
		c-2.3,3.79-5.55,6.69-9.12,9.28c-4.9,3.56-10.33,5.24-16.39,4.99c-2.65-0.11-5.33,0.12-7.98-0.06c-2.72-0.19-5.3-0.92-7.55-3.7
		c-0.35-3.91-0.75-8.36-1.16-13.02c1.25,0,2.03,0,3.08,0c0.69,4.88,1.38,10.08,7.48,12.77c4.91,0.24,10.17-0.46,15.17-3.76
		c4.9-3.23,8.02-7.53,10.45-13.07c0.16-7.48,0.16-7.48-2-12.69c-1.19-0.53-2.44-1.11-3.72-1.65c-2.17-0.92-4.32-1.69-6.77-1.77
		c-2.68-0.09-5.33-0.74-7.73-1.1c-1.61-0.75-3.17-1.18-4.37-2.09c-3.18-2.42-4.89-5.77-5.26-9.73c-0.15-1.64,0.04-3.32-0.04-4.97
		c-0.24-4.98,1.3-9.06,4.44-13.16c2.85-3.72,6.24-5.99,10.22-7.91c2.3-1.11,4.61-1.95,7.24-1.82c2.32,0.12,4.65,0.01,6.98,0.03
		c2.07,0.01,4.25-0.44,6.15,2.34c-0.27,1.52-0.71,3.97-1.22,6.75c-2.58-2.08-5.62-2.03-8.35-2.88c-2.72-0.85-5.91-0.19-8.96-0.19
		c-2.52,1.98-6.42,2.2-8.16,5.2c-1.52,2.62-2.3,5.67-3.25,8.12c0.44,1.91,0.79,3.42,1.24,5.37c1.06,1.03,2.49,2.42,4.13,4.02
		c1.53,0.33,3.41,0.57,5.17,1.16c3.47,1.15,7.22,0.96,10.62,2.06c4.24,1.37,8.8,2.64,10.79,7.45
		C342.54,76.38,343.25,77.25,343.8,78.13z"/>
	<path d="M116.77,116.63c7.67,6.37,15.23,12.66,22.64,18.81c0,3.77-0.17,7.08,0.04,10.36c0.24,3.74-1.16,6.76-3.47,9.73
		c-6.25-0.53-12.64,0.97-19.27-1.36c-2.52-1.64-3.85-4.69-5.27-7.69c-0.59-1.25-1.2-2.6-2.15-3.56c-3.48-3.53-6.46-7.4-8.77-12.12
		c-0.12-4.31-0.62-9.03,3.16-12.88c2.01-0.41,4.13-1.03,6.29-1.24C112.28,116.46,114.62,116.63,116.77,116.63z"/>
	<path d="M61.92,77.58c3.31,0.42,6.47,0.97,9.65,1.17c3.14,0.2,6.31,0.04,9.59,0.04c1.75,2.18,3.79,4.28,5.3,6.71
		c2.54,4.05,5.46,7.79,8.66,11.3c1.59,1.74,2.37,3.59,2.43,5.99c0.07,2.83,0.61,5.65,0.94,8.44c-1.63,1.19-3.05,2.56-4.74,3.34
		c-1.52,0.7-3.35,0.71-5.03,1.08c-1.83,0.41-3.65,0.88-5.13,1.25c-5.35-4.19-10.04-8.51-15.83-11.16c-3.5-1.61-6.97-3.38-9.2-5.53
		c0-2.45,0.12-4.93-0.03-7.41C58.3,88.4,59.63,83.26,61.92,77.58z"/>
	<path d="M63.88,156.25c-2.21-0.8-1.86-3.59-3.28-5.23c0.6-3.6-1.59-7.04-0.92-10.51c0.68-3.54,1.38-7.05,5.41-9.24
		c3.86-2.1,7.6-4.76,10.62-8.22c1.44-1.65,3.51-2.76,5.7-4.43c1.44,0,3.42,0,5.39,0c2,0,3.99,0,6.36,0
		c1.38,1.64,2.91,3.46,4.19,4.97c1.4,7.1-1.64,12.5-5.13,17.65c-2.36,3.49-4.94,6.79-6.82,10.63c-0.85,1.74-2.51,3.39-4.72,3.95
		c-0.75,0.19-2.01,0.79-2.14,0.59c-1.66-2.42-3.88,0.18-5.91-0.77c-1.77-0.83-4.24-0.23-6.4-0.14
		C65.5,155.54,64.78,155.95,63.88,156.25z"/>
	<path d="M136.43,165.21c2.38-2.7,4.29-4.87,6.62-7.51c0.64-0.21,1.94-0.64,3.68-1.2c0.19,0.16,0.62,0.79,1.15,0.9
		c4.65,1,5.71,1.76,8.59,5.57c1.43,1.89,3.17,3.54,4.98,5.54c1.34-0.85,2.92-1.84,4.75-2.99c0.95,1.68,2.01,3.55,3.15,5.57
		c0,4.12,0,8.42,0,12.79c-1.15,1.11-2.34,2.26-3.58,3.46c-5.22,0-10.53,0-16.05,0c-0.7-1.09-1.47-2.27-2.25-3.48
		c0.62-0.66,1.26-1.34,1.91-2.04C141.26,177.47,136.66,171.45,136.43,165.21z"/>
	<path d="M296.39,113.04c-2.45,0.19-4.54,1.43-6.77-0.24c-1.18-0.89-3.06,0.24-4.68-0.71c-2.04-1.2-4.1-2.2-5.87-3.9
		c-5.03-4.81-8.96-10.44-13.16-15.93c-4.33-5.65-7.67-11.93-12.15-17.44c-0.45-0.56-0.49-1.46-0.7-2.15
		c4.52-5.26,9.06-10.29,13.31-15.56c4.28-5.3,8.21-10.88,12.41-16.24c1.32-1.69,3.02-3.08,4.7-4.75c1.62,0,3.4,0,5.47,0
		c-1.51,3.35-3.33,6.4-5.67,9.27c-3.57,4.37-7.39,8.54-10.86,12.95c-3.46,4.39-7.7,7.98-11.34,12.22c4.74,8,9.85,15.68,15.44,23.03
		C282.15,100.99,288.75,107.44,296.39,113.04z"/>
	<path d="M204.22,115.76c0.39-2.06,0.3-4.1,1.19-5.52c0.8-1.27,0.86-2.38,0.86-3.64c0.01-19.87-0.03-39.74,0.05-59.61
		c0.01-2.76-1.07-4.82-3.17-6.63c0.85-0.55,1.49-1.32,2.18-1.35c3.45-0.19,5.79-4.08,10.02-2.73c-0.55,3.51,0.8,7.19-1.01,10.8
		c-0.47,0.93-0.07,2.28-0.07,3.44c0,18.21,0,36.43,0,54.49c2.56,4.34,6.01-1.02,9.05,1.28c-0.38,0.62-0.66,1.68-1.31,2.01
		c-1.35,0.69-2.96,0.86-4.35,1.5c-3.91,1.79-7.75,3.72-11.63,5.57C205.64,115.56,205.16,115.56,204.22,115.76z"/>
	<path d="M252.71,108.59c0.39-0.32,0.73-0.69,1.15-0.9c0.24-0.12,0.62,0.05,1.13,0.11c0,0.75,0,1.53,0,2.63
		c-6.49,0.4-12.94,2.1-19.64,4.29c-0.06-0.86-0.11-1.63-0.17-2.6c2.79-0.74,3.8-2.81,4.06-5.54c2-21.72,0.42-43.48,1.11-65.07
		c-2.5-1.73-4.41,0.87-6.65,0.43c-1.13-1.52-0.44-2.67,0.93-3.85c5.72-0.09,11.25-3.14,17.28-1.9c0.35,0.35,0.7,0.7,1.09,1.09
		c-0.09,0.21-0.13,0.53-0.3,0.65c-1.03,0.71-2.09,1.37-3.06,1.99c-2.27,6.78-1.58,13.67-1.33,20.44c0.24,6.57-1.3,12.96-1.14,19.49
		c0.16,6.63,0.02,13.26,0.05,19.9c0.01,1.28,0.05,2.6,0.4,3.81C248.47,106.6,248.54,106.58,252.71,108.59z"/>
	<path d="M53.93,76.77c-8.95,0.8-13.84-3.64-17.59-11.8c-1.36,0-2.81,0-4.28,0c-2.94-4.55-4.11-9.35-3.29-14.56
		c0.63-1.06,1.26-2.13,1.92-3.25c5.52-0.51,10.95-1.01,15.07-1.39c1.94,1.38,2.99,2.14,4.34,3.1c-1.32,1.33-2.4,2.43-3.26,3.29
		c5.08,3.68,10.05,7.27,14.8,10.71C61.03,68.93,58.39,73.27,53.93,76.77z"/>
	<path d="M63.77,108.67c4.08,2.23,8.15,4.08,11.13,8.14c-2.37,2.29-4.56,4.73-7.1,6.74c-2.33,1.84-5.53,1.82-8.24,3.02
		c-2.57-1.78-6.11-0.77-8.69-3.05c-2.23-1.97-4.91-3.42-7.58-5.23c2.47-2.42,4.78-4.55,6.94-6.82c1.89-1.98,4.27-2.63,6.84-2.77
		C59.4,108.56,61.73,108.67,63.77,108.67z"/>
	<path d="M100.95,139.45c1.62,3.38,4.16,6.23,5.84,9.74c3.16,6.57,1.86,12.48-1.83,18.2c-1.18,1.83-2.76,3.42-4.13,5.08
		c-3-0.8-3.45-3.78-5.2-5.57c-1.58-1.62-4.49-9.25-3.77-10.66c1.11-2.18,0.18-4.5,1.52-6.7c2.02-3.33,4.19-6.54,6.38-9.74
		C99.89,139.61,100.33,139.62,100.95,139.45z"/>
	<path d="M124.44,119.58c0-1.53,0-2.35,0-3.18c2.55-4.07,6.86-5.47,11.02-6.65c8.6-2.43,12.61,0.86,19.91,7.43
		c-4.29,4.74-10.08,6.77-15.97,8.32c-2.74,0.72-5.69-0.01-8.22-1.63C128.94,122.43,126.69,121.01,124.44,119.58z"/>
	<path d="M368.96,111.32c-2.23,1.69-4.2,2.92-6.89,2.09c0-11.62,0-23.17,0-34.64c-0.76-1.31-1.46-2.51-2.34-4.03
		c-1.14,0.2-2.27,0.39-2.75,0.48c-0.8-0.41-1.54-0.78-2.13-1.08c0.25-0.61,0.29-1.07,0.49-1.15c4.26-1.72,8.81-2.71,12.59-5.23
		c2.47,0.9,2.67,3.22,1.85,4.47c-1.06,1.64-0.78,3.12-0.79,4.66C368.94,88.31,368.96,99.72,368.96,111.32z"/>
	<path d="M96.18,62.25c4.84,4.09,7.98,8.24,10.33,13.71c0.6,6.53-3.66,11.24-8.59,15.82c-2.87-3.66-6.43-6.69-7.68-11.61
		c-0.66-2.61-0.51-4.68,0.13-7.23C91.4,68.82,94.11,66,96.18,62.25z"/>
	<path d="M367.58,51.87c-1.71,0-3.36,0-5.18,0c-0.69-0.76-1.46-1.61-2.38-2.62c0-1.4,0-3.05,0-4.89c1.09-0.99,2.31-2.1,3.77-3.42
		c2.67-0.09,4.64,1.36,5.79,4.11C370.78,47.89,369.15,49.86,367.58,51.87z"/>
	<path d="M325.34,8.02c2.05,1.57,3.94,3.03,5.9,4.53c-0.54,6.92-5.95,9.4-10.74,12.5C324.08,19.9,324.35,13.85,325.34,8.02z"/>
	<path class="st0" d="M448.81,75.69c-0.34,2.45,0.13,5.27-0.8,8.22c-0.78,2.46-1.62,5.08-2.01,7.6c-0.45,2.93-2.22,4.89-3.64,6.98
		c-3.32,4.88-8.74,8.4-14.15,10.18c-8.25,2.71-18.77-0.25-24.66-5.87c-1.65-1.57-3.27-3.23-4.6-5.07c-2.73-3.77-5-8.04-5.79-12.48
		c-0.83-4.7-2.13-9.61-1.17-14.46c1.11-5.59,1.88-11.23,4.79-16.44c3.33-5.97,7.95-10.11,14.05-12.83
		c4.28-1.91,10.24-1.69,15.46-0.8c5.7,0.97,10.24,3.68,13.63,7.94c3.35,4.22,6.56,8.77,6.92,14.52c1.73,1.51,1,3.83,1.83,5.72
		C449.43,70.72,448.81,73.14,448.81,75.69z"/>
	<path class="st0" d="M318.23,170.18c-10.72,0-21.24,0-32.04,0c6.84-7.95,13.5-15.91,19.28-24.7
		C309.72,153.71,313.91,161.81,318.23,170.18z"/>
</g>
</svg>
