<?xml version="1.0" encoding="utf-8"?>
<!-- Generator: Adobe Illustrator 28.2.0, SVG Export Plug-In . SVG Version: 6.00 Build 0)  -->
<svg version="1.1" id="Livello_1" xmlns="http://www.w3.org/2000/svg" xmlns:xlink="http://www.w3.org/1999/xlink" x="0px" y="0px"
	 viewBox="0 0 1086.29 320.46" style="enable-background:new 0 0 1086.29 320.46;" xml:space="preserve">
<style type="text/css">
	.st0{fill:#FFFFFF;}
	.st1{fill:#E32D4A;}
	.st2{fill:#E32F4B;}
	.st3{fill:#E22F4B;}
	.st4{fill:#616062;}
	.st5{fill:#5C5C5D;}
	.st6{fill:#626163;}
	.st7{fill:#605F61;}
	.st8{fill:#616163;}
	.st9{fill:#616162;}
	.st10{fill:#646364;}
	.st11{fill:#646365;}
	.st12{fill:#606061;}
	.st13{fill:#5E5E60;}
	.st14{fill:#636364;}
	.st15{fill:#5C5C5E;}
	.st16{fill:#C6C6C6;}
	.st17{fill:#FBFBFB;}
	.st18{fill:#FDFDFD;}
	.st19{fill:#FCFCFC;}
	.st20{fill:#F5F5F6;}
	.st21{fill:#F7F7F7;}
</style>
<g id="I7DH3L_00000014619352167112826960000007743226532587273387_">
	<g>
		<path class="st0" d="M950.18,38.44c0.21,1.56,0.25,3.03,0.81,4.65c1.2,3.49,2.27,7.1,3.06,10.71c0.54,2.46,1.74,4.68,2.12,7.14
			c0.38,2.47,1.35,4.82,1.86,7.2c0.88,4.13,2.49,8.03,3.25,12.2c0.63,3.46,2.12,6.75,3.17,9.93c3,0,5.79,0,8.81,0
			c0.99-3.17,2.03-6.24,2.9-9.35c1.25-4.49,2.35-9.02,3.57-13.52c1.14-4.19,2.48-8.32,3.49-12.55c1.01-4.21,2.38-8.34,3.56-12.51
			c1.48-5.22,2.94-10.45,4.38-15.68c0.07-0.27-0.11-0.61-0.24-1.22c-1.55,0-3.18,0-4.81,0c-1.62,0-3.24,0-4.48,0
			c-3.99,17.71-8.71,34.75-13.07,51.94c-0.38-1.32-0.18-2.65-0.44-3.87c-0.26-1.2-1.39-2.2-0.94-3.6c0.47-1.43-0.81-2.39-0.96-3.59
			c-0.5-3.9-2.53-7.41-2.95-11.26c-0.33-3.04-1.96-5.57-2.53-8.49c-0.56-2.88-1.61-5.65-2.41-8.48c-1.19-4.17-2.35-8.36-3.45-12.29
			c-1.81-0.45-3.48-0.87-4.27-1.07c-1.83,0.33-2.88,0.59-3.94,0.69c-1.11,0.09-2.23,0.02-3.29,0.02c-1.14,3.57-2.64,6.75-3.07,10.06
			c-0.39,3.03-1.52,5.8-2.46,8.53c-1.02,2.94-1.53,6-2.48,8.94c-1.61,5-3.3,10.03-4.25,15.26c-0.56,3.07-1.63,6.05-2.48,9.07
			c-0.92-2.14-0.91-4.43-1.63-6.44c-1.87-5.17-2.12-10.73-3.91-15.87c-1.29-3.7-1.52-7.61-2.83-11.31
			c-1.14-3.22-0.97-6.93-2.24-10.07c-1.07-2.66-0.1-5.8-1.77-7.49c-3.15-2.33-6.05-1.57-8.7-1.63c-0.64,0.73-1.07,1.2-1.44,1.62
			c0.73,2.37,1.57,4.52,2.17,6.79c0.91,3.43,1.49,6.95,2.79,10.32c1.16,3.01,1.95,6.24,2.59,9.4c0.69,3.38,1.75,6.64,2.5,9.99
			c0.72,3.2,1.19,6.49,2.28,9.55c2.15,5.99,3.28,12.26,5.24,18.28c3,0,5.99,0,9.26,0c0.83-3.72,2.76-7.07,3.37-11.04
			c0.62-4.05,2.94-7.83,3.75-11.88c1.52-7.65,4-15.01,6.19-22.46c0.66-2.23,0.89-4.37,0.91-6.61
			C948.18,38.44,949.18,38.44,950.18,38.44z M101.36,41.44c-29.35,0-58.02,0-86.68,0c-0.47,0.47-0.94,0.94-1.5,1.5
			c0,0.57,0,1.22,0,1.88c0,66.49,0,132.99,0,199.48c0,0.67,0.08,1.34-0.02,2c-0.21,1.52,0.46,2.49,1.59,3.05
			c11.15,0,22.12,0,33.01,0c0.44-0.44,0.79-0.79,1.49-1.49c0-44.22,0-88.78,0-133.46c2.5,0.02,3.17,2.06,4.55,3.07
			c5.39,3.95,10.76,7.94,15.97,12.13c3.63,2.92,7.25,5.96,10.99,8.64c7,5.02,13.54,10.59,20.42,15.74c3.59,2.69,7.19,5.39,10.64,8.3
			c1.71,1.44,3.6,2.98,5.7,4.15c2.22,1.23,4,3.23,6.01,4.84c1.11,0.89,2.33,1.63,3.46,2.49c1.26,0.96,2.33,2.07,3.76,2.94
			c3.25,1.98,6.15,4.55,9.13,6.96c3.88,3.14,7.48,6.69,11.62,9.44c4.13,2.74,7.75,6.09,11.76,8.96c3.65,2.61,7.16,5.4,10.6,8.29
			c3.64,3.06,7.89,5.35,11.4,8.63c2,1.87,4.01,3.83,6.32,5.27c6.9,4.32,12.86,9.85,19.43,14.59c3.91,2.82,7.46,6.13,11.25,9.12
			c0.94,0.75,2.18,1.12,3.28,1.66c0.59-0.64,1.04-1.13,1.52-1.65c0-24.38,0-48.83,0-73.08c-1.32-0.54-2.43-1.28-3.6-1.41
			c-8.33-0.91-15.88-4.34-23.3-7.74c-12.21-5.59-17.35-8.47-28.4-16.03c-7.36-5.03-14-10.8-20.48-16.8
			c-4.44-4.12-8.95-8.23-12.47-13.28c-2.38-3.41-5.29-6.44-7.7-9.83c-4.16-5.85-8.29-11.73-11.36-18.28
			c-3.01-6.42-6.15-12.79-9.16-19.2c-1.41-3-6.8-21.77-7.44-24.92C102.75,45.46,102.01,43.58,101.36,41.44z M144.07,41.59
			c0.5,2.17-0.01,4.07,0.82,6.26c2.01,5.33,3.76,10.73,5.97,16.03c2.48,5.94,5.69,11.33,8.91,16.82c1.68,2.86,3.65,5.51,5.53,8.15
			c4.34,6.09,9.16,11.86,14.74,16.92c1.42,1.28,3.21,2.19,4.48,3.59c3.39,3.74,7.89,6,11.76,9.08c2.33,1.86,5.26,2.76,7.66,4.39
			c5.58,3.79,11.73,6.23,17.95,8.62c1.66,0.64,3.28,1.39,5.07,2.16c0-31,0-61.56,0-92.02C199.27,41.59,171.83,41.59,144.07,41.59z
			 M84.68,249.44c1.15,0,2.61,0,4.07,0c16.98,0,33.97,0,50.95,0c8.33,0,16.65-0.04,24.98,0.03c1.54,0.01,2.7-0.21,3.38-1.69
			c-28.27-21.12-55.92-42.75-84.26-63.83c-0.88,4.75-1.13,46.43-0.48,64.13C83.67,248.44,84.03,248.79,84.68,249.44z M301.35,223.55
			c0,27.52,0,54.64,0,81.8c3.63,0,7.08,0,10.88,0c0-20.67,0-41.24,0-62.63c14.47,21.39,28.44,42.05,42.31,62.57
			c3.9,0,7.68,0,11.45,0c0.71-15.77,0.43-77.69-0.33-81.65c-3.49,0-6.94,0-10.5,0c0,20.51,0,40.82-0.01,61.14
			c0,0.13-0.12,0.29-0.23,0.4c-0.09,0.09-0.23,0.13-0.26,0.14c-13.93-20.57-27.84-41.13-41.81-61.77
			C309.1,223.55,305.31,223.55,301.35,223.55z M292.34,9.54c0,26.85,0,53.29,0,79.57c0.52,0.52,0.87,0.87,1.21,1.21
			c3.13,0,6.25,0,9.62,0c0-1.58,0-3.05,0-4.51c0-15.49-0.02-30.99,0.03-46.48c0-1.7,0.37-3.4,0.63-5.66
			c0.03,0.04-0.31-0.48-0.71-1.1c0.51-0.99,1.04-2.03,1.71-3.36c14.02,20.61,27.65,41.19,41.5,61.15c3.88,0,7.19,0,10.19,0
			c0.72-0.59,1.23-1.01,1.46-1.19c0-26.76,0-53.19,0-79.4c-2.24-0.42-4.25-0.79-6.4-1.19c-0.31,0.26-0.8,0.65-1.1,0.89
			c-1.22-0.41-2.15-0.72-3.3-1.11c0,20.81,0,41.12-0.01,61.44c0,0.13-0.14,0.28-0.25,0.39c-0.09,0.08-0.23,0.1-0.81,0.33
			c-13.7-20.23-27.47-40.55-41.3-60.97C300.76,9.54,296.65,9.54,292.34,9.54z M908.18,144.53c6.82,17.46,11.51,34.54,17.96,50.78
			c2.9,0,5.36,0,8.04,0c0.67-1.41,1.47-2.76,1.97-4.21c2.83-8.16,5.45-16.39,8.42-24.49c2.34-6.37,4.84-12.68,6.64-19.24
			c0.2-0.72,0.95-1.29,1.96-2.6c0,17.3,0,33.6,0.01,49.89c0,0.15,0.08,0.3,0.15,0.43c0.09,0.14,0.22,0.25,0.14,0.17
			c3,0,5.78,0,8.55,0c0.68-18.42,0.41-60.62-0.4-64.81c-4,0-7.99,0-12.23,0c-3.06,8.81-6.12,17.7-9.23,26.57
			c-3.09,8.81-6.23,17.61-9.57,27.03c-5.91-18.37-12.23-35.9-17.78-53.39c-5.04,0-9.82,0-14.51,0c0,21.33,0,42.43,0,63.45
			c0.59,0.54,1.07,0.97,1.37,1.24c2.56,0,4.87,0,6.87,0c2.03-0.97,1.64-2.57,1.64-4.03c0.01-13.82,0-27.65,0-41.47
			C908.18,148.41,908.18,146.97,908.18,144.53z M368.53,135.81c-0.57-1.44-0.95-2.44-1.35-3.42c-1.96-4.82-4.83-9.01-8.88-12.3
			c-3.04-2.47-6.34-4.38-10.11-5.75c-4.68-1.69-9.37-1.83-14.2-1.94c-5.69-0.13-10.79,1.89-15.97,3.74
			c-4.83,1.72-8.27,5.33-11.87,8.79c-4.4,4.22-5.77,9.9-7.96,15.21c-1.35,3.25-0.95,6.69-1.01,10.08c-0.03,1.75-0.19,3.39-0.83,5.14
			c-0.51,1.39,0.84,3.34,0.76,5.02c-0.16,3.76,1.14,7.17,2.08,10.67c1.35,5,3.54,9.72,6.83,13.63c6.94,8.24,14.27,11.36,25.05,11.77
			c3.33,0.13,6.66,0.04,9.99,0.01c0.96-0.01,1.96-0.05,2.88-0.28c1.94-0.5,3.92-1,5.75-1.78c1.84-0.79,3.56-1.88,5.28-2.93
			c1.74-1.07,3.41-2.24,5.09-3.39c0.27-0.18,0.51-0.44,0.71-0.7c1.66-2.31,3.52-4.5,4.9-6.97c2.03-3.64,4.22-7.35,3.36-11.52
			c-3.69-0.9-7.03-1.71-10.32-2.51c-0.23,0.41-0.42,0.67-0.53,0.96c-1.86,5.04-3.72,10.02-8,13.69c-3.85,3.31-7.89,5.89-13.25,5.46
			c-0.99-0.08-2-0.02-3-0.01c-7.05,0.07-13.15-2.04-17.87-7.57c-2.17-2.55-3.75-5.28-5.01-8.43c-2.11-5.3-1.92-10.88-2.77-16.31
			c-0.71-4.58,1.27-9.04,2.29-13.49c0.86-3.77,2.27-7.49,5.21-10.32c7.79-7.51,17.06-9.88,27.26-6.75
			c6.49,1.99,10.96,6.77,13.15,13.42c0.31,0.96,1.01,1.79,1.55,2.69C361.2,137.51,365.34,138.65,368.53,135.81z M524.91,130.62
			c-3.68,0-7.14,0-10.62,0c0,21.63,0,43.08,0,64.68c2.88,0,5.67,0,8.54,0c0.38-0.38,0.86-0.86,1.5-1.5c0-15.27,0-30.73,0-47.21
			c11.43,16.86,22.32,32.94,32.97,48.65c3.58,0,6.7,0,9.75,0c0-21.66,0-43.11,0-64.56c-3.04,0-5.95,0-8.87,0
			c0,15.57,0,30.9-0.01,46.23c0,0.12-0.19,0.26-0.32,0.36c-0.12,0.09-0.28,0.12-0.89,0.37c-10.96-14.56-20.26-30.43-31.21-45.14
			C525.39,132.01,525.24,131.38,524.91,130.62z M737.49,165.86c6.84-1.2,11.85-4.04,15.22-8.49c1.78-5.06,3.09-9.49,1.67-14.68
			c-1.45-5.28-5.35-7.91-8.7-11.15c-1.8-0.38-3.48-0.89-5.18-1.05c-1.98-0.18-3.99-0.04-5.99-0.04c-9.49,0-18.99,0-28.48,0
			c-1.27,0-2.54,0-3.69,0c0,21.91,0,43.35,0,64.75c3.06,0,5.96,0,9.02,0c0-9.36,0-18.48,0-27.42c0.52-0.52,0.88-0.88,1.33-1.33
			c2.05,0,4.2,0,6.36,0c0.83,0,1.68-0.09,2.5,0.02c4.31,0.56,8.65,1.28,11.29,5.22c1.4,2.1,3.16,3.9,4.44,6.13
			c2.03,3.54,4.92,6.6,6.81,10.2c1.39,2.65,3.49,4.76,4.64,7.22c3.88,0,7.65,0,11.4,0c0.03-0.55,0.19-0.98,0.04-1.18
			c-3.24-4.43-5.99-9.19-9.02-13.75C747.61,174.96,744.3,169.37,737.49,165.86z M508.35,25.44c0,21.96,0,43.4,0,64.9
			c2.95,0,5.74,0,8.69,0c0-9.21,0-18.32,0-27.27c0.64-0.64,1.11-1.11,1.64-1.64c2.94,0,5.93,0.02,8.92-0.01
			c2.42-0.02,4.53,1.15,6.79,1.71c2.41,0.6,3.93,2.52,5.16,4.3c5.26,7.56,10.25,15.31,15.18,22.75c3.92,0,7.69,0,11.6,0
			c-1.2-2.31-2.2-4.4-3.35-6.41c-0.4-0.7-1.26-1.12-1.71-1.8c-1.13-1.68-2.1-3.47-3.21-5.16c-3.07-4.68-6.05-9.44-10.26-13.23
			c-1.09-0.99-2.4-1.74-3.45-2.48c2.97-1.26,5.86-2.35,8.62-3.7c3.3-1.62,6.15-4.32,6.99-7.64c0.93-3.65,1.96-7.46,0.44-11.69
			c-1.22-3.4-2.62-6.54-5.11-8.82c-2.5-2.28-5.96-3.67-9.36-3.73C533.46,25.31,520.99,25.44,508.35,25.44z M710.29,90.44
			c5.2,0,10.03,0.14,14.86-0.04c6.03-0.22,12.03,0.36,18.12-0.81c6.9-1.34,11.99-4.66,15.93-10.26c4.03-5.73,5.06-12.4,5.87-19.04
			c0.46-3.8-0.02-7.7-0.68-11.61c-0.66-3.97-2.88-7.24-3.55-11.08c-5.08-7.66-11.86-12.27-21.38-12.2c-1.54,0.01-3.08-0.45-4.9-0.73
			c0.06-0.04-0.19,0.3-0.45,0.31c-7.9,0.25-15.8,0.46-23.82,0.68C710.29,47.17,710.29,68.62,710.29,90.44z M1080,32.12
			c0-2.3,0-4.42,0-6.35c-0.53-0.53-0.88-0.88-1.32-1.32c-4.56,0-9.21,0-13.87,0c-9.99,0-19.99,0.01-29.98-0.01
			c-1.35,0-2.68-0.12-3.42,1.27c0,21.61,0,43.17,0,64.59c16.68,0,33.12,0,49.86,0c-0.34-2.72,0.22-5.31-0.36-8.02
			c-13.36,0-26.47,0-39.76,0c0.09-7.39-0.08-14.62,0.11-22.02c12.24,0,24.01,0,35.8,0c0-2.64,0-5.09,0-7.88
			c-12.01,0-23.91,0-35.76,0c0-6.46,0-12.58,0-18.86c12.57,0,25.02,0,37.29,0C1079.12,33,1079.47,32.65,1080,32.12z M667.18,57.96
			c0-2.56,0.58-4.95-0.15-6.83c-0.86-2.22-1.06-4.53-1.82-6.73c-0.81-2.36-2.03-4.51-3.26-6.64c-3.48-6.06-9.07-9.54-15.25-12.36
			c-2.66-1.22-5.61-0.18-8.01-1.16c-2.84-1.16-5.13-0.18-7.76,0.05c-4.37,0.39-8.1,1.79-12.02,3.68c-5.25,2.54-8.37,6.7-11.06,11.37
			c-3.64,6.32-4.29,13.42-4.62,20.53c-0.05,1.01,0.92,2.06,0.89,3.08c-0.1,2.95,1.12,5.47,1.96,8.19
			c4.14,13.45,14.62,18.46,24.82,20.21c6.22,1.06,10.5-0.6,17.78-2.72c7.09-2.06,11.22-7.05,14.36-12.83
			C666.04,70.27,667.58,64.04,667.18,57.96z M421.26,195.28c16.86,0,33.3,0,49.94,0c-0.1-2.73,0.13-5.31-0.18-8.02
			c-13.5,0-26.6,0-39.74,0c0-7.3,0-14.41,0-21.87c12,0,23.9,0,35.77,0c0-2.8,0-5.25,0-8.04c-12.02,0-23.92,0-35.74,0
			c0-6.46,0-12.58,0-18.86c12.58,0,25.03,0,37.18,0c0.73-0.66,1.22-1.11,1.49-1.35c0-2.36,0-4.48,0-6.45
			c-4.51-0.69-8.79-1.4-13.21-1.32c-10.49,0.19-20.98,0.06-31.48,0.07c-1.45,0-3.06-0.41-4.03,1.64
			C421.26,152.21,421.26,173.65,421.26,195.28z M864.07,36.84c-1.9-1.9-3.95-3.85-5.88-5.92c-1.45-1.55-3.3-2.42-5.03-3.54
			c-4.27-2.76-9.19-2.95-13.89-3.85c-3.65-0.71-7.39,0.52-10.89,1.38c-6.77,1.66-13.88,6.49-16.86,11.9
			c-2.83,5.13-5.68,10.5-5.35,16.77c0.12,2.33,0.13,4.67,0,6.99c-0.38,6.42,2.07,12.04,5.11,17.38c2.51,4.4,6.79,8.1,11.15,10.19
			c2.52,1.21,5.19,1.92,8.01,2.43c6.04,1.09,12.38,1.28,17.55-0.44c3.12-1.04,5.8-2.9,8.65-4.49c4.6-2.58,7.41-6.72,9.39-11.09
			c2.48-5.48,3.97-11.45,3.17-17.68c-0.08-0.66-0.05-1.33-0.01-2c0.22-3.57-1.09-6.81-1.84-10.2
			C866.71,41.8,864.65,39.73,864.07,36.84z M624.18,305.34c0-7.73,0-15.06,0-21.3c3.81-3.81,7.07-7.07,10.42-10.41
			c7.49,10.45,15.19,21.2,22.87,31.91c4.04-0.42,7.96,0.44,12.23-0.6c-9.81-13.1-19.29-25.78-29.19-39
			c1.32-1.07,2.34-2.49,3.64-2.82c2.34-0.61,2.35-3.34,4.73-4.13c1.98-0.66,3.37-3.1,5.01-4.75c3.18-3.18,6.33-6.39,9.55-9.53
			c1.12-1.09,2.4-2.02,3.75-3.14c-0.02-0.52-0.06-1.29-0.09-1.99c-4.14,0-7.92,0-11.56,0c-10.27,10.27-20.4,20.4-30.53,30.52
			c-0.11,0.11-0.25,0.31-0.35,0.3c-0.13-0.02-0.24-0.21-0.53-0.5c0-9.61,0-19.39,0-29c-0.52-0.52-0.88-0.88-1.22-1.22
			c-2.92,0-5.82,0-8.59,0c0,22.01,0,43.79,0,65.66C617.59,305.34,620.71,305.34,624.18,305.34z M516.18,240.94
			c0,12.65,0.14,25.3-0.09,37.95c-0.07,3.63,1.04,7.01,1.19,10.57c0.07,1.58,1.66,3.08,1.78,4.68c0.11,1.53,0.76,2.38,1.66,3.36
			c0.82,0.9,1.31,2.15,2.24,2.89c4.5,3.61,11.7,6.05,17.47,6.03c3.22-0.01,6.39-0.36,9.6-0.81c4.45-0.63,8.06-2.55,11.42-5.06
			c2.42-1.81,4.36-4.23,4.74-7.49c1.79-1.08,0.34-3.19,1.34-4.43c1.36-1.67,0.6-3.51,0.61-5.24c0.09-12.99,0.05-25.98,0.05-38.97
			c0-1.63,0-3.25,0-4.91c-3.13,0-5.91,0-9,0c0,0.72,0,1.35,0,1.97c0,11.82,0,23.65,0,35.47c0,1.67,0.13,3.34-0.04,4.99
			c-0.17,1.71-0.57,3.41-0.97,5.08c-1.65,6.86-5.86,10.17-12.4,10.38c-2.16,0.07-4.34-0.1-6.49,0.04c-3.39,0.22-6.06-1.59-8.65-3.22
			c-1.99-1.26-3.05-3.38-3.65-5.95c-0.39-1.72-0.79-3.38-0.79-5.13c-0.02-14.13-0.01-28.26-0.01-42.22
			c-0.52-0.52-0.88-0.88-1.36-1.36c-2.31,0-4.76,0-7.27,0C517.13,239.99,516.66,240.46,516.18,240.94z M837.88,195.18
			c0.74-0.44,1.62-1.17,2.63-1.53c5.57-1.97,8.39-6.4,10.45-11.51c0.52-1.29,1.01-2.64,1.17-4c0.2-1.64-0.08-3.34,0.09-4.99
			c0.14-1.38,0.64-2.72,0.95-4.09c0.07-0.32,0.15-0.82-0.01-0.97c-1.57-1.48-0.93-3.38-0.95-5.11c-0.07-5.83-0.03-11.66-0.03-17.48
			c0-1.83-0.27-3.72,0.12-5.47c0.18-0.81,1.37-1.77,0.82-2.57c-1.57-2.29-0.87-4.43,0.33-6.84c-3.63,0-6.87,0-10.27,0
			c0,12.77,0.01,25.41-0.01,38.04c-0.01,3.22,0.24,6.43-0.94,9.6c-1.13,3-2.36,5.57-5.41,7.29c-2.35,1.33-4.9,1.29-7.11,2.17
			c-2.03,0.81-3.87,0.71-5.69,0.6c-1.77-0.11-3.51-1.07-5.21-1.79c-1.42-0.6-2.92-1.18-4.1-2.14c-3.16-2.56-4.48-6.14-4.5-10.09
			c-0.08-13.15-0.03-26.31-0.03-39.47c0-1.45,0-2.89,0-4.27c-3.54,0-6.66,0-9.73,0c-0.11,0.43-0.26,0.74-0.26,1.04
			c-0.01,12.99-0.05,25.98,0.02,38.97c0.02,3.04,1.57,5.95,0.98,9.08c-0.03,0.13,0.09,0.29,0.14,0.44
			c3.74,11.19,11.04,15.45,21.36,16.32c2.48,0.21,5.01,0.19,7.49-0.01C832.7,196.19,835.19,195.62,837.88,195.18z M441.36,239.48
			c-0.52,0.86-0.91,1.37-1.17,1.94c-2.46,5.48-4.52,11.13-6.84,16.66c-1.71,4.09-3.41,8.26-4.81,12.5
			c-1.11,3.37-1.93,6.88-3.43,10.07c-2.71,5.72-4.68,11.73-7.17,17.53c-0.98,2.28-2.2,4.5-1.6,7.17c2.98,0,5.76,0,8.88,0
			c2.48-6.61,4.96-13.24,7.4-19.74c8.82,0,17.61,0,26.58,0c2.66,6.64,5.29,13.22,7.94,19.84c1.98,0,3.62,0.02,5.26-0.01
			c1.6-0.03,3.21-0.1,4.77-0.16c0-1.01,0.24-1.81-0.04-2.32c-3.46-6.39-5.61-13.35-8.64-19.93c-1.14-2.48-2.45-4.99-3.3-7.62
			c-2.26-7.06-5.71-13.63-8.26-20.58c-1.16-3.16-2.68-6.21-3.83-9.41c-0.77-2.16-2.13-4.1-3.13-5.95
			C446.93,239.48,444.27,239.48,441.36,239.48z M469.43,90.2c-1.84-4.09-3.82-7.78-5.17-11.69c-1.26-3.66-2.67-7.25-4.31-10.72
			c-1.65-3.49-2.54-7.27-4.48-10.65c-1.37-2.39-2.36-5.02-3.26-7.64c-1.86-5.4-4.41-10.51-6.36-15.87c-1-2.75-2.22-5.41-3.29-8.02
			c-3.32,0-6.78,0-10.61,0c-4.23,10.76-8.64,21.44-12.64,32.27c-3.98,10.77-8.57,21.32-12.28,32.45c3.58,0,6.7,0,9.78,0
			c2.52-6.69,5.01-13.32,7.48-19.87c8.65,0,16.98,0,25.34,0c1.16,1.22,2.14,2.34,2.73,4.28c1.65,5.39,4.15,10.53,6.18,15.44
			C462.3,90.2,465.74,90.2,469.43,90.2z M661,138.46c0-2.97,0-5.43,0-7.86c-15.58-0.6-48.55-0.38-52.65,0.32c0,2.48,0,4.94,0,7.44
			c7.39,0.31,14.63-0.21,21.99,0.3c0,19.1,0,37.86,0,56.81c3.06-0.07,5.97,0.06,9-0.09c0-19.23,0-37.99,0-56.92
			C646.61,138.46,653.72,138.46,661,138.46z M718.02,305.35c0-21.97,0-43.84,0-65.81c-2.27,0-4.39,0-6.18,0
			c-0.73,0.59-1.25,1-1.49,1.19c0,21.73,0,43.15,0,64.62C712.97,305.35,715.42,305.35,718.02,305.35z"/>
		<path class="st1" d="M101.36,41.44c0.65,2.13,1.39,4.01,1.79,5.97c0.64,3.15,6.03,21.92,7.44,24.92
			c3.02,6.42,6.16,12.78,9.16,19.2c3.06,6.55,7.2,12.43,11.36,18.28c2.41,3.39,5.33,6.42,7.7,9.83c3.52,5.05,8.03,9.17,12.47,13.28
			c6.47,6,13.12,11.76,20.48,16.8c11.05,7.56,16.18,10.44,28.4,16.03c7.42,3.39,14.97,6.83,23.3,7.74c1.17,0.13,2.28,0.88,3.6,1.41
			c0,24.26,0,48.71,0,73.08c-0.48,0.52-0.93,1.01-1.52,1.65c-1.09-0.54-2.33-0.91-3.28-1.66c-3.79-2.99-7.34-6.3-11.25-9.12
			c-6.57-4.74-12.53-10.27-19.43-14.59c-2.3-1.44-4.31-3.4-6.32-5.27c-3.51-3.28-7.77-5.57-11.4-8.63c-3.44-2.9-6.96-5.68-10.6-8.29
			c-4.01-2.87-7.62-6.22-11.76-8.96c-4.14-2.74-7.73-6.3-11.62-9.44c-2.98-2.41-5.88-4.98-9.13-6.96c-1.43-0.87-2.5-1.98-3.76-2.94
			c-1.13-0.86-2.35-1.61-3.46-2.49c-2.01-1.61-3.79-3.62-6.01-4.84c-2.1-1.16-3.99-2.71-5.7-4.15c-3.45-2.91-7.04-5.6-10.64-8.3
			c-6.87-5.15-13.42-10.73-20.42-15.74c-3.74-2.68-7.36-5.72-10.99-8.64c-5.21-4.19-10.58-8.18-15.97-12.13
			c-1.38-1.01-2.06-3.05-4.55-3.07c0,44.67,0,89.24,0,133.46c-0.7,0.7-1.06,1.06-1.49,1.49c-10.89,0-21.87,0-33.01,0
			c-1.12-0.56-1.8-1.54-1.59-3.05c0.09-0.65,0.02-1.33,0.02-2c0-66.49,0-132.99,0-199.48c0-0.65,0-1.31,0-1.88
			c0.56-0.56,1.03-1.03,1.5-1.5C43.34,41.44,72.01,41.44,101.36,41.44z"/>
		<path class="st2" d="M144.07,41.59c27.76,0,55.21,0,82.88,0c0,30.46,0,61.02,0,92.02c-1.78-0.76-3.4-1.52-5.07-2.16
			c-6.21-2.39-12.37-4.82-17.95-8.62c-2.4-1.63-5.32-2.53-7.66-4.39c-3.87-3.09-8.36-5.34-11.76-9.08c-1.27-1.4-3.06-2.3-4.48-3.59
			c-5.58-5.05-10.4-10.83-14.74-16.92c-1.88-2.64-3.86-5.29-5.53-8.15c-3.22-5.49-6.43-10.88-8.91-16.82
			c-2.21-5.3-3.96-10.7-5.97-16.03C144.06,45.66,144.56,43.77,144.07,41.59z"/>
		<path class="st3" d="M84.68,249.44c-0.65-0.65-1-1-1.36-1.36c-0.65-17.7-0.4-59.38,0.48-64.13c28.34,21.08,56,42.71,84.26,63.83
			c-0.68,1.49-1.84,1.71-3.38,1.69c-8.32-0.07-16.65-0.03-24.98-0.03c-16.98,0-33.97,0-50.95,0
			C87.29,249.44,85.83,249.44,84.68,249.44z"/>
		<path class="st4" d="M301.35,223.55c3.96,0,7.74,0,11.52,0c13.97,20.63,27.89,41.2,41.81,61.77c0.03-0.01,0.17-0.05,0.26-0.14
			c0.1-0.11,0.23-0.26,0.23-0.4c0.01-20.31,0.01-40.63,0.01-61.14c3.56,0,7.01,0,10.5,0c0.75,3.96,1.03,65.88,0.33,81.65
			c-3.77,0-7.56,0-11.45,0c-13.87-20.52-27.85-41.18-42.31-62.57c0,21.39,0,41.96,0,62.63c-3.8,0-7.25,0-10.88,0
			C301.35,278.18,301.35,251.07,301.35,223.55z"/>
		<path class="st5" d="M292.34,9.54c4.3,0,8.42,0,12.46,0c13.84,20.43,27.6,40.75,41.3,60.97c0.58-0.23,0.73-0.25,0.81-0.33
			c0.11-0.1,0.25-0.26,0.25-0.39c0.01-20.31,0.01-40.63,0.01-61.44c1.15,0.39,2.08,0.7,3.3,1.11c0.31-0.25,0.79-0.64,1.1-0.89
			c2.15,0.4,4.16,0.78,6.4,1.19c0,26.21,0,52.65,0,79.4c-0.23,0.19-0.74,0.6-1.46,1.19c-3.01,0-6.32,0-10.19,0
			c-13.85-19.96-27.48-40.54-41.5-61.15c-0.68,1.33-1.21,2.37-1.71,3.36c0.4,0.62,0.74,1.14,0.71,1.1
			c-0.26,2.26-0.62,3.96-0.63,5.66c-0.04,15.49-0.03,30.98-0.03,46.48c0,1.47,0,2.93,0,4.51c-3.37,0-6.49,0-9.62,0
			c-0.34-0.34-0.7-0.7-1.21-1.21C292.34,62.83,292.34,36.39,292.34,9.54z"/>
		<path class="st4" d="M908.18,144.53c0,2.43,0,3.88,0,5.33c0,13.82,0,27.65,0,41.47c0,1.46,0.39,3.06-1.64,4.03c-2,0-4.31,0-6.87,0
			c-0.3-0.27-0.78-0.71-1.37-1.24c0-21.02,0-42.13,0-63.45c4.7,0,9.47,0,14.51,0c5.54,17.49,11.87,35.02,17.78,53.39
			c3.34-9.42,6.48-18.22,9.57-27.03c3.11-8.87,6.17-17.75,9.23-26.57c4.24,0,8.23,0,12.23,0c0.81,4.19,1.07,46.38,0.4,64.81
			c-2.77,0-5.55,0-8.55,0c0.07,0.08-0.06-0.03-0.14-0.17c-0.08-0.13-0.15-0.29-0.15-0.43c-0.01-16.3-0.01-32.6-0.01-49.89
			c-1.01,1.31-1.76,1.88-1.96,2.6c-1.8,6.56-4.3,12.87-6.64,19.24c-2.98,8.1-5.59,16.34-8.42,24.49c-0.5,1.45-1.3,2.8-1.97,4.21
			c-2.68,0-5.14,0-8.04,0C919.69,179.08,914.99,162,908.18,144.53z"/>
		<path class="st6" d="M947.18,38.44c-0.02,2.24-0.25,4.38-0.91,6.61c-2.19,7.45-4.67,14.81-6.19,22.46
			c-0.8,4.05-3.13,7.83-3.75,11.88c-0.61,3.97-2.54,7.32-3.37,11.04c-3.26,0-6.26,0-9.26,0c-1.96-6.02-3.09-12.29-5.24-18.28
			c-1.1-3.06-1.57-6.36-2.28-9.55c-0.75-3.35-1.82-6.61-2.5-9.99c-0.64-3.15-1.44-6.38-2.59-9.4c-1.29-3.37-1.88-6.89-2.79-10.32
			c-0.6-2.27-1.44-4.42-2.17-6.79c0.37-0.42,0.79-0.89,1.44-1.62c2.65,0.06,5.55-0.7,8.7,1.63c1.67,1.69,0.7,4.84,1.77,7.49
			c1.27,3.15,1.1,6.85,2.24,10.07c1.31,3.7,1.54,7.61,2.83,11.31c1.79,5.14,2.04,10.7,3.91,15.87c0.73,2.01,0.71,4.29,1.63,6.44
			c0.84-3.02,1.92-6,2.48-9.07c0.95-5.23,2.64-10.26,4.25-15.26c0.95-2.94,1.46-6,2.48-8.94c0.95-2.73,2.07-5.5,2.46-8.53
			c0.43-3.31,1.93-6.49,3.07-10.06c1.05,0,2.18,0.07,3.29-0.02c1.06-0.09,2.11-0.36,3.94-0.69c0.79,0.2,2.45,0.62,4.27,1.07
			c1.1,3.93,2.26,8.11,3.45,12.29c0.8,2.83,1.85,5.61,2.41,8.48c0.57,2.92,2.2,5.45,2.53,8.49c0.42,3.85,2.45,7.36,2.95,11.26
			c0.15,1.2,1.43,2.16,0.96,3.59c-0.46,1.4,0.68,2.4,0.94,3.6c0.27,1.22,0.06,2.55,0.44,3.87c4.36-17.19,9.08-34.23,13.07-51.94
			c1.24,0,2.86,0,4.48,0c1.63,0,3.26,0,4.81,0c0.13,0.61,0.31,0.95,0.24,1.22c-1.44,5.23-2.9,10.46-4.38,15.68
			c-1.18,4.17-2.55,8.3-3.56,12.51c-1.02,4.23-2.35,8.36-3.49,12.55c-1.22,4.5-2.32,9.03-3.57,13.52c-0.87,3.12-1.91,6.19-2.9,9.35
			c-3.02,0-5.81,0-8.81,0c-1.05-3.17-2.54-6.47-3.17-9.93c-0.76-4.17-2.37-8.07-3.25-12.2c-0.51-2.38-1.48-4.72-1.86-7.2
			c-0.38-2.47-1.58-4.68-2.12-7.14c-0.79-3.61-1.86-7.23-3.06-10.71c-0.56-1.62-0.6-3.09-0.81-4.65c-0.44-1.32-0.89-2.65-1.57-4.69
			C947.97,35.86,947.57,37.15,947.18,38.44z"/>
		<path class="st7" d="M368.53,135.81c-3.19,2.84-7.33,1.71-10.77,3.88c-0.53-0.91-1.23-1.73-1.55-2.69
			c-2.19-6.65-6.65-11.44-13.15-13.42c-10.2-3.12-19.48-0.75-27.26,6.75c-2.94,2.83-4.34,6.55-5.21,10.32
			c-1.02,4.45-3.01,8.91-2.29,13.49c0.85,5.43,0.65,11.01,2.77,16.31c1.26,3.15,2.83,5.89,5.01,8.43
			c4.72,5.53,10.81,7.63,17.87,7.57c1-0.01,2-0.07,3,0.01c5.36,0.43,9.39-2.15,13.25-5.46c4.28-3.67,6.15-8.65,8-13.69
			c0.11-0.29,0.3-0.54,0.53-0.96c3.29,0.8,6.63,1.61,10.32,2.51c0.86,4.17-1.33,7.88-3.36,11.52c-1.38,2.47-3.24,4.66-4.9,6.97
			c-0.19,0.27-0.43,0.52-0.71,0.7c-1.69,1.15-3.36,2.32-5.09,3.39c-1.72,1.05-3.44,2.15-5.28,2.93c-1.84,0.79-3.81,1.28-5.75,1.78
			c-0.92,0.24-1.92,0.28-2.88,0.28c-3.33,0.03-6.67,0.12-9.99-0.01c-10.79-0.41-18.12-3.53-25.05-11.77
			c-3.29-3.91-5.48-8.63-6.83-13.63c-0.94-3.5-2.24-6.9-2.08-10.67c0.07-1.68-1.27-3.63-0.76-5.02c0.64-1.75,0.8-3.39,0.83-5.14
			c0.05-3.39-0.34-6.82,1.01-10.08c2.19-5.31,3.57-10.99,7.96-15.21c3.6-3.45,7.04-7.06,11.87-8.79c5.17-1.85,10.27-3.87,15.97-3.74
			c4.83,0.11,9.52,0.25,14.2,1.94c3.78,1.36,7.07,3.28,10.11,5.75c4.06,3.29,6.92,7.48,8.88,12.3
			C367.58,133.37,367.96,134.37,368.53,135.81z"/>
		<path class="st8" d="M524.91,130.62c0.34,0.76,0.49,1.39,0.85,1.87c10.95,14.71,20.25,30.57,31.21,45.14
			c0.6-0.24,0.76-0.28,0.89-0.37c0.13-0.09,0.32-0.24,0.32-0.36c0.01-15.33,0.01-30.66,0.01-46.23c2.92,0,5.82,0,8.87,0
			c0,21.45,0,42.9,0,64.56c-3.05,0-6.17,0-9.75,0c-10.65-15.72-21.54-31.79-32.97-48.65c0,16.48,0,31.93,0,47.21
			c-0.65,0.65-1.12,1.12-1.5,1.5c-2.88,0-5.66,0-8.54,0c0-21.6,0-43.05,0-64.68C517.77,130.62,521.22,130.62,524.91,130.62z"/>
		<path class="st4" d="M737.49,165.86c6.81,3.51,10.11,9.11,13.65,14.43c3.03,4.57,5.78,9.32,9.02,13.75
			c0.15,0.2-0.01,0.64-0.04,1.18c-3.75,0-7.53,0-11.4,0c-1.16-2.46-3.25-4.57-4.64-7.22c-1.89-3.6-4.78-6.66-6.81-10.2
			c-1.28-2.23-3.04-4.03-4.44-6.13c-2.63-3.94-6.98-4.66-11.29-5.22c-0.82-0.11-1.66-0.02-2.5-0.02c-2.15,0-4.3,0-6.36,0
			c-0.45,0.45-0.81,0.81-1.33,1.33c0,8.94,0,18.06,0,27.42c-3.06,0-5.96,0-9.02,0c0-21.4,0-42.84,0-64.75c1.15,0,2.42,0,3.69,0
			c9.49,0,18.99,0,28.48,0c2,0,4.01-0.14,5.99,0.04c1.71,0.15,3.38,0.67,5.18,1.05c3.35,3.23,7.25,5.87,8.7,11.15
			c1.42,5.19,0.12,9.62-1.67,14.68C749.34,161.81,744.33,164.65,737.49,165.86z M745.16,145.98c-2.03-6.58-6.85-8.02-11.51-8.38
			c-7.4-0.57-14.88-0.15-22.52-0.15c0.22,7.24-0.2,14.13,0.25,21c7.52,0,14.68-0.16,21.83,0.09c2.37,0.08,4.41-0.78,6.51-1.31
			c1.6-0.4,2.97-1.71,4.02-3.59C745.3,150.83,745.07,148.07,745.16,145.98z"/>
		<path class="st9" d="M508.35,25.44c12.64,0,25.11-0.13,37.58,0.09c3.4,0.06,6.87,1.45,9.36,3.73c2.5,2.28,3.9,5.42,5.11,8.82
			c1.52,4.23,0.49,8.04-0.44,11.69c-0.85,3.32-3.69,6.02-6.99,7.64c-2.76,1.35-5.65,2.44-8.62,3.7c1.05,0.74,2.35,1.5,3.45,2.48
			c4.21,3.79,7.19,8.55,10.26,13.23c1.11,1.69,2.08,3.48,3.21,5.16c0.45,0.68,1.32,1.1,1.71,1.8c1.15,2.01,2.15,4.09,3.35,6.41
			c-3.91,0-7.68,0-11.6,0c-4.93-7.44-9.92-15.19-15.18-22.75c-1.24-1.77-2.75-3.69-5.16-4.3c-2.26-0.57-4.37-1.74-6.79-1.71
			c-2.99,0.03-5.98,0.01-8.92,0.01c-0.52,0.52-0.99,0.99-1.64,1.64c0,8.94,0,18.06,0,27.27c-2.95,0-5.74,0-8.69,0
			C508.35,68.85,508.35,47.4,508.35,25.44z M550.87,39.01c-1.21-1.21-2.64-3.27-4.6-4.46c-1.92-1.16-4.36-1.94-6.6-2.02
			c-7.44-0.24-14.89-0.09-22.5-0.09c0.06,7.23-0.07,14.12,0.08,21c7.96,0,15.45,0.04,22.95-0.02c2.57-0.02,4.98-0.63,6.98-2.44
			c0.55-0.49,1.34-0.71,1.36-0.72C551.03,46.91,551.66,43.69,550.87,39.01z"/>
		<path class="st6" d="M710.29,90.44c0-21.83,0-43.28,0-64.78c8.01-0.22,15.92-0.43,23.82-0.68c0.26-0.01,0.51-0.35,0.45-0.31
			c1.82,0.29,3.36,0.74,4.9,0.73c9.51-0.07,16.3,4.54,21.38,12.2c0.66,3.84,2.88,7.12,3.55,11.08c0.65,3.91,1.14,7.81,0.68,11.61
			c-0.81,6.64-1.84,13.31-5.87,19.04c-3.94,5.6-9.03,8.92-15.93,10.26c-6.08,1.18-12.08,0.6-18.12,0.81
			C720.32,90.58,715.49,90.44,710.29,90.44z M719.33,33.44c0,16.4,0,32.6,0,49c4.11,0,8.08,0.15,12.03-0.04
			c3.84-0.18,7.66-0.72,11.45-1.09c1.76-1.08,3.69-1.91,5.17-3.24c4.84-4.36,6.81-10.09,7.18-16.43c0.16-2.65-0.16-5.33,0.07-7.97
			c0.35-4.16-1.32-7.66-3.03-11.23c-2.7-5.64-7.5-8.44-13.36-8.88C732.41,33.07,725.93,33.44,719.33,33.44z"/>
		<path class="st10" d="M1080,32.12c-0.53,0.53-0.88,0.88-1.4,1.4c-12.28,0-24.72,0-37.29,0c0,6.28,0,12.4,0,18.86
			c11.86,0,23.76,0,35.76,0c0,2.79,0,5.24,0,7.88c-11.79,0-23.56,0-35.8,0c-0.19,7.4-0.02,14.62-0.11,22.02c13.29,0,26.4,0,39.76,0
			c0.58,2.71,0.02,5.3,0.36,8.02c-16.74,0-33.18,0-49.86,0c0-21.43,0-42.99,0-64.59c0.74-1.39,2.07-1.27,3.42-1.27
			c9.99,0.02,19.99,0.01,29.98,0.01c4.65,0,9.3,0,13.87,0c0.44,0.44,0.79,0.79,1.32,1.32C1080,27.7,1080,29.82,1080,32.12z"/>
		<path class="st4" d="M667.18,57.96c0.4,6.09-1.14,12.31-4.14,17.84c-3.14,5.78-7.27,10.77-14.36,12.83
			c-7.28,2.12-11.56,3.78-17.78,2.72c-10.2-1.74-20.67-6.76-24.82-20.21c-0.84-2.72-2.06-5.24-1.96-8.19
			c0.03-1.01-0.94-2.07-0.89-3.08c0.33-7.11,0.98-14.21,4.62-20.53c2.69-4.67,5.81-8.83,11.06-11.37c3.92-1.9,7.65-3.3,12.02-3.68
			c2.63-0.23,4.92-1.21,7.76-0.05c2.4,0.98,5.35-0.06,8.01,1.16c6.17,2.82,11.77,6.3,15.25,12.36c1.22,2.13,2.44,4.28,3.26,6.64
			c0.76,2.2,0.96,4.51,1.82,6.73C667.76,53.01,667.18,55.4,667.18,57.96z M614.55,46.57c-0.51,2.58-1.12,4.73-1.32,6.91
			c-0.22,2.31-0.08,4.65-0.04,6.98c0.12,8.02,3.16,14.59,9.81,19.29c5.42,3.83,11.61,4.61,17.83,3.39c4.7-0.92,9-3.68,11.66-7.7
			c2.63-3.97,5.05-8.31,4.72-13.49c-0.16-2.48-0.11-4.99,0-7.48c0.1-2.44-0.27-4.74-0.98-7.08c-1.21-3.99-3.33-7.53-6.15-10.38
			c-3.23-3.26-7.88-4.16-12.2-5.33c-2.35-0.64-4.63,0.17-7,0.64c-6.93,1.39-11.77,5.06-14.71,11.42
			C615.64,44.86,614.93,45.9,614.55,46.57z"/>
		<path class="st11" d="M421.26,195.28c0-21.63,0-43.07,0-64.19c0.97-2.05,2.58-1.64,4.03-1.64c10.49-0.01,20.99,0.13,31.48-0.07
			c4.42-0.08,8.7,0.63,13.21,1.32c0,1.96,0,4.08,0,6.45c-0.26,0.24-0.76,0.68-1.49,1.35c-12.15,0-24.6,0-37.18,0
			c0,6.28,0,12.4,0,18.86c11.82,0,23.72,0,35.74,0c0,2.79,0,5.24,0,8.04c-11.87,0-23.77,0-35.77,0c0,7.46,0,14.57,0,21.87
			c13.14,0,26.24,0,39.74,0c0.31,2.71,0.08,5.29,0.18,8.02C454.57,195.28,438.12,195.28,421.26,195.28z"/>
		<path class="st9" d="M864.07,36.84c0.58,2.89,2.64,4.97,3.27,7.82c0.75,3.39,2.06,6.64,1.84,10.2c-0.04,0.66-0.08,1.34,0.01,2
			c0.79,6.23-0.69,12.2-3.17,17.68c-1.98,4.38-4.79,8.51-9.39,11.09c-2.84,1.59-5.53,3.46-8.65,4.49
			c-5.18,1.72-11.51,1.53-17.55,0.44c-2.83-0.51-5.49-1.23-8.01-2.43c-4.36-2.09-8.64-5.78-11.15-10.19
			c-3.04-5.34-5.49-10.96-5.11-17.38c0.14-2.32,0.12-4.67,0-6.99c-0.33-6.27,2.52-11.63,5.35-16.77
			c2.98-5.41,10.09-10.24,16.86-11.9c3.51-0.86,7.24-2.09,10.89-1.38c4.7,0.91,9.63,1.1,13.89,3.85c1.73,1.12,3.58,1.99,5.03,3.54
			C860.12,32.99,862.17,34.94,864.07,36.84z M837.68,83.44c1.67,0,3.5,0.45,4.96-0.1c2.87-1.08,5.83-2.35,8.2-4.23
			c3.37-2.67,6.16-6.02,7.35-10.39c1.04-3.83,1.86-7.7,1.93-11.67c0.03-1.52-0.95-3.07-0.87-4.58c0.2-3.84-1.38-7.12-3.16-10.2
			c-1.48-2.56-3.07-5.19-5.8-6.89c-3.52-2.18-7.46-3.19-11.38-3.82c-2.57-0.41-5.6-0.03-8.01,0.97c-6.24,2.59-11.58,6.3-13.8,13.33
			c-0.71,2.23-0.19,4.68-1.04,6.55c-2.28,5.07-0.71,10.03,0.46,14.61C819.2,77.55,828.3,84.08,837.68,83.44z"/>
		<path class="st12" d="M624.18,305.34c-3.47,0-6.58,0-9.85,0c0-21.87,0-43.65,0-65.66c2.77,0,5.67,0,8.59,0
			c0.35,0.35,0.7,0.7,1.22,1.22c0,9.61,0,19.39,0,29c0.29,0.29,0.39,0.48,0.53,0.5c0.1,0.02,0.24-0.18,0.35-0.3
			c10.13-10.13,20.26-20.26,30.53-30.52c3.64,0,7.43,0,11.56,0c0.03,0.7,0.06,1.48,0.09,1.99c-1.35,1.12-2.63,2.05-3.75,3.14
			c-3.22,3.14-6.37,6.35-9.55,9.53c-1.65,1.65-3.04,4.08-5.01,4.75c-2.38,0.8-2.39,3.53-4.73,4.13c-1.3,0.34-2.32,1.75-3.64,2.82
			c9.9,13.23,19.39,25.9,29.19,39c-4.28,1.04-8.19,0.17-12.23,0.6c-7.67-10.71-15.38-21.46-22.87-31.91
			c-3.35,3.35-6.61,6.61-10.42,10.41C624.18,290.28,624.18,297.61,624.18,305.34z"/>
		<path class="st9" d="M516.18,240.94c0.48-0.48,0.95-0.95,1.36-1.36c2.51,0,4.96,0,7.27,0c0.49,0.49,0.84,0.84,1.36,1.36
			c0,13.96-0.01,28.09,0.01,42.22c0,1.74,0.4,3.41,0.79,5.13c0.59,2.58,1.65,4.69,3.65,5.95c2.59,1.63,5.26,3.44,8.65,3.22
			c2.16-0.14,4.33,0.03,6.49-0.04c6.54-0.21,10.74-3.52,12.4-10.38c0.4-1.68,0.8-3.37,0.97-5.08c0.17-1.65,0.04-3.33,0.04-4.99
			c0-11.82,0-23.65,0-35.47c0-0.62,0-1.25,0-1.97c3.09,0,5.87,0,9,0c0,1.66,0,3.28,0,4.91c0,12.99,0.04,25.98-0.05,38.97
			c-0.01,1.72,0.75,3.57-0.61,5.24c-1.01,1.24,0.44,3.34-1.34,4.43c-0.38,3.25-2.32,5.68-4.74,7.49c-3.37,2.52-6.98,4.44-11.42,5.06
			c-3.21,0.45-6.38,0.8-9.6,0.81c-5.77,0.02-12.97-2.42-17.47-6.03c-0.92-0.74-1.41-2-2.24-2.89c-0.9-0.98-1.55-1.83-1.66-3.36
			c-0.12-1.6-1.71-3.1-1.78-4.68c-0.15-3.56-1.26-6.95-1.19-10.57C516.32,266.25,516.18,253.59,516.18,240.94z"/>
		<path class="st13" d="M837.88,195.18c-2.69,0.44-5.18,1.01-7.71,1.22c-2.48,0.21-5.01,0.22-7.49,0.01
			c-10.33-0.87-17.62-5.13-21.36-16.32c-0.05-0.15-0.17-0.3-0.14-0.44c0.59-3.13-0.96-6.04-0.98-9.08
			c-0.07-12.99-0.03-25.98-0.02-38.97c0-0.3,0.14-0.6,0.26-1.04c3.08,0,6.2,0,9.73,0c0,1.38,0,2.82,0,4.27
			c0,13.16-0.05,26.31,0.03,39.47c0.02,3.95,1.34,7.52,4.5,10.09c1.17,0.95,2.68,1.54,4.1,2.14c1.7,0.72,3.44,1.69,5.21,1.79
			c1.82,0.11,3.66,0.21,5.69-0.6c2.21-0.89,4.76-0.84,7.11-2.17c3.06-1.73,4.29-4.29,5.41-7.29c1.19-3.16,0.94-6.37,0.94-9.6
			c0.02-12.63,0.01-25.26,0.01-38.04c3.41,0,6.64,0,10.27,0c-1.21,2.41-1.91,4.55-0.33,6.84c0.55,0.8-0.64,1.76-0.82,2.57
			c-0.39,1.75-0.12,3.64-0.12,5.47c0,5.83-0.04,11.66,0.03,17.48c0.02,1.72-0.62,3.62,0.95,5.11c0.17,0.16,0.08,0.66,0.01,0.97
			c-0.31,1.37-0.81,2.71-0.95,4.09c-0.17,1.65,0.11,3.35-0.09,4.99c-0.17,1.36-0.66,2.71-1.17,4c-2.06,5.11-4.87,9.54-10.45,11.51
			C839.5,194.01,838.62,194.74,837.88,195.18z"/>
		<path class="st7" d="M441.36,239.48c2.91,0,5.57,0,8.63,0c0.99,1.85,2.35,3.79,3.13,5.95c1.15,3.2,2.67,6.25,3.83,9.41
			c2.55,6.95,5.99,13.52,8.26,20.58c0.85,2.64,2.16,5.14,3.3,7.62c3.03,6.58,5.18,13.54,8.64,19.93c0.28,0.51,0.04,1.31,0.04,2.32
			c-1.57,0.05-3.17,0.13-4.77,0.16c-1.64,0.03-3.28,0.01-5.26,0.01c-2.65-6.62-5.28-13.2-7.94-19.84c-8.97,0-17.76,0-26.58,0
			c-2.44,6.5-4.92,13.13-7.4,19.74c-3.12,0-5.9,0-8.88,0c-0.6-2.67,0.62-4.89,1.6-7.17c2.5-5.8,4.47-11.8,7.17-17.53
			c1.51-3.19,2.32-6.7,3.43-10.07c1.4-4.24,3.1-8.42,4.81-12.5c2.32-5.54,4.38-11.18,6.84-16.66
			C440.44,240.85,440.83,240.34,441.36,239.48z M456.51,278.3c-3.02-10.37-7.64-19.79-10.97-30.36c-1.87,5.61-3.35,10.62-5.16,15.52
			c-1.78,4.82-4.35,9.46-5.34,14.84C442.15,278.3,448.91,278.3,456.51,278.3z"/>
		<path class="st12" d="M469.43,90.2c-3.69,0-7.13,0-10.89,0c-2.03-4.92-4.53-10.05-6.18-15.44c-0.59-1.94-1.57-3.06-2.73-4.28
			c-8.37,0-16.69,0-25.34,0c-2.47,6.55-4.96,13.18-7.48,19.87c-3.09,0-6.21,0-9.78,0c3.71-11.13,8.3-21.68,12.28-32.45
			c4-10.83,8.41-21.51,12.64-32.27c3.83,0,7.29,0,10.61,0c1.08,2.61,2.29,5.27,3.29,8.02c1.96,5.36,4.5,10.47,6.36,15.87
			c0.9,2.61,1.89,5.25,3.26,7.64c1.94,3.38,2.83,7.16,4.48,10.65c1.64,3.47,3.05,7.06,4.31,10.72
			C465.61,82.43,467.59,86.12,469.43,90.2z M448.22,63.32c-3.7-9.93-7.22-19.39-10.75-28.88c-0.25,0.03-0.57,0.06-0.82,0.09
			c-2.39,9.98-6.97,19.16-10.24,28.79C433.73,63.32,440.83,63.32,448.22,63.32z"/>
		<path class="st14" d="M661,138.46c-7.28,0-14.39,0-21.66,0c0,18.93,0,37.69,0,56.92c-3.03,0.14-5.93,0.02-9,0.09
			c0-18.95,0-37.71,0-56.81c-7.36-0.51-14.6,0.01-21.99-0.3c0-2.5,0-4.96,0-7.44c4.1-0.7,37.07-0.92,52.65-0.32
			C661,133.03,661,135.48,661,138.46z"/>
		<path class="st15" d="M718.02,305.35c-2.6,0-5.05,0-7.67,0c0-21.47,0-42.89,0-64.62c0.24-0.19,0.76-0.61,1.49-1.19
			c1.79,0,3.91,0,6.18,0C718.02,261.5,718.02,283.38,718.02,305.35z"/>
		<path class="st16" d="M947.18,38.44c0.39-1.29,0.79-2.58,1.43-4.69c0.68,2.04,1.13,3.37,1.57,4.69
			C949.18,38.44,948.18,38.44,947.18,38.44z"/>
		<path class="st17" d="M745.16,145.98c-0.09,2.09,0.14,4.85-1.42,7.65c-1.05,1.88-2.42,3.18-4.02,3.59
			c-2.1,0.53-4.14,1.4-6.51,1.31c-7.15-0.25-14.31-0.09-21.83-0.09c-0.46-6.87-0.03-13.76-0.25-21c7.64,0,15.12-0.42,22.52,0.15
			C738.31,137.96,743.13,139.4,745.16,145.98z"/>
		<path class="st17" d="M550.87,39.01c0.79,4.68,0.16,7.9-2.33,11.26c-0.02,0.01-0.82,0.22-1.36,0.72c-2,1.81-4.42,2.42-6.98,2.44
			c-7.49,0.06-14.98,0.02-22.95,0.02c-0.16-6.88-0.02-13.77-0.08-21c7.61,0,15.07-0.15,22.5,0.09c2.24,0.07,4.68,0.85,6.6,2.02
			C548.23,35.74,549.67,37.8,550.87,39.01z"/>
		<path class="st18" d="M719.33,33.44c6.6,0,13.08-0.37,19.5,0.11c5.86,0.44,10.66,3.25,13.36,8.88c1.71,3.57,3.38,7.07,3.03,11.23
			c-0.22,2.64,0.09,5.32-0.07,7.97c-0.37,6.34-2.34,12.07-7.18,16.43c-1.48,1.33-3.4,2.16-5.17,3.24
			c-3.79,0.37-7.61,0.91-11.45,1.09c-3.95,0.19-7.92,0.04-12.03,0.04C719.33,66.04,719.33,49.84,719.33,33.44z"/>
		<path class="st19" d="M614.55,46.57c0.39-0.67,1.1-1.7,1.62-2.83c2.93-6.36,7.78-10.03,14.71-11.42c2.37-0.47,4.65-1.28,7-0.64
			c4.32,1.17,8.97,2.07,12.2,5.33c2.82,2.85,4.93,6.39,6.15,10.38c0.71,2.34,1.08,4.64,0.98,7.08c-0.1,2.49-0.15,5,0,7.48
			c0.33,5.18-2.09,9.52-4.72,13.49c-2.66,4.02-6.96,6.78-11.66,7.7c-6.21,1.22-12.41,0.44-17.83-3.39
			c-6.65-4.7-9.69-11.27-9.81-19.29c-0.04-2.33-0.17-4.67,0.04-6.98C613.43,51.29,614.04,49.14,614.55,46.57z"/>
		<path class="st19" d="M837.68,83.44c-9.38,0.63-18.48-5.89-21.17-16.4c-1.18-4.58-2.74-9.54-0.46-14.61
			c0.84-1.87,0.33-4.32,1.04-6.55c2.23-7.03,7.56-10.74,13.8-13.33c2.42-1,5.44-1.38,8.01-0.97c3.92,0.62,7.86,1.64,11.38,3.82
			c2.74,1.7,4.33,4.32,5.8,6.89c1.78,3.08,3.36,6.36,3.16,10.2c-0.08,1.51,0.9,3.06,0.87,4.58c-0.07,3.96-0.89,7.84-1.93,11.67
			c-1.19,4.36-3.97,7.71-7.35,10.39c-2.37,1.88-5.33,3.15-8.2,4.23C841.18,83.9,839.35,83.44,837.68,83.44z"/>
		<path class="st20" d="M456.51,278.3c-7.6,0-14.36,0-21.48,0c0.99-5.38,3.56-10.02,5.34-14.84c1.81-4.9,3.3-9.91,5.16-15.52
			C448.87,258.51,453.49,267.93,456.51,278.3z"/>
		<path class="st21" d="M448.22,63.32c-7.39,0-14.49,0-21.81,0c3.27-9.63,7.85-18.81,10.24-28.79c0.25-0.03,0.57-0.06,0.82-0.09
			C441,43.93,444.52,53.39,448.22,63.32z"/>
	</g>
</g>
</svg>
