<?xml version="1.0" encoding="utf-8"?>
<!-- Generator: Adobe Illustrator 28.2.0, SVG Export Plug-In . SVG Version: 6.00 Build 0)  -->
<svg version="1.1" id="Livello_1" xmlns="http://www.w3.org/2000/svg" xmlns:xlink="http://www.w3.org/1999/xlink" x="0px" y="0px"
	 viewBox="0 0 1086.3 320.5" style="enable-background:new 0 0 1086.3 320.5;" xml:space="preserve">
<style type="text/css">
	.st0{fill:#E32D4A;}
	.st1{fill:#E32F4B;}
	.st2{fill:#E22F4B;}
	.st3{fill:#616062;}
	.st4{fill:#5C5C5D;}
	.st5{fill:#626163;}
	.st6{fill:#605F61;}
	.st7{fill:#616163;}
	.st8{fill:#616162;}
	.st9{fill:#646364;}
	.st10{fill:#646365;}
	.st11{fill:#606061;}
	.st12{fill:#5E5E60;}
	.st13{fill:#636364;}
	.st14{fill:#5C5C5E;}
</style>
<g id="I7DH3L_00000014619352167112826960000007743226532587273387_">
	<g>
		<path class="st0" d="M101.4,41.4c0.7,2.1,1.4,4,1.8,6c0.6,3.2,6,21.9,7.4,24.9c3,6.4,6.2,12.8,9.2,19.2
			c3.1,6.6,7.2,12.4,11.4,18.3c2.4,3.4,5.3,6.4,7.7,9.8c3.5,5.1,8,9.2,12.5,13.3c6.5,6,13.1,11.8,20.5,16.8
			c11.1,7.6,16.2,10.4,28.4,16c7.4,3.4,15,6.8,23.3,7.7c1.2,0.1,2.3,0.9,3.6,1.4c0,24.3,0,48.7,0,73.1c-0.5,0.5-0.9,1-1.5,1.6
			c-1.1-0.5-2.3-0.9-3.3-1.7c-3.8-3-7.3-6.3-11.2-9.1c-6.6-4.7-12.5-10.3-19.4-14.6c-2.3-1.4-4.3-3.4-6.3-5.3
			c-3.5-3.3-7.8-5.6-11.4-8.6c-3.4-2.9-7-5.7-10.6-8.3c-4-2.9-7.6-6.2-11.8-9s-7.7-6.3-11.6-9.4c-3-2.4-5.9-5-9.1-7
			c-1.4-0.9-2.5-2-3.8-2.9c-1.1-0.9-2.3-1.6-3.5-2.5c-2-1.6-3.8-3.6-6-4.8c-2.1-1.2-4-2.7-5.7-4.1c-3.4-2.9-7-5.6-10.6-8.3
			c-6.9-5.1-13.4-10.7-20.4-15.7c-3.7-2.7-7.4-5.7-11-8.6c-5.2-4.2-10.6-8.2-16-12.1c-1.4-1-2.1-3.1-4.5-3.1c0,44.7,0,89.2,0,133.5
			c-0.7,0.7-1.1,1.1-1.5,1.5c-10.9,0-21.9,0-33,0c-1.1-0.6-1.8-1.5-1.6-3.1c0.1-0.6,0-1.3,0-2c0-66.5,0-133,0-199.5
			c0-0.7,0-1.3,0-1.9c0.6-0.6,1-1,1.5-1.5C43.3,41.4,72,41.4,101.4,41.4z"/>
		<path class="st1" d="M144.1,41.6c27.8,0,55.2,0,82.9,0c0,30.5,0,61,0,92c-1.8-0.8-3.4-1.5-5.1-2.2c-6.2-2.4-12.4-4.8-17.9-8.6
			c-2.4-1.6-5.3-2.5-7.7-4.4c-3.9-3.1-8.4-5.3-11.8-9.1c-1.3-1.4-3.1-2.3-4.5-3.6c-5.6-5.1-10.4-10.8-14.7-16.9
			c-1.9-2.6-3.9-5.3-5.5-8.2c-3.2-5.5-6.4-10.9-8.9-16.8c-2.2-5.3-4-10.7-6-16C144.1,45.7,144.6,43.8,144.1,41.6z"/>
		<path class="st2" d="M84.7,249.4c-0.7-0.6-1-1-1.4-1.4c-0.7-17.7-0.4-59.4,0.5-64.1c28.3,21.1,56,42.7,84.3,63.8
			c-0.7,1.5-1.8,1.7-3.4,1.7c-8.3-0.1-16.6,0-25,0c-17,0-34,0-50.9,0C87.3,249.4,85.8,249.4,84.7,249.4z"/>
		<path class="st3" d="M301.4,223.6c4,0,7.7,0,11.5,0c14,20.6,27.9,41.2,41.8,61.8c0,0,0.2,0,0.3-0.1c0.1-0.1,0.2-0.3,0.2-0.4
			c0-20.3,0-40.6,0-61.1c3.6,0,7,0,10.5,0c0.8,4,1,65.9,0.3,81.7c-3.8,0-7.6,0-11.5,0c-13.9-20.5-27.9-41.2-42.3-62.6
			c0,21.4,0,42,0,62.6c-3.8,0-7.2,0-10.9,0C301.4,278.2,301.4,251.1,301.4,223.6z"/>
		<path class="st4" d="M292.3,9.5c4.3,0,8.4,0,12.5,0c13.8,20.4,27.6,40.8,41.3,61c0.6-0.2,0.7-0.2,0.8-0.3c0.1-0.1,0.2-0.3,0.2-0.4
			c0-20.3,0-40.6,0-61.4c1.1,0.4,2.1,0.7,3.3,1.1c0.3-0.2,0.8-0.6,1.1-0.9c2.1,0.4,4.2,0.8,6.4,1.2c0,26.2,0,52.7,0,79.4
			c-0.2,0.2-0.7,0.6-1.5,1.2c-3,0-6.3,0-10.2,0c-13.9-20-27.5-40.5-41.5-61.2c-0.7,1.3-1.2,2.4-1.7,3.4c0.4,0.6,0.7,1.1,0.7,1.1
			c-0.3,2.3-0.6,4-0.6,5.7c0,15.5,0,31,0,46.5c0,1.5,0,2.9,0,4.5c-3.4,0-6.5,0-9.6,0c-0.3-0.3-0.7-0.7-1.2-1.2
			C292.3,62.8,292.3,36.4,292.3,9.5z"/>
		<path class="st3" d="M908.2,144.5c0,2.4,0,3.9,0,5.3c0,13.8,0,27.6,0,41.5c0,1.5,0.4,3.1-1.6,4c-2,0-4.3,0-6.9,0
			c-0.3-0.3-0.8-0.7-1.4-1.2c0-21,0-42.1,0-63.4c4.7,0,9.5,0,14.5,0c5.5,17.5,11.9,35,17.8,53.4c3.3-9.4,6.5-18.2,9.6-27
			c3.1-8.9,6.2-17.8,9.2-26.6c4.2,0,8.2,0,12.2,0c0.8,4.2,1.1,46.4,0.4,64.8c-2.8,0-5.5,0-8.5,0c0.1,0.1-0.1,0-0.1-0.2
			c-0.1-0.1-0.2-0.3-0.2-0.4c0-16.3,0-32.6,0-49.9c-1,1.3-1.8,1.9-2,2.6c-1.8,6.6-4.3,12.9-6.6,19.2c-3,8.1-5.6,16.3-8.4,24.5
			c-0.5,1.4-1.3,2.8-2,4.2c-2.7,0-5.1,0-8,0C919.7,179.1,915,162,908.2,144.5z"/>
		<path class="st5" d="M947.2,38.4c0,2.2-0.2,4.4-0.9,6.6c-2.2,7.5-4.7,14.8-6.2,22.5c-0.8,4.1-3.1,7.8-3.8,11.9
			c-0.6,4-2.5,7.3-3.4,11c-3.3,0-6.3,0-9.3,0c-2-6-3.1-12.3-5.2-18.3c-1.1-3.1-1.6-6.4-2.3-9.5c-0.8-3.3-1.8-6.6-2.5-10
			c-0.6-3.2-1.4-6.4-2.6-9.4c-1.3-3.4-1.9-6.9-2.8-10.3c-0.6-2.3-1.4-4.4-2.2-6.8c0.4-0.4,0.8-0.9,1.4-1.6c2.7,0.1,5.5-0.7,8.7,1.6
			c1.7,1.7,0.7,4.8,1.8,7.5c1.3,3.2,1.1,6.8,2.2,10.1c1.3,3.7,1.5,7.6,2.8,11.3c1.8,5.1,2,10.7,3.9,15.9c0.7,2,0.7,4.3,1.6,6.4
			c0.8-3,1.9-6,2.5-9.1c1-5.2,2.6-10.3,4.2-15.3c1-2.9,1.5-6,2.5-8.9c1-2.7,2.1-5.5,2.5-8.5c0.4-3.3,1.9-6.5,3.1-10.1
			c1,0,2.2,0.1,3.3,0c1.1-0.1,2.1-0.4,3.9-0.7c0.8,0.2,2.5,0.6,4.3,1.1c1.1,3.9,2.3,8.1,3.5,12.3c0.8,2.8,1.8,5.6,2.4,8.5
			c0.6,2.9,2.2,5.5,2.5,8.5c0.4,3.8,2.5,7.4,3,11.3c0.2,1.2,1.4,2.2,1,3.6c-0.5,1.4,0.7,2.4,0.9,3.6c0.3,1.2,0.1,2.6,0.4,3.9
			c4.4-17.2,9.1-34.2,13.1-51.9c1.2,0,2.9,0,4.5,0c1.6,0,3.3,0,4.8,0c0.1,0.6,0.3,1,0.2,1.2c-1.4,5.2-2.9,10.5-4.4,15.7
			c-1.2,4.2-2.5,8.3-3.6,12.5c-1,4.2-2.3,8.4-3.5,12.6c-1.2,4.5-2.3,9-3.6,13.5c-0.9,3.1-1.9,6.2-2.9,9.3c-3,0-5.8,0-8.8,0
			c-1-3.2-2.5-6.5-3.2-9.9c-0.8-4.2-2.4-8.1-3.2-12.2c-0.5-2.4-1.5-4.7-1.9-7.2c-0.4-2.5-1.6-4.7-2.1-7.1c-0.8-3.6-1.9-7.2-3.1-10.7
			c-0.6-1.6-0.6-3.1-0.8-4.7c-0.4-1.3-0.9-2.7-1.6-4.7C948,35.9,947.6,37.2,947.2,38.4z"/>
		<path class="st6" d="M368.5,135.8c-3.2,2.8-7.3,1.7-10.8,3.9c-0.5-0.9-1.2-1.7-1.5-2.7c-2.2-6.6-6.6-11.4-13.1-13.4
			c-10.2-3.1-19.5-0.8-27.3,6.8c-2.9,2.8-4.3,6.6-5.2,10.3c-1,4.4-3,8.9-2.3,13.5c0.9,5.4,0.6,11,2.8,16.3c1.3,3.1,2.8,5.9,5,8.4
			c4.7,5.5,10.8,7.6,17.9,7.6c1,0,2-0.1,3,0c5.4,0.4,9.4-2.1,13.2-5.5c4.3-3.7,6.1-8.6,8-13.7c0.1-0.3,0.3-0.5,0.5-1
			c3.3,0.8,6.6,1.6,10.3,2.5c0.9,4.2-1.3,7.9-3.4,11.5c-1.4,2.5-3.2,4.7-4.9,7c-0.2,0.3-0.4,0.5-0.7,0.7c-1.7,1.1-3.4,2.3-5.1,3.4
			c-1.7,1.1-3.4,2.1-5.3,2.9c-1.8,0.8-3.8,1.3-5.8,1.8c-0.9,0.2-1.9,0.3-2.9,0.3c-3.3,0-6.7,0.1-10,0c-10.8-0.4-18.1-3.5-25-11.8
			c-3.3-3.9-5.5-8.6-6.8-13.6c-0.9-3.5-2.2-6.9-2.1-10.7c0.1-1.7-1.3-3.6-0.8-5c0.6-1.8,0.8-3.4,0.8-5.1c0-3.4-0.3-6.8,1-10.1
			c2.2-5.3,3.6-11,8-15.2c3.6-3.4,7-7.1,11.9-8.8c5.2-1.8,10.3-3.9,16-3.7c4.8,0.1,9.5,0.2,14.2,1.9c3.8,1.4,7.1,3.3,10.1,5.8
			c4.1,3.3,6.9,7.5,8.9,12.3C367.6,133.4,368,134.4,368.5,135.8z"/>
		<path class="st7" d="M524.9,130.6c0.3,0.8,0.5,1.4,0.8,1.9c11,14.7,20.2,30.6,31.2,45.1c0.6-0.2,0.8-0.3,0.9-0.4s0.3-0.2,0.3-0.4
			c0-15.3,0-30.7,0-46.2c2.9,0,5.8,0,8.9,0c0,21.4,0,42.9,0,64.6c-3,0-6.2,0-9.8,0c-10.7-15.7-21.5-31.8-33-48.7
			c0,16.5,0,31.9,0,47.2c-0.7,0.6-1.1,1.1-1.5,1.5c-2.9,0-5.7,0-8.5,0c0-21.6,0-43.1,0-64.7C517.8,130.6,521.2,130.6,524.9,130.6z"
			/>
		<path class="st3" d="M737.5,165.9c6.8,3.5,10.1,9.1,13.7,14.4c3,4.6,5.8,9.3,9,13.8c0.2,0.2,0,0.6,0,1.2c-3.8,0-7.5,0-11.4,0
			c-1.2-2.5-3.2-4.6-4.6-7.2c-1.9-3.6-4.8-6.7-6.8-10.2c-1.3-2.2-3-4-4.4-6.1c-2.6-3.9-7-4.7-11.3-5.2c-0.8-0.1-1.7,0-2.5,0
			c-2.2,0-4.3,0-6.4,0c-0.5,0.4-0.8,0.8-1.3,1.3c0,8.9,0,18.1,0,27.4c-3.1,0-6,0-9,0c0-21.4,0-42.8,0-64.8c1.2,0,2.4,0,3.7,0
			c9.5,0,19,0,28.5,0c2,0,4-0.1,6,0c1.7,0.1,3.4,0.7,5.2,1.1c3.3,3.2,7.2,5.9,8.7,11.1c1.4,5.2,0.1,9.6-1.7,14.7
			C749.3,161.8,744.3,164.6,737.5,165.9z M745.2,146c-2-6.6-6.8-8-11.5-8.4c-7.4-0.6-14.9-0.1-22.5-0.1c0.2,7.2-0.2,14.1,0.2,21
			c7.5,0,14.7-0.2,21.8,0.1c2.4,0.1,4.4-0.8,6.5-1.3c1.6-0.4,3-1.7,4-3.6C745.3,150.8,745.1,148.1,745.2,146z"/>
		<path class="st8" d="M508.4,25.4c12.6,0,25.1-0.1,37.6,0.1c3.4,0.1,6.9,1.5,9.4,3.7c2.5,2.3,3.9,5.4,5.1,8.8
			c1.5,4.2,0.5,8-0.4,11.7c-0.8,3.3-3.7,6-7,7.6c-2.8,1.3-5.7,2.4-8.6,3.7c1,0.7,2.3,1.5,3.5,2.5c4.2,3.8,7.2,8.5,10.3,13.2
			c1.1,1.7,2.1,3.5,3.2,5.2c0.5,0.7,1.3,1.1,1.7,1.8c1.2,2,2.2,4.1,3.3,6.4c-3.9,0-7.7,0-11.6,0c-4.9-7.4-9.9-15.2-15.2-22.8
			c-1.2-1.8-2.8-3.7-5.2-4.3c-2.3-0.6-4.4-1.7-6.8-1.7c-3,0-6,0-8.9,0c-0.5,0.5-1,1-1.6,1.6c0,8.9,0,18.1,0,27.3c-3,0-5.7,0-8.7,0
			C508.4,68.8,508.4,47.4,508.4,25.4z M550.9,39c-1.2-1.2-2.6-3.3-4.6-4.5c-1.9-1.2-4.4-1.9-6.6-2c-7.4-0.2-14.9-0.1-22.5-0.1
			c0.1,7.2-0.1,14.1,0.1,21c8,0,15.5,0,23,0c2.6,0,5-0.6,7-2.4c0.5-0.5,1.3-0.7,1.4-0.7C551,46.9,551.7,43.7,550.9,39z"/>
		<path class="st5" d="M710.3,90.4c0-21.8,0-43.3,0-64.8c8-0.2,15.9-0.4,23.8-0.7c0.3,0,0.5-0.4,0.5-0.3c1.8,0.3,3.4,0.7,4.9,0.7
			c9.5-0.1,16.3,4.5,21.4,12.2c0.7,3.8,2.9,7.1,3.5,11.1c0.7,3.9,1.1,7.8,0.7,11.6c-0.8,6.6-1.8,13.3-5.9,19
			c-3.9,5.6-9,8.9-15.9,10.3c-6.1,1.2-12.1,0.6-18.1,0.8C720.3,90.6,715.5,90.4,710.3,90.4z M719.3,33.4c0,16.4,0,32.6,0,49
			c4.1,0,8.1,0.2,12,0c3.8-0.2,7.7-0.7,11.5-1.1c1.8-1.1,3.7-1.9,5.2-3.2c4.8-4.4,6.8-10.1,7.2-16.4c0.2-2.7-0.2-5.3,0.1-8
			c0.3-4.2-1.3-7.7-3-11.2c-2.7-5.6-7.5-8.4-13.4-8.9C732.4,33.1,725.9,33.4,719.3,33.4z"/>
		<path class="st9" d="M1080,32.1c-0.5,0.5-0.9,0.9-1.4,1.4c-12.3,0-24.7,0-37.3,0c0,6.3,0,12.4,0,18.9c11.9,0,23.8,0,35.8,0
			c0,2.8,0,5.2,0,7.9c-11.8,0-23.6,0-35.8,0c-0.2,7.4,0,14.6-0.1,22c13.3,0,26.4,0,39.8,0c0.6,2.7,0,5.3,0.4,8
			c-16.7,0-33.2,0-49.9,0c0-21.4,0-43,0-64.6c0.7-1.4,2.1-1.3,3.4-1.3c10,0,20,0,30,0c4.7,0,9.3,0,13.9,0c0.4,0.4,0.8,0.8,1.3,1.3
			C1080,27.7,1080,29.8,1080,32.1z"/>
		<path class="st3" d="M667.2,58c0.4,6.1-1.1,12.3-4.1,17.8c-3.1,5.8-7.3,10.8-14.4,12.8c-7.3,2.1-11.6,3.8-17.8,2.7
			c-10.2-1.7-20.7-6.8-24.8-20.2c-0.8-2.7-2.1-5.2-2-8.2c0-1-0.9-2.1-0.9-3.1c0.3-7.1,1-14.2,4.6-20.5c2.7-4.7,5.8-8.8,11.1-11.4
			c3.9-1.9,7.7-3.3,12-3.7c2.6-0.2,4.9-1.2,7.8,0c2.4,1,5.3-0.1,8,1.2c6.2,2.8,11.8,6.3,15.2,12.4c1.2,2.1,2.4,4.3,3.3,6.6
			c0.8,2.2,1,4.5,1.8,6.7C667.8,53,667.2,55.4,667.2,58z M614.5,46.6c-0.5,2.6-1.1,4.7-1.3,6.9c-0.2,2.3-0.1,4.7,0,7
			c0.1,8,3.2,14.6,9.8,19.3c5.4,3.8,11.6,4.6,17.8,3.4c4.7-0.9,9-3.7,11.7-7.7c2.6-4,5-8.3,4.7-13.5c-0.2-2.5-0.1-5,0-7.5
			c0.1-2.4-0.3-4.7-1-7.1c-1.2-4-3.3-7.5-6.2-10.4c-3.2-3.3-7.9-4.2-12.2-5.3c-2.3-0.6-4.6,0.2-7,0.6c-6.9,1.4-11.8,5.1-14.7,11.4
			C615.6,44.9,614.9,45.9,614.5,46.6z"/>
		<path class="st10" d="M421.3,195.3c0-21.6,0-43.1,0-64.2c1-2.1,2.6-1.6,4-1.6c10.5,0,21,0.1,31.5-0.1c4.4-0.1,8.7,0.6,13.2,1.3
			c0,2,0,4.1,0,6.4c-0.3,0.2-0.8,0.7-1.5,1.4c-12.1,0-24.6,0-37.2,0c0,6.3,0,12.4,0,18.9c11.8,0,23.7,0,35.7,0c0,2.8,0,5.2,0,8
			c-11.9,0-23.8,0-35.8,0c0,7.5,0,14.6,0,21.9c13.1,0,26.2,0,39.7,0c0.3,2.7,0.1,5.3,0.2,8C454.6,195.3,438.1,195.3,421.3,195.3z"/>
		<path class="st8" d="M864.1,36.8c0.6,2.9,2.6,5,3.3,7.8c0.8,3.4,2.1,6.6,1.8,10.2c0,0.7-0.1,1.3,0,2c0.8,6.2-0.7,12.2-3.2,17.7
			c-2,4.4-4.8,8.5-9.4,11.1c-2.8,1.6-5.5,3.5-8.7,4.5c-5.2,1.7-11.5,1.5-17.5,0.4c-2.8-0.5-5.5-1.2-8-2.4
			c-4.4-2.1-8.6-5.8-11.2-10.2c-3-5.3-5.5-11-5.1-17.4c0.1-2.3,0.1-4.7,0-7c-0.3-6.3,2.5-11.6,5.3-16.8c3-5.4,10.1-10.2,16.9-11.9
			c3.5-0.9,7.2-2.1,10.9-1.4c4.7,0.9,9.6,1.1,13.9,3.9c1.7,1.1,3.6,2,5,3.5C860.1,33,862.2,34.9,864.1,36.8z M837.7,83.4
			c1.7,0,3.5,0.4,5-0.1c2.9-1.1,5.8-2.3,8.2-4.2c3.4-2.7,6.2-6,7.3-10.4c1-3.8,1.9-7.7,1.9-11.7c0-1.5-1-3.1-0.9-4.6
			c0.2-3.8-1.4-7.1-3.2-10.2c-1.5-2.6-3.1-5.2-5.8-6.9c-3.5-2.2-7.5-3.2-11.4-3.8c-2.6-0.4-5.6,0-8,1c-6.2,2.6-11.6,6.3-13.8,13.3
			c-0.7,2.2-0.2,4.7-1,6.5c-2.3,5.1-0.7,10,0.5,14.6C819.2,77.6,828.3,84.1,837.7,83.4z"/>
		<path class="st11" d="M624.2,305.3c-3.5,0-6.6,0-9.8,0c0-21.9,0-43.6,0-65.7c2.8,0,5.7,0,8.6,0c0.3,0.4,0.7,0.7,1.2,1.2
			c0,9.6,0,19.4,0,29c0.3,0.3,0.4,0.5,0.5,0.5c0.1,0,0.2-0.2,0.3-0.3c10.1-10.1,20.3-20.3,30.5-30.5c3.6,0,7.4,0,11.6,0
			c0,0.7,0.1,1.5,0.1,2c-1.3,1.1-2.6,2.1-3.8,3.1c-3.2,3.1-6.4,6.4-9.5,9.5c-1.7,1.6-3,4.1-5,4.7c-2.4,0.8-2.4,3.5-4.7,4.1
			c-1.3,0.3-2.3,1.8-3.6,2.8c9.9,13.2,19.4,25.9,29.2,39c-4.3,1-8.2,0.2-12.2,0.6c-7.7-10.7-15.4-21.5-22.9-31.9
			c-3.3,3.4-6.6,6.6-10.4,10.4C624.2,290.3,624.2,297.6,624.2,305.3z"/>
		<path class="st8" d="M516.2,240.9c0.5-0.5,1-0.9,1.4-1.4c2.5,0,5,0,7.3,0c0.5,0.5,0.8,0.8,1.4,1.4c0,14,0,28.1,0,42.2
			c0,1.7,0.4,3.4,0.8,5.1c0.6,2.6,1.7,4.7,3.7,6c2.6,1.6,5.3,3.4,8.7,3.2c2.2-0.1,4.3,0,6.5,0c6.5-0.2,10.7-3.5,12.4-10.4
			c0.4-1.7,0.8-3.4,1-5.1c0.2-1.6,0-3.3,0-5c0-11.8,0-23.6,0-35.5c0-0.6,0-1.2,0-2c3.1,0,5.9,0,9,0c0,1.7,0,3.3,0,4.9
			c0,13,0,26,0,39c0,1.7,0.8,3.6-0.6,5.2c-1,1.2,0.4,3.3-1.3,4.4c-0.4,3.2-2.3,5.7-4.7,7.5c-3.4,2.5-7,4.4-11.4,5.1
			c-3.2,0.5-6.4,0.8-9.6,0.8c-5.8,0-13-2.4-17.5-6c-0.9-0.7-1.4-2-2.2-2.9c-0.9-1-1.5-1.8-1.7-3.4c-0.1-1.6-1.7-3.1-1.8-4.7
			c-0.2-3.6-1.3-7-1.2-10.6C516.3,266.2,516.2,253.6,516.2,240.9z"/>
		<path class="st12" d="M837.9,195.2c-2.7,0.4-5.2,1-7.7,1.2c-2.5,0.2-5,0.2-7.5,0c-10.3-0.9-17.6-5.1-21.4-16.3
			c0-0.1-0.2-0.3-0.1-0.4c0.6-3.1-1-6-1-9.1c-0.1-13,0-26,0-39c0-0.3,0.1-0.6,0.3-1c3.1,0,6.2,0,9.7,0c0,1.4,0,2.8,0,4.3
			c0,13.2,0,26.3,0,39.5c0,3.9,1.3,7.5,4.5,10.1c1.2,0.9,2.7,1.5,4.1,2.1c1.7,0.7,3.4,1.7,5.2,1.8c1.8,0.1,3.7,0.2,5.7-0.6
			c2.2-0.9,4.8-0.8,7.1-2.2c3.1-1.7,4.3-4.3,5.4-7.3c1.2-3.2,0.9-6.4,0.9-9.6c0-12.6,0-25.3,0-38c3.4,0,6.6,0,10.3,0
			c-1.2,2.4-1.9,4.6-0.3,6.8c0.5,0.8-0.6,1.8-0.8,2.6c-0.4,1.8-0.1,3.6-0.1,5.5c0,5.8,0,11.7,0,17.5c0,1.7-0.6,3.6,1,5.1
			c0.2,0.2,0.1,0.7,0,1c-0.3,1.4-0.8,2.7-1,4.1c-0.2,1.6,0.1,3.4-0.1,5c-0.2,1.4-0.7,2.7-1.2,4c-2.1,5.1-4.9,9.5-10.5,11.5
			C839.5,194,838.6,194.7,837.9,195.2z"/>
		<path class="st6" d="M441.4,239.5c2.9,0,5.6,0,8.6,0c1,1.9,2.4,3.8,3.1,5.9c1.1,3.2,2.7,6.2,3.8,9.4c2.5,7,6,13.5,8.3,20.6
			c0.9,2.6,2.2,5.1,3.3,7.6c3,6.6,5.2,13.5,8.6,19.9c0.3,0.5,0,1.3,0,2.3c-1.6,0-3.2,0.1-4.8,0.2c-1.6,0-3.3,0-5.3,0
			c-2.6-6.6-5.3-13.2-7.9-19.8c-9,0-17.8,0-26.6,0c-2.4,6.5-4.9,13.1-7.4,19.7c-3.1,0-5.9,0-8.9,0c-0.6-2.7,0.6-4.9,1.6-7.2
			c2.5-5.8,4.5-11.8,7.2-17.5c1.5-3.2,2.3-6.7,3.4-10.1c1.4-4.2,3.1-8.4,4.8-12.5c2.3-5.5,4.4-11.2,6.8-16.7
			C440.4,240.9,440.8,240.3,441.4,239.5z M456.5,278.3c-3-10.4-7.6-19.8-11-30.4c-1.9,5.6-3.4,10.6-5.2,15.5
			c-1.8,4.8-4.4,9.5-5.3,14.8C442.1,278.3,448.9,278.3,456.5,278.3z"/>
		<path class="st11" d="M469.4,90.2c-3.7,0-7.1,0-10.9,0c-2-4.9-4.5-10.1-6.2-15.4c-0.6-1.9-1.6-3.1-2.7-4.3c-8.4,0-16.7,0-25.3,0
			c-2.5,6.6-5,13.2-7.5,19.9c-3.1,0-6.2,0-9.8,0c3.7-11.1,8.3-21.7,12.3-32.5c4-10.8,8.4-21.5,12.6-32.3c3.8,0,7.3,0,10.6,0
			c1.1,2.6,2.3,5.3,3.3,8c2,5.4,4.5,10.5,6.4,15.9c0.9,2.6,1.9,5.2,3.3,7.6c1.9,3.4,2.8,7.2,4.5,10.7c1.6,3.5,3,7.1,4.3,10.7
			C465.6,82.4,467.6,86.1,469.4,90.2z M448.2,63.3c-3.7-9.9-7.2-19.4-10.8-28.9c-0.2,0-0.6,0.1-0.8,0.1c-2.4,10-7,19.2-10.2,28.8
			C433.7,63.3,440.8,63.3,448.2,63.3z"/>
		<path class="st13" d="M661,138.5c-7.3,0-14.4,0-21.7,0c0,18.9,0,37.7,0,56.9c-3,0.1-5.9,0-9,0.1c0-18.9,0-37.7,0-56.8
			c-7.4-0.5-14.6,0-22-0.3c0-2.5,0-5,0-7.4c4.1-0.7,37.1-0.9,52.7-0.3C661,133,661,135.5,661,138.5z"/>
		<path class="st14" d="M718,305.4c-2.6,0-5,0-7.7,0c0-21.5,0-42.9,0-64.6c0.2-0.2,0.8-0.6,1.5-1.2c1.8,0,3.9,0,6.2,0
			C718,261.5,718,283.4,718,305.4z"/>
	</g>
</g>
</svg>
