<?xml version="1.0" encoding="utf-8"?>
<!-- Generator: Adobe Illustrator 28.2.0, SVG Export Plug-In . SVG Version: 6.00 Build 0)  -->
<svg version="1.1" id="Livello_1" xmlns="http://www.w3.org/2000/svg" xmlns:xlink="http://www.w3.org/1999/xlink" x="0px" y="0px"
	 viewBox="0 0 259.76 274.34" style="enable-background:new 0 0 259.76 274.34;" xml:space="preserve">
<style type="text/css">
	.st0{fill:#FFFFFF;}
</style>
<g>
	<path class="st0" d="M247.64,266.25c-77.58,0-155.17,0-232.75,0c0-87,0-174,0-261c77.58,0,155.17,0,232.75,0
		C247.64,92.25,247.64,179.25,247.64,266.25z M79.84,6.44c-0.42,0.99-0.26,2.1-0.26,3.19c-0.01,17.77,0,35.55,0,53.32
		c0,0.41,0,0.81,0,1.22c-0.07,0.04-0.15,0.09-0.22,0.13c-0.07-0.14-0.12-0.31-0.22-0.41c-8.65-8.66-17.3-17.31-25.95-25.96
		c-0.15-0.15-0.36-0.27-0.43-0.45c-0.24-0.65-0.76-0.98-1.29-1.22c-10.79,0-21.52,0-32.22,0c-0.38,0.38-0.73,0.73-1.06,1.06
		c0,21.12,0,42.21,0,63.34c0.45,0.35,0.89,0.7,1.28,1.01c10.64,0,21.21,0,31.57,0c1.33-0.44,1.59-1.31,1.59-2.42
		c-0.02-8.99-0.01-17.98-0.01-26.97c0-0.41,0-0.82,0-1.14c0.16-0.19,0.27-0.32,0.35-0.42c9.28,0,18.52,0,27.75,0
		c10.01,10.01,20.02,20.02,30.02,30.04c0.63,0.63,1.28,1.1,2.2,0.87c0.73-0.21,1.07-0.78,1.39-1.46c0-9.75,0-19.57,0-29.42
		c44.01,0,87.99,0,131.83,0c0.41-0.36,0.72-0.64,0.87-0.77c0.17-0.48,0.27-0.77,0.34-0.95c-0.11-0.39-0.19-0.68-0.3-1.07
		c-0.38-0.3-0.82-0.65-1.28-1.02c-43.81,0-87.63,0-131.49,0c0-10.03,0-20.01,0-29.99c0-10.03,0-20.05,0-30.12
		c-0.38-0.45-0.76-0.9-1.09-1.29c-10.9,0-21.68,0-32.5,0C80.43,5.79,80.15,6.1,79.84,6.44z M18.93,130.9c0,15.37,0,30.63,0,45.91
		c2.82,0,5.59,0,8.46,0c0-10.65,0-21.29,0-32.09c0.64,0.84,1.19,1.5,1.67,2.21c0.75,1.11,1.57,2.17,2.33,3.27
		c0.94,1.37,1.99,2.67,2.97,4.02c0.77,1.05,1.5,2.13,2.26,3.18c0.97,1.35,1.97,2.68,2.95,4.02c0.77,1.05,1.53,2.11,2.3,3.17
		c0.76,1.06,1.52,2.12,2.3,3.17c0.81,1.09,1.7,2.11,2.43,3.24c0.95,1.46,2.02,2.82,3.04,4.23c0.37,0.51,0.73,1.02,1.12,1.57
		c2.38,0,4.82,0,7.3,0c0-15.32,0-30.61,0-45.9c-2.82,0-5.6,0-8.46,0c0,10.08,0,20.12,0,30.45c-0.3-0.5-0.44-0.77-0.62-1.01
		c-0.78-1.05-1.63-2.06-2.35-3.15c-1.16-1.74-2.44-3.4-3.63-5.12c-1.5-2.17-3.04-4.31-4.53-6.48c-0.85-1.24-1.77-2.43-2.64-3.65
		c-0.57-0.8-1.11-1.62-1.68-2.42c-0.75-1.06-1.51-2.12-2.27-3.18c-0.74-1.03-1.49-2.04-2.23-3.07c-0.57-0.79-1.12-1.6-1.65-2.37
		C24.96,130.9,21.97,130.9,18.93,130.9z M166.17,176.83c0.1-0.32,0.21-0.65,0.32-0.98c0.32-0.95,0.73-1.88,0.94-2.85
		c0.4-1.78,1.17-3.44,1.61-5.22c0.41-1.67,1.08-3.29,1.59-4.95c0.68-2.21,1.35-4.43,2.11-6.62c0.52-1.49,0.93-3.02,1.45-4.52
		c0.35-1.02,0.77-2.03,1-3.08c0.29-1.36,0.86-2.61,1.21-3.94c-2.72,0-5.45,0-8.07,0c-0.14,0.37-0.3,0.65-0.34,0.95
		c-0.24,1.59-1.12,2.99-1.26,4.6c-0.62,1.13-0.82,2.41-1.24,3.61c-0.43,1.24-0.75,2.52-1.15,3.77c-0.53,1.69-1.08,3.38-1.61,5.08
		c-0.35,1.14-0.58,2.33-1.11,3.42c-0.22-0.6-0.53-1.16-0.62-1.75c-0.31-2.09-1.3-4.01-1.52-6.12c-0.61-0.98-0.58-2.16-0.99-3.21
		c-0.43-1.08-0.41-2.3-1.01-3.33c-0.37-2.43-1.34-4.7-1.81-7.08c-2.4,0-4.73,0-7.13,0c-0.09,0.18-0.28,0.39-0.29,0.6
		c-0.02,0.6-0.28,1.14-0.44,1.7c-0.37,1.26-0.67,2.54-1.05,3.81c-0.45,1.52-0.82,3.07-1.26,4.6c-0.38,1.31-0.68,2.63-1.01,3.95
		c-0.19,0.75-0.32,1.53-0.58,2.26c-0.53,1.49-0.82,3.05-1.35,4.71c-0.31-0.77-0.69-1.39-0.79-2.06c-0.13-0.87-0.47-1.64-0.75-2.44
		c-0.29-0.84-0.5-1.71-0.76-2.56c-0.31-1-0.65-1.98-0.98-2.97c-0.18-0.54-0.26-1.13-0.48-1.68c-0.22-0.54-0.36-1.1-0.57-1.64
		c-0.21-0.54-0.28-1.12-0.46-1.68c-0.33-1.07-0.76-2.11-1.02-3.2c-0.28-1.17-0.7-2.29-1.07-3.36c-2.92,0-5.78,0-8.74,0
		c0.2,0.52,0.46,0.97,0.54,1.44c0.35,1.92,1.25,3.66,1.68,5.55c0.35,1.55,0.97,3.02,1.39,4.55c0.46,1.66,1.14,3.27,1.6,4.95
		c0.49,1.79,1.17,3.52,1.66,5.32c0.45,1.66,1.09,3.29,1.62,4.94c0.58,1.8,1.13,3.61,1.68,5.38c2.86,0,5.72,0,8.58,0
		c0.11-0.16,0.28-0.29,0.28-0.42c0-0.89,0.48-1.64,0.63-2.5c0.2-1.14,0.57-2.25,0.88-3.37c0.3-1.08,0.63-2.15,0.94-3.23
		c0.27-0.93,0.55-1.85,0.8-2.79c0.37-1.43,0.62-2.9,1.08-4.3c0.49-1.51,0.81-3.06,1.33-4.65c0.13,0.26,0.26,0.46,0.34,0.68
		c0.16,0.48,0.3,0.96,0.43,1.45c0.28,1.09,0.54,2.19,0.83,3.28c0.29,1.08,0.63,2.15,0.93,3.23c0.35,1.27,0.67,2.55,1.04,3.81
		c0.42,1.42,0.66,2.88,1.09,4.3c0.46,1.51,0.93,3.03,1.26,4.55C160.46,176.83,163.29,176.83,166.17,176.83z M199.03,156.59
		c-0.57,0.11-0.99,0.18-1.41,0.27c-0.92,0.21-1.83,0.51-2.79,0.5c-0.35,0.51-0.97,0.03-1.35,0.35c-0.44,0.37-1,0-1.49,0.36
		c-0.32,0.23-0.91,0.17-1.37,0.25c-1.69,0.31-3.34,0.74-4.97,1.28c-2.11,0.7-4.1,1.61-5.62,3.31c-1.28,1.43-2.16,3.03-2.06,5.01
		c0.06,1.09-0.08,2.17,0.21,3.28c0.48,1.84,1.5,3.27,2.95,4.37c0.88,0.66,1.94,1.16,2.99,1.49c1.08,0.34,2.24,0.55,3.4,0.54
		c0.96-0.01,1.91,0,2.87,0c0.21,0,0.44,0.06,0.62-0.01c1.09-0.41,2.27-0.47,3.34-0.97c0.99-0.46,2.01-0.89,2.81-1.63
		c0.86-0.8,1.79-1.58,2.42-2.73c0.14,0.42,0.24,0.74,0.36,1.06c0.37,1.02,0.94,1.98,1.76,2.62c1.34,1.04,2.86,1.76,4.66,1.69
		c0.73-0.03,1.43-0.13,2.14-0.26c1.49-0.28,2.86-0.77,3.86-1.82c0-1.63,0-3.16,0-4.73c-0.84,0.71-1.91,0.34-2.68,0.76
		c-0.27-0.08-0.49-0.17-0.71-0.21c-0.82-0.15-1.12-0.71-1.31-1.46c-0.21-0.84-0.24-1.67-0.24-2.52c0.01-4.12,0.01-8.24,0-12.36
		c0-0.76,0.01-1.51-0.21-2.28c-0.19-0.67-0.34-1.36-0.58-2.01c-0.25-0.68-0.58-1.35-0.97-1.97c-0.81-1.28-1.9-2.35-3.18-3.11
		c-2.15-1.27-4.52-1.96-7.02-2c-1.67-0.02-3.35-0.18-5.02,0.19c-0.64,0.14-1.34,0.19-1.96,0.41c-1.65,0.56-3.24,1.23-4.66,2.33
		c-1.56,1.21-2.75,2.63-3.61,4.37c-0.6,1.22-0.85,2.54-1.26,3.86c0.96,0.11,1.87,0.28,2.79,0.29c1.22,0.01,2.41,0.46,3.64,0.27
		c0.08-0.01,0.19-0.01,0.23,0.03c0.38,0.43,0.85,0.1,1.28,0.25c0.29-0.62,0.59-1.16,0.81-1.73c0.46-1.17,1.44-2.18,2.41-2.87
		c1.01-0.71,2.2-0.46,3.24-0.91c0.62,0.49,1.35,0.09,1.98,0.3c1.66,0.54,2.76,1.65,3.34,3.27
		C198.78,154.62,198.9,155.54,199.03,156.59z M64.09,160.89c0.11,0.9-0.1,1.98,0.2,3.09c0.19,0.7,0.27,1.46,0.47,2.18
		c0.39,1.38,0.89,2.72,1.69,3.92c0.56,0.85,1.09,1.76,1.78,2.5c1.58,1.7,3.42,3.04,5.61,3.91c1.92,0.76,3.86,1.34,5.93,1.33
		c1.5,0,3.03,0.23,4.52-0.22c0.34-0.1,0.75-0.02,1.05-0.17c0.36-0.19,0.86,0.15,1.11-0.33c1.39-0.26,2.63-0.87,3.84-1.58
		c0.96-0.57,1.87-1.2,2.68-1.95c1.67-1.56,2.89-3.44,3.8-5.53c0.69-1.59,1.16-3.26,1.25-4.96c0.14-2.34,0.26-4.73-0.46-7.03
		c-0.25-0.81-0.33-1.68-0.75-2.44c-0.8-1.47-1.32-3.12-2.65-4.27c-0.24-0.69-0.79-1.22-1.35-1.53c-0.61-0.34-0.89-1.07-1.62-1.19
		c-0.79-0.81-1.88-1.08-2.84-1.58c-0.97-0.5-1.97-0.95-3.11-0.92c-0.39-0.56-1.16,0.07-1.54-0.5c-0.58,0-1.16,0-1.75,0
		c-0.91,0-1.83,0.02-2.74-0.01c-0.77-0.02-1.48,0.41-2.26,0.27c-1.61,0.64-3.3,1-4.82,1.95c-1.3,0.81-2.49,1.71-3.6,2.74
		c-0.35,0.32-0.56,0.78-0.9,1.12c-0.54,0.55-0.96,1.18-1.27,1.85c-0.61,1.32-1.39,2.58-1.64,4.06c-0.2,1.2-0.66,2.36-0.63,3.61
		C64.1,159.7,64.09,160.2,64.09,160.89z M211.55,144.65c0.82,1.4,1.27,2.8,1.82,4.14c0.71,1.74,1.44,3.48,2.12,5.24
		c0.43,1.11,0.95,2.19,1.39,3.29c0.66,1.64,1.33,3.28,2.02,4.91c0.5,1.17,0.98,2.34,1.45,3.52c0.4,0.99,0.78,2.02,1.16,3.02
		c0.4,1.03,0.81,2.08,1.29,3.08c0.8,1.67,1.33,3.44,2.13,5.06c-0.44,1.14-0.75,2.27-1.3,3.28c-0.66,1.23-0.88,2.65-1.72,3.78
		c-0.05,0.76-0.48,1.38-0.75,2.06c-0.28,0.71-0.63,1.4-0.91,2.12c-0.08,0.2-0.05,0.44-0.07,0.66c2.87,0,5.65,0,8.45,0
		c0.18-0.32,0.5-0.62,0.51-0.93c0.03-0.79,0.68-1.29,0.82-2.05c0.14-0.73,0.66-1.38,0.93-2.1c0.31-0.79,0.72-1.55,0.99-2.33
		c0.59-1.76,1.38-3.43,2.08-5.13c0.53-1.27,1.01-2.58,1.65-3.82c0.44-0.87,0.75-1.85,1.12-2.78c0.38-0.96,0.75-1.94,1.19-2.88
		c0.52-1.12,1.01-2.26,1.45-3.39c0.66-1.72,1.38-3.43,2.09-5.13c0.53-1.27,0.87-2.65,1.7-3.79c0.41-1.7,1.26-3.23,1.9-4.83
		c0.66-1.66,1.34-3.31,2.1-4.99c-2.93,0-5.79,0-8.65,0c-0.24,0.58-0.48,1.15-0.71,1.72c-0.38,0.93-0.84,1.83-1.11,2.78
		c-0.4,1.42-1.09,2.72-1.55,4.1c-0.33,0.98-0.83,1.9-1.21,2.87c-0.53,1.36-0.97,2.76-1.52,4.11c-0.42,1.03-0.85,2.06-1.24,3.11
		c-0.41,1.1-0.9,2.17-1.36,3.27c-0.12-0.12-0.26-0.2-0.29-0.3c-0.29-0.92-0.74-1.78-1.06-2.68c-0.72-1.99-1.58-3.92-2.31-5.91
		c-0.35-0.97-0.87-1.89-1.2-2.87c-0.57-1.72-1.3-3.37-1.97-5.05c-0.59-1.46-1.09-2.96-1.79-4.38c-0.12-0.24-0.15-0.51-0.22-0.76
		C217.82,144.65,214.8,144.65,211.55,144.65z M22.02,249.67c-0.48,0.15-0.82,0.22-1.14,0.35c-1.66,0.67-3.21,1.47-4.2,3.07
		c-1.43,2.31-1.3,4.97-0.28,7.25c0.02,0.04,0.04,0.07,0.06,0.1c0.76,0.82,1.33,1.81,2.36,2.38c0.98,0.54,1.88,1.21,3,1.51
		c1.2,0.33,2.33,0.93,3.61,0.92c0.54,0.42,1.25,0.04,1.75,0.29c0.66,0.33,1.28,0.18,1.91,0.2c1.54,0.04,3.08,0.01,4.62,0.01
		c0.25,0,0.58,0.1,0.73-0.02c0.41-0.33,0.87-0.27,1.28-0.21c0.52,0.08,0.91-0.29,1.4-0.27c1.08,0.03,2.08-0.37,3.08-0.71
		c2.56-0.86,2.85-1.08,5.08-2.51c1.03-0.66,1.7-1.59,2.31-2.56c0.68-1.1,1.12-2.33,1.03-3.69c-0.05-0.75,0.03-1.5-0.02-2.25
		c-0.06-1.03-0.4-1.99-0.96-2.84c-0.86-1.33-1.95-2.37-3.46-3.02c-1.5-0.64-3-1.15-4.64-1.15c-4.53-0.01-9.07,0.01-13.6-0.02
		c-0.71,0-1.45-0.08-2.14-0.26c-0.47-0.12-0.89-0.47-1.31-0.75c-0.16-0.1-0.59-1.5-0.61-1.74c-0.06-0.66,0.17-1.24,0.45-1.81
		c0.45-0.9,1.24-1.42,2.02-1.92c0.12,0,0.22-0.02,0.29,0c0.69,0.24,1.37,0.51,2.06,0.74c0.7,0.23,1.46,0.38,2.17,0.46
		c1.4,0.16,2.82,0.05,4.24,0.05c0.44,0,0.86-0.15,1.28-0.21c1.63-0.26,3.15-0.75,4.63-1.52c2.25-1.17,3.82-2.84,4.73-5.24
		c0.69-1.81,0.77-3.66,0.55-5.48c-0.17-1.36-0.61-2.76-1.46-4c1.17-0.7,2.44-0.97,3.67-1.26c0.84-0.2,1.73-0.21,2.56-0.31
		c0-1.44,0-2.81,0-4.23c-3.33-0.04-5.77,1.51-7.67,4.06c-0.6-0.48-1.15-0.95-1.74-1.36c-1.97-1.39-4.22-2.05-6.59-2.15
		c-1.58-0.06-3.18-0.19-4.77,0.2c-1.09,0.27-2.17,0.55-3.23,0.94c-1.94,0.71-3.23,2.23-4.6,3.64c-0.29,0.29-0.43,0.73-0.63,1.11
		c-0.76,1.45-1.02,3.03-1.19,4.62c-0.13,1.29,0.27,2.54,0.53,3.78c0.18,0.88,0.68,1.73,1.19,2.49c0.56,0.84,1.3,1.56,2,2.38
		c-0.34,0.24-0.7,0.56-1.11,0.79c-1,0.54-1.75,1.36-2.34,2.27c-0.95,1.44-1.04,3.06-0.51,4.69
		C18.94,248.15,20.19,249.09,22.02,249.67z M105.77,248.8c-0.79,0.19-1.56,0.21-2.12,0.56c-0.72,0.44-1.24-0.01-1.83-0.11
		c-0.65-0.11-0.99-0.63-1.29-1.22c-0.22-0.43-0.23-0.84-0.23-1.28c0-5.54,0.01-11.07-0.01-16.61c0-0.84,0-1.75-0.31-2.49
		c-0.46-1.1-0.49-2.39-1.43-3.28c-0.81-1.83-2.4-2.85-4.06-3.73c-1.16-0.62-3.79-1.09-5.04-1.09c-0.75,0-1.5,0.02-2.25-0.01
		c-1.05-0.04-2.04,0.25-3.04,0.5c-1.61,0.4-3.07,1.13-4.35,2.15c-1.64,1.32-2.91,2.99-3.68,4.95c-0.28,0.71-0.78,1.48-0.52,2.35
		c1.22,0.26,2.4,0.51,3.61,0.76c0.42-1,0.74-2.08,1.32-3.04c0.63-1.02,1.43-1.92,2.37-2.61c0.75-0.56,1.72-0.86,2.63-1.16
		c0.66-0.22,1.38-0.32,2.08-0.39c1.25-0.13,2.47,0.15,3.66,0.5c1.07,0.31,2.03,0.91,2.77,1.7c0.62,0.66,1.07,1.54,1.41,2.39
		c0.31,0.79,0.45,1.67,0.54,2.52c0.09,0.77,0.02,1.56,0.02,2.33c-0.68,0.07-1.22,0.45-1.84,0.3c-1.05,0.49-2.21,0.49-3.3,0.79
		c-0.51,0.14-1.04,0.09-1.51,0.26c-0.88,0.33-1.82,0.43-2.72,0.66c-0.6,0.15-1.23,0.27-1.84,0.4c-0.6,0.13-1.18,0.36-1.78,0.52
		c-0.98,0.26-1.86,0.74-2.79,1.11c-0.92,0.37-1.76,0.84-2.51,1.46c-0.6,0.5-1.15,1.05-1.69,1.63c-0.87,0.95-1.29,2.12-1.43,3.27
		c-0.16,1.26-0.18,2.58,0.14,3.89c0.37,1.5,1.06,2.79,2.08,3.88c0.98,1.05,2.29,1.62,3.61,2.1c1.09,0.4,2.24,0.52,3.41,0.52
		c1.45,0,2.91,0,4.28-0.52c1.08-0.41,2.2-0.68,3.18-1.38c1.19-0.85,2.46-1.57,3.3-2.82c0.41-0.6,0.89-1.15,1.33-1.72
		c0.28,1.31,0.52,2.64,1.29,3.82c0.43,0.66,0.92,1.2,1.57,1.62c1.01,0.66,2.13,0.79,3.31,0.76c1.17-0.03,2.2-0.31,2.99-1.24
		c0.19-0.22,0.41-0.41,0.62-0.62C105.77,250.4,105.77,249.62,105.77,248.8z M112.29,150.32c0-2.05,0-3.86,0-5.68
		c-2.95,0-5.81,0-8.69,0c0,10.74,0,21.45,0,32.17c2.91,0,5.77,0,8.69,0c0-0.43,0-0.84,0-1.25c0-4.7,0.01-9.41-0.01-14.11
		c-0.01-1.33,0.23-2.62,0.48-3.92c0.33-1.72,1.16-3.12,2.47-4.22c1.1-0.92,2.39-1.49,3.88-1.46c0.58,0.01,1.17,0,1.75,0
		c0.29,0,0.67-0.12,0.86,0.02c0.44,0.34,1.06,0.03,1.43,0.48c0.79-0.08,1.29,0.68,2.07,0.76c0.18-1.08-0.16-2.16,0.3-3.16
		c-0.19-1.68,0.36-3.32,0.24-4.97c-0.88-0.99-2.03-1.24-3.22-1.36c-0.66-0.06-1.33-0.04-2,0c-0.59,0.04-1.19,0.12-1.77,0.25
		c-0.41,0.1-0.77,0.35-1.17,0.48c-1.24,0.41-2.03,1.39-2.95,2.24C113.61,147.58,112.92,148.78,112.29,150.32z M190.95,230.98
		c0-0.33,0.03-0.62-0.01-0.91c-0.04-0.26-0.22-0.51-0.23-0.77c-0.08-1.61-0.69-3.01-1.5-4.38c-0.74-1.26-1.48-2-2.63-2.9
		c-0.94-0.74-2.03-1.17-3.06-1.68c-1.04-0.52-2.27-0.61-3.42-0.74c-1.48-0.18-2.99-0.02-4.49-0.06c-0.35-0.01-0.6,0.21-0.9,0.25
		c-2.52,0.33-3.13,0.73-4.69,1.63c-1.37,0.79-2.5,1.94-3.29,3.34c-0.44,0.78-0.62,1.66-0.83,2.54c-0.23,0.95-0.14,1.86-0.15,2.78
		c-0.01,0.53,0.08,1.16,0.31,1.6c0.41,0.79,0.44,1.8,1.28,2.35c0.25,0.91,1.19,1.14,1.78,1.72c0.48,0.47,1.16,0.8,1.81,1
		c1,0.3,1.98,0.68,3.01,0.89c1.04,0.21,2.09,0.28,3.11,0.61c0.44,0.14,0.92,0.04,1.4,0.24c0.45,0.18,1.05-0.08,1.51,0.28
		c1.47,0.03,2.84,0.53,4.2,1.02c1.08,0.39,2.1,1.01,2.52,2.17c0.39,1.06,0.63,2.09,0.33,3.32c-0.37,1.51-1.2,2.52-2.44,3.21
		c-1.56,0.87-3.32,1.13-5.09,1.27c-0.5,0.04-1,0.04-1.5,0c-0.43-0.04-0.85-0.21-1.27-0.23c-0.49-0.01-0.93-0.12-1.4-0.25
		c-0.86-0.24-1.7-0.52-2.46-1c-0.98-0.61-1.89-1.27-2.55-2.27c-0.76-1.15-1.36-2.36-1.56-3.72c-0.07-0.48-0.13-0.91-0.49-1.28
		c-0.37,0.09-0.75,0.25-1.13,0.25c-0.73,0-1.43,0.06-2.15,0.37c0,0.52-0.06,1.06,0.02,1.59c0.09,0.57,0.32,1.11,0.48,1.67
		c0.65,2.24,2.28,4.66,4.14,5.86c1.03,0.66,2.14,1.22,3.31,1.64c1.23,0.44,2.5,0.75,3.76,0.83c2.39,0.15,4.81,0.22,7.15-0.47
		c0.96-0.28,1.92-0.61,2.8-1.08c1.06-0.57,1.98-1.37,2.82-2.26c1.15-1.22,1.75-2.72,1.96-4.3c0.17-1.32,0.15-2.69-0.21-4.01
		c-0.36-1.32-1.02-2.5-2-3.4c-1.09-1-2.45-1.69-3.86-2.11c-1.19-0.35-2.38-0.81-3.67-0.82c-0.26,0-0.51-0.19-0.77-0.23
		c-0.33-0.04-0.7,0.09-0.99-0.03c-1.15-0.46-2.39-0.46-3.58-0.68c-0.89-0.17-1.78-0.34-2.65-0.57c-0.94-0.26-1.9-0.64-2.51-1.43
		c-1.05-1.37-1.57-2.89-0.96-4.64c0.34-0.98,1.02-1.9,1.64-2.43c1.5-1.29,3.34-1.49,5.17-1.69c1.36-0.15,2.7,0.2,4.04,0.47
		c2.34,0.47,3.98,1.8,5.15,3.83c0.72,1.23,0.89,2.63,1.35,3.93c0.56,0,1.11,0.04,1.64-0.01
		C189.76,231.23,190.3,231.09,190.95,230.98z M110.83,220.57c0,10.62,0,21.14,0,31.67c1.49,0,2.93,0,4.45,0c0-0.42,0-0.83,0-1.24
		c0-5.12-0.02-10.24,0.01-15.35c0.01-1.46-0.21-2.94,0.23-4.39c0.17-0.56,0.19-1.17,0.39-1.71c0.66-1.74,1.54-3.28,3.12-4.45
		c1.72-1.27,3.58-1.89,5.65-2.04c0.55-0.04,1.09,0.07,1.65,0.21c1.26,0.31,2.12,0.58,2.95,1.02c1.21,0.65,2,1.68,2.64,2.83
		c0.54,0.96,1.08,3.33,1.08,4.17c-0.01,6.57,0,13.15,0,19.72c0,0.41,0,0.81,0,1.27c1.55-0.01,3.02,0.01,4.5-0.01
		c0-6.74,0.01-13.35-0.01-19.97c0-1.05,0.04-2.09-0.2-3.15c-0.34-1.49-0.65-2.95-1.37-4.31c-0.84-1.56-1.75-2.55-3.09-3.53
		c-0.34-0.25-0.71-0.51-1.1-0.65c-1.63-0.59-3.25-1.22-5.03-1.11c-0.37,0.02-0.75,0.04-1.12,0c-1.48-0.18-2.88,0.28-4.16,0.81
		c-2.61,1.08-4.75,2.8-6.12,5.65c0-1.96,0-3.68,0-5.43C113.76,220.57,112.32,220.57,110.83,220.57z M160.71,220.51
		c-3.13,0-6.15,0-9.22,0c0-2.9,0-5.76,0-8.63c-0.67-0.6-1.44-0.19-2.22-0.36c-0.18,0.45-0.46,0.87-0.5,1.31
		c-0.13,1.38-0.53,2.7-0.78,4.05c-0.16,0.87-0.44,1.71-0.91,2.49c-0.32,0.53-0.67,0.92-1.23,1.23c-1.12,0.62-2.33,0.87-3.52,0.99
		c-0.13,0.13-0.22,0.22-0.29,0.29c0,0.63,0,1.24,0,1.94c1.67,0,3.32,0,4.96,0c0,7.7,0.01,15.31-0.01,22.92
		c0,1.21,0.59,2.27,0.78,3.42c1.1,1.73,2.64,2.84,4.69,3.08c1.11,0.13,2.25,0.07,3.36,0c0.57-0.03,1.14-0.24,1.7-0.39
		c1.57-0.41,2.94-1.21,4.23-2.21c-0.08-1.04,0.09-2.09-0.12-3.25c-1.31,0.85-2.54,1.58-3.97,1.87c-1.99,0.39-2.6,0.38-4.5,0.01
		c-0.74-0.61-1.33-1.31-1.6-2.14c0-7.81,0-15.57,0-23.37c3.08,0,6.11,0,9.16,0C160.71,222.69,160.71,221.66,160.71,220.51z
		 M53.63,220.57c0,10.61,0,21.13,0,31.64c1.51,0,2.98,0,4.46,0c0-5.96-0.01-11.86,0.01-17.77c0-0.84,0.16-1.68,0.24-2.52
		c0.51-0.3-0.01-0.99,0.5-1.29c-0.13-0.47,0.12-0.86,0.29-1.25c0.19-0.42,0.52-0.78,0.68-1.21c0.59-1.58,1.75-2.67,3.1-3.54
		c0.85-0.55,1.81-0.93,2.89-0.84c0.58,0.05,1.16,0.03,1.75,0c0.94-0.05,1.79,0.19,2.59,0.68c0.32,0.19,0.7,0.27,1.03,0.39
		c0.35-0.47,0.04-0.94,0.3-1.38c0.2-0.34,0.06-0.88,0.12-1.32c0.06-0.42,0.17-0.83,0.26-1.21c-0.38-0.24-0.71-0.44-1.04-0.65
		c-1.44-0.94-4.42-0.95-6.26-0.35c-2.11,0.69-3.34,1.95-4.71,3.69c-0.69,0.88-1.17,1.88-1.73,2.88c0-1.97,0-3.95,0-5.94
		C56.58,220.57,55.13,220.57,53.63,220.57z"/>
	<path d="M79.84,6.44c0.31-0.34,0.59-0.65,0.85-0.93c10.82,0,21.6,0,32.5,0c0.33,0.39,0.71,0.84,1.09,1.29c0,10.07,0,20.1,0,30.12
		c0,9.98,0,19.97,0,29.99c43.86,0,87.67,0,131.49,0c0.46,0.37,0.9,0.72,1.28,1.02c0.11,0.38,0.19,0.68,0.3,1.07
		c-0.06,0.18-0.17,0.47-0.34,0.95c-0.16,0.14-0.46,0.41-0.87,0.77c-43.83,0-87.82,0-131.83,0c0,9.86,0,19.67,0,29.42
		c-0.32,0.68-0.66,1.26-1.39,1.46c-0.92,0.24-1.57-0.23-2.2-0.87c-10-10.02-20.01-20.02-30.02-30.04c-9.23,0-18.47,0-27.75,0
		c-0.08,0.1-0.19,0.23-0.35,0.42c0,0.32,0,0.73,0,1.14c0,8.99-0.01,17.98,0.01,26.97c0,1.11-0.26,1.98-1.59,2.42
		c-10.36,0-20.93,0-31.57,0c-0.39-0.31-0.83-0.66-1.28-1.01c0-21.12,0-42.21,0-63.34c0.32-0.32,0.68-0.68,1.06-1.06
		c10.7,0,21.43,0,32.22,0c0.52,0.24,1.04,0.57,1.29,1.22c0.07,0.18,0.28,0.3,0.43,0.45c8.65,8.65,17.31,17.31,25.95,25.96
		c0.11,0.11,0.15,0.27,0.22,0.41c0.07-0.04,0.15-0.09,0.22-0.13c0-0.41,0-0.81,0-1.22c0-17.77,0-35.55,0-53.32
		C79.58,8.54,79.42,7.43,79.84,6.44z M83.58,68.4c8.9,8.83,17.81,17.68,26.72,26.52c0.02,0.02,0.08,0,0.24,0c0-1.23,0-2.47,0-3.7
		c0-1.25,0-2.5,0-3.74c0-1.25,0-2.5,0-3.74s0-2.5,0-3.74s0-2.5,0-3.74c0-1.21,0.03-2.41-0.01-3.62c-0.05-1.23,0.05-2.45-0.09-3.69
		c-0.13-1.18,0.07-2.39,0.09-3.59c0.02-1.25,0.01-2.5,0.01-3.74s0-2.5,0-3.74c0-1.25,0-2.5,0-3.74c0-1.25,0-2.5,0-3.74
		c0-1.25,0-2.5,0-3.74c0-1.25,0-2.5,0-3.74s0-2.5,0-3.74c0-1.25,0-2.5,0-3.74c0-1.25,0-2.5,0-3.74c0-1.21,0-2.41,0-3.62
		c0-1.25,0-2.5,0-3.74c0-1.25,0-2.5,0-3.74c0-1.25,0-2.5,0-3.74c0-1.25,0-2.5,0-3.74c0-1.24,0-2.48,0-3.74c-9.02,0-17.98,0-26.96,0
		C83.58,28.98,83.58,48.62,83.58,68.4z M48.84,40.01c-9.04,0-17.97,0-26.91,0c-0.18,4.25-0.1,56.79,0.08,57.86
		c8.94,0,17.88,0,26.83,0C48.84,78.57,48.84,59.32,48.84,40.01z M52.88,66.9c7.99,0,15.95,0,24.03,0
		c-8.01-8.01-15.93-15.94-23.86-23.86c-0.02-0.02-0.07-0.06-0.09-0.05c-0.04,0.01-0.06,0.05-0.08,0.08
		C52.88,51.01,52.88,58.94,52.88,66.9z"/>
	<path d="M18.93,130.9c3.03,0,6.03,0,9.06,0c0.53,0.77,1.08,1.57,1.65,2.37c0.74,1.03,1.49,2.05,2.23,3.07
		c0.76,1.06,1.52,2.12,2.27,3.18c0.57,0.8,1.11,1.62,1.68,2.42c0.87,1.22,1.79,2.42,2.64,3.65c1.49,2.17,3.03,4.31,4.53,6.48
		c1.19,1.72,2.47,3.37,3.63,5.12c0.72,1.09,1.57,2.1,2.35,3.15c0.18,0.24,0.32,0.51,0.62,1.01c0-10.32,0-20.37,0-30.45
		c2.86,0,5.64,0,8.46,0c0,15.3,0,30.59,0,45.9c-2.47,0-4.92,0-7.3,0c-0.39-0.55-0.76-1.06-1.12-1.57c-1.01-1.41-2.09-2.77-3.04-4.23
		c-0.73-1.13-1.63-2.16-2.43-3.24c-0.78-1.05-1.53-2.11-2.3-3.17c-0.77-1.06-1.53-2.11-2.3-3.17c-0.98-1.34-1.97-2.68-2.95-4.02
		c-0.76-1.05-1.5-2.13-2.26-3.18c-0.98-1.34-2.03-2.65-2.97-4.02c-0.76-1.1-1.59-2.16-2.33-3.27c-0.48-0.71-1.03-1.37-1.67-2.21
		c0,10.81,0,21.44,0,32.09c-2.86,0-5.64,0-8.46,0C18.93,161.54,18.93,146.28,18.93,130.9z"/>
	<path d="M166.17,176.83c-2.87,0-5.7,0-8.58,0c-0.33-1.53-0.8-3.04-1.26-4.55c-0.43-1.41-0.68-2.88-1.09-4.3
		c-0.37-1.27-0.69-2.54-1.04-3.81c-0.3-1.08-0.64-2.15-0.93-3.23c-0.29-1.09-0.55-2.19-0.83-3.28c-0.13-0.49-0.27-0.97-0.43-1.45
		c-0.07-0.22-0.21-0.42-0.34-0.68c-0.51,1.59-0.84,3.14-1.33,4.65c-0.46,1.4-0.71,2.87-1.08,4.3c-0.24,0.94-0.53,1.86-0.8,2.79
		c-0.31,1.08-0.64,2.15-0.94,3.23c-0.31,1.12-0.68,2.23-0.88,3.37c-0.15,0.85-0.63,1.61-0.63,2.5c0,0.13-0.17,0.26-0.28,0.42
		c-2.86,0-5.72,0-8.58,0c-0.55-1.77-1.1-3.58-1.68-5.38c-0.53-1.65-1.17-3.28-1.62-4.94c-0.49-1.8-1.16-3.53-1.66-5.32
		c-0.46-1.67-1.15-3.29-1.6-4.95c-0.42-1.53-1.04-3-1.39-4.55c-0.43-1.89-1.33-3.63-1.68-5.55c-0.09-0.48-0.34-0.92-0.54-1.44
		c2.96,0,5.82,0,8.74,0c0.38,1.08,0.79,2.19,1.07,3.36c0.26,1.09,0.69,2.13,1.02,3.2c0.17,0.56,0.24,1.14,0.46,1.68
		c0.21,0.54,0.36,1.1,0.57,1.64c0.22,0.55,0.3,1.14,0.48,1.68c0.32,0.99,0.67,1.97,0.98,2.97c0.26,0.85,0.47,1.72,0.76,2.56
		c0.28,0.81,0.62,1.58,0.75,2.44c0.1,0.67,0.48,1.29,0.79,2.06c0.53-1.66,0.82-3.22,1.35-4.71c0.26-0.73,0.39-1.51,0.58-2.26
		c0.33-1.32,0.63-2.65,1.01-3.95c0.44-1.53,0.82-3.07,1.26-4.6c0.37-1.26,0.68-2.55,1.05-3.81c0.16-0.56,0.42-1.09,0.44-1.7
		c0.01-0.21,0.2-0.42,0.29-0.6c2.4,0,4.73,0,7.13,0c0.46,2.38,1.43,4.65,1.81,7.08c0.6,1.03,0.58,2.25,1.01,3.33
		c0.42,1.05,0.39,2.23,0.99,3.21c0.22,2.11,1.2,4.03,1.52,6.12c0.09,0.6,0.4,1.16,0.62,1.75c0.53-1.1,0.76-2.28,1.11-3.42
		c0.53-1.7,1.08-3.38,1.61-5.08c0.39-1.25,0.72-2.53,1.15-3.77c0.42-1.2,0.62-2.48,1.24-3.61c0.14-1.61,1.02-3.02,1.26-4.6
		c0.04-0.3,0.2-0.58,0.34-0.95c2.63,0,5.35,0,8.07,0c-0.35,1.33-0.92,2.58-1.21,3.94c-0.23,1.04-0.64,2.06-1,3.08
		c-0.52,1.49-0.93,3.02-1.45,4.52c-0.77,2.18-1.43,4.4-2.11,6.62c-0.51,1.66-1.18,3.28-1.59,4.95c-0.44,1.78-1.2,3.44-1.61,5.22
		c-0.22,0.97-0.63,1.9-0.94,2.85C166.37,176.18,166.27,176.51,166.17,176.83z"/>
	<path d="M199.03,156.59c-0.13-1.05-0.25-1.97-0.37-2.88c-0.58-1.62-1.68-2.73-3.34-3.27c-0.62-0.21-1.36,0.19-1.98-0.3
		c-1.03,0.45-2.23,0.2-3.24,0.91c-0.97,0.68-1.95,1.69-2.41,2.87c-0.22,0.57-0.52,1.12-0.81,1.73c-0.43-0.14-0.9,0.18-1.28-0.25
		c-0.04-0.04-0.16-0.04-0.23-0.03c-1.23,0.18-2.42-0.27-3.64-0.27c-0.91,0-1.82-0.18-2.79-0.29c0.42-1.32,0.66-2.65,1.26-3.86
		c0.86-1.74,2.05-3.17,3.61-4.37c1.43-1.1,3.01-1.77,4.66-2.33c0.62-0.21,1.32-0.26,1.96-0.41c1.68-0.37,3.35-0.21,5.02-0.19
		c2.5,0.04,4.87,0.73,7.02,2c1.28,0.76,2.37,1.82,3.18,3.11c0.39,0.62,0.71,1.29,0.97,1.97c0.24,0.65,0.39,1.35,0.58,2.01
		c0.22,0.77,0.21,1.52,0.21,2.28c0.01,4.12,0.01,8.24,0,12.36c0,0.85,0.03,1.68,0.24,2.52c0.19,0.75,0.5,1.31,1.31,1.46
		c0.22,0.04,0.44,0.13,0.71,0.21c0.77-0.42,1.84-0.05,2.68-0.76c0,1.57,0,3.1,0,4.73c-1,1.05-2.37,1.54-3.86,1.82
		c-0.71,0.13-1.41,0.23-2.14,0.26c-1.8,0.07-3.33-0.65-4.66-1.69c-0.82-0.64-1.39-1.6-1.76-2.62c-0.11-0.32-0.22-0.64-0.36-1.06
		c-0.64,1.16-1.56,1.93-2.42,2.73c-0.8,0.75-1.82,1.17-2.81,1.63c-1.07,0.5-2.25,0.57-3.34,0.97c-0.18,0.07-0.41,0.01-0.62,0.01
		c-0.96,0-1.91-0.01-2.87,0c-1.17,0.02-2.32-0.19-3.4-0.54c-1.05-0.33-2.11-0.83-2.99-1.49c-1.45-1.09-2.47-2.53-2.95-4.37
		c-0.29-1.11-0.15-2.19-0.21-3.28c-0.1-1.99,0.78-3.58,2.06-5.01c1.53-1.7,3.51-2.6,5.62-3.31c1.63-0.54,3.28-0.97,4.97-1.28
		c0.47-0.09,1.05-0.02,1.37-0.25c0.49-0.36,1.05,0.01,1.49-0.36c0.38-0.32,1,0.16,1.35-0.35c0.96,0.02,1.87-0.29,2.79-0.5
		C198.04,156.77,198.46,156.7,199.03,156.59z M198.95,161.97c-0.78,0.44-1.5,0.41-2.18,0.59c-1.12,0.3-2.27,0.57-3.42,0.76
		c-1.43,0.23-2.83,0.59-4.18,1.06c-1.93,0.68-2.8,2.01-2.72,3.98c0.03,0.79,0.73,1.67,1.38,2.28c0.91,0.86,2.1,0.55,3.11,0.93
		c0.2,0.07,0.5-0.22,0.76-0.21c1.18,0.01,2.19-0.42,3.21-0.98c1.25-0.68,2.08-1.67,2.78-2.86
		C198.67,165.86,198.95,164.07,198.95,161.97z"/>
	<path d="M64.09,160.89c0-0.69,0.01-1.19,0-1.68c-0.03-1.25,0.42-2.4,0.63-3.61c0.25-1.49,1.03-2.74,1.64-4.06
		c0.31-0.67,0.74-1.3,1.27-1.85c0.33-0.34,0.55-0.79,0.9-1.12c1.11-1.03,2.3-1.93,3.6-2.74c1.51-0.95,3.21-1.31,4.82-1.95
		c0.78,0.14,1.49-0.29,2.26-0.27c0.91,0.03,1.83,0.01,2.74,0.01c0.58,0,1.16,0,1.75,0c0.38,0.57,1.15-0.06,1.54,0.5
		c1.14-0.03,2.14,0.42,3.11,0.92c0.96,0.49,2.05,0.77,2.84,1.58c0.73,0.12,1.01,0.86,1.62,1.19c0.56,0.31,1.11,0.84,1.35,1.53
		c1.33,1.15,1.85,2.79,2.65,4.27c0.41,0.76,0.49,1.62,0.75,2.44c0.72,2.3,0.6,4.68,0.46,7.03c-0.1,1.69-0.57,3.37-1.25,4.96
		c-0.91,2.09-2.13,3.97-3.8,5.53c-0.81,0.75-1.72,1.38-2.68,1.95c-1.2,0.71-2.45,1.33-3.84,1.58c-0.25,0.48-0.75,0.14-1.11,0.33
		c-0.3,0.16-0.71,0.07-1.05,0.17c-1.49,0.45-3.01,0.22-4.52,0.22c-2.06,0-4.01-0.57-5.93-1.33c-2.19-0.87-4.03-2.21-5.61-3.91
		c-0.69-0.74-1.21-1.65-1.78-2.5c-0.8-1.2-1.3-2.53-1.69-3.92c-0.2-0.72-0.28-1.48-0.47-2.18C63.99,162.87,64.2,161.79,64.09,160.89
		z M80.97,171.09c2.35,0.14,4.3-0.7,5.8-2.36c1.35-1.5,1.96-3.42,2.29-5.4c0.14-0.83-0.2-1.71,0.25-2.52c0.04-0.06,0.04-0.19,0-0.24
		c-0.44-0.63-0.18-1.35-0.24-2.02c-0.03-0.28,0.02-0.58-0.06-0.85c-0.21-0.74-0.44-1.48-0.7-2.2c-0.62-1.71-1.54-3.2-3.18-4.12
		c-0.54-0.3-1.1-0.61-1.69-0.74c-1.81-0.39-3-0.37-4.78-0.01c-0.34,0.07-0.72,0.11-1,0.3c-1.05,0.71-2.13,1.36-2.82,2.52
		c-1,1.68-1.7,3.42-1.77,5.38c-0.02,0.59,0.17,1.22-0.24,1.77c-0.06,0.08-0.06,0.31,0,0.36c0.4,0.33,0.23,0.77,0.23,1.15
		c0,1,0.08,1.97,0.47,2.93c0.13,0.32,0.11,0.78,0.29,1.13c0.4,0.75,0.8,1.5,1.25,2.23c0.55,0.9,1.92,1.8,3.02,2.22
		C79.05,170.97,80.01,171.16,80.97,171.09z"/>
	<path d="M211.55,144.65c3.24,0,6.27,0,9.4,0c0.07,0.25,0.11,0.53,0.22,0.76c0.69,1.42,1.2,2.92,1.79,4.38
		c0.67,1.68,1.4,3.33,1.97,5.05c0.32,0.98,0.84,1.9,1.2,2.87c0.72,1.99,1.59,3.92,2.31,5.91c0.32,0.9,0.77,1.76,1.06,2.68
		c0.03,0.11,0.17,0.18,0.29,0.3c0.46-1.1,0.95-2.17,1.36-3.27c0.39-1.05,0.82-2.07,1.24-3.11c0.55-1.35,1-2.75,1.52-4.11
		c0.37-0.97,0.88-1.89,1.21-2.87c0.47-1.39,1.16-2.69,1.55-4.1c0.27-0.96,0.73-1.86,1.11-2.78c0.23-0.57,0.47-1.14,0.71-1.72
		c2.85,0,5.71,0,8.65,0c-0.76,1.68-1.44,3.33-2.1,4.99c-0.64,1.61-1.49,3.14-1.9,4.83c-0.83,1.14-1.16,2.52-1.7,3.79
		c-0.71,1.7-1.43,3.4-2.09,5.13c-0.44,1.14-0.93,2.28-1.45,3.39c-0.44,0.94-0.8,1.91-1.19,2.88c-0.37,0.93-0.68,1.91-1.12,2.78
		c-0.63,1.24-1.12,2.55-1.65,3.82c-0.71,1.7-1.49,3.37-2.08,5.13c-0.26,0.79-0.68,1.54-0.99,2.33c-0.28,0.72-0.8,1.37-0.93,2.1
		c-0.14,0.76-0.78,1.26-0.82,2.05c-0.01,0.31-0.32,0.61-0.51,0.93c-2.8,0-5.57,0-8.45,0c0.02-0.22-0.01-0.46,0.07-0.66
		c0.29-0.71,0.63-1.4,0.91-2.12c0.27-0.68,0.7-1.3,0.75-2.06c0.84-1.14,1.06-2.55,1.72-3.78c0.54-1.01,0.86-2.14,1.3-3.28
		c-0.8-1.61-1.33-3.38-2.13-5.06c-0.48-1-0.89-2.05-1.29-3.08c-0.39-1-0.77-2.03-1.16-3.02c-0.47-1.17-0.96-2.35-1.45-3.52
		c-0.69-1.63-1.36-3.27-2.02-4.91c-0.44-1.1-0.96-2.18-1.39-3.29c-0.68-1.76-1.41-3.5-2.12-5.24
		C212.82,147.44,212.37,146.04,211.55,144.65z"/>
	<path d="M22.02,249.67c-1.82-0.58-3.07-1.53-3.62-3.2c-0.53-1.63-0.44-3.25,0.51-4.69c0.6-0.91,1.35-1.72,2.34-2.27
		c0.41-0.22,0.78-0.54,1.11-0.79c-0.7-0.82-1.44-1.54-2-2.38c-0.51-0.76-1.01-1.61-1.19-2.49c-0.26-1.24-0.66-2.49-0.53-3.78
		c0.17-1.59,0.43-3.18,1.19-4.62c0.2-0.38,0.34-0.81,0.63-1.11c1.37-1.41,2.66-2.93,4.6-3.64c1.06-0.39,2.14-0.67,3.23-0.94
		c1.59-0.39,3.19-0.27,4.77-0.2c2.37,0.1,4.62,0.75,6.59,2.15c0.59,0.41,1.13,0.88,1.74,1.36c1.9-2.55,4.34-4.1,7.67-4.06
		c0,1.43,0,2.79,0,4.23c-0.82,0.09-1.71,0.1-2.56,0.31c-1.23,0.3-2.5,0.56-3.67,1.26c0.85,1.24,1.3,2.64,1.46,4
		c0.22,1.82,0.14,3.67-0.55,5.48c-0.91,2.4-2.49,4.07-4.73,5.24c-1.47,0.77-2.99,1.25-4.63,1.52c-0.42,0.07-0.84,0.21-1.28,0.21
		c-1.41,0-2.84,0.11-4.24-0.05c-0.71-0.08-1.46-0.23-2.17-0.46c-0.69-0.23-1.37-0.5-2.06-0.74c-0.07-0.03-0.17,0-0.29,0
		c-0.78,0.49-1.57,1.02-2.02,1.92c-0.29,0.57-0.51,1.15-0.45,1.81c0.02,0.24,0.46,1.64,0.61,1.74c0.42,0.28,0.84,0.63,1.31,0.75
		c0.69,0.18,1.42,0.26,2.14,0.26c4.53,0.02,9.07,0,13.6,0.02c1.63,0.01,3.14,0.51,4.64,1.15c1.51,0.64,2.6,1.69,3.46,3.02
		c0.55,0.85,0.89,1.82,0.96,2.84c0.05,0.75-0.03,1.5,0.02,2.25c0.09,1.36-0.35,2.59-1.03,3.69c-0.6,0.97-1.28,1.89-2.31,2.56
		c-2.23,1.43-2.52,1.66-5.08,2.51c-1,0.33-1.99,0.73-3.08,0.71c-0.49-0.01-0.87,0.36-1.4,0.27c-0.41-0.07-0.87-0.13-1.28,0.21
		c-0.15,0.12-0.48,0.02-0.73,0.02c-1.54,0-3.08,0.03-4.62-0.01c-0.63-0.02-1.26,0.14-1.91-0.2c-0.49-0.25-1.21,0.13-1.75-0.29
		c-1.29,0.01-2.41-0.59-3.61-0.92c-1.12-0.31-2.02-0.97-3-1.51c-1.03-0.57-1.6-1.56-2.36-2.38c-0.03-0.03-0.05-0.06-0.06-0.1
		c-1.02-2.28-1.15-4.94,0.28-7.25c1-1.61,2.54-2.41,4.2-3.07C21.2,249.9,21.54,249.82,22.02,249.67z M32.37,250.52
		c-1.75,0-3.49-0.02-5.24,0.01c-0.68,0.01-1.39-0.19-2.02,0.24c-1.07-0.04-1.92,0.53-2.85,0.96c-1.01,0.47-1.41,1.39-1.84,2.23
		c-0.29,0.57-0.23,1.32-0.28,2c-0.05,0.68,0.26,1.29,0.45,1.93c0.12,0.42,0.2,0.87,0.49,1.17c0.82,0.88,1.62,1.79,2.82,2.22
		c0.55,0.2,1.09,0.38,1.64,0.56c1.3,0.41,2.63,0.54,3.96,0.66c0.78,0.07,1.58,0.06,2.37,0c0.8-0.06,1.58,0.12,2.41-0.19
		c0.68-0.25,1.49-0.13,2.26-0.26c1.59-0.27,4.11-0.95,5.22-1.84c0.74-0.6,1.41-1.29,1.89-2.19c0.4-0.76,0.49-1.56,0.68-2.34
		c0.21-0.89-0.03-1.83-0.47-2.65c-0.69-1.27-1.9-1.96-3.23-2.21c-0.93-0.17-1.89-0.36-2.88-0.32
		C35.95,250.57,34.16,250.52,32.37,250.52z M31.74,222.58c-0.41,0.1-0.66,0.2-0.92,0.21c-0.72,0.03-1.44-0.01-2.15,0.24
		c-0.58,0.2-2.36,1.01-2.79,1.4c-0.81,0.73-1.39,1.62-1.86,2.6c-0.43,0.91-0.41,1.91-0.61,2.86c-0.2,0.92,0.12,1.85,0.24,2.76
		c0.03,0.26,0.16,0.51,0.24,0.77c0.59,1.9,1.88,3.27,3.62,4.04c1.19,0.53,2.54,0.87,3.91,0.82c0.64-0.02,1.27-0.13,1.9-0.21
		c1.32-0.16,2.54-0.53,3.59-1.31c0.8-0.6,1.52-1.29,1.99-2.24c0.63-1.26,0.92-2.58,0.98-3.97c0.01-0.29,0.03-0.59-0.01-0.87
		c-0.04-0.3-0.23-0.6-0.23-0.9c0.02-1.44-0.67-2.61-1.54-3.6c-1.36-1.54-3.15-2.33-5.24-2.4C32.46,222.78,32.03,222.91,31.74,222.58
		z"/>
	<path d="M105.77,248.8c0,0.81,0,1.59,0,2.37c-0.21,0.21-0.43,0.4-0.62,0.62c-0.79,0.93-1.82,1.2-2.99,1.24
		c-1.18,0.03-2.3-0.1-3.31-0.76c-0.65-0.42-1.14-0.96-1.57-1.62c-0.77-1.18-1.01-2.51-1.29-3.82c-0.44,0.57-0.92,1.12-1.33,1.72
		c-0.84,1.25-2.11,1.98-3.3,2.82c-0.98,0.7-2.1,0.97-3.18,1.38c-1.38,0.52-2.83,0.52-4.28,0.52c-1.17,0-2.32-0.13-3.41-0.52
		c-1.33-0.48-2.64-1.05-3.61-2.1c-1.02-1.1-1.7-2.38-2.08-3.88c-0.33-1.32-0.31-2.64-0.14-3.89c0.15-1.14,0.57-2.32,1.43-3.27
		c0.54-0.58,1.09-1.14,1.69-1.63c0.75-0.62,1.6-1.09,2.51-1.46c0.93-0.37,1.81-0.85,2.79-1.11c0.6-0.16,1.18-0.39,1.78-0.52
		c0.61-0.13,1.24-0.25,1.84-0.4c0.9-0.23,1.83-0.33,2.72-0.66c0.47-0.17,1-0.12,1.51-0.26c1.09-0.3,2.25-0.3,3.3-0.79
		c0.62,0.15,1.16-0.23,1.84-0.3c0-0.77,0.07-1.56-0.02-2.33c-0.1-0.85-0.23-1.73-0.54-2.52c-0.34-0.86-0.79-1.73-1.41-2.39
		c-0.74-0.79-1.7-1.39-2.77-1.7c-1.19-0.35-2.41-0.63-3.66-0.5c-0.7,0.07-1.42,0.17-2.08,0.39c-0.91,0.31-1.87,0.61-2.63,1.16
		c-0.94,0.69-1.74,1.59-2.37,2.61c-0.59,0.96-0.9,2.04-1.32,3.04c-1.22-0.26-2.4-0.51-3.61-0.76c-0.26-0.87,0.24-1.64,0.52-2.35
		c0.77-1.96,2.04-3.64,3.68-4.95c1.27-1.02,2.74-1.75,4.35-2.15c1-0.25,1.99-0.54,3.04-0.5c0.75,0.03,1.5,0.01,2.25,0.01
		c1.25,0,3.88,0.47,5.04,1.09c1.66,0.89,3.25,1.9,4.06,3.73c0.93,0.89,0.97,2.18,1.43,3.28c0.31,0.74,0.3,1.65,0.31,2.49
		c0.02,5.53,0.01,11.07,0.01,16.61c0,0.44,0.01,0.85,0.23,1.28c0.3,0.59,0.64,1.11,1.29,1.22c0.59,0.1,1.12,0.55,1.83,0.11
		C104.21,249.01,104.98,248.99,105.77,248.8z M96.06,235.94c-1.17,0.27-2.23,0.52-3.29,0.76c-1.21,0.28-2.42,0.65-3.65,0.8
		c-0.98,0.12-1.88,0.66-2.91,0.53c-0.68,0.51-1.56,0.43-2.31,0.75c-0.75,0.31-1.51,0.59-2.2,1.01c-1.76,1.05-2.46,2.27-2.63,4.36
		c-0.04,0.53,0.13,1.01,0.23,1.52c0.16,0.83,0.53,1.57,1.02,2.19c0.99,1.24,2.41,1.78,3.93,1.88c0.95,0.06,1.96,0.25,2.89-0.22
		c2.17-0.18,4.23-1.51,5.48-2.7c0.79-0.75,1.62-2.11,2.31-3.52c0.77-1.56,0.87-3.24,1.1-4.9C96.14,237.66,96.06,236.9,96.06,235.94z
		"/>
	<path d="M112.29,150.32c0.63-1.55,1.32-2.75,2.38-3.72c0.91-0.84,1.71-1.82,2.95-2.24c0.4-0.13,0.77-0.38,1.17-0.48
		c0.58-0.14,1.17-0.22,1.77-0.25c0.66-0.04,1.34-0.06,2,0c1.19,0.12,2.34,0.37,3.22,1.36c0.12,1.64-0.44,3.29-0.24,4.97
		c-0.46,1-0.13,2.08-0.3,3.16c-0.78-0.08-1.28-0.84-2.07-0.76c-0.37-0.45-0.99-0.14-1.43-0.48c-0.18-0.14-0.56-0.02-0.86-0.02
		c-0.58,0-1.17,0.01-1.75,0c-1.49-0.03-2.78,0.54-3.88,1.46c-1.31,1.09-2.14,2.49-2.47,4.22c-0.25,1.3-0.49,2.58-0.48,3.92
		c0.02,4.7,0.01,9.4,0.01,14.11c0,0.41,0,0.82,0,1.25c-2.93,0-5.79,0-8.69,0c0-10.72,0-21.43,0-32.17c2.89,0,5.75,0,8.69,0
		C112.29,146.46,112.29,148.27,112.29,150.32z"/>
	<path d="M190.95,230.98c-0.66,0.12-1.2,0.25-1.75,0.3c-0.54,0.05-1.08,0.01-1.64,0.01c-0.46-1.3-0.63-2.7-1.35-3.93
		c-1.18-2.02-2.82-3.36-5.15-3.83c-1.34-0.27-2.68-0.61-4.04-0.47c-1.82,0.2-3.67,0.4-5.17,1.69c-0.62,0.53-1.3,1.45-1.64,2.43
		c-0.61,1.75-0.09,3.28,0.96,4.64c0.61,0.79,1.58,1.17,2.51,1.43c0.87,0.24,1.76,0.41,2.65,0.57c1.19,0.22,2.43,0.22,3.58,0.68
		c0.29,0.12,0.66-0.01,0.99,0.03c0.26,0.03,0.51,0.23,0.77,0.23c1.28,0.01,2.48,0.46,3.67,0.82c1.41,0.42,2.77,1.1,3.86,2.11
		c0.98,0.91,1.65,2.08,2,3.4c0.36,1.32,0.38,2.7,0.21,4.01c-0.21,1.59-0.81,3.08-1.96,4.3c-0.84,0.89-1.75,1.69-2.82,2.26
		c-0.87,0.47-1.84,0.8-2.8,1.08c-2.34,0.69-4.77,0.61-7.15,0.47c-1.26-0.08-2.53-0.39-3.76-0.83c-1.18-0.42-2.28-0.98-3.31-1.64
		c-1.86-1.2-3.49-3.63-4.14-5.86c-0.16-0.56-0.39-1.1-0.48-1.67c-0.08-0.52-0.02-1.07-0.02-1.59c0.72-0.31,1.42-0.37,2.15-0.37
		c0.38,0,0.76-0.16,1.13-0.25c0.36,0.37,0.42,0.8,0.49,1.28c0.21,1.36,0.81,2.57,1.56,3.72c0.66,1,1.57,1.66,2.55,2.27
		c0.76,0.48,1.6,0.76,2.46,1c0.46,0.13,0.91,0.24,1.4,0.25c0.43,0.01,0.84,0.19,1.27,0.23c0.5,0.04,1,0.04,1.5,0
		c1.77-0.14,3.53-0.4,5.09-1.27c1.24-0.69,2.07-1.7,2.44-3.21c0.3-1.23,0.06-2.26-0.33-3.32c-0.42-1.16-1.44-1.78-2.52-2.17
		c-1.35-0.49-2.72-0.99-4.2-1.02c-0.46-0.36-1.05-0.1-1.51-0.28c-0.48-0.19-0.97-0.1-1.4-0.24c-1.02-0.33-2.08-0.4-3.11-0.61
		c-1.03-0.21-2.01-0.59-3.01-0.89c-0.65-0.2-1.34-0.53-1.81-1c-0.59-0.58-1.52-0.81-1.78-1.72c-0.84-0.55-0.87-1.56-1.28-2.35
		c-0.23-0.44-0.32-1.07-0.31-1.6c0.01-0.92-0.07-1.83,0.15-2.78c0.21-0.88,0.39-1.76,0.83-2.54c0.78-1.41,1.91-2.55,3.29-3.34
		c1.56-0.9,2.18-1.3,4.69-1.63c0.3-0.04,0.54-0.26,0.9-0.25c1.5,0.03,3.01-0.12,4.49,0.06c1.15,0.14,2.38,0.23,3.42,0.74
		c1.03,0.51,2.12,0.94,3.06,1.68c1.15,0.91,1.89,1.64,2.63,2.9c0.8,1.37,1.42,2.77,1.5,4.38c0.01,0.26,0.19,0.51,0.23,0.77
		C190.99,230.35,190.95,230.64,190.95,230.98z"/>
	<path d="M110.83,220.57c1.49,0,2.93,0,4.46,0c0,1.75,0,3.47,0,5.43c1.37-2.85,3.51-4.58,6.12-5.65c1.28-0.53,2.68-0.99,4.16-0.81
		c0.37,0.05,0.75,0.03,1.12,0c1.79-0.11,3.41,0.52,5.03,1.11c0.39,0.14,0.76,0.4,1.1,0.65c1.35,0.98,2.25,1.97,3.09,3.53
		c0.73,1.35,1.04,2.82,1.37,4.31c0.24,1.07,0.19,2.1,0.2,3.15c0.02,6.62,0.01,13.23,0.01,19.97c-1.47,0.02-2.94,0-4.5,0.01
		c0-0.45,0-0.86,0-1.27c0-6.57,0-13.15,0-19.72c0-0.84-0.54-3.21-1.08-4.17c-0.64-1.15-1.43-2.18-2.64-2.83
		c-0.83-0.44-1.7-0.71-2.95-1.02c-0.56-0.14-1.1-0.25-1.65-0.21c-2.07,0.16-3.93,0.78-5.65,2.04c-1.58,1.17-2.47,2.71-3.12,4.45
		c-0.2,0.54-0.22,1.15-0.39,1.71c-0.44,1.45-0.22,2.93-0.23,4.39c-0.03,5.12-0.01,10.24-0.01,15.35c0,0.41,0,0.81,0,1.24
		c-1.52,0-2.97,0-4.45,0C110.83,241.71,110.83,231.19,110.83,220.57z"/>
	<path d="M160.71,220.51c0,1.16,0,2.18,0,3.25c-3.05,0-6.07,0-9.16,0c0,7.8,0,15.56,0,23.37c0.27,0.84,0.86,1.54,1.6,2.14
		c1.91,0.37,2.51,0.38,4.5-0.01c1.42-0.28,2.66-1.02,3.97-1.87c0.22,1.16,0.04,2.21,0.12,3.25c-1.29,1.01-2.66,1.8-4.23,2.21
		c-0.56,0.15-1.13,0.36-1.7,0.39c-1.12,0.06-2.26,0.13-3.36,0c-2.04-0.24-3.59-1.35-4.69-3.08c-0.19-1.16-0.78-2.21-0.78-3.42
		c0.01-7.61,0.01-15.22,0.01-22.92c-1.64,0-3.29,0-4.96,0c0-0.7,0-1.31,0-1.94c0.07-0.07,0.16-0.16,0.29-0.29
		c1.2-0.13,2.4-0.38,3.52-0.99c0.56-0.31,0.91-0.7,1.23-1.23c0.47-0.78,0.74-1.62,0.91-2.49c0.25-1.35,0.65-2.67,0.78-4.05
		c0.04-0.44,0.32-0.86,0.5-1.31c0.78,0.17,1.56-0.24,2.22,0.36c0,2.87,0,5.73,0,8.63C154.56,220.51,157.58,220.51,160.71,220.51z"/>
	<path d="M53.63,220.57c1.5,0,2.94,0,4.47,0c0,1.99,0,3.97,0,5.94c0.56-1,1.04-2,1.73-2.88c1.37-1.74,2.6-3,4.71-3.69
		c1.83-0.6,4.82-0.59,6.26,0.35c0.33,0.21,0.66,0.41,1.04,0.65c-0.08,0.37-0.2,0.79-0.26,1.21c-0.06,0.44,0.08,0.98-0.12,1.32
		c-0.26,0.44,0.05,0.9-0.3,1.38c-0.32-0.12-0.71-0.19-1.03-0.39c-0.8-0.49-1.65-0.72-2.59-0.68c-0.58,0.03-1.17,0.04-1.75,0
		c-1.08-0.09-2.05,0.3-2.89,0.84c-1.35,0.87-2.51,1.97-3.1,3.54c-0.16,0.43-0.5,0.79-0.68,1.21c-0.17,0.39-0.42,0.78-0.29,1.25
		c-0.51,0.3,0.01,0.99-0.5,1.29c-0.08,0.84-0.24,1.68-0.24,2.52c-0.02,5.9-0.01,11.81-0.01,17.77c-1.48,0-2.96,0-4.46,0
		C53.63,241.7,53.63,231.19,53.63,220.57z"/>
	<path class="st0" d="M83.58,68.4c0-19.78,0-39.42,0-59.1c8.98,0,17.94,0,26.96,0c0,1.26,0,2.5,0,3.74c0,1.25,0,2.5,0,3.74
		c0,1.25,0,2.5,0,3.74c0,1.25,0,2.5,0,3.74c0,1.25,0,2.5,0,3.74c0,1.21,0,2.41,0,3.62c0,1.25,0,2.5,0,3.74c0,1.25,0,2.5,0,3.74
		c0,1.25,0,2.5,0,3.74s0,2.5,0,3.74c0,1.25,0,2.5,0,3.74c0,1.25,0,2.5,0,3.74c0,1.25,0,2.5,0,3.74c0,1.25,0,2.5,0,3.74
		s0.02,2.5-0.01,3.74c-0.02,1.2-0.22,2.41-0.09,3.59c0.14,1.24,0.04,2.46,0.09,3.69c0.04,1.2,0.01,2.41,0.01,3.62
		c0,1.25,0,2.5,0,3.74s0,2.5,0,3.74s0,2.5,0,3.74c0,1.25,0,2.5,0,3.74c0,1.23,0,2.47,0,3.7c-0.16,0-0.22,0.02-0.24,0
		C101.39,86.08,92.48,77.23,83.58,68.4z"/>
	<path class="st0" d="M48.84,40.01c0,19.3,0,38.56,0,57.86c-8.96,0-17.89,0-26.83,0c-0.18-1.07-0.26-53.62-0.08-57.86
		C30.86,40.01,39.8,40.01,48.84,40.01z"/>
	<path class="st0" d="M52.88,66.9c0-7.96,0-15.89,0-23.83c0.02-0.02,0.05-0.06,0.08-0.08c0.02-0.01,0.06,0.03,0.09,0.05
		c7.93,7.93,15.85,15.85,23.86,23.86C68.83,66.9,60.87,66.9,52.88,66.9z"/>
	<path class="st0" d="M198.95,161.97c0,2.1-0.29,3.89-1.25,5.55c-0.69,1.19-1.53,2.18-2.78,2.86c-1.03,0.56-2.03,0.99-3.21,0.98
		c-0.26,0-0.56,0.29-0.76,0.21c-1.01-0.37-2.2-0.06-3.11-0.93c-0.65-0.61-1.35-1.49-1.38-2.28c-0.08-1.97,0.79-3.3,2.72-3.98
		c1.35-0.47,2.74-0.83,4.18-1.06c1.15-0.18,2.3-0.46,3.42-0.76C197.45,162.38,198.17,162.4,198.95,161.97z"/>
	<path class="st0" d="M80.97,171.09c-0.96,0.07-1.91-0.12-2.86-0.48c-1.1-0.42-2.47-1.33-3.02-2.22c-0.45-0.72-0.85-1.47-1.25-2.23
		c-0.18-0.35-0.16-0.8-0.29-1.13c-0.4-0.96-0.47-1.92-0.47-2.93c0-0.39,0.17-0.83-0.23-1.15c-0.06-0.05-0.06-0.28,0-0.36
		c0.4-0.55,0.21-1.18,0.24-1.77c0.08-1.97,0.77-3.71,1.77-5.38c0.69-1.16,1.78-1.81,2.82-2.52c0.27-0.19,0.66-0.23,1-0.3
		c1.78-0.35,2.97-0.38,4.78,0.01c0.59,0.13,1.15,0.44,1.69,0.74c1.64,0.91,2.56,2.41,3.18,4.12c0.26,0.72,0.49,1.46,0.7,2.2
		c0.07,0.27,0.03,0.57,0.06,0.85c0.07,0.67-0.2,1.39,0.24,2.02c0.04,0.06,0.04,0.18,0,0.24c-0.46,0.81-0.12,1.69-0.25,2.52
		c-0.33,1.98-0.94,3.9-2.29,5.4C85.27,170.39,83.32,171.24,80.97,171.09z"/>
	<path class="st0" d="M32.37,250.52c1.79,0,3.58,0.05,5.36-0.02c0.99-0.04,1.95,0.15,2.88,0.32c1.33,0.24,2.54,0.94,3.23,2.21
		c0.45,0.81,0.69,1.76,0.47,2.65c-0.18,0.78-0.28,1.58-0.68,2.34c-0.48,0.9-1.15,1.59-1.89,2.19c-1.11,0.9-3.63,1.57-5.22,1.84
		c-0.76,0.13-1.58,0.01-2.26,0.26c-0.83,0.3-1.61,0.13-2.41,0.19c-0.79,0.06-1.58,0.07-2.37,0c-1.33-0.13-2.66-0.25-3.96-0.66
		c-0.55-0.17-1.1-0.36-1.64-0.56c-1.19-0.43-1.99-1.35-2.82-2.22c-0.28-0.3-0.37-0.75-0.49-1.17c-0.18-0.64-0.5-1.24-0.45-1.93
		c0.05-0.67-0.01-1.43,0.28-2c0.43-0.85,0.83-1.77,1.84-2.23c0.92-0.43,1.78-1,2.85-0.96c0.63-0.43,1.34-0.23,2.02-0.24
		C28.88,250.5,30.63,250.52,32.37,250.52z"/>
	<path class="st0" d="M31.74,222.58c0.29,0.33,0.72,0.2,1.12,0.22c2.08,0.07,3.88,0.86,5.24,2.4c0.87,0.99,1.56,2.17,1.54,3.6
		c0,0.3,0.18,0.59,0.23,0.9c0.04,0.29,0.02,0.58,0.01,0.87c-0.06,1.39-0.35,2.7-0.98,3.97c-0.47,0.95-1.18,1.64-1.99,2.24
		c-1.05,0.78-2.26,1.15-3.59,1.31c-0.63,0.08-1.26,0.18-1.9,0.21c-1.37,0.05-2.71-0.29-3.91-0.82c-1.74-0.77-3.03-2.14-3.62-4.04
		c-0.08-0.26-0.21-0.51-0.24-0.77c-0.12-0.92-0.44-1.84-0.24-2.76c0.2-0.95,0.18-1.96,0.61-2.86c0.46-0.98,1.04-1.87,1.86-2.6
		c0.44-0.39,2.22-1.2,2.79-1.4c0.71-0.25,1.43-0.21,2.15-0.24C31.07,222.78,31.33,222.67,31.74,222.58z"/>
	<path class="st0" d="M96.06,235.94c0,0.96,0.08,1.72-0.02,2.45c-0.23,1.66-0.33,3.34-1.1,4.9c-0.7,1.42-1.53,2.78-2.31,3.52
		c-1.26,1.19-3.31,2.52-5.48,2.7c-0.93,0.47-1.93,0.29-2.89,0.22c-1.53-0.1-2.95-0.64-3.93-1.88c-0.5-0.62-0.86-1.36-1.02-2.19
		c-0.1-0.51-0.27-0.99-0.23-1.52c0.17-2.1,0.88-3.31,2.63-4.36c0.69-0.41,1.45-0.7,2.2-1.01c0.75-0.31,1.62-0.23,2.31-0.75
		c1.02,0.13,1.92-0.41,2.91-0.53c1.23-0.15,2.43-0.52,3.65-0.8C93.83,236.46,94.88,236.21,96.06,235.94z"/>
</g>
</svg>
