<?xml version="1.0" encoding="utf-8"?>
<!-- Generator: Adobe Illustrator 28.2.0, SVG Export Plug-In . SVG Version: 6.00 Build 0)  -->
<svg version="1.1" id="Livello_1" xmlns="http://www.w3.org/2000/svg" xmlns:xlink="http://www.w3.org/1999/xlink" x="0px" y="0px"
	 viewBox="0 0 383.22 261.42" style="enable-background:new 0 0 383.22 261.42;" xml:space="preserve">
<style type="text/css">
	.st0{fill:#FEFEFF;}
	.st1{fill:#2E94D1;}
	.st2{fill:#2C93D1;}
	.st3{fill:#2A92D0;}
	.st4{fill:#2285C7;}
	.st5{fill:#F9FCFD;}
	.st6{fill:#3D9AD4;}
	.st7{fill:#77BADF;}
	.st8{fill:#FCFDFE;}
	.st9{fill:#6CB2DD;}
	.st10{font-family:'TimesNewRomanPS-BoldMT';}
	.st11{font-size:24px;}
</style>
<g>
	<path class="st0" d="M149.18,113.6c-0.25-0.25-0.5-0.5-0.75-0.75c-0.75,0-1.5-0.03-2.25,0c-3.95,0.17-7.3-1.01-9.65-4.11
		c-0.56-3.28,0.77-6.01,1.93-8.69c1.87-4.34,3.98-8.58,6.05-12.83c3.13-6.44,6.32-12.85,9.53-19.37
		c14.01,0.81,26.44,6.26,37.86,12.58c3.56,7.59,6.85,14.58,10.4,22.15c0.03,0.42-0.26,1.79,0.29,2.53c1.01,1.35-0.1,2.19-0.18,3.26
		c-0.12,1.64-1.07,2.43-2.3,2.96c-1.7,0.74-3.39,1.64-5.36,1.54c-1.2-0.06-2.41-0.01-3.53-0.01c0,1.42,0,2.51,0,3.74
		c5.46,0,10.8,0,16.15,0c8.73,0,17.47,0.01,26.2-0.02c0.6,0,1.58,0.53,1.72-0.72c0.25,0,0.5,0,0.75,0c1.44-0.35,0.46-1.51,0.75-2.24
		c-0.26-1.45-1.39-0.69-2.08-0.71c-4.35-0.14-7.51-1.83-10.06-5.61c-2.25-3.33-4.16-6.73-5.7-10.39c-2.6-6.17-5.89-12-8.61-18.13
		c-2.94-6.63-6.52-13-9.49-19.64c-2.63-5.9-5.88-11.49-8.33-17.5c-1.95-4.79-4.62-9.28-6.72-14.05c-2.36-5.36-5.2-10.52-7.78-15.66
		c-1.39,0-2.63,0-3.73,0c-0.88,1.37-1.83,2.59-2.49,3.94c-7.25,14.72-14.43,29.48-22.25,43.9c-0.66,1.22-1.28,2.47-1.8,3.47
		c-3.33,0.36-6.36,0.5-9.31,1.08c-1.61,0.32-3.31,0.41-4.83,0.95c-4.56,1.63-9.19,3.01-13.41,5.63c-4.24,2.62-7.59,6.06-10.67,9.81
		c-1.99,2.42-3.1,5.4-4.29,8.31c-1.35,3.29-2.07,6.75-2.38,10.2c-0.26,2.84,0.39,5.77,0.66,8.66c0.02,0.2,0.35,0.36,0.4,0.57
		c0.95,3.73,2.77,7.08,4.51,10.48c2.25,4.41,5.63,8,8.83,11.64c3.31,3.78,7.13,7.16,11.03,10.33c4.22,3.43,8.78,6.43,13.23,9.57
		c6.58,4.65,13.72,8.39,20.69,12.41c1.19,0.69,2.72,0.85,3.79,1.65c3.95,2.96,8.57,4.71,12.72,7.3c3.32,2.07,6.99,3.59,10.49,5.36
		c0.64,0.32,1.26,0.69,2.18,1.19c-0.93,0.51-1.41,0.85-1.95,1.06c-1.71,0.68-3.47,1.27-5.17,1.99c-4.68,1.97-9.45,3.75-14.23,5.39
		c-5.14,1.76-10.1,3.97-15.29,5.62c-3.68,1.17-7.3,2.83-10.97,4.19c-3.68,1.36-7.25,2.99-11.02,4.13c-3.97,1.21-7.89,2.7-11.67,4.34
		c-3.09,1.34-6.38,2.07-9.4,3.53c-3.05,1.47-6.32,2.31-9.62,2.97c-3.02,0.61-5.96,1.72-9.11,1.52c-2.01,1.42-4.41,0.13-6.4,0.84
		c-2.3,0.82-4.55,0.54-6.84,0.65c-0.87,0.04-1.75-0.05-2.62,0.02c-3.43,0.27-6.71-1.12-10.18-0.88c-1.13,0.08-2.47-0.84-3.79-0.6
		c-1.3,0.24-2.27-0.63-3.44-0.79c-1.28-0.18-2.57-0.39-3.8-0.75c-3.22-0.94-6.5-1.76-9.6-3.03c-3.2-1.31-6.24-3.02-9.29-4.68
		c-3.33-1.82-5.97-4.49-8.68-7.1c-4.7-4.52-6.04-10.28-6.4-16.42c-0.07-1.13,0.63-2.28,0.67-3.43c0.16-4.3,2.47-7.73,4.51-11.23
		c0.96-1.64,2.36-3.06,3.69-4.45c0.72-0.76,1.81-1.16,2.55-1.9c1.63-1.62,3.61-2.7,5.55-3.81c2-1.14,4.11-2.12,6.24-3
		c2.13-0.87,4.32-1.7,6.56-2.23c2.87-0.68,5.66-1.9,8.73-1.56c0.57,0.06,1.2-0.06,1.76-0.24c3.39-1.08,6.85-0.21,10.27-0.45
		c1.33,1.44,3.05,0.45,4.57,0.71c1.64,0.28,3.3,0.76,4.93,0.7c3.54-0.13,6.83,1.12,10.11,1.92c4.68,1.13,9.23,2.93,13.81,4.53
		c3.05,1.07,5.88,2.7,9.1,3.38c1.78,0.38,3.43,1.34,5.16,1.97c1.85,0.67,3.9,0.96,5.55,1.93c2.44,1.44,5.19,1.94,7.74,3.03
		c2.53,1.08,5.24,1.85,7.81,2.84c3.23,1.24,6.59,2.14,9.73,3.81c0.77-0.9,1.46-1.71,2.14-2.52c-0.42-0.45-0.62-0.87-0.92-0.97
		c-2.56-0.82-4.77-2.5-7.23-3.31c-5.4-1.77-10.47-4.26-15.75-6.29c-3.77-1.45-7.54-2.89-11.32-4.29
		c-5.54-2.05-11.17-3.85-16.91-5.26c-0.55-0.13-1.02-0.58-1.57-0.71c-1.25-0.31-2.56-0.44-3.8-0.79c-1.22-0.34-2.39-0.84-3.56-1.33
		c-1.22-0.51-2.75,0.51-3.79-0.78c-4.9-0.89-9.77-1.97-14.75-2.33c-1.99-0.14-4.01,0.14-5.98-0.06c-3.95-0.39-7.77,0.67-11.67,0.85
		c-1.93,0.09-3.85,0.86-5.74,1.44c-2.21,0.67-4.41,1.53-6.6,2.09c-3.27,0.84-5.83,2.85-8.76,4.19c-1.27,0.58-2.36,1.63-3.4,2.61
		c-2,1.88-3.93,3.83-5.83,5.81c-2.72,2.84-4.56,6.36-5.73,9.95c-1.2,3.69-2.19,7.63-1.65,11.68c0.1,0.74,0.01,1.49,0.01,2.24
		c0.01,3.12,0.82,6.04,2.17,8.83c1.85,3.82,4.14,7.2,7.55,9.96c2.8,2.26,5.73,4.14,8.9,5.72c2.79,1.39,5.58,2.79,8.47,3.94
		c3.11,1.24,6.26,2.53,9.52,3.15c1.96,0.37,4.09,0.52,5.88,1.23c2.09,0.82,4.43-0.45,6.26,1.14c3.67-0.22,7.29,0.42,10.93,0.66
		c3.24,0.22,6.51,0.03,9.82-0.52c4.17-0.69,8.52,0.04,12.78-0.83c2.33-0.48,4.78-0.37,7.18-0.66c4.26-0.51,8.37-1.53,12.54-2.36
		c4.24-0.85,8.29-2.32,12.46-3.39c4.36-1.12,8.6-2.71,12.88-4.13c3.95-1.31,7.92-2.57,11.8-4.05c1.84-0.7,3.61-1.49,5.54-2
		c1.98-0.52,3.86-1.5,5.82-2.2c5-1.77,9.95-3.7,14.92-5.53c2.49-0.92,5.01-1.76,7.5-2.67c3.36-1.23,6.78-2.33,10.03-3.79
		c2-0.9,3.92-1.66,5.81-1.44c2.43,1.25,4.59,2.38,6.76,3.47c4.96,2.48,9.87,5.08,14.92,7.35c2.32,1.04,4.65,2.03,6.91,3.21
		c2.25,1.17,4.6,2.14,6.92,3.18c3.89,1.75,7.74,3.61,11.7,5.2c2.46,0.99,4.77,2.3,7.34,3.07c3.88,1.16,7.7,2.63,11.61,3.53
		c3.88,0.9,7.77,1.9,11.73,2.53c1.9,0.3,3.89,0.22,5.66,0.75c1.68,0.5,3.31,0.79,4.96,0.59c1.89-0.23,3.51,0.78,5.31,0.79
		c2.99,0.02,5.99,0.09,8.98-0.02c3.02-0.11,6.02-0.1,9.08-0.54c3.42-0.49,6.81-1.08,10.21-1.68c3.22-0.57,6.43-1.47,9.4-2.63
		c4.16-1.64,8.46-3.05,12.32-5.53c3.22-2.06,6.34-4.25,9.11-6.81c3.68-3.39,6.08-7.69,8.1-12.32c1.49-3.41,1.43-7.09,2.8-10.44
		c-1.16-2.22-1.01-4.76-1.71-7.09c-1.55-5.17-4.8-9.34-8.6-12.83c-3.31-3.05-7.2-5.6-11.44-7.49c-2.53-1.12-4.95-2.49-7.55-3.47
		c-2.05-0.78-4.05-1.69-6.14-2.35c-2.11-0.66-4.3-1.53-6.45-1.49c-2.37,0.04-4.51-0.88-6.81-0.87c-2.75,0.01-5.49,0-8.24,0
		s-5.5-0.13-8.23,0.03c-2.79,0.16-5.57-0.47-8.4,0.47c-2.48,0.82-5.22,0.42-7.86,0.83c-3.4,0.52-6.7,1.87-10.21,1.66
		c-1.92,1.32-4.27,1.09-6.36,1.8c-2.08,0.71-4.2,1.32-6.31,1.93c-4.78,1.37-9.45,3.04-14.06,4.93c-3.63,1.49-7.42,2.58-11.03,4.1
		c-2.89,1.21-5.98,1.91-8.79,3.17c-4.75,2.14-9.7,3.71-14.51,5.64c-2.86,1.14-5.86,2.16-8.78,3.23c-2.91,1.06-5.9,1.96-8.69,3.41
		c-2.23,1.16-4.46,1.39-6.94-0.37c-1.54-1.09-3.26-2.22-5.06-3.04c-3.48-1.6-6.82-3.44-10.18-5.26c-5.92-3.2-11.99-6.09-17.66-9.77
		c-3.71-2.41-7.65-4.49-11.32-6.96c-3.94-2.65-7.73-5.52-11.56-8.33c-3.38-2.48-6.62-5.13-9.8-7.83c-3.41-2.9-6.48-6.21-9.55-9.49
		c-1.77-1.89-3.46-3.91-4.53-6.34c0-0.46,0-0.92,0-1.5c1.49,0,2.72,0,3.95,0c9.72,0,19.43,0.02,29.15-0.04
		c0.68,0,1.82,0.74,2.09-0.71c0-0.25,0-0.5,0-0.75c0.21-0.08,0.41-0.16,0.62-0.25c-0.21-0.17-0.41-0.33-0.62-0.5
		C149.18,114.09,149.18,113.85,149.18,113.6z M343.11,85.71c-2.44-2.94-4.61-5.1-6.65-7.36c-4.76-5.26-9.52-10.52-14.22-15.84
		c-4.24-4.81-8.79-9.35-13.2-14c-0.17-0.18-0.41-0.33-0.52-0.54c-2.17-3.88-5.86-6.43-8.58-9.87c-3.73-4.72-8.19-8.87-12.34-13.26
		c-0.34-0.36-0.81-0.65-1.04-1.07c-2.3-4.1-6.78-6.3-8.65-10.28c-10.19,0-20.01,0-29.81,0c-0.07,2.13-0.04,2.13,0.91,3.44
		c7.12,0.46,12.02,4.25,15.49,10.45c0,11,0,22.21,0,33.43c0,7.73,0.12,15.46-0.03,23.19c-0.16,7.75,0.78,15.54-0.8,23.31
		c-0.64,0.64-1.39,1.3-2.04,2.06c-1.49,1.73-3.64,2.18-5.63,2.65c-2.55,0.59-5.21,0.68-7.82,0.98c-0.32,1.43-0.35,2.72,0.82,3.42
		c13.29,0,26.35,0,39.37,0c0-1.24,0-2.33,0-3.39c-5.49-0.78-11.24-0.64-14.91-6.06c-0.21-1.31-0.68-2.83-0.68-4.34
		c-0.05-22.06-0.03-44.13-0.03-66.19c0-0.7,0-1.41,0-3c1.53,2.05,2.39,3.5,3.52,4.69c3.23,3.38,6.61,6.59,9.54,10.26
		c2.21,2.76,4.96,5.04,7.2,7.85c2.82,3.53,6.25,6.57,9.23,10.02c4.36,5.03,9.11,9.72,13.7,14.55c0.17,0.18,0.4,0.32,0.52,0.53
		c2.26,3.97,6.22,6.44,8.82,10.16c2.08,2.99,5.09,5.25,7.42,8.13c3,3.71,6.7,6.84,9.74,10.57c1.88,2.31,4.18,4.27,6.13,6.23
		c1.28,0,2.37,0,3.54,0c0-1.37,0-2.61,0-3.84c0-28.17,0.02-56.34-0.04-84.52c0-1.73,0.38-3.31,0.79-4.93
		c0.84-3.34,3.58-4.57,6.45-5.27c2.67-0.65,5.47-0.74,8.47-1.11c1.38-0.7,0.72-2.08,0.75-3.36c-13.8,0-27.36,0-41.03,0
		c0,0.92,0,1.76,0,2.63c0.32,0.32,0.67,0.67,1.06,1.06c3.63-0.43,7.03,0.94,10.54,1.55c1.06,1.06,2.12,2.12,2.63,2.63
		c1.9,3.44,1.38,6.52,1.38,9.54c0.03,16.83,0.01,33.66,0.01,50.49C343.11,82.55,343.11,83.77,343.11,85.71z M55.72,104.98
		c0-11.55,0-23.1,0-34.53c0.4-0.4,0.66-0.66,0.99-0.99c4.67,0,9.41-0.21,14.13,0.06c4.57,0.26,9.01-0.87,13.54-0.81
		c0.25,0,0.55,0.09,0.74-0.01c2.53-1.32,5.63-0.58,8.06-2.23c5.92-0.69,10.41-4.24,14.65-7.88c2.26-1.94,3.67-4.89,5.36-7.45
		c0.74-1.12,2.47-10.42,2.27-11.76c-0.15-1.03-0.7-2.04-0.69-3.06c0.05-3.6-1.56-6.73-3.47-9.39c-3.41-4.75-8.29-7.86-13.82-9.82
		c-2.29-0.81-4.61-1.6-6.98-2.11c-2.33-0.5-4.74-0.64-7.12-0.9c-2.51-0.27-5.03-0.71-7.55-0.72c-17.72-0.06-35.43-0.03-53.15-0.03
		c-1.22,0-2.44,0-3.58,0c0,1.41,0,2.58,0,3.61c2.29,0.15,4.39,0.15,6.44,0.45c2.06,0.31,4.08,0.92,5.88,1.34
		c1.18,1.18,2.15,2.15,2.53,2.53c1.92,3.49,1.4,6.57,1.41,9.59c0.04,11.72,0.01,23.44,0.01,35.16c0,11.97-0.03,23.94,0.03,35.9
		c0.01,1.96-0.53,3.8-1.11,5.54c-1.13,3.39-4.22,4.64-7.39,5.33c-2.56,0.56-5.22,0.66-7.83,0.97c0,0.97,0,1.89,0,2.71
		c18.23,0,36.29,0,54.48,0c0-0.6,0.02-1.08-0.01-1.56c-0.03-0.45-0.12-0.9-0.19-1.39c-2.16,0.28-4.03-0.57-5.88-0.58
		c-3.51-0.02-6.38-1.43-9.17-2.91C57.38,108.23,56.54,106.58,55.72,104.98z"/>
	<path class="st1" d="M235.29,115.84c-0.13,1.25-1.12,0.72-1.72,0.72c-8.73,0.04-17.47,0.02-26.2,0.02c-5.34,0-10.69,0-16.15,0
		c0-1.23,0-2.32,0-3.74c1.12,0,2.33-0.05,3.53,0.01c1.97,0.1,3.65-0.8,5.36-1.54c1.23-0.53,2.18-1.32,2.3-2.96
		c0.08-1.07,1.2-1.9,0.18-3.26c-0.55-0.74-0.26-2.11-0.29-2.53c-3.55-7.56-6.83-14.55-10.4-22.15
		c-11.42-6.32-23.85-11.77-37.86-12.58c-3.21,6.52-6.4,12.93-9.53,19.37c-2.07,4.25-4.18,8.49-6.05,12.83
		c-1.16,2.68-2.48,5.41-1.93,8.69c2.35,3.1,5.7,4.28,9.65,4.11c0.75-0.03,1.5,0,2.25,0c0,0.25,0,0.5,0,0.75
		c-1.71,0.1-3.46-0.21-5.5,0.29c1.7,0.98,3.35-0.14,4.73,0.99c-7.48,0.57-32.61,0.38-32.85-0.23c0.46-0.21,0.91-0.42,1.37-0.63
		c-0.01-0.14-0.03-0.27-0.04-0.41c-0.72,0-1.44,0-2.16,0c0.2-0.25,0.38-0.7,0.6-0.71c1.22-0.07,2.45-0.03,3.68-0.03
		c2.62-1.04,4.54-2.9,6.22-4.94c1.41-1.71,2.68-3.6,3.7-5.56c4.05-7.79,7.97-15.65,11.95-23.47c1.57-3.09,3.18-6.16,4.76-9.25
		c0.23-0.45,0.4-0.94,0.82-1.92c-2.44,0.4-4.3,0.74-6.16,1c-2.14,0.29-4.45,0.11-6.38,0.88c-1.62,0.65-3.33,0.98-4.9,1.71
		c-1.99,0.92-4.01,1.82-5.9,2.92c-2.78,1.62-5.04,3.94-7.06,6.37c-1.7,2.05-3.02,4.45-4.28,6.81c-0.75,1.41-1.06,3.05-1.54,4.59
		c-0.48,1.55-1.22,3.09-1.33,4.67c-0.2,3.07-0.52,6.26,0.1,9.21c0.72,3.45,2.4,6.71,3.63,9.98c0.58,0,0.96,0,1.33,0
		c0.29,0.74-0.69,1.89,0.75,2.24c1.07,2.43,2.76,4.45,4.53,6.34c3.07,3.28,6.14,6.59,9.55,9.49c3.18,2.7,6.42,5.34,9.8,7.83
		c3.83,2.81,7.62,5.69,11.56,8.33c3.67,2.47,7.61,4.55,11.32,6.96c5.67,3.68,11.74,6.57,17.66,9.77c3.37,1.82,6.71,3.67,10.18,5.26
		c1.8,0.83,3.52,1.95,5.06,3.04c2.48,1.76,4.71,1.52,6.94,0.37c2.79-1.45,5.79-2.35,8.69-3.41c2.92-1.06,5.91-2.08,8.78-3.23
		c4.81-1.93,9.77-3.5,14.51-5.64c2.81-1.27,5.9-1.96,8.79-3.17c3.61-1.51,7.41-2.6,11.03-4.1c4.6-1.89,9.27-3.56,14.06-4.93
		c2.11-0.61,4.23-1.23,6.31-1.93c2.09-0.71,4.45-0.48,6.36-1.8c3.52,0.21,6.81-1.14,10.21-1.66c2.64-0.4,5.38,0,7.86-0.83
		c2.82-0.94,5.61-0.3,8.4-0.47c2.74-0.16,5.49-0.03,8.23-0.03s5.49,0.01,8.24,0c2.3-0.01,4.44,0.91,6.81,0.87
		c2.14-0.04,4.34,0.83,6.45,1.49c2.09,0.66,4.09,1.57,6.14,2.35c2.6,0.98,5.02,2.35,7.55,3.47c4.24,1.89,8.12,4.44,11.44,7.49
		c3.79,3.49,7.05,7.66,8.6,12.83c0.7,2.34,0.56,4.87,1.71,7.09c-1.36,3.35-1.31,7.03-2.8,10.44c-2.02,4.63-4.42,8.93-8.1,12.32
		c-2.78,2.56-5.89,4.75-9.11,6.81c-3.87,2.48-8.16,3.89-12.32,5.53c-2.96,1.17-6.17,2.06-9.4,2.63c-3.4,0.6-6.79,1.19-10.21,1.68
		c-3.06,0.44-6.05,0.43-9.08,0.54c-2.99,0.11-5.99,0.04-8.98,0.02c-1.8-0.01-3.42-1.02-5.31-0.79c-1.65,0.2-3.28-0.09-4.96-0.59
		c-1.77-0.53-3.76-0.45-5.66-0.75c-3.97-0.63-7.85-1.63-11.73-2.53c-3.91-0.91-7.74-2.37-11.61-3.53c-2.57-0.77-4.88-2.08-7.34-3.07
		c-3.96-1.59-7.81-3.45-11.7-5.2c-2.31-1.04-4.67-2.01-6.92-3.18c-2.26-1.17-4.59-2.17-6.91-3.21c-5.05-2.27-9.96-4.87-14.92-7.35
		c-2.18-1.09-4.33-2.22-6.76-3.47c-1.89-0.22-3.8,0.54-5.81,1.44c-3.25,1.47-6.67,2.57-10.03,3.79c-2.49,0.91-5.01,1.75-7.5,2.67
		c-4.98,1.84-9.92,3.76-14.92,5.53c-1.96,0.7-3.84,1.67-5.82,2.2c-1.93,0.51-3.7,1.3-5.54,2c-3.88,1.48-7.85,2.74-11.8,4.05
		c-4.28,1.42-8.52,3.01-12.88,4.13c-4.17,1.07-8.22,2.54-12.46,3.39c-4.17,0.84-8.28,1.86-12.54,2.36c-2.4,0.29-4.85,0.18-7.18,0.66
		c-4.26,0.87-8.61,0.14-12.78,0.83c-3.31,0.54-6.57,0.73-9.82,0.52c-3.64-0.24-7.25-0.88-10.93-0.66c-1.84-1.59-4.18-0.32-6.26-1.14
		c-1.8-0.71-3.92-0.85-5.88-1.23c-3.26-0.62-6.42-1.91-9.52-3.15c-2.89-1.15-5.68-2.56-8.47-3.94c-3.17-1.58-6.1-3.46-8.9-5.72
		c-3.42-2.76-5.7-6.14-7.55-9.96c-1.35-2.78-2.16-5.71-2.17-8.83c0-0.75,0.08-1.51-0.01-2.24c-0.54-4.05,0.45-7.99,1.65-11.68
		c1.17-3.59,3.01-7.11,5.73-9.95c1.9-1.98,3.83-3.93,5.83-5.81c1.04-0.98,2.13-2.03,3.4-2.61c2.94-1.34,5.49-3.35,8.76-4.19
		c2.19-0.56,4.39-1.42,6.6-2.09c1.89-0.58,3.81-1.35,5.74-1.44c3.9-0.19,7.72-1.24,11.67-0.85c1.98,0.2,4-0.08,5.98,0.06
		c4.98,0.36,9.85,1.44,14.75,2.33c1.05,1.29,2.57,0.27,3.79,0.78c1.17,0.49,2.35,0.99,3.56,1.33c1.24,0.35,2.54,0.48,3.8,0.79
		c0.55,0.14,1.02,0.58,1.57,0.71c5.75,1.41,11.37,3.21,16.91,5.26c3.78,1.4,7.55,2.85,11.32,4.29c5.28,2.03,10.35,4.52,15.75,6.29
		c2.46,0.8,4.68,2.49,7.23,3.31c0.3,0.1,0.5,0.51,0.92,0.97c-0.69,0.8-1.37,1.61-2.14,2.52c-3.13-1.68-6.5-2.57-9.73-3.81
		c-2.57-0.99-5.28-1.76-7.81-2.84c-2.55-1.09-5.3-1.59-7.74-3.03c-1.65-0.98-3.7-1.26-5.55-1.93c-1.73-0.63-3.38-1.59-5.16-1.97
		c-3.21-0.69-6.04-2.32-9.1-3.38c-4.58-1.6-9.14-3.4-13.81-4.53c-3.29-0.79-6.58-2.05-10.11-1.92c-1.63,0.06-3.29-0.42-4.93-0.7
		c-1.52-0.26-3.24,0.73-4.57-0.71c-3.42,0.24-6.88-0.63-10.27,0.45c-0.56,0.18-1.19,0.31-1.76,0.24c-3.07-0.34-5.86,0.88-8.73,1.56
		c-2.24,0.53-4.42,1.36-6.56,2.23c-2.13,0.87-4.24,1.86-6.24,3c-1.95,1.11-3.92,2.19-5.55,3.81c-0.75,0.74-1.83,1.14-2.55,1.9
		c-1.33,1.4-2.73,2.81-3.69,4.45c-2.04,3.5-4.34,6.93-4.51,11.23c-0.04,1.15-0.74,2.3-0.67,3.43c0.36,6.14,1.7,11.91,6.4,16.42
		c2.71,2.61,5.35,5.28,8.68,7.1c3.04,1.66,6.09,3.37,9.29,4.68c3.09,1.27,6.38,2.09,9.6,3.03c1.24,0.36,2.53,0.57,3.8,0.75
		c1.17,0.16,2.14,1.03,3.44,0.79c1.32-0.24,2.67,0.68,3.79,0.6c3.47-0.24,6.75,1.15,10.18,0.88c0.87-0.07,1.75,0.03,2.62-0.02
		c2.28-0.11,4.53,0.17,6.84-0.65c1.98-0.71,4.39,0.58,6.4-0.84c3.15,0.2,6.09-0.91,9.11-1.52c3.3-0.66,6.57-1.5,9.62-2.97
		c3.02-1.46,6.3-2.19,9.4-3.53c3.79-1.64,7.7-3.13,11.67-4.34c3.77-1.15,7.34-2.77,11.02-4.13c3.67-1.36,7.29-3.02,10.97-4.19
		c5.19-1.65,10.16-3.85,15.29-5.62c4.78-1.64,9.55-3.42,14.23-5.39c1.7-0.71,3.45-1.3,5.17-1.99c0.54-0.21,1.03-0.55,1.95-1.06
		c-0.91-0.5-1.54-0.86-2.18-1.19c-3.51-1.77-7.18-3.28-10.49-5.36c-4.15-2.6-8.78-4.34-12.72-7.3c-1.07-0.8-2.6-0.97-3.79-1.65
		c-6.97-4.02-14.1-7.76-20.69-12.41c-4.45-3.14-9.01-6.15-13.23-9.57c-3.91-3.17-7.73-6.56-11.03-10.33
		c-3.19-3.65-6.58-7.23-8.83-11.64c-1.73-3.4-3.56-6.75-4.51-10.48c-0.05-0.21-0.38-0.37-0.4-0.57c-0.27-2.89-0.92-5.81-0.66-8.66
		c0.32-3.45,1.04-6.91,2.38-10.2c1.19-2.91,2.3-5.88,4.29-8.31c3.08-3.75,6.43-7.18,10.67-9.81c4.22-2.61,8.84-4,13.41-5.63
		c1.53-0.54,3.22-0.63,4.83-0.95c2.94-0.58,5.97-0.72,9.31-1.08c0.52-1,1.14-2.25,1.8-3.47c7.83-14.43,15.01-29.18,22.25-43.9
		c0.67-1.35,1.62-2.56,2.49-3.94c1.1,0,2.34,0,3.73,0c2.58,5.14,5.42,10.29,7.78,15.66c2.1,4.77,4.76,9.26,6.72,14.05
		c2.45,6.01,5.7,11.6,8.33,17.5c2.96,6.65,6.55,13.01,9.49,19.64c2.72,6.13,6.01,11.96,8.61,18.13c1.54,3.66,3.45,7.06,5.7,10.39
		c2.55,3.78,5.72,5.47,10.06,5.61c0.69,0.02,1.82-0.74,2.08,0.71c-1.12,0.06-0.64,0.93-0.75,1.5c-14.59,0-29.18,0-43.77,0.01
		c-0.09,0-0.2,0.14-0.27,0.24c-0.04,0.06-0.01,0.17-0.01,0.5C206.42,115.84,220.85,115.84,235.29,115.84z M210.99,184.1
		c10.41,5.35,20.58,10.25,30.93,14.79c5.28,2.32,10.52,4.71,15.79,7.05c1.47,0.66,2.93,1.37,4.45,1.9c3.06,1.06,6.1,2.26,9.25,2.95
		c3.31,0.73,6.38,2.54,9.91,2.31c4.22,2.03,8.97,1.68,13.36,2.99c3.7-0.56,7.25,0.94,10.92,0.76c1.37-0.07,2.75,0.09,4.11-0.04
		c1.28-0.12,2.54-0.49,3.81-0.72c1.91-0.34,3.85,0.45,5.8-0.46c1.7-0.8,3.7-0.28,5.59-0.95c2.72-0.96,5.64-1.37,8.4-2.3
		c2.74-0.93,5.43-2.02,8.14-2.91c6.77-2.22,15.47-8.56,18.88-13.94c1.37-2.16,2.79-4.33,3.63-6.72c0.81-2.3,1.31-4.76,1.57-7.2
		c0.61-5.82-1.51-11.05-4.87-15.51c-2.88-3.83-6.67-6.92-11.1-9.16c-5.84-2.96-10.7-4.62-16.98-6.02c-3.03-0.67-5.99-1.53-9.13-1.43
		c-1.5,0.05-3.01,0.15-4.49-0.02c-3.46-0.41-6.86,0.29-10.14,0.93c-2.43,0.47-5.22,0.31-7.33,2.09c-5.96,0.68-11.35,3.3-17,5.02
		c-6.31,1.92-12.53,4.1-18.74,6.27c-2.39,0.83-4.82,1.6-7.19,2.5c-3.67,1.39-7.32,2.82-11,4.15c-4.56,1.65-9.16,3.17-13.71,4.85
		c-5.63,2.07-11.22,4.24-16.81,6.39C215.08,182.42,213.16,183.22,210.99,184.1z M171.3,34.19c-0.54,0.17-0.9,0.18-0.97,0.32
		c-4.41,8.87-8.82,17.74-13.18,26.64c-0.32,0.66-0.34,1.47-0.47,2.07c2.58,0.36,4.88,0.49,7.06,1.05c2.27,0.59,4.62,0.78,6.83,1.53
		c2.07,0.7,4.07,1.63,6.08,2.46c2.11,0.87,4.22,1.82,6.35,2.69c1.97,0.8,3.39,2.75,6.13,3.08c-1.2-3.08-2.44-5.68-3.67-8.21
		c-3.02-6.21-5.51-12.66-8.58-18.84c-0.72-1.45-1.85-2.79-2.17-4.31C174.07,39.56,171.75,37.28,171.3,34.19z"/>
	<path class="st2" d="M343.11,85.71c0-1.94,0-3.16,0-4.38c0-16.83,0.02-33.66-0.01-50.49c-0.01-3.02,0.52-6.1-1.38-9.54
		c-0.51-0.51-1.57-1.57-2.63-2.63c-3.51-0.61-6.91-1.98-10.54-1.55c-0.39-0.39-0.74-0.74-1.06-1.06c0-0.87,0-1.71,0-2.63
		c13.66,0,27.23,0,41.03,0c-0.04,1.28,0.63,2.65-0.75,3.36c-2.99,0.37-5.8,0.46-8.47,1.11c-2.87,0.7-5.61,1.92-6.45,5.27
		c-0.41,1.62-0.79,3.2-0.79,4.93c0.05,28.17,0.04,56.34,0.04,84.52c0,1.23,0,2.47,0,3.84c-1.17,0-2.26,0-3.54,0
		c-1.95-1.95-4.24-3.92-6.13-6.23c-3.04-3.73-6.74-6.86-9.74-10.57c-2.33-2.89-5.34-5.15-7.42-8.13c-2.6-3.73-6.56-6.2-8.82-10.16
		c-0.12-0.21-0.35-0.35-0.52-0.53c-4.59-4.83-9.35-9.52-13.7-14.55c-2.98-3.45-6.41-6.49-9.23-10.02c-2.24-2.81-4.99-5.08-7.2-7.85
		c-2.93-3.67-6.31-6.88-9.54-10.26c-1.13-1.19-2-2.63-3.52-4.69c0,1.59,0,2.3,0,3c0,22.06-0.01,44.13,0.03,66.19
		c0,1.52,0.47,3.03,0.68,4.34c3.67,5.41,9.42,5.27,14.91,6.06c0,1.06,0,2.15,0,3.39c-13.02,0-26.08,0-39.37,0
		c-1.17-0.71-1.14-1.99-0.82-3.42c2.61-0.3,5.28-0.39,7.82-0.98c2-0.47,4.15-0.92,5.63-2.65c0.65-0.76,1.4-1.42,2.04-2.06
		c1.58-7.77,0.65-15.56,0.8-23.31c0.15-7.73,0.03-15.46,0.03-23.19c0-11.22,0-22.43,0-33.43c-3.46-6.2-8.37-9.99-15.49-10.45
		c-0.95-1.31-0.98-1.31-0.91-3.44c9.81,0,19.62,0,29.81,0c1.87,3.98,6.35,6.18,8.65,10.28c0.24,0.42,0.7,0.71,1.04,1.07
		c4.15,4.39,8.61,8.54,12.34,13.26c2.72,3.44,6.41,5.99,8.58,9.87c0.12,0.21,0.35,0.35,0.52,0.54c4.41,4.66,8.96,9.19,13.2,14
		c4.7,5.32,9.46,10.58,14.22,15.84C338.49,80.61,340.67,82.77,343.11,85.71z M265.86,26.95c-0.21,0-0.42-0.01-0.62-0.01
		c0,25.26,0,50.51,0.01,75.77c0,0.09,0.13,0.2,0.23,0.27c0.06,0.04,0.17,0.02,0.38,0.03C265.86,77.65,265.86,52.3,265.86,26.95z"/>
	<path class="st3" d="M55.72,104.98c0.82,1.61,1.67,3.26,2.59,5.07c2.79,1.48,5.66,2.89,9.17,2.91c1.85,0.01,3.73,0.86,5.88,0.58
		c0.07,0.49,0.16,0.94,0.19,1.39c0.03,0.48,0.01,0.96,0.01,1.56c-18.19,0-36.25,0-54.48,0c0-0.82,0-1.74,0-2.71
		c2.61-0.3,5.27-0.41,7.83-0.97c3.17-0.69,6.25-1.94,7.39-5.33c0.58-1.75,1.12-3.59,1.11-5.54c-0.06-11.97-0.03-23.94-0.03-35.9
		c0-11.72,0.02-23.44-0.01-35.16c-0.01-3.02,0.52-6.1-1.41-9.59c-0.38-0.38-1.36-1.35-2.53-2.53c-1.8-0.42-3.82-1.04-5.88-1.34
		c-2.05-0.31-4.15-0.31-6.44-0.45c0-1.02,0-2.19,0-3.61c1.14,0,2.36,0,3.58,0c17.72,0,35.43-0.03,53.15,0.03
		c2.52,0.01,5.04,0.45,7.55,0.72c2.38,0.26,4.79,0.4,7.12,0.9c2.37,0.5,4.69,1.29,6.98,2.11c5.53,1.96,10.41,5.08,13.82,9.82
		c1.91,2.66,3.53,5.79,3.47,9.39c-0.01,1.01,0.54,2.03,0.69,3.06c0.19,1.34-1.53,10.64-2.27,11.76c-1.69,2.56-3.1,5.51-5.36,7.45
		c-4.25,3.64-8.73,7.19-14.65,7.88c-2.43,1.65-5.53,0.91-8.06,2.23c-0.2,0.1-0.49,0.02-0.74,0.01c-4.53-0.06-8.97,1.07-13.54,0.81
		c-4.72-0.27-9.46-0.06-14.13-0.06c-0.33,0.33-0.6,0.59-0.99,0.99C55.72,81.87,55.72,93.43,55.72,104.98z M55.55,62.45
		c1.65,1.18,3.26,1.88,5.1,1.75c2.89-0.2,5.87,0.67,8.66-0.73c3.89,0.3,7.4-1.09,11.04-2.17c4.74-1.41,8.09-4.49,11.15-8.06
		c0.66-0.77,1.14-1.76,1.5-2.73c1.03-2.8,1.78-5.64,1.56-8.71c-0.2-2.77,0.11-5.54-0.75-8.28c-1.28-4.1-4.14-6.98-7.22-9.66
		c-0.91-0.79-2.28-1.07-3.45-1.53c-1.71-0.68-3.46-1.26-5.16-1.97c-1.67-0.7-3.64,0.31-5.2-1c-0.22-0.18-0.73-0.04-1.1-0.02
		c-4.5,0.24-9.07-0.68-13.37,0.81c-0.95,0.89-1.86,1.73-2.81,2.62c0.83,5.14-2.17,10.29-0.12,14.94c-0.23,1.5-0.5,2.52-0.51,3.54
		c-0.05,3.61,0.18,7.23-0.08,10.82C54.52,55.64,56.08,58.98,55.55,62.45z M36.25,102.26c0.21-0.01,0.41-0.02,0.62-0.03
		c0-25.51,0-51.02-0.01-76.53c0-0.09-0.15-0.2-0.25-0.26c-0.06-0.04-0.17,0.01-0.36,0.03C36.25,51.06,36.25,76.66,36.25,102.26z"/>
	<path class="st4" d="M235.29,115.84c-14.43,0-28.86,0-43.3,0c0-0.33-0.03-0.44,0.01-0.5c0.06-0.1,0.18-0.24,0.27-0.24
		c14.59-0.01,29.18-0.01,43.77-0.01c0,0.25,0,0.5,0,0.75C235.79,115.84,235.54,115.84,235.29,115.84z"/>
	<path class="st5" d="M113.99,118.08c-1.44-0.35-0.46-1.51-0.75-2.24c0.25,0,0.5,0,0.75,0c11.48,0,22.96,0,34.44,0
		c0.25,0,0.5,0,0.75,0c-0.26,1.46-1.4,0.71-2.09,0.71c-9.72,0.05-19.43,0.04-29.15,0.04c-1.23,0-2.46,0-3.95,0
		C113.99,117.16,113.99,117.62,113.99,118.08z"/>
	<path class="st6" d="M149.18,115.84c-0.25,0-0.5,0-0.75,0c0-0.75,0-1.5,0-2.24c0.25,0,0.5,0,0.75,0c0,0.25,0,0.5,0,0.75
		c0,0.25,0,0.5,0,0.75C149.18,115.34,149.18,115.59,149.18,115.84z"/>
	<path class="st7" d="M236.04,115.84c0-0.25,0-0.5,0-0.75c0.11-0.57-0.37-1.43,0.75-1.5C236.5,114.33,237.48,115.49,236.04,115.84z"
		/>
	<path class="st5" d="M149.18,115.09c0-0.25,0-0.5,0-0.75c0.21,0.17,0.41,0.33,0.62,0.5C149.59,114.93,149.39,115.01,149.18,115.09z
		"/>
	<path class="st5" d="M149.18,113.6c-0.25,0-0.5,0-0.75,0c0-0.25,0-0.5,0-0.75C148.68,113.1,148.93,113.35,149.18,113.6z"/>
	<path class="st0" d="M210.99,184.1c2.18-0.87,4.09-1.67,6.03-2.42c5.6-2.15,11.19-4.31,16.81-6.39c4.55-1.68,9.15-3.2,13.71-4.85
		c3.69-1.34,7.34-2.77,11-4.15c2.37-0.9,4.8-1.66,7.19-2.5c6.22-2.17,12.43-4.35,18.74-6.27c5.65-1.72,11.04-4.34,17-5.02
		c2.12-1.78,4.9-1.62,7.33-2.09c3.29-0.64,6.69-1.34,10.14-0.93c1.48,0.18,2.99,0.07,4.49,0.02c3.14-0.1,6.09,0.75,9.13,1.43
		c6.29,1.4,11.14,3.06,16.98,6.02c4.43,2.24,8.21,5.34,11.1,9.16c3.36,4.45,5.48,9.68,4.87,15.51c-0.25,2.43-0.76,4.89-1.57,7.2
		c-0.84,2.39-2.26,4.56-3.63,6.72c-3.41,5.38-12.1,11.72-18.88,13.94c-2.72,0.89-5.41,1.98-8.14,2.91c-2.77,0.94-5.68,1.34-8.4,2.3
		c-1.88,0.67-3.89,0.15-5.59,0.95c-1.95,0.92-3.89,0.13-5.8,0.46c-1.27,0.22-2.53,0.6-3.81,0.72c-1.36,0.13-2.74-0.03-4.11,0.04
		c-3.67,0.18-7.22-1.32-10.92-0.76c-4.38-1.31-9.14-0.96-13.36-2.99c-3.53,0.23-6.59-1.58-9.91-2.31c-3.15-0.69-6.19-1.88-9.25-2.95
		c-1.52-0.53-2.98-1.24-4.45-1.9c-5.27-2.35-10.51-4.74-15.79-7.05C231.57,194.34,221.39,189.45,210.99,184.1z"/>
	<path class="st5" d="M113.24,115.84c-0.37,0-0.75,0-1.33,0c-1.24-3.27-2.91-6.52-3.63-9.98c-0.62-2.95-0.3-6.14-0.1-9.21
		c0.1-1.58,0.84-3.12,1.33-4.67c0.48-1.54,0.79-3.19,1.54-4.59c1.26-2.37,2.58-4.77,4.28-6.81c2.02-2.43,4.28-4.75,7.06-6.37
		c1.89-1.1,3.91-2,5.9-2.92c1.57-0.73,3.28-1.06,4.9-1.71c1.93-0.78,4.24-0.59,6.38-0.88c1.87-0.26,3.72-0.6,6.16-1
		c-0.41,0.98-0.59,1.46-0.82,1.92c-1.58,3.09-3.18,6.16-4.76,9.25c-3.98,7.83-7.9,15.68-11.95,23.47c-1.02,1.97-2.29,3.85-3.7,5.56
		c-1.68,2.04-3.61,3.9-6.22,4.94c-1.23,0-2.46-0.04-3.68,0.03c-0.21,0.01-0.4,0.47-0.6,0.71
		C112.55,113.95,113.53,115.1,113.24,115.84z"/>
	<path class="st5" d="M171.3,34.19c0.45,3.09,2.77,5.37,3.42,8.47c0.31,1.52,1.45,2.87,2.17,4.31c3.07,6.18,5.56,12.63,8.58,18.84
		c1.23,2.52,2.47,5.13,3.67,8.21c-2.74-0.34-4.16-2.28-6.13-3.08c-2.13-0.87-4.24-1.82-6.35-2.69c-2.01-0.83-4.01-1.76-6.08-2.46
		c-2.21-0.75-4.56-0.94-6.83-1.53c-2.18-0.57-4.48-0.69-7.06-1.05c0.13-0.61,0.15-1.42,0.47-2.07c4.36-8.89,8.76-17.77,13.18-26.64
		C170.4,34.37,170.75,34.36,171.3,34.19z"/>
	<path class="st4" d="M148.43,113.6c0,0.75,0,1.5,0,2.24c-11.48,0-22.96,0-34.44,0c0-0.75,0-1.5,0-2.24c0.72,0,1.44,0,2.16,0
		c0.01,0.14,0.03,0.27,0.04,0.41c-0.46,0.21-0.91,0.42-1.37,0.63c0.24,0.62,25.37,0.8,32.85,0.23c-1.38-1.13-3.03,0-4.73-0.99
		C144.97,113.39,146.72,113.69,148.43,113.6z"/>
	<path class="st4" d="M265.86,26.95c0,25.35,0,50.7,0,76.05c-0.21-0.01-0.32,0.02-0.38-0.03c-0.1-0.07-0.23-0.18-0.23-0.27
		c-0.01-25.26-0.01-50.51-0.01-75.77C265.45,26.94,265.65,26.95,265.86,26.95z"/>
	<path class="st8" d="M55.55,62.45c0.54-3.47-1.03-6.81-0.77-10.38c0.26-3.59,0.02-7.21,0.08-10.82c0.02-1.02,0.29-2.04,0.51-3.54
		c-2.04-4.65,0.96-9.79,0.12-14.94c0.95-0.89,1.86-1.73,2.81-2.62c4.31-1.49,8.87-0.57,13.37-0.81c0.37-0.02,0.88-0.16,1.1,0.02
		c1.56,1.32,3.53,0.31,5.2,1c1.7,0.71,3.45,1.29,5.16,1.97c1.18,0.46,2.54,0.74,3.45,1.53c3.08,2.68,5.93,5.56,7.22,9.66
		c0.86,2.74,0.55,5.52,0.75,8.28c0.23,3.07-0.53,5.91-1.56,8.71c-0.35,0.97-0.84,1.95-1.5,2.73c-3.06,3.57-6.41,6.65-11.15,8.06
		c-3.64,1.09-7.16,2.47-11.04,2.17c-2.78,1.41-5.77,0.53-8.66,0.73C58.81,64.33,57.2,63.63,55.55,62.45z"/>
	<path class="st4" d="M36.25,102.26c0-25.6,0-51.2,0-76.78c0.19-0.02,0.3-0.07,0.36-0.03c0.1,0.06,0.25,0.17,0.25,0.26
		c0.01,25.51,0.01,51.02,0.01,76.53C36.66,102.24,36.45,102.25,36.25,102.26z"/>
	<path class="st9" d="M113.99,113.6c0,0.75,0,1.5,0,2.24c-0.25,0-0.5,0-0.75,0C113.53,115.1,112.55,113.95,113.99,113.6z"/>
</g>
<text transform="matrix(1.1243 0 0 1 16.5003 249.0225)" class="st3 st10 st11">POLSKA AKADEMIA NAUK</text>
</svg>
