<?xml version="1.0" encoding="utf-8"?>
<!-- Generator: Adobe Illustrator 28.2.0, SVG Export Plug-In . SVG Version: 6.00 Build 0)  -->
<svg version="1.1" id="Livello_1" xmlns="http://www.w3.org/2000/svg" xmlns:xlink="http://www.w3.org/1999/xlink" x="0px" y="0px"
	 viewBox="0 0 383.2 261.4" style="enable-background:new 0 0 383.2 261.4;" xml:space="preserve">
<style type="text/css">
	.st0{fill:#2E94D1;}
	.st1{fill:#2C93D1;}
	.st2{fill:#2A92D0;}
	.st3{fill:#2285C7;}
	.st4{fill:#3D9AD4;}
	.st5{fill:#77BADF;}
	.st6{fill:#6CB2DD;}
	.st7{font-family:'TimesNewRomanPS-BoldMT';}
	.st8{font-size:24px;}
</style>
<g>
	<path class="st0" d="M235.3,115.8c-0.1,1.2-1.1,0.7-1.7,0.7c-8.7,0-17.5,0-26.2,0c-5.3,0-10.7,0-16.1,0c0-1.2,0-2.3,0-3.7
		c1.1,0,2.3-0.1,3.5,0c2,0.1,3.6-0.8,5.4-1.5c1.2-0.5,2.2-1.3,2.3-3c0.1-1.1,1.2-1.9,0.2-3.3c-0.6-0.7-0.3-2.1-0.3-2.5
		c-3.6-7.6-6.8-14.6-10.4-22.2c-11.4-6.3-23.9-11.8-37.9-12.6c-3.2,6.5-6.4,12.9-9.5,19.4c-2.1,4.2-4.2,8.5-6.1,12.8
		c-1.2,2.7-2.5,5.4-1.9,8.7c2.4,3.1,5.7,4.3,9.6,4.1c0.8,0,1.5,0,2.2,0c0,0.2,0,0.5,0,0.8c-1.7,0.1-3.5-0.2-5.5,0.3
		c1.7,1,3.4-0.1,4.7,1c-7.5,0.6-32.6,0.4-32.8-0.2c0.5-0.2,0.9-0.4,1.4-0.6c0-0.1,0-0.3,0-0.4c-0.7,0-1.4,0-2.2,0
		c0.2-0.2,0.4-0.7,0.6-0.7c1.2-0.1,2.4,0,3.7,0c2.6-1,4.5-2.9,6.2-4.9c1.4-1.7,2.7-3.6,3.7-5.6c4.1-7.8,8-15.7,11.9-23.5
		c1.6-3.1,3.2-6.2,4.8-9.2c0.2-0.4,0.4-0.9,0.8-1.9c-2.4,0.4-4.3,0.7-6.2,1c-2.1,0.3-4.4,0.1-6.4,0.9c-1.6,0.7-3.3,1-4.9,1.7
		c-2,0.9-4,1.8-5.9,2.9c-2.8,1.6-5,3.9-7.1,6.4c-1.7,2.1-3,4.4-4.3,6.8c-0.8,1.4-1.1,3.1-1.5,4.6c-0.5,1.6-1.2,3.1-1.3,4.7
		c-0.2,3.1-0.5,6.3,0.1,9.2c0.7,3.4,2.4,6.7,3.6,10c0.6,0,1,0,1.3,0c0.3,0.7-0.7,1.9,0.8,2.2c1.1,2.4,2.8,4.4,4.5,6.3
		c3.1,3.3,6.1,6.6,9.6,9.5c3.2,2.7,6.4,5.3,9.8,7.8c3.8,2.8,7.6,5.7,11.6,8.3c3.7,2.5,7.6,4.6,11.3,7c5.7,3.7,11.7,6.6,17.7,9.8
		c3.4,1.8,6.7,3.7,10.2,5.3c1.8,0.8,3.5,1.9,5.1,3c2.5,1.8,4.7,1.5,6.9,0.4c2.8-1.4,5.8-2.4,8.7-3.4c2.9-1.1,5.9-2.1,8.8-3.2
		c4.8-1.9,9.8-3.5,14.5-5.6c2.8-1.3,5.9-2,8.8-3.2c3.6-1.5,7.4-2.6,11-4.1c4.6-1.9,9.3-3.6,14.1-4.9c2.1-0.6,4.2-1.2,6.3-1.9
		c2.1-0.7,4.5-0.5,6.4-1.8c3.5,0.2,6.8-1.1,10.2-1.7c2.6-0.4,5.4,0,7.9-0.8c2.8-0.9,5.6-0.3,8.4-0.5c2.7-0.2,5.5,0,8.2,0
		s5.5,0,8.2,0c2.3,0,4.4,0.9,6.8,0.9c2.1,0,4.3,0.8,6.5,1.5c2.1,0.7,4.1,1.6,6.1,2.4c2.6,1,5,2.4,7.5,3.5c4.2,1.9,8.1,4.4,11.4,7.5
		c3.8,3.5,7,7.7,8.6,12.8c0.7,2.3,0.6,4.9,1.7,7.1c-1.4,3.4-1.3,7-2.8,10.4c-2,4.6-4.4,8.9-8.1,12.3c-2.8,2.6-5.9,4.8-9.1,6.8
		c-3.9,2.5-8.2,3.9-12.3,5.5c-3,1.2-6.2,2.1-9.4,2.6c-3.4,0.6-6.8,1.2-10.2,1.7c-3.1,0.4-6,0.4-9.1,0.5c-3,0.1-6,0-9,0
		c-1.8,0-3.4-1-5.3-0.8c-1.6,0.2-3.3-0.1-5-0.6c-1.8-0.5-3.8-0.4-5.7-0.8c-4-0.6-7.9-1.6-11.7-2.5c-3.9-0.9-7.7-2.4-11.6-3.5
		c-2.6-0.8-4.9-2.1-7.3-3.1c-4-1.6-7.8-3.4-11.7-5.2c-2.3-1-4.7-2-6.9-3.2c-2.3-1.2-4.6-2.2-6.9-3.2c-5.1-2.3-10-4.9-14.9-7.4
		c-2.2-1.1-4.3-2.2-6.8-3.5c-1.9-0.2-3.8,0.5-5.8,1.4c-3.2,1.5-6.7,2.6-10,3.8c-2.5,0.9-5,1.8-7.5,2.7c-5,1.8-9.9,3.8-14.9,5.5
		c-2,0.7-3.8,1.7-5.8,2.2c-1.9,0.5-3.7,1.3-5.5,2c-3.9,1.5-7.9,2.7-11.8,4.1c-4.3,1.4-8.5,3-12.9,4.1c-4.2,1.1-8.2,2.5-12.5,3.4
		c-4.2,0.8-8.3,1.9-12.5,2.4c-2.4,0.3-4.8,0.2-7.2,0.7c-4.3,0.9-8.6,0.1-12.8,0.8c-3.3,0.5-6.6,0.7-9.8,0.5
		c-3.6-0.2-7.2-0.9-10.9-0.7c-1.8-1.6-4.2-0.3-6.3-1.1c-1.8-0.7-3.9-0.9-5.9-1.2c-3.3-0.6-6.4-1.9-9.5-3.1c-2.9-1.1-5.7-2.6-8.5-3.9
		c-3.2-1.6-6.1-3.5-8.9-5.7c-3.4-2.8-5.7-6.1-7.6-10c-1.4-2.8-2.2-5.7-2.2-8.8c0-0.8,0.1-1.5,0-2.2c-0.5-4.1,0.5-8,1.6-11.7
		c1.2-3.6,3-7.1,5.7-9.9c1.9-2,3.8-3.9,5.8-5.8c1-1,2.1-2,3.4-2.6c2.9-1.3,5.5-3.4,8.8-4.2c2.2-0.6,4.4-1.4,6.6-2.1
		c1.9-0.6,3.8-1.4,5.7-1.4c3.9-0.2,7.7-1.2,11.7-0.9c2,0.2,4-0.1,6,0.1c5,0.4,9.8,1.4,14.8,2.3c1.1,1.3,2.6,0.3,3.8,0.8
		c1.2,0.5,2.3,1,3.6,1.3c1.2,0.4,2.5,0.5,3.8,0.8c0.6,0.1,1,0.6,1.6,0.7c5.8,1.4,11.4,3.2,16.9,5.3c3.8,1.4,7.6,2.9,11.3,4.3
		c5.3,2,10.4,4.5,15.8,6.3c2.5,0.8,4.7,2.5,7.2,3.3c0.3,0.1,0.5,0.5,0.9,1c-0.7,0.8-1.4,1.6-2.1,2.5c-3.1-1.7-6.5-2.6-9.7-3.8
		c-2.6-1-5.3-1.8-7.8-2.8c-2.6-1.1-5.3-1.6-7.7-3c-1.7-1-3.7-1.3-5.6-1.9c-1.7-0.6-3.4-1.6-5.2-2c-3.2-0.7-6-2.3-9.1-3.4
		c-4.6-1.6-9.1-3.4-13.8-4.5c-3.3-0.8-6.6-2.1-10.1-1.9c-1.6,0.1-3.3-0.4-4.9-0.7c-1.5-0.3-3.2,0.7-4.6-0.7
		c-3.4,0.2-6.9-0.6-10.3,0.4c-0.6,0.2-1.2,0.3-1.8,0.2c-3.1-0.3-5.9,0.9-8.7,1.6c-2.2,0.5-4.4,1.4-6.6,2.2c-2.1,0.9-4.2,1.9-6.2,3
		c-2,1.1-3.9,2.2-5.5,3.8c-0.8,0.7-1.8,1.1-2.5,1.9c-1.3,1.4-2.7,2.8-3.7,4.4c-2,3.5-4.3,6.9-4.5,11.2c0,1.1-0.7,2.3-0.7,3.4
		c0.4,6.1,1.7,11.9,6.4,16.4c2.7,2.6,5.3,5.3,8.7,7.1c3,1.7,6.1,3.4,9.3,4.7c3.1,1.3,6.4,2.1,9.6,3c1.2,0.4,2.5,0.6,3.8,0.8
		c1.2,0.2,2.1,1,3.4,0.8c1.3-0.2,2.7,0.7,3.8,0.6c3.5-0.2,6.8,1.1,10.2,0.9c0.9-0.1,1.8,0,2.6,0c2.3-0.1,4.5,0.2,6.8-0.6
		c2-0.7,4.4,0.6,6.4-0.8c3.2,0.2,6.1-0.9,9.1-1.5c3.3-0.7,6.6-1.5,9.6-3c3-1.5,6.3-2.2,9.4-3.5c3.8-1.6,7.7-3.1,11.7-4.3
		c3.8-1.1,7.3-2.8,11-4.1c3.7-1.4,7.3-3,11-4.2c5.2-1.6,10.2-3.9,15.3-5.6c4.8-1.6,9.6-3.4,14.2-5.4c1.7-0.7,3.4-1.3,5.2-2
		c0.5-0.2,1-0.6,1.9-1.1c-0.9-0.5-1.5-0.9-2.2-1.2c-3.5-1.8-7.2-3.3-10.5-5.4c-4.1-2.6-8.8-4.3-12.7-7.3c-1.1-0.8-2.6-1-3.8-1.6
		c-7-4-14.1-7.8-20.7-12.4c-4.4-3.1-9-6.1-13.2-9.6c-3.9-3.2-7.7-6.6-11-10.3c-3.2-3.7-6.6-7.2-8.8-11.6c-1.7-3.4-3.6-6.8-4.5-10.5
		c-0.1-0.2-0.4-0.4-0.4-0.6c-0.3-2.9-0.9-5.8-0.7-8.7c0.3-3.4,1-6.9,2.4-10.2c1.2-2.9,2.3-5.9,4.3-8.3c3.1-3.8,6.4-7.2,10.7-9.8
		c4.2-2.6,8.8-4,13.4-5.6c1.5-0.5,3.2-0.6,4.8-0.9c2.9-0.6,6-0.7,9.3-1.1c0.5-1,1.1-2.2,1.8-3.5c7.8-14.4,15-29.2,22.2-43.9
		c0.7-1.4,1.6-2.6,2.5-3.9c1.1,0,2.3,0,3.7,0c2.6,5.1,5.4,10.3,7.8,15.7c2.1,4.8,4.8,9.3,6.7,14.1c2.4,6,5.7,11.6,8.3,17.5
		c3,6.6,6.6,13,9.5,19.6c2.7,6.1,6,12,8.6,18.1c1.5,3.7,3.4,7.1,5.7,10.4c2.6,3.8,5.7,5.5,10.1,5.6c0.7,0,1.8-0.7,2.1,0.7
		c-1.1,0.1-0.6,0.9-0.8,1.5c-14.6,0-29.2,0-43.8,0c-0.1,0-0.2,0.1-0.3,0.2c0,0.1,0,0.2,0,0.5C206.4,115.8,220.9,115.8,235.3,115.8z
		 M211,184.1c10.4,5.4,20.6,10.2,30.9,14.8c5.3,2.3,10.5,4.7,15.8,7.1c1.5,0.7,2.9,1.4,4.5,1.9c3.1,1.1,6.1,2.3,9.2,2.9
		c3.3,0.7,6.4,2.5,9.9,2.3c4.2,2,9,1.7,13.4,3c3.7-0.6,7.2,0.9,10.9,0.8c1.4-0.1,2.8,0.1,4.1,0c1.3-0.1,2.5-0.5,3.8-0.7
		c1.9-0.3,3.9,0.4,5.8-0.5c1.7-0.8,3.7-0.3,5.6-0.9c2.7-1,5.6-1.4,8.4-2.3c2.7-0.9,5.4-2,8.1-2.9c6.8-2.2,15.5-8.6,18.9-13.9
		c1.4-2.2,2.8-4.3,3.6-6.7c0.8-2.3,1.3-4.8,1.6-7.2c0.6-5.8-1.5-11.1-4.9-15.5c-2.9-3.8-6.7-6.9-11.1-9.2c-5.8-3-10.7-4.6-17-6
		c-3-0.7-6-1.5-9.1-1.4c-1.5,0.1-3,0.1-4.5,0c-3.5-0.4-6.9,0.3-10.1,0.9c-2.4,0.5-5.2,0.3-7.3,2.1c-6,0.7-11.4,3.3-17,5
		c-6.3,1.9-12.5,4.1-18.7,6.3c-2.4,0.8-4.8,1.6-7.2,2.5c-3.7,1.4-7.3,2.8-11,4.1c-4.6,1.6-9.2,3.2-13.7,4.9
		c-5.6,2.1-11.2,4.2-16.8,6.4C215.1,182.4,213.2,183.2,211,184.1z M171.3,34.2c-0.5,0.2-0.9,0.2-1,0.3c-4.4,8.9-8.8,17.7-13.2,26.6
		c-0.3,0.7-0.3,1.5-0.5,2.1c2.6,0.4,4.9,0.5,7.1,1c2.3,0.6,4.6,0.8,6.8,1.5c2.1,0.7,4.1,1.6,6.1,2.5c2.1,0.9,4.2,1.8,6.4,2.7
		c2,0.8,3.4,2.8,6.1,3.1c-1.2-3.1-2.4-5.7-3.7-8.2c-3-6.2-5.5-12.7-8.6-18.8c-0.7-1.5-1.9-2.8-2.2-4.3
		C174.1,39.6,171.8,37.3,171.3,34.2z"/>
	<path class="st1" d="M343.1,85.7c0-1.9,0-3.2,0-4.4c0-16.8,0-33.7,0-50.5c0-3,0.5-6.1-1.4-9.5c-0.5-0.5-1.6-1.6-2.6-2.6
		c-3.5-0.6-6.9-2-10.5-1.5c-0.4-0.4-0.7-0.7-1.1-1.1c0-0.9,0-1.7,0-2.6c13.7,0,27.2,0,41,0c0,1.3,0.6,2.7-0.8,3.4
		c-3,0.4-5.8,0.5-8.5,1.1c-2.9,0.7-5.6,1.9-6.5,5.3c-0.4,1.6-0.8,3.2-0.8,4.9c0,28.2,0,56.3,0,84.5c0,1.2,0,2.5,0,3.8
		c-1.2,0-2.3,0-3.5,0c-2-1.9-4.2-3.9-6.1-6.2c-3-3.7-6.7-6.9-9.7-10.6c-2.3-2.9-5.3-5.2-7.4-8.1c-2.6-3.7-6.6-6.2-8.8-10.2
		c-0.1-0.2-0.4-0.3-0.5-0.5c-4.6-4.8-9.4-9.5-13.7-14.6c-3-3.5-6.4-6.5-9.2-10c-2.2-2.8-5-5.1-7.2-7.8c-2.9-3.7-6.3-6.9-9.5-10.3
		c-1.1-1.2-2-2.6-3.5-4.7c0,1.6,0,2.3,0,3c0,22.1,0,44.1,0,66.2c0,1.5,0.5,3,0.7,4.3c3.7,5.4,9.4,5.3,14.9,6.1c0,1.1,0,2.2,0,3.4
		c-13,0-26.1,0-39.4,0c-1.2-0.7-1.1-2-0.8-3.4c2.6-0.3,5.3-0.4,7.8-1c2-0.5,4.1-0.9,5.6-2.7c0.6-0.8,1.4-1.4,2-2.1
		c1.6-7.8,0.6-15.6,0.8-23.3c0.1-7.7,0-15.5,0-23.2c0-11.2,0-22.4,0-33.4c-3.5-6.2-8.4-10-15.5-10.5c-0.9-1.3-1-1.3-0.9-3.4
		c9.8,0,19.6,0,29.8,0c1.9,4,6.4,6.2,8.6,10.3c0.2,0.4,0.7,0.7,1,1.1c4.1,4.4,8.6,8.5,12.3,13.3c2.7,3.4,6.4,6,8.6,9.9
		c0.1,0.2,0.4,0.3,0.5,0.5c4.4,4.7,9,9.2,13.2,14c4.7,5.3,9.5,10.6,14.2,15.8C338.5,80.6,340.7,82.8,343.1,85.7z M265.9,27
		c-0.2,0-0.4,0-0.6,0c0,25.3,0,50.5,0,75.8c0,0.1,0.1,0.2,0.2,0.3c0.1,0,0.2,0,0.4,0C265.9,77.7,265.9,52.3,265.9,27z"/>
	<path class="st2" d="M55.7,105c0.8,1.6,1.7,3.3,2.6,5.1c2.8,1.5,5.7,2.9,9.2,2.9c1.8,0,3.7,0.9,5.9,0.6c0.1,0.5,0.2,0.9,0.2,1.4
		c0,0.5,0,1,0,1.6c-18.2,0-36.2,0-54.5,0c0-0.8,0-1.7,0-2.7c2.6-0.3,5.3-0.4,7.8-1c3.2-0.7,6.2-1.9,7.4-5.3c0.6-1.8,1.1-3.6,1.1-5.5
		c-0.1-12,0-23.9,0-35.9c0-11.7,0-23.4,0-35.2c0-3,0.5-6.1-1.4-9.6c-0.4-0.4-1.4-1.4-2.5-2.5c-1.8-0.4-3.8-1-5.9-1.3
		c-2-0.3-4.1-0.3-6.4-0.5c0-1,0-2.2,0-3.6c1.1,0,2.4,0,3.6,0c17.7,0,35.4,0,53.2,0c2.5,0,5,0.4,7.6,0.7c2.4,0.3,4.8,0.4,7.1,0.9
		c2.4,0.5,4.7,1.3,7,2.1c5.5,2,10.4,5.1,13.8,9.8c1.9,2.7,3.5,5.8,3.5,9.4c0,1,0.5,2,0.7,3.1c0.2,1.3-1.5,10.6-2.3,11.8
		c-1.7,2.6-3.1,5.5-5.4,7.5c-4.2,3.6-8.7,7.2-14.7,7.9c-2.4,1.7-5.5,0.9-8.1,2.2c-0.2,0.1-0.5,0-0.7,0c-4.5-0.1-9,1.1-13.5,0.8
		c-4.7-0.3-9.5-0.1-14.1-0.1c-0.3,0.3-0.6,0.6-1,1C55.7,81.9,55.7,93.4,55.7,105z M55.5,62.5c1.7,1.2,3.3,1.9,5.1,1.7
		c2.9-0.2,5.9,0.7,8.7-0.7c3.9,0.3,7.4-1.1,11-2.2c4.7-1.4,8.1-4.5,11.2-8.1c0.7-0.8,1.1-1.8,1.5-2.7c1-2.8,1.8-5.6,1.6-8.7
		c-0.2-2.8,0.1-5.5-0.8-8.3c-1.3-4.1-4.1-7-7.2-9.7c-0.9-0.8-2.3-1.1-3.4-1.5c-1.7-0.7-3.5-1.3-5.2-2c-1.7-0.7-3.6,0.3-5.2-1
		c-0.2-0.2-0.7,0-1.1,0c-4.5,0.2-9.1-0.7-13.4,0.8c-1,0.9-1.9,1.7-2.8,2.6c0.8,5.1-2.2,10.3-0.1,14.9c-0.2,1.5-0.5,2.5-0.5,3.5
		c0,3.6,0.2,7.2-0.1,10.8C54.5,55.6,56.1,59,55.5,62.5z M36.2,102.3c0.2,0,0.4,0,0.6,0c0-25.5,0-51,0-76.5c0-0.1-0.2-0.2-0.2-0.3
		c-0.1,0-0.2,0-0.4,0C36.2,51.1,36.2,76.7,36.2,102.3z"/>
	<path class="st3" d="M235.3,115.8c-14.4,0-28.9,0-43.3,0c0-0.3,0-0.4,0-0.5c0.1-0.1,0.2-0.2,0.3-0.2c14.6,0,29.2,0,43.8,0
		c0,0.2,0,0.5,0,0.8C235.8,115.8,235.5,115.8,235.3,115.8z"/>
	<path class="st4" d="M149.2,115.8c-0.2,0-0.5,0-0.8,0c0-0.8,0-1.5,0-2.2c0.2,0,0.5,0,0.8,0c0,0.2,0,0.5,0,0.8s0,0.5,0,0.8
		C149.2,115.3,149.2,115.6,149.2,115.8z"/>
	<path class="st5" d="M236,115.8c0-0.2,0-0.5,0-0.8c0.1-0.6-0.4-1.4,0.8-1.5C236.5,114.3,237.5,115.5,236,115.8z"/>
	<path class="st3" d="M148.4,113.6c0,0.8,0,1.5,0,2.2c-11.5,0-23,0-34.4,0c0-0.8,0-1.5,0-2.2c0.7,0,1.4,0,2.2,0c0,0.1,0,0.3,0,0.4
		c-0.5,0.2-0.9,0.4-1.4,0.6c0.2,0.6,25.4,0.8,32.8,0.2c-1.4-1.1-3,0-4.7-1C145,113.4,146.7,113.7,148.4,113.6z"/>
	<path class="st3" d="M265.9,27c0,25.4,0,50.7,0,76.1c-0.2,0-0.3,0-0.4,0c-0.1-0.1-0.2-0.2-0.2-0.3c0-25.3,0-50.5,0-75.8
		C265.5,26.9,265.6,27,265.9,27z"/>
	<path class="st3" d="M36.2,102.3c0-25.6,0-51.2,0-76.8c0.2,0,0.3-0.1,0.4,0c0.1,0.1,0.2,0.2,0.2,0.3c0,25.5,0,51,0,76.5
		C36.7,102.2,36.5,102.2,36.2,102.3z"/>
	<path class="st6" d="M114,113.6c0,0.8,0,1.5,0,2.2c-0.2,0-0.5,0-0.8,0C113.5,115.1,112.6,113.9,114,113.6z"/>
</g>
<text transform="matrix(1.1243 0 0 1 16.5005 249.0226)" class="st2 st7 st8">POLSKA AKADEMIA NAUK</text>
</svg>
