<?xml version="1.0" encoding="utf-8"?>
<!-- Generator: Adobe Illustrator 28.2.0, SVG Export Plug-In . SVG Version: 6.00 Build 0)  -->
<svg version="1.1" id="Livello_1" xmlns="http://www.w3.org/2000/svg" xmlns:xlink="http://www.w3.org/1999/xlink" x="0px" y="0px"
	 viewBox="0 0 314.23 320.45" style="enable-background:new 0 0 314.23 320.45;" xml:space="preserve">
<style type="text/css">
	.st0{fill:#FFFEFE;}
	.st1{fill:#FFFFFF;}
	.st2{fill:#EFA29C;}
	.st3{fill:#E87675;}
	.st4{fill:#F7D2CC;}
	.st5{fill:#DC1C3F;}
	.st6{fill:#DC1E3F;}
	.st7{fill:#DC1D3F;}
	.st8{fill:#E66A6B;}
</style>
<g id="c19FTs.tif">
	<g>
		<path class="st0" d="M15.36,192.57c0-59.46,0-118.92,0-178.38c95,0,190,0,285,0c0,96,0,192,0,288c-2.99,0-5.98,0-8.97,0
			c0-0.33,0-0.66,0-1c0.5,0,0.99,0,1.5,0c0.7-0.7,1.41-1.39,2.1-2.11c4.27-4.49,5.4-8.13,2.33-14.25c-1.04-2.08-2.57-3.93-3.95-5.82
			c-3.9-5.35-8.04-10.55-11.71-16.05c-2.96-4.44-6.42-8.51-9.28-13.03c-2.7-4.26-6.06-8.1-9.04-12.19
			c-2.76-3.79-5.39-7.67-7.99-11.39c6.19-6.19,12.16-12.16,17.92-17.92c0.18-1.12,0.28-1.9,0.45-2.67c0.21-0.9,0.68-1.79,0.66-2.68
			c-0.01-0.7-0.74-1.35-0.91-2.08c-0.47-2.11-1.83-3.58-3.18-5.17c-3.96-4.68-3.68-9.01,0.7-13.26c1.09-1.05,2.29-1.98,3.45-2.97
			c0.28-0.11,0.55-0.22,0.83-0.33c-0.28-0.22-0.55-0.45-0.83-0.67c-2.16,0.43-4.32,0.86-7.06,1.4c-3.39,2.25-7.29,4.84-6.97,10.54
			c-7.73,4.16-16.04,6.49-24.39,9.36c-3.23-4.57-6.35-8.93-9.4-13.33c-2.6-3.75-5.61-6.66-10.69-6c-1.29,0.17-2.61,0.02-3.92,0.02
			c-3.98,1.57-5.47,5.2-7.31,8.77c-0.54,4.85,1.38,9.07,4.95,12.59c1.09,1.08,1.37,2.1,0.73,3.34c-4.53,0.47-8.97,0.94-13.98,1.46
			c0.55-2.09,1.35-3.58,1.24-5c-0.56-7.23,1.08-14.32,1.12-21.51c0.03-4.68,0.56-9.36,0.96-14.03c0.17-1.92-0.6-3.62-1.8-4.7
			c-2.79-2.53-4.5-5.81-6.56-8.8c-2.63-3.81-4.98-7.86-7.05-12.01c-1.84-3.69-3.3-7.65-4.42-11.59c-1.68-5.89-3.32-11.91-3.09-18.15
			c0.23-6.01-0.81-12.07,0.9-18.04c0.47-1.62,0.37-3.37,0.9-5.1c0.53-1.72,0.48-3.71,1.15-5.52c3.15-8.51,5.86-17.08,10.8-24.95
			c5.75-9.16,11.52-18.17,19.03-25.83c0.45-3.74,0.88-7.37,1.25-10.43c-4.4-7.78-9.24-7.45-13.83-1.8
			c-0.54,5.18-1.04,9.96-1.52,14.5c-4.9,0.88-9.56,1.72-14.69,2.64c-0.61,0.41-1.82,0.94-2.65,1.84c-2.53,2.72-5.26,5.36-7.27,8.45
			c-3.16,4.85-6.94,9.23-9.78,14.34c-3.53,6.35-6.81,12.76-9.22,19.61c-1.32,3.77-2.36,7.65-3.73,11.41
			c-1.42,3.9-0.91,8.09-2.17,12.04c-0.9,2.8-0.28,18.8,1.08,21.89c0.85,1.92,0.23,3.82,1.1,5.53c1.68,3.32,2.05,7.06,3.62,10.46
			c2.26,4.9,4.29,9.9,7.31,14.39c3.25,4.84,6.69,9.55,10.11,14.4c5.6-0.79,10.96-2.49,16.61-3.05c-0.31,4.09,0.64,7.89-1.06,11.45
			c0.71,6.06-1.07,11.99-1.01,18.02c0.03,3.51,0.35,7.07-1.41,10.11c-2.22,0-4.34,0-6.47,0c-0.62-1.06-1.09-2.07-1.73-2.94
			c-3.96-5.34-8.17-10.52-11.88-16.02c-2.21-3.27-4.7-5.99-8.14-7.73c-3.59-0.1-7.06-0.29-10.23,1.91c-2.61,1.81-5.72,7.3-4.9,10.11
			c0.64,2.19,1.67,4.33,2.88,6.26c1.8,2.86,3.92,5.51,6.29,8.78c-8.36-0.41-16.15-0.8-23.94-1.19c-0.17-0.01-0.39,0.07-0.49-0.01
			c-2.15-1.87-4.72-0.61-7.07-0.99c-2.34-0.38-4.67-0.83-7.72-1.37c-2.69-3.8-5.75-8.2-8.9-12.54c-3-4.12-5.69-8.57-10.68-10.98
			c-2.13,0-4.45,0-6.67,0c-1.81,1.09-4.09,1.74-5.15,3.26c-2.7,3.84-4.63,8.08-1.78,12.84c0.3,0.51,0.26,1.22,0.38,1.83
			c-1.61-0.12-3.32,0.07-4.82-0.4c-6.47-2.05-11.83-5.6-15.6-11.48c-4.35-6.78-5.24-14.07-3.68-22.67c0.7-3.84,2.64-6.93,3.91-10.38
			c1.92-5.25,2.28-10.56,0.81-15.88c-1.3-4.67-4.04-8.15-7.43-11.39c-4.3-4.1-9.52-5.93-15.25-6.47c-2.45-0.23-4.94-0.04-6.73-0.04
			c-1.98,0.97-3.37,1.65-4.43,2.17c-0.96,1.37-1.77,2.51-2.39,3.4c-1.08,4.68,0.89,8.21,4.37,10.21c3.37,1.94,6.43,4.35,9.8,6.3
			c3.02,1.75,6.46,3.69,7.48,7.59c0,2.31,0,4.61,0,6.35c-1.04,1.64-1.68,2.94-2.59,4c-4.65,5.4-9.17,10.93-14.14,16.03
			c-3.17,3.25-5.77,6.71-7.74,10.78c-0.94,1.94-1.55,3.8-1.35,5.92C16.02,192.57,15.69,192.57,15.36,192.57z M257.95,154.34
			c-1.85-2.47-3.32-4.73-5.08-6.72c-5.76-6.49-11.08-17.76-14.01-25.09c-2.07-5.19-2.86-10.77-4.27-16.16
			c0.43-10.37-1-20.78,1.88-31.09c1.83-6.56,3.71-13.05,6.61-19.19c2.11-4.46,4.23-8.92,6.98-13.06c4.1-6.18,7.74-12.68,13.03-18.02
			c1.29-1.3,2.31-2.88,4.15-5.2c-10.46,1.26-19.58,4.46-29.27,5.51c-5.44,4.95-10.04,10.9-14.32,17.18
			c-4.79,7.03-8.58,15.22-13.15,24.94c-3.8,8.08-5.6,16.59-6.54,25.11c-0.97,8.77-0.84,17.77,1.65,26.57
			c1.77,6.24,3.62,12.43,6.3,18.32c1.4,3.08,3.11,6.05,4.92,8.92c3.05,4.82,6.11,9.67,10.6,13.51
			C237.71,159.11,247.5,156.04,257.95,154.34z M119.91,48.34c-3.49,3.9-7.61,7.92-11.01,12.49c-3.16,4.23-6.29,8.55-8.84,13.23
			c-1.48,2.71-3.51,5.22-4.5,8.09c-0.96,2.79-2.42,5.31-3.48,8.03c-1.07,2.72-2.05,5.48-2.89,8.25c-1.31,4.31-2.43,8.73-2.97,13.19
			c-0.49,4.09-0.25,8.29-0.06,12.43c0.18,4.02-0.03,7.98,0.74,12.08c1.25,6.64,3.38,12.85,6.07,18.94
			c4.04,9.16,9.27,17.53,16.81,24.84c9.49-1.86,19.18-3.75,29.03-5.68c0-0.62,0-1.4,0-2.21c-1.15-1.15-2.53-2.17-3.46-3.52
			c-4.58-6.64-9.13-13.27-12.45-20.72c-1.95-4.39-3.5-8.91-4.7-13.47c-1.27-4.87-1.49-10.02-2.2-15.04
			c-0.75-5.41,1.33-10.64,1-16.02c-0.01-0.17-0.06-0.36,0.01-0.49c2.4-4.88,1.67-10.78,4.97-15.37c1.79-7.8,5.85-14.55,9.98-21.26
			c4.61-7.48,9.62-14.67,16.1-20.72c0.63-0.59,1.23-1.22,2.62-2.61C139.73,44.07,130.23,47.01,119.91,48.34z"/>
		<path class="st1" d="M153.87,302.19c-46.17,0-92.34,0-138.51,0c0-34.88,0-69.76,0-104.64c0.33,0,0.66,0,1,0
			c-0.03,4.99,1.93,9.2,5.3,12.72c2.92,3.05,6.1,5.82,9.34,8.56c6.12,5.19,11.7,11.01,17.65,16.41c2.56,2.32,5.47,4.25,8.07,6.24
			c17.21,0,34.11,0,51.02,0c2.36,3.07,5.02,5.9,6.94,9.16c2.82,4.78,6.48,8.9,9.6,13.42c2.59,3.76,5.41,7.37,8.06,11.1
			c3.09,4.35,6.05,8.79,9.17,13.11c3.11,4.3,6.1,8.72,10.21,12.18c0.54,0.46,1.44,0.5,2.17,0.73
			C153.87,301.53,153.87,301.86,153.87,302.19z"/>
		<path class="st0" d="M284.41,302.19c-19.6,0-39.2,0-58.79,0c0-0.33,0-0.66,0-1c0.73-0.23,1.64-0.27,2.17-0.74
			c1.72-1.53,3.29-3.22,4.81-4.73c0-0.55-0.11-0.94,0.02-1.21c2.3-4.66,0.23-8.48-2.4-12.13c-3.14-4.36-6.43-8.61-9.56-12.97
			c-3.66-5.1-7.19-10.3-10.85-15.41c-2.96-4.13-6.02-8.18-9.29-12.61c6.71,0,12.83,0,18.96,0c6.28,0,12.55,0,18.78,0
			c3.61,5.23,7.06,10.32,10.9,15.15c3.41,4.3,6.4,8.94,9.55,13.45c2.25,3.21,4.33,6.55,6.72,9.65c4.22,5.5,8.28,11.09,12.09,16.89
			c1.56,2.37,3.67,4.5,6.91,4.65C284.41,301.53,284.41,301.86,284.41,302.19z"/>
		<path class="st0" d="M218.64,302.19c-19.27,0-38.53,0-57.8,0c0-0.33,0-0.66,0-1c1.09-0.31,4.54-2.34,4.98-2.95
			c2.3-3.19,3.57-6.65,2.77-11.09c-1.23-1.72-2.71-3.74-4.15-5.79c-3.06-4.37-6.1-8.76-9.16-13.14c-2.34-3.35-4.63-6.73-7.05-10.02
			c-4.05-5.51-8.19-10.95-12.52-16.72c12.64,0,24.71,0,36.79,0c0.79,0.91,1.64,1.71,2.27,2.64c2.56,3.74,4.73,7.81,7.65,11.24
			c5.46,6.42,9.85,13.6,14.95,20.27c5.63,7.36,10.76,15.13,16.28,22.59c0.46,0.62,3.89,2.64,4.98,2.95
			C218.64,301.53,218.64,301.86,218.64,302.19z"/>
		<path class="st2" d="M160.85,301.2c0,0.33,0,0.66,0,1c-2.33,0-4.65,0-6.98,0c0-0.33,0-0.66,0-1
			C156.2,301.2,158.52,301.2,160.85,301.2z"/>
		<path class="st2" d="M218.64,302.19c0-0.33,0-0.66,0-1c2.33,0,4.65,0,6.98,0c0,0.33,0,0.66,0,1
			C223.29,302.19,220.97,302.19,218.64,302.19z"/>
		<path class="st3" d="M284.41,302.19c0-0.33,0-0.66,0-1c2.33,0,4.65,0,6.98,0c0,0.33,0,0.66,0,1
			C289.06,302.19,286.74,302.19,284.41,302.19z"/>
		<path class="st4" d="M16.35,197.56c-0.33,0-0.66,0-1,0c0-1.66,0-3.32,0-4.98c0.33,0,0.66,0,1,0
			C16.35,194.24,16.35,195.9,16.35,197.56z"/>
		<path class="st5" d="M16.35,197.56c0-1.66,0-3.32,0-4.98c-0.21-2.13,0.41-3.98,1.35-5.92c1.97-4.07,4.57-7.52,7.74-10.78
			c4.96-5.1,9.49-10.63,14.14-16.03c0.91-1.06,1.54-2.37,2.59-4c0-1.74,0-4.03,0-6.35c-1.02-3.9-4.45-5.84-7.48-7.59
			c-3.37-1.95-6.42-4.35-9.8-6.3c-3.48-2-5.45-5.53-4.37-10.21c0.62-0.89,1.43-2.03,2.39-3.4c1.07-0.52,2.45-1.2,4.43-2.17
			c1.79,0,4.28-0.19,6.73,0.04c5.74,0.54,10.95,2.37,15.25,6.47c3.4,3.24,6.14,6.72,7.43,11.39c1.48,5.32,1.11,10.63-0.81,15.88
			c-1.26,3.45-3.21,6.55-3.91,10.38c-1.56,8.6-0.67,15.89,3.68,22.67c3.77,5.88,9.13,9.43,15.6,11.48c1.5,0.48,3.21,0.29,4.86,0.35
			c-0.02,0.01-0.08,0.08-0.15,0.14c0.23,0.27,0.46,0.54,0.69,0.81c0.1-0.1,0.21-0.21,0.31-0.31c-0.27-0.23-0.54-0.46-0.86-0.64
			c-0.16-0.56-0.12-1.27-0.42-1.78c-2.85-4.76-0.92-9,1.78-12.84c1.06-1.51,3.35-2.16,5.15-3.26c2.22,0,4.54,0,6.67,0
			c4.99,2.41,7.68,6.86,10.68,10.98c3.15,4.33,6.21,8.74,8.9,12.54c3.05,0.55,5.38,0.99,7.72,1.37c2.34,0.39,4.92-0.87,7.07,0.99
			c0.09,0.08,0.32,0,0.49,0.01c7.79,0.39,15.59,0.77,23.94,1.19c-2.37-3.27-4.49-5.92-6.29-8.78c-1.22-1.93-2.24-4.07-2.88-6.26
			c-0.82-2.81,2.29-8.3,4.9-10.11c3.17-2.21,6.64-2.01,10.23-1.91c3.44,1.74,5.93,4.45,8.14,7.73c3.72,5.5,7.92,10.68,11.88,16.02
			c0.65,0.87,1.11,1.87,1.73,2.94c2.13,0,4.25,0,6.47,0c1.77-3.04,1.45-6.61,1.41-10.11c-0.06-6.03,1.72-11.95,1.01-18.02
			c1.7-3.56,0.75-7.35,1.06-11.45c-5.65,0.56-11.01,2.26-16.61,3.05c-3.42-4.85-6.86-9.56-10.11-14.4
			c-3.02-4.49-5.05-9.5-7.31-14.39c-1.57-3.4-1.94-7.14-3.62-10.46c-0.86-1.7-0.25-3.61-1.1-5.53c-1.36-3.09-1.98-19.09-1.08-21.89
			c1.27-3.95,0.75-8.14,2.17-12.04c1.37-3.76,2.4-7.63,3.73-11.41c2.4-6.85,5.69-13.25,9.22-19.61c2.84-5.11,6.62-9.5,9.78-14.34
			c2.01-3.09,4.74-5.72,7.27-8.45c0.83-0.89,2.05-1.43,2.65-1.84c5.13-0.92,9.79-1.76,14.69-2.64c0.48-4.54,0.97-9.32,1.52-14.5
			c4.59-5.65,9.44-5.98,13.83,1.8c-0.37,3.06-0.8,6.7-1.25,10.43c-7.52,7.65-13.29,16.67-19.03,25.83
			c-4.94,7.87-7.65,16.44-10.8,24.95c-0.67,1.81-0.63,3.79-1.15,5.52c-0.53,1.73-0.43,3.48-0.9,5.1c-1.72,5.97-0.68,12.03-0.9,18.04
			c-0.23,6.24,1.41,12.26,3.09,18.15c1.12,3.94,2.58,7.9,4.42,11.59c2.07,4.15,4.42,8.2,7.05,12.01c2.06,2.99,3.77,6.27,6.56,8.8
			c1.2,1.09,1.97,2.78,1.8,4.7c-0.41,4.67-0.94,9.35-0.96,14.03c-0.04,7.19-1.69,14.28-1.12,21.51c0.11,1.42-0.69,2.91-1.24,5
			c5.02-0.52,9.45-0.99,13.98-1.46c0.64-1.24,0.36-2.26-0.73-3.34c-3.57-3.52-5.49-7.74-4.95-12.59c1.84-3.57,3.32-7.2,7.31-8.77
			c1.31,0,2.63,0.14,3.92-0.02c5.09-0.66,8.09,2.25,10.69,6c3.06,4.4,6.18,8.76,9.4,13.33c8.36-2.86,16.66-5.2,24.39-9.36
			c-0.32-5.7,3.58-8.29,6.97-10.54c2.73-0.54,4.89-0.97,7.06-1.4c0,0.33,0,0.66,0,1c-1.15,0.99-2.36,1.91-3.45,2.97
			c-4.38,4.25-4.66,8.58-0.7,13.26c1.34,1.59,2.7,3.06,3.18,5.17c0.16,0.73,0.89,1.38,0.91,2.08c0.02,0.89-0.46,1.78-0.66,2.68
			c-0.17,0.77-0.27,1.56-0.45,2.67c-5.76,5.76-11.73,11.72-17.92,17.92c2.61,3.72,5.24,7.6,7.99,11.39
			c2.98,4.09,6.34,7.93,9.04,12.19c2.86,4.52,6.32,8.59,9.28,13.03c3.67,5.51,7.81,10.7,11.71,16.05c1.38,1.9,2.91,3.74,3.95,5.82
			c3.07,6.11,1.93,9.75-2.33,14.25c-0.68,0.72-1.4,1.41-2.1,2.11c-0.51,0-1.01,0-1.5,0c-2.33,0-4.65,0-6.98,0
			c-3.24-0.15-5.35-2.28-6.91-4.65c-3.81-5.79-7.86-11.39-12.09-16.89c-2.39-3.1-4.47-6.44-6.72-9.65
			c-3.15-4.51-6.14-9.15-9.55-13.45c-3.83-4.83-7.29-9.92-10.9-15.15c-6.23,0-12.51,0-18.78,0c-6.12,0-12.25,0-18.96,0
			c3.27,4.43,6.33,8.48,9.29,12.61c3.66,5.11,7.18,10.31,10.85,15.41c3.13,4.36,6.42,8.62,9.56,12.97c2.63,3.65,4.7,7.46,2.4,12.13
			c-0.13,0.27-0.02,0.66-0.02,1.21c-1.52,1.52-3.09,3.2-4.81,4.73c-0.52,0.47-1.43,0.5-2.17,0.74c-2.33,0-4.65,0-6.98,0
			c-1.09-0.31-4.52-2.33-4.98-2.95c-5.52-7.47-10.66-15.23-16.28-22.59c-5.1-6.67-9.49-13.85-14.95-20.27
			c-2.92-3.43-5.09-7.5-7.65-11.24c-0.64-0.93-1.48-1.73-2.27-2.64c-12.08,0-24.15,0-36.79,0c4.33,5.77,8.46,11.21,12.52,16.72
			c2.42,3.29,4.71,6.67,7.05,10.02c3.06,4.38,6.09,8.76,9.16,13.14c1.44,2.05,2.92,4.07,4.15,5.79c0.8,4.43-0.47,7.9-2.77,11.09
			c-0.44,0.61-3.89,2.64-4.98,2.95c-2.33,0-4.65,0-6.98,0c-0.73-0.23-1.63-0.28-2.17-0.73c-4.11-3.45-7.1-7.88-10.21-12.18
			c-3.12-4.32-6.08-8.77-9.17-13.11c-2.65-3.73-5.47-7.34-8.06-11.1c-3.12-4.53-6.78-8.65-9.6-13.42c-1.92-3.26-4.58-6.09-6.94-9.16
			c-16.91,0-33.81,0-51.02,0c-2.6-1.99-5.51-3.92-8.07-6.24c-5.95-5.4-11.53-11.22-17.65-16.41c-3.24-2.74-6.42-5.51-9.34-8.56
			C18.28,206.75,16.32,202.55,16.35,197.56z"/>
		<path class="st6" d="M257.95,154.34c-10.45,1.7-20.25,4.77-30.53,5.52c-4.49-3.84-7.55-8.68-10.6-13.51
			c-1.81-2.87-3.52-5.83-4.92-8.92c-2.68-5.89-4.54-12.08-6.3-18.32c-2.49-8.79-2.62-17.8-1.65-26.57
			c0.95-8.52,2.74-17.03,6.54-25.11c4.57-9.71,8.36-17.9,13.15-24.94c4.28-6.28,8.88-12.22,14.32-17.18
			c9.69-1.05,18.81-4.25,29.27-5.51c-1.84,2.32-2.86,3.9-4.15,5.2c-5.29,5.33-8.93,11.84-13.03,18.02
			c-2.75,4.14-4.87,8.6-6.98,13.06c-2.9,6.14-4.78,12.63-6.61,19.19c-2.88,10.3-1.44,20.72-1.88,31.09
			c1.41,5.39,2.19,10.98,4.27,16.16c2.93,7.33,8.25,18.6,14.01,25.09C254.64,149.62,256.1,151.88,257.95,154.34z"/>
		<path class="st7" d="M119.91,48.34c10.32-1.33,19.82-4.27,30.76-5.54c-1.39,1.39-1.98,2.02-2.62,2.61
			c-6.47,6.05-11.48,13.23-16.1,20.72c-4.13,6.7-8.18,13.45-9.98,21.26c-3.31,4.59-2.57,10.48-4.97,15.37
			c-0.07,0.13-0.02,0.33-0.01,0.49c0.33,5.38-1.75,10.61-1,16.02c0.7,5.02,0.92,10.17,2.2,15.04c1.19,4.57,2.74,9.08,4.7,13.47
			c3.31,7.45,7.87,14.08,12.45,20.72c0.93,1.34,2.31,2.37,3.46,3.52c0,0.81,0,1.59,0,2.21c-9.85,1.93-19.54,3.82-29.03,5.68
			c-7.54-7.32-12.77-15.68-16.81-24.84c-2.69-6.1-4.82-12.3-6.07-18.94c-0.77-4.1-0.56-8.06-0.74-12.08
			c-0.19-4.14-0.43-8.34,0.06-12.43c0.54-4.46,1.66-8.88,2.97-13.19c0.84-2.77,1.82-5.54,2.89-8.25c1.07-2.71,2.52-5.23,3.48-8.03
			c0.99-2.87,3.02-5.37,4.5-8.09c2.55-4.68,5.68-9,8.84-13.23C112.3,56.27,116.42,52.24,119.91,48.34z"/>
		<path class="st8" d="M274.45,179.62c0-0.33,0-0.66,0-1c0.28,0.22,0.55,0.45,0.83,0.67C275,179.4,274.72,179.51,274.45,179.62z"/>
		<path class="st0" d="M76.23,198.45c0.27,0.23,0.54,0.46,0.81,0.69c-0.1,0.1-0.21,0.21-0.31,0.31c-0.23-0.27-0.46-0.54-0.69-0.81
			C76.1,198.58,76.17,198.51,76.23,198.45z"/>
	</g>
</g>
</svg>
