<?xml version="1.0" encoding="utf-8"?>
<!-- Generator: Adobe Illustrator 28.2.0, SVG Export Plug-In . SVG Version: 6.00 Build 0)  -->
<svg version="1.1" id="Livello_1" xmlns="http://www.w3.org/2000/svg" xmlns:xlink="http://www.w3.org/1999/xlink" x="0px" y="0px"
	 viewBox="0 0 314.2 320.5" style="enable-background:new 0 0 314.2 320.5;" xml:space="preserve">
<style type="text/css">
	.st0{fill:#DC1C3F;}
	.st1{fill:#DC1E3F;}
	.st2{fill:#DC1D3F;}
	.st3{fill:#E66A6B;}
</style>
<g id="c19FTs.tif">
	<g>
		<path class="st0" d="M16.4,197.6c0-1.7,0-3.3,0-5c-0.2-2.1,0.4-4,1.4-5.9c2-4.1,4.6-7.5,7.7-10.8c5-5.1,9.5-10.6,14.1-16
			c0.9-1.1,1.5-2.4,2.6-4c0-1.7,0-4,0-6.4c-1-3.9-4.5-5.8-7.5-7.6c-3.4-1.9-6.4-4.4-9.8-6.3c-3.5-2-5.5-5.5-4.4-10.2
			c0.6-0.9,1.4-2,2.4-3.4c1.1-0.5,2.5-1.2,4.4-2.2c1.8,0,4.3-0.2,6.7,0c5.7,0.5,11,2.4,15.2,6.5c3.4,3.2,6.1,6.7,7.4,11.4
			c1.5,5.3,1.1,10.6-0.8,15.9c-1.3,3.4-3.2,6.6-3.9,10.4c-1.6,8.6-0.7,15.9,3.7,22.7c3.8,5.9,9.1,9.4,15.6,11.5
			c1.5,0.5,3.2,0.3,4.9,0.4c0,0-0.1,0.1-0.2,0.1c0.2,0.3,0.5,0.5,0.7,0.8c0.1-0.1,0.2-0.2,0.3-0.3c-0.3-0.2-0.5-0.5-0.9-0.6
			c-0.2-0.6-0.1-1.3-0.4-1.8c-2.8-4.8-0.9-9,1.8-12.8c1.1-1.5,3.3-2.2,5.2-3.3c2.2,0,4.5,0,6.7,0c5,2.4,7.7,6.9,10.7,11
			c3.2,4.3,6.2,8.7,8.9,12.5c3.1,0.6,5.4,1,7.7,1.4c2.3,0.4,4.9-0.9,7.1,1c0.1,0.1,0.3,0,0.5,0c7.8,0.4,15.6,0.8,23.9,1.2
			c-2.4-3.3-4.5-5.9-6.3-8.8c-1.2-1.9-2.2-4.1-2.9-6.3c-0.8-2.8,2.3-8.3,4.9-10.1c3.2-2.2,6.6-2,10.2-1.9c3.4,1.7,5.9,4.4,8.1,7.7
			c3.7,5.5,7.9,10.7,11.9,16c0.6,0.9,1.1,1.9,1.7,2.9c2.1,0,4.2,0,6.5,0c1.8-3,1.4-6.6,1.4-10.1c-0.1-6,1.7-11.9,1-18
			c1.7-3.6,0.8-7.4,1.1-11.4c-5.6,0.6-11,2.3-16.6,3.1c-3.4-4.9-6.9-9.6-10.1-14.4c-3-4.5-5.1-9.5-7.3-14.4
			c-1.6-3.4-1.9-7.1-3.6-10.5c-0.9-1.7-0.2-3.6-1.1-5.5c-1.4-3.1-2-19.1-1.1-21.9c1.3-3.9,0.8-8.1,2.2-12c1.4-3.8,2.4-7.6,3.7-11.4
			c2.4-6.8,5.7-13.2,9.2-19.6c2.8-5.1,6.6-9.5,9.8-14.3c2-3.1,4.7-5.7,7.3-8.5c0.8-0.9,2.1-1.4,2.6-1.8c5.1-0.9,9.8-1.8,14.7-2.6
			c0.5-4.5,1-9.3,1.5-14.5c4.6-5.6,9.4-6,13.8,1.8c-0.4,3.1-0.8,6.7-1.2,10.4c-7.5,7.7-13.3,16.7-19,25.8c-4.9,7.9-7.6,16.4-10.8,25
			c-0.7,1.8-0.6,3.8-1.1,5.5c-0.5,1.7-0.4,3.5-0.9,5.1c-1.7,6-0.7,12-0.9,18c-0.2,6.2,1.4,12.3,3.1,18.2c1.1,3.9,2.6,7.9,4.4,11.6
			c2.1,4.1,4.4,8.2,7.1,12c2.1,3,3.8,6.3,6.6,8.8c1.2,1.1,2,2.8,1.8,4.7c-0.4,4.7-0.9,9.4-1,14c0,7.2-1.7,14.3-1.1,21.5
			c0.1,1.4-0.7,2.9-1.2,5c5-0.5,9.4-1,14-1.5c0.6-1.2,0.4-2.3-0.7-3.3c-3.6-3.5-5.5-7.7-4.9-12.6c1.8-3.6,3.3-7.2,7.3-8.8
			c1.3,0,2.6,0.1,3.9,0c5.1-0.7,8.1,2.2,10.7,6c3.1,4.4,6.2,8.8,9.4,13.3c8.4-2.9,16.7-5.2,24.4-9.4c-0.3-5.7,3.6-8.3,7-10.5
			c2.7-0.5,4.9-1,7.1-1.4c0,0.3,0,0.7,0,1c-1.1,1-2.4,1.9-3.5,3c-4.4,4.2-4.7,8.6-0.7,13.3c1.3,1.6,2.7,3.1,3.2,5.2
			c0.2,0.7,0.9,1.4,0.9,2.1c0,0.9-0.5,1.8-0.7,2.7c-0.2,0.8-0.3,1.6-0.5,2.7c-5.8,5.8-11.7,11.7-17.9,17.9c2.6,3.7,5.2,7.6,8,11.4
			c3,4.1,6.3,7.9,9,12.2c2.9,4.5,6.3,8.6,9.3,13c3.7,5.5,7.8,10.7,11.7,16c1.4,1.9,2.9,3.7,4,5.8c3.1,6.1,1.9,9.8-2.3,14.2
			c-0.7,0.7-1.4,1.4-2.1,2.1c-0.5,0-1,0-1.5,0c-2.3,0-4.6,0-7,0c-3.2-0.1-5.4-2.3-6.9-4.6c-3.8-5.8-7.9-11.4-12.1-16.9
			c-2.4-3.1-4.5-6.4-6.7-9.6c-3.1-4.5-6.1-9.1-9.6-13.5c-3.8-4.8-7.3-9.9-10.9-15.1c-6.2,0-12.5,0-18.8,0c-6.1,0-12.2,0-19,0
			c3.3,4.4,6.3,8.5,9.3,12.6c3.7,5.1,7.2,10.3,10.9,15.4c3.1,4.4,6.4,8.6,9.6,13c2.6,3.6,4.7,7.5,2.4,12.1c-0.1,0.3,0,0.7,0,1.2
			c-1.5,1.5-3.1,3.2-4.8,4.7c-0.5,0.5-1.4,0.5-2.2,0.7c-2.3,0-4.6,0-7,0c-1.1-0.3-4.5-2.3-5-3c-5.5-7.5-10.7-15.2-16.3-22.6
			c-5.1-6.7-9.5-13.9-14.9-20.3c-2.9-3.4-5.1-7.5-7.6-11.2c-0.6-0.9-1.5-1.7-2.3-2.6c-12.1,0-24.1,0-36.8,0
			c4.3,5.8,8.5,11.2,12.5,16.7c2.4,3.3,4.7,6.7,7.1,10c3.1,4.4,6.1,8.8,9.2,13.1c1.4,2,2.9,4.1,4.1,5.8c0.8,4.4-0.5,7.9-2.8,11.1
			c-0.4,0.6-3.9,2.6-5,3c-2.3,0-4.6,0-7,0c-0.7-0.2-1.6-0.3-2.2-0.7c-4.1-3.5-7.1-7.9-10.2-12.2c-3.1-4.3-6.1-8.8-9.2-13.1
			c-2.6-3.7-5.5-7.3-8.1-11.1c-3.1-4.5-6.8-8.6-9.6-13.4c-1.9-3.3-4.6-6.1-6.9-9.2c-16.9,0-33.8,0-51,0c-2.6-2-5.5-3.9-8.1-6.2
			c-6-5.4-11.5-11.2-17.6-16.4c-3.2-2.7-6.4-5.5-9.3-8.6C18.3,206.8,16.3,202.6,16.4,197.6z"/>
		<path class="st1" d="M258,154.3c-10.4,1.7-20.2,4.8-30.5,5.5c-4.5-3.8-7.6-8.7-10.6-13.5c-1.8-2.9-3.5-5.8-4.9-8.9
			c-2.7-5.9-4.5-12.1-6.3-18.3c-2.5-8.8-2.6-17.8-1.6-26.6c0.9-8.5,2.7-17,6.5-25.1c4.6-9.7,8.4-17.9,13.1-24.9
			c4.3-6.3,8.9-12.2,14.3-17.2c9.7-1,18.8-4.2,29.3-5.5c-1.8,2.3-2.9,3.9-4.1,5.2c-5.3,5.3-8.9,11.8-13,18c-2.8,4.1-4.9,8.6-7,13.1
			c-2.9,6.1-4.8,12.6-6.6,19.2c-2.9,10.3-1.4,20.7-1.9,31.1c1.4,5.4,2.2,11,4.3,16.2c2.9,7.3,8.2,18.6,14,25.1
			C254.6,149.6,256.1,151.9,258,154.3z"/>
		<path class="st2" d="M119.9,48.3c10.3-1.3,19.8-4.3,30.8-5.5c-1.4,1.4-2,2-2.6,2.6c-6.5,6-11.5,13.2-16.1,20.7
			c-4.1,6.7-8.2,13.4-10,21.3c-3.3,4.6-2.6,10.5-5,15.4c-0.1,0.1,0,0.3,0,0.5c0.3,5.4-1.8,10.6-1,16c0.7,5,0.9,10.2,2.2,15
			c1.2,4.6,2.7,9.1,4.7,13.5c3.3,7.4,7.9,14.1,12.5,20.7c0.9,1.3,2.3,2.4,3.5,3.5c0,0.8,0,1.6,0,2.2c-9.9,1.9-19.5,3.8-29,5.7
			c-7.5-7.3-12.8-15.7-16.8-24.8c-2.7-6.1-4.8-12.3-6.1-18.9c-0.8-4.1-0.6-8.1-0.7-12.1c-0.2-4.1-0.4-8.3,0.1-12.4
			c0.5-4.5,1.7-8.9,3-13.2c0.8-2.8,1.8-5.5,2.9-8.2s2.5-5.2,3.5-8c1-2.9,3-5.4,4.5-8.1c2.6-4.7,5.7-9,8.8-13.2
			C112.3,56.3,116.4,52.2,119.9,48.3z"/>
		<path class="st3" d="M274.5,179.6c0-0.3,0-0.7,0-1c0.3,0.2,0.5,0.4,0.8,0.7C275,179.4,274.7,179.5,274.5,179.6z"/>
	</g>
</g>
</svg>
