<?xml version="1.0" encoding="UTF-8" standalone="no"?>
<!-- Generator: Adobe Illustrator 28.2.0, SVG Export Plug-In . SVG Version: 6.00 Build 0)  -->

<svg
   version="1.1"
   id="Livello_1"
   x="0px"
   y="0px"
   viewBox="0 0 60.000002 60.000002"
   xml:space="preserve"
   sodipodi:docname="fortress.svg"
   width="60"
   height="60"
   inkscape:version="1.3.2 (091e20e, 2023-11-25)"
   xmlns:inkscape="http://www.inkscape.org/namespaces/inkscape"
   xmlns:sodipodi="http://sodipodi.sourceforge.net/DTD/sodipodi-0.dtd"
   xmlns="http://www.w3.org/2000/svg"
   xmlns:svg="http://www.w3.org/2000/svg"><defs
   id="defs35" /><sodipodi:namedview
   id="namedview35"
   pagecolor="#ffffff"
   bordercolor="#000000"
   borderopacity="0.25"
   inkscape:showpageshadow="2"
   inkscape:pageopacity="0.0"
   inkscape:pagecheckerboard="0"
   inkscape:deskcolor="#d1d1d1"
   inkscape:zoom="0.81300282"
   inkscape:cx="4.3050281"
   inkscape:cy="11.685076"
   inkscape:window-width="1464"
   inkscape:window-height="916"
   inkscape:window-x="54"
   inkscape:window-y="38"
   inkscape:window-maximized="0"
   inkscape:current-layer="Livello_1"><inkscape:page
     x="-8.8504306e-09"
     y="-1.2095137e-06"
     width="60"
     height="60"
     id="page41"
     margin="0"
     bleed="0" /></sodipodi:namedview>
<style
   type="text/css"
   id="style1">
	.st0{fill-rule:evenodd;clip-rule:evenodd;}
	.st1{fill-rule:evenodd;clip-rule:evenodd;fill:#FFFFFF;fill-opacity:0;}
	.st2{fill-rule:evenodd;clip-rule:evenodd;fill:#FFFFFF;}
	
		.st3{fill-rule:evenodd;clip-rule:evenodd;fill:#FFFFFF;fill-opacity:0;stroke:#FFFFFF;stroke-width:0.7072;stroke-linecap:round;stroke-linejoin:bevel;stroke-miterlimit:10;}
	
		.st4{fill-rule:evenodd;clip-rule:evenodd;fill:#FFFFFF;fill-opacity:0;stroke:#FFFFFF;stroke-width:0.7076;stroke-linecap:round;stroke-linejoin:bevel;stroke-miterlimit:10;}
	.st5{fill:none;stroke:#FFFFFF;stroke-width:1.0606;stroke-linecap:round;stroke-linejoin:bevel;stroke-miterlimit:10;}
	.st6{fill:none;stroke:#FFFFFF;stroke-width:1.4135;stroke-linecap:round;stroke-linejoin:bevel;stroke-miterlimit:10;}
	
		.st7{fill-rule:evenodd;clip-rule:evenodd;fill:#FFFFFF;fill-opacity:0;stroke:#FFFFFF;stroke-linecap:round;stroke-linejoin:bevel;stroke-miterlimit:1.5;}
	
		.st8{fill-rule:evenodd;clip-rule:evenodd;fill:#FFFFFF;fill-opacity:0;stroke:#FFFFFF;stroke-width:0.7071;stroke-linecap:round;stroke-linejoin:bevel;stroke-miterlimit:10;}
	.st9{fill:#FFFFFF;}
	.st10{font-family:'ArialMT';}
	.st11{font-size:8.4845px;}
</style>
<g
   inkscape:groupmode="layer"
   id="layer1"
   inkscape:label="Black"
   transform="translate(-2.8657221,-391.63408)" />






<g
   id="Fortress"
   transform="matrix(1.171875,0,0,1.0791367,-1126.4062,1184.2985)"
   style="fill:#ffffff;fill-opacity:0.80000001;stroke:#1e1e1e;stroke-opacity:1">
	<path
   class="st1"
   d="m 974.8,-1089.8 -0.1,8 4.3,8.1 v 24.3 h 15.8 v -24.3 l 4.1,-8.1 v -8 H 994 v 3.8 h -5 l 0.1,-3.8 h -4.5 l -0.1,3.8 h -4.8 l 0.1,-3.8 z"
   id="path12"
   style="fill:#ffffff;fill-opacity:0.80000001;stroke:#1e1e1e;stroke-opacity:1" />
	<path
   class="st2"
   d="m 974.8,-1090.5 c -0.4,0 -0.7,0.3 -0.7,0.7 l -0.1,8 c 0,0.1 0,0.2 0.1,0.3 l 4.2,7.9 v 24.1 c 0,0.2 0.1,0.4 0.2,0.5 0.1,0.1 0.3,0.2 0.5,0.2 h 15.8 c 0.2,0 0.4,-0.1 0.5,-0.2 0.1,-0.1 0.2,-0.3 0.2,-0.5 v -24.1 l 4,-7.9 c 0.1,-0.1 0.1,-0.2 0.1,-0.3 v -8 c 0,-0.4 -0.3,-0.7 -0.7,-0.7 H 994 c -0.4,0 -0.7,0.3 -0.7,0.7 v 3.1 h -3.6 v -3.1 c 0,-0.2 -0.1,-0.4 -0.2,-0.5 -0.1,-0.1 -0.3,-0.2 -0.5,-0.2 h -4.5 c -0.4,0 -0.7,0.3 -0.7,0.7 v 3.1 h -3.4 l 0.1,-3.1 c 0,-0.2 -0.1,-0.4 -0.2,-0.5 -0.1,-0.1 -0.3,-0.2 -0.5,-0.2 z m 0,0.7 -0.1,8 4.3,8.1 v 24.3 h 15.8 v -24.3 l 4.1,-8.1 v -8 H 994 v 3.8 h -5 l 0.1,-3.8 h -4.5 l -0.1,3.8 h -4.8 l 0.1,-3.8 z"
   id="path13"
   style="fill:#ffffff;fill-opacity:0.80000001;stroke:#1e1e1e;stroke-opacity:1" />
</g>










</svg>
