<?xml version="1.0" encoding="UTF-8" standalone="no"?>
<!-- Generator: Adobe Illustrator 28.2.0, SVG Export Plug-In . SVG Version: 6.00 Build 0)  -->

<svg
   version="1.1"
   id="Livello_1"
   x="0px"
   y="0px"
   viewBox="0 0 59.999998 59.999998"
   xml:space="preserve"
   sodipodi:docname="isolated-building.svg"
   width="59.999996"
   height="59.999996"
   inkscape:version="1.3.2 (091e20e, 2023-11-25)"
   xmlns:inkscape="http://www.inkscape.org/namespaces/inkscape"
   xmlns:sodipodi="http://sodipodi.sourceforge.net/DTD/sodipodi-0.dtd"
   xmlns="http://www.w3.org/2000/svg"
   xmlns:svg="http://www.w3.org/2000/svg"><defs
   id="defs35" /><sodipodi:namedview
   id="namedview35"
   pagecolor="#ffffff"
   bordercolor="#000000"
   borderopacity="0.25"
   inkscape:showpageshadow="2"
   inkscape:pageopacity="0.0"
   inkscape:pagecheckerboard="0"
   inkscape:deskcolor="#d1d1d1"
   inkscape:zoom="0.86825115"
   inkscape:cx="8.6380536"
   inkscape:cy="293.11795"
   inkscape:window-width="1464"
   inkscape:window-height="916"
   inkscape:window-x="54"
   inkscape:window-y="38"
   inkscape:window-maximized="0"
   inkscape:current-layer="Livello_1"><inkscape:page
     x="-5.4718288e-07"
     y="-7.6762198e-08"
     width="60"
     height="60"
     id="page36"
     margin="0"
     bleed="0" /><inkscape:page
     x="-0.36100823"
     y="76.733513"
     width="60"
     height="60"
     id="page37"
     margin="0"
     bleed="0" /><inkscape:page
     x="0.53955024"
     y="152.75446"
     width="60"
     height="60"
     id="page38"
     margin="0"
     bleed="0" /><inkscape:page
     x="1.3516992"
     y="230.36531"
     width="60"
     height="60"
     id="page39"
     margin="0"
     bleed="0" /><inkscape:page
     x="2.666656"
     y="311.98792"
     width="60"
     height="60"
     id="page40"
     margin="0"
     bleed="0" /><inkscape:page
     x="2.8657222"
     y="391.63409"
     width="60"
     height="60"
     id="page41"
     margin="0"
     bleed="0" /><inkscape:page
     x="3.3627315"
     y="469.86063"
     width="60"
     height="60"
     id="page42"
     margin="0"
     bleed="0" /><inkscape:page
     x="2.6612391"
     y="549.5733"
     width="60"
     height="60"
     id="page43"
     margin="0"
     bleed="0" /><inkscape:page
     x="-76.355209"
     y="152.47362"
     width="60"
     height="60"
     id="page44"
     margin="0"
     bleed="0" /></sodipodi:namedview>
<style
   type="text/css"
   id="style1">
	.st0{fill-rule:evenodd;clip-rule:evenodd;}
	.st1{fill-rule:evenodd;clip-rule:evenodd;fill:#FFFFFF;fill-opacity:0;}
	.st2{fill-rule:evenodd;clip-rule:evenodd;fill:#FFFFFF;}
	
		.st3{fill-rule:evenodd;clip-rule:evenodd;fill:#FFFFFF;fill-opacity:0;stroke:#FFFFFF;stroke-width:0.7072;stroke-linecap:round;stroke-linejoin:bevel;stroke-miterlimit:10;}
	
		.st4{fill-rule:evenodd;clip-rule:evenodd;fill:#FFFFFF;fill-opacity:0;stroke:#FFFFFF;stroke-width:0.7076;stroke-linecap:round;stroke-linejoin:bevel;stroke-miterlimit:10;}
	.st5{fill:none;stroke:#FFFFFF;stroke-width:1.0606;stroke-linecap:round;stroke-linejoin:bevel;stroke-miterlimit:10;}
	.st6{fill:none;stroke:#FFFFFF;stroke-width:1.4135;stroke-linecap:round;stroke-linejoin:bevel;stroke-miterlimit:10;}
	
		.st7{fill-rule:evenodd;clip-rule:evenodd;fill:#FFFFFF;fill-opacity:0;stroke:#FFFFFF;stroke-linecap:round;stroke-linejoin:bevel;stroke-miterlimit:1.5;}
	
		.st8{fill-rule:evenodd;clip-rule:evenodd;fill:#FFFFFF;fill-opacity:0;stroke:#FFFFFF;stroke-width:0.7071;stroke-linecap:round;stroke-linejoin:bevel;stroke-miterlimit:10;}
	.st9{fill:#FFFFFF;}
	.st10{font-family:'ArialMT';}
	.st11{font-size:8.4845px;}
</style>
<g
   inkscape:groupmode="layer"
   id="layer1"
   inkscape:label="Black"><rect
     x="412.20001"
     y="663.70001"
     class="st0"
     width="363.70001"
     height="482.60001"
     id="rect1-3-4-3-7-40"
     style="clip-rule:evenodd;fill-rule:evenodd"
     transform="matrix(0.16497112,0,0,0.12432656,-65.33986,467.05778)" /><rect
     x="412.20001"
     y="663.70001"
     class="st0"
     width="363.70001"
     height="482.60001"
     id="rect1-3-4"
     style="clip-rule:evenodd;fill-rule:evenodd"
     transform="matrix(0.16497112,0,0,0.12432656,-67.46154,70.238915)" /><rect
     x="412.20001"
     y="663.70001"
     class="st0"
     width="363.70001"
     height="482.60001"
     id="rect1-3-4-9"
     style="clip-rule:evenodd;fill-rule:evenodd"
     transform="matrix(0.16497112,0,0,0.12432656,-144.35631,69.958064)" /><rect
     x="412.20001"
     y="663.70001"
     class="st0"
     width="363.70001"
     height="482.60001"
     id="rect1-3-4-3"
     style="clip-rule:evenodd;fill-rule:evenodd"
     transform="matrix(0.16497112,0,0,0.12432656,-66.64939,147.84975)" /><rect
     x="412.20001"
     y="663.70001"
     class="st0"
     width="363.70001"
     height="482.60001"
     id="rect1-3-4-3-7"
     style="clip-rule:evenodd;fill-rule:evenodd"
     transform="matrix(0.16497112,0,0,0.12432656,-65.33444,229.47236)" /><rect
     x="412.20001"
     y="663.70001"
     class="st0"
     width="363.70001"
     height="482.60001"
     id="rect1-3-4-3-7-5"
     style="clip-rule:evenodd;fill-rule:evenodd"
     transform="matrix(0.16497112,0,0,0.12432656,-65.13538,309.11853)" /><rect
     x="412.20001"
     y="663.70001"
     class="st0"
     width="363.70001"
     height="482.60001"
     id="rect1-3-4-3-7-4"
     style="clip-rule:evenodd;fill-rule:evenodd"
     transform="matrix(0.16497112,0,0,0.12432656,-64.63836,387.34507)" /></g>


<g
   id="RockArt1"
   transform="matrix(0.95934098,0,0,0.95934098,-530.54158,336.15305)">
	<circle
   class="st3"
   cx="505.29999"
   cy="-159.60001"
   r="23.1"
   id="circle4" />
</g>
<g
   id="RockArt2"
   transform="matrix(0.68641841,-0.50846142,0.48556742,0.71878233,-164.8597,714.93199)">
	<path
   class="st1"
   d="m 546,-384.4 14.3,10.4 -7.2,9.8 11.6,3.8 -5.5,16.8 -11.6,-3.8 v 12.2 H 530 v -12.2 l -11.6,3.8 -5.5,-16.8 11.6,-3.8 -7.2,-9.8 14.3,-10.4 7.2,9.8 z"
   id="path5" />
	<path
   class="st2"
   d="m 546.5,-385.1 c -0.4,-0.3 -1,-0.2 -1.2,0.2 l -6.4,8.8 -6.4,-8.8 c -0.3,-0.4 -0.8,-0.5 -1.2,-0.2 l -14.3,10.4 c -0.4,0.3 -0.5,0.9 -0.2,1.2 l 6.4,8.9 -10.4,3.4 c -0.5,0.2 -0.7,0.7 -0.6,1.1 l 5.5,16.8 c 0.2,0.5 0.7,0.7 1.1,0.6 l 10.4,-3.4 v 10.9 c 0,0.5 0.4,0.9 0.9,0.9 h 17.7 c 0.5,0 0.9,-0.4 0.9,-0.9 v -10.9 l 10.4,3.4 c 0.5,0.2 1,-0.1 1.1,-0.6 l 5.5,-16.8 c 0.2,-0.5 -0.1,-1 -0.6,-1.1 l -10.4,-3.4 6.4,-8.9 c 0.3,-0.4 0.2,-1 -0.2,-1.2 z m -0.5,0.7 14.3,10.4 -7.2,9.8 11.6,3.8 -5.5,16.8 -11.6,-3.8 v 12.2 H 530 v -12.2 l -11.6,3.8 -5.5,-16.8 11.6,-3.8 -7.2,-9.8 14.3,-10.4 7.2,9.8 z"
   id="path6" />
</g>
<g
   id="Inscriptions"
   transform="matrix(1.0567252,0,0,1.0977146,-352.3431,744.73186)">
	<g
   transform="translate(-455.802)"
   id="g7">
		<path
   class="st4"
   d="m 835.1,-453.3 c 0,-4.5 -3.6,-8.1 -8.1,-8.1 h -16.2 c -4.5,0 -8.1,3.6 -8.1,8.1 v 24.1 c 0,4.5 3.6,8.1 8.1,8.1 H 827 c 4.5,0 8.1,-3.6 8.1,-8.1 z"
   id="path7" />
	</g>
	<g
   transform="translate(-459.676,-14.7466)"
   id="g8">
		<path
   class="st5"
   d="m 813.2,-435.2 h 19.1"
   id="path8" />
	</g>
	<g
   transform="translate(-459.676,36.0634)"
   id="g9">
		<path
   class="st5"
   d="m 813.2,-477.3 h 19.1"
   id="path9" />
	</g>
	<g
   transform="translate(-459.676,87.0431)"
   id="g10">
		<path
   class="st6"
   d="m 813.2,-519.7 h 19.1"
   id="path10" />
	</g>
</g>
<g
   id="Pyramid"
   transform="matrix(1.1566705,0,0,1.1623542,-1524.0962,1007.0426)">
	<path
   class="st7"
   d="m 1345.9,-591.3 19,38 h -38 z"
   id="path11" />
</g>
<g
   id="Fortress"
   transform="matrix(1.171875,0,0,1.0791367,-1123.5405,1575.9326)">
	<path
   class="st1"
   d="m 974.8,-1089.8 -0.1,8 4.3,8.1 v 24.3 h 15.8 v -24.3 l 4.1,-8.1 v -8 H 994 v 3.8 h -5 l 0.1,-3.8 h -4.5 l -0.1,3.8 h -4.8 l 0.1,-3.8 z"
   id="path12" />
	<path
   class="st2"
   d="m 974.8,-1090.5 c -0.4,0 -0.7,0.3 -0.7,0.7 l -0.1,8 c 0,0.1 0,0.2 0.1,0.3 l 4.2,7.9 v 24.1 c 0,0.2 0.1,0.4 0.2,0.5 0.1,0.1 0.3,0.2 0.5,0.2 h 15.8 c 0.2,0 0.4,-0.1 0.5,-0.2 0.1,-0.1 0.2,-0.3 0.2,-0.5 v -24.1 l 4,-7.9 c 0.1,-0.1 0.1,-0.2 0.1,-0.3 v -8 c 0,-0.4 -0.3,-0.7 -0.7,-0.7 H 994 c -0.4,0 -0.7,0.3 -0.7,0.7 v 3.1 h -3.6 v -3.1 c 0,-0.2 -0.1,-0.4 -0.2,-0.5 -0.1,-0.1 -0.3,-0.2 -0.5,-0.2 h -4.5 c -0.4,0 -0.7,0.3 -0.7,0.7 v 3.1 h -3.4 l 0.1,-3.1 c 0,-0.2 -0.1,-0.4 -0.2,-0.5 -0.1,-0.1 -0.3,-0.2 -0.5,-0.2 z m 0,0.7 -0.1,8 4.3,8.1 v 24.3 h 15.8 v -24.3 l 4.1,-8.1 v -8 H 994 v 3.8 h -5 l 0.1,-3.8 h -4.5 l -0.1,3.8 h -4.8 l 0.1,-3.8 z"
   id="path13" />
</g>
<g
   id="Harbor"
   transform="matrix(0.41098916,0,0,1.0141457,-391.43566,1850.5871)">
	<path
   class="st7"
   d="m 1013.7,-1323.1 19.9,-30.7 19.7,30.4 c 13.8,-0.7 28.7,-1.6 28.7,-1.6 0,0 -21.7,14.8 -48.4,14.8 -26.7,0 -48.4,-14.8 -48.4,-14.8 0,0 14.2,1.2 28.5,1.9 z"
   id="path14" />
</g>









<g
   transform="matrix(0.78183981,0,0,0.78183981,-1324.6908,1866.4817)"
   id="Isolated_scatter_of_finds"
   inkscape:label="Isolated scatter of finds">
	<path
   class="st8"
   d="m 1736.1,-1674.7 4.2,18.5 16.1,-10.1 -10.1,16.1 18.5,4.2 -18.5,4.2 10.1,16.1 -16.1,-10.1 -4.2,18.5 -4.2,-18.5 -16.1,10.1 10.1,-16.1 -18.5,-4.2 18.5,-4.2 -10.1,-16.1 16.1,10.1 z"
   id="path15" />
</g></svg>
