<?xml version="1.0" encoding="UTF-8" standalone="no"?>
<!-- Generator: Adobe Illustrator 28.2.0, SVG Export Plug-In . SVG Version: 6.00 Build 0)  -->

<svg
   version="1.1"
   id="Livello_1"
   x="0px"
   y="0px"
   viewBox="0 0 60.000002 60.000002"
   xml:space="preserve"
   sodipodi:docname="rock-art.svg"
   width="60"
   height="60"
   inkscape:version="1.3.2 (091e20e, 2023-11-25)"
   xmlns:inkscape="http://www.inkscape.org/namespaces/inkscape"
   xmlns:sodipodi="http://sodipodi.sourceforge.net/DTD/sodipodi-0.dtd"
   xmlns="http://www.w3.org/2000/svg"
   xmlns:svg="http://www.w3.org/2000/svg"><defs
   id="defs35" /><sodipodi:namedview
   id="namedview35"
   pagecolor="#ffffff"
   bordercolor="#000000"
   borderopacity="0.25"
   inkscape:showpageshadow="2"
   inkscape:pageopacity="0.0"
   inkscape:pagecheckerboard="0"
   inkscape:deskcolor="#d1d1d1"
   inkscape:zoom="1.8306599"
   inkscape:cx="-113.89336"
   inkscape:cy="212.21855"
   inkscape:window-width="1464"
   inkscape:window-height="916"
   inkscape:window-x="54"
   inkscape:window-y="38"
   inkscape:window-maximized="0"
   inkscape:current-layer="Livello_1"><inkscape:page
     x="-1.6663346e-09"
     y="-4.7176334e-07"
     width="60"
     height="60"
     id="page38"
     margin="0"
     bleed="0" /></sodipodi:namedview>
<style
   type="text/css"
   id="style1">
	.st0{fill-rule:evenodd;clip-rule:evenodd;}
	.st1{fill-rule:evenodd;clip-rule:evenodd;fill:#FFFFFF;fill-opacity:0;}
	.st2{fill-rule:evenodd;clip-rule:evenodd;fill:#FFFFFF;}
	
		.st3{fill-rule:evenodd;clip-rule:evenodd;fill:#FFFFFF;fill-opacity:0;stroke:#FFFFFF;stroke-width:0.7072;stroke-linecap:round;stroke-linejoin:bevel;stroke-miterlimit:10;}
	
		.st4{fill-rule:evenodd;clip-rule:evenodd;fill:#FFFFFF;fill-opacity:0;stroke:#FFFFFF;stroke-width:0.7076;stroke-linecap:round;stroke-linejoin:bevel;stroke-miterlimit:10;}
	.st5{fill:none;stroke:#FFFFFF;stroke-width:1.0606;stroke-linecap:round;stroke-linejoin:bevel;stroke-miterlimit:10;}
	.st6{fill:none;stroke:#FFFFFF;stroke-width:1.4135;stroke-linecap:round;stroke-linejoin:bevel;stroke-miterlimit:10;}
	
		.st7{fill-rule:evenodd;clip-rule:evenodd;fill:#FFFFFF;fill-opacity:0;stroke:#FFFFFF;stroke-linecap:round;stroke-linejoin:bevel;stroke-miterlimit:1.5;}
	
		.st8{fill-rule:evenodd;clip-rule:evenodd;fill:#FFFFFF;fill-opacity:0;stroke:#FFFFFF;stroke-width:0.7071;stroke-linecap:round;stroke-linejoin:bevel;stroke-miterlimit:10;}
	.st9{fill:#FFFFFF;}
	.st10{font-family:'ArialMT';}
	.st11{font-size:8.4845px;}
</style>
<g
   inkscape:groupmode="layer"
   id="layer1"
   inkscape:label="Black"
   transform="translate(-0.53955023,-152.75445)" />



<g
   id="RockArt2"
   transform="matrix(0.68641841,-0.50846142,0.48556742,0.71878233,-165.39925,562.17754)"
   style="fill:#ffffff;fill-opacity:0.80000001;stroke:#1e1e1e;stroke-opacity:1">
	<path
   class="st1"
   d="m 546,-384.4 14.3,10.4 -7.2,9.8 11.6,3.8 -5.5,16.8 -11.6,-3.8 v 12.2 H 530 v -12.2 l -11.6,3.8 -5.5,-16.8 11.6,-3.8 -7.2,-9.8 14.3,-10.4 7.2,9.8 z"
   id="path5"
   style="fill:#ffffff;fill-opacity:0.80000001;stroke:#1e1e1e;stroke-opacity:1" />
	<path
   class="st2"
   d="m 546.5,-385.1 c -0.4,-0.3 -1,-0.2 -1.2,0.2 l -6.4,8.8 -6.4,-8.8 c -0.3,-0.4 -0.8,-0.5 -1.2,-0.2 l -14.3,10.4 c -0.4,0.3 -0.5,0.9 -0.2,1.2 l 6.4,8.9 -10.4,3.4 c -0.5,0.2 -0.7,0.7 -0.6,1.1 l 5.5,16.8 c 0.2,0.5 0.7,0.7 1.1,0.6 l 10.4,-3.4 v 10.9 c 0,0.5 0.4,0.9 0.9,0.9 h 17.7 c 0.5,0 0.9,-0.4 0.9,-0.9 v -10.9 l 10.4,3.4 c 0.5,0.2 1,-0.1 1.1,-0.6 l 5.5,-16.8 c 0.2,-0.5 -0.1,-1 -0.6,-1.1 l -10.4,-3.4 6.4,-8.9 c 0.3,-0.4 0.2,-1 -0.2,-1.2 z m -0.5,0.7 14.3,10.4 -7.2,9.8 11.6,3.8 -5.5,16.8 -11.6,-3.8 v 12.2 H 530 v -12.2 l -11.6,3.8 -5.5,-16.8 11.6,-3.8 -7.2,-9.8 14.3,-10.4 7.2,9.8 z"
   id="path6"
   style="fill:#ffffff;fill-opacity:0.80000001;stroke:#1e1e1e;stroke-opacity:1" />
</g>













</svg>
