<?xml version="1.0" encoding="UTF-8" standalone="no"?>
<!-- Generator: Adobe Illustrator 28.2.0, SVG Export Plug-In . SVG Version: 6.00 Build 0)  -->

<svg
   version="1.1"
   id="Livello_1"
   x="0px"
   y="0px"
   viewBox="0 0 60.000002 60.000002"
   xml:space="preserve"
   sodipodi:docname="settlement.svg"
   width="60"
   height="60"
   inkscape:version="1.3.2 (091e20e, 2023-11-25)"
   xmlns:inkscape="http://www.inkscape.org/namespaces/inkscape"
   xmlns:sodipodi="http://sodipodi.sourceforge.net/DTD/sodipodi-0.dtd"
   xmlns="http://www.w3.org/2000/svg"
   xmlns:svg="http://www.w3.org/2000/svg"><defs
   id="defs35" /><sodipodi:namedview
   id="namedview35"
   pagecolor="#ffffff"
   bordercolor="#000000"
   borderopacity="0.25"
   inkscape:showpageshadow="2"
   inkscape:pageopacity="0.0"
   inkscape:pagecheckerboard="0"
   inkscape:deskcolor="#d1d1d1"
   inkscape:zoom="2.1313757"
   inkscape:cx="179.93074"
   inkscape:cy="-11.964104"
   inkscape:window-width="1464"
   inkscape:window-height="916"
   inkscape:window-x="54"
   inkscape:window-y="38"
   inkscape:window-maximized="0"
   inkscape:current-layer="Livello_1"><inkscape:page
     x="1.689907e-15"
     y="2.370706e-16"
     width="60"
     height="60"
     id="page36"
     margin="0"
     bleed="0" /></sodipodi:namedview>
<g
   inkscape:groupmode="layer"
   id="layer1"
   inkscape:label="Black" />
<g
   id="Settlemen"
   transform="matrix(1.0802469,0,0,1.0250569,217.63888,-563.35419)"
   inkscape:label="Settlement"
   style="stroke:#1e1e1e;stroke-opacity:1;fill:#ffffff;fill-opacity:0.8">
	<path
   class="st1"
   d="m -158.3,573.3 v 26.8 h -30.9 v -26.8 l 15.5,-15.7 z"
   id="path1"
   style="stroke:#1e1e1e;stroke-opacity:1;fill:#ffffff;fill-opacity:0.6" />
	<path
   class="st2"
   d="m -157.5,573.3 c 0,-0.2 -0.1,-0.4 -0.2,-0.5 l -15.5,-15.7 c -0.1,-0.1 -0.3,-0.2 -0.5,-0.2 -0.2,0 -0.4,0.1 -0.5,0.2 l -15.5,15.7 c -0.1,0.1 -0.2,0.3 -0.2,0.5 v 26.8 c 0,0.4 0.3,0.7 0.7,0.7 h 30.9 c 0.4,0 0.7,-0.3 0.7,-0.7 v -26.8 z m -0.8,0 v 26.8 h -30.9 v -26.8 l 15.5,-15.7 z"
   id="path2"
   style="stroke:#1e1e1e;stroke-opacity:1;fill:#ffffff;fill-opacity:0.6" />
</g>
















</svg>
